<?xml version="1.0" encoding="utf-8"?>
<!-- Generator: Adobe Illustrator 19.2.0, SVG Export Plug-In . SVG Version: 6.00 Build 0)  -->
<!DOCTYPE svg PUBLIC "-//W3C//DTD SVG 1.1//EN" "http://www.w3.org/Graphics/SVG/1.1/DTD/svg11.dtd">
<svg version="1.1" id="Outline_Icons" xmlns="http://www.w3.org/2000/svg" xmlns:xlink="http://www.w3.org/1999/xlink" x="0px"
	 y="0px" viewBox="0 0 24 24" style="enable-background:new 0 0 24 24;" xml:space="preserve">
<style type="text/css">
	.st0{fill:none;stroke:#3E3832;stroke-linecap:round;stroke-linejoin:round;stroke-miterlimit:10;}
	.st1{fill:none;stroke:#3E3832;stroke-linejoin:round;stroke-miterlimit:10;}
</style>
<g>
	<path class="st0" d="M12,16.5c1.5,0,5-2,5-5c1.5,0,1.5-3,0-3L16.5,6c-4,0-4-1.5-4.5-2c-0.5,0.5-0.5,2-4.5,2L7,8.5c-1.5,0-1.5,3,0,3
		C7,14.5,10.5,16.5,12,16.5z"/>
	<path class="st0" d="M18,9.3l0.5-3.8c0,0,0.5-5-6.5-5s-6.5,5-6.5,5L6,9.3"/>
	<path class="st0" d="M9.5,15.5l-6.4,1.7c-1.6,0.6-2.6,2.1-2.6,3.7v2.5h23V21c0-1.7-1-3.2-2.6-3.7l-6.3-1.8"/>
	<path class="st0" d="M9,9.5C9,8.9,9.4,9,10,9s1-0.1,1,0.5"/>
	<path class="st0" d="M13,9.5C13,8.9,13.4,9,14,9s1-0.1,1,0.5"/>
	<polygon class="st1" points="12,19 9,23.5 15,23.5 	"/>
	<path class="st1" d="M10.5,16v1.5c0,0.8,0.7,1.5,1.5,1.5s1.5-0.7,1.5-1.5V16"/>
	<line class="st1" x1="17.5" y1="20.5" x2="21" y2="20.5"/>
</g>
</svg>
