<?xml version="1.0" encoding="UTF-8" standalone="no"?>
<svg width="22px" height="22px" viewBox="0 0 22 22" version="1.1" xmlns="http://www.w3.org/2000/svg" xmlns:xlink="http://www.w3.org/1999/xlink">
    <!-- Generator: Sketch 42 (36781) - http://www.bohemiancoding.com/sketch -->
    <title>Group</title>
    <desc>Created with Sketch.</desc>
    <defs></defs>
    <g id="Bekreftet-tidspunkt---innlogget" stroke="none" stroke-width="1" fill="none" fill-rule="evenodd">
        <g id="Beskjed-til-arbeidsgiver" transform="translate(-231.000000, -736.000000)" stroke="#0067C5">
            <g id="Group" transform="translate(232.000000, 737.000000)">
                <polyline id="Shape" points="3.75 2.08333333 0.416666667 2.08333333 0.416666667 19.5833333 19.5833333 19.5833333 19.5833333 2.08333333 16.25 2.08333333"></polyline>
                <path d="M3.75,0.416666667 L6.25,0.416666667 L6.25,3.75 L3.75,3.75 L3.75,0.416666667 Z M13.75,0.416666667 L16.25,0.416666667 L16.25,3.75 L13.75,3.75 L13.75,0.416666667 Z M6.25,2.08333333 L13.75,2.08333333 L6.25,2.08333333 Z M0.416666667,6.25 L19.5833333,6.25 L0.416666667,6.25 Z M5.41666667,7.91666667 L5.41666667,17.9166667 L5.41666667,7.91666667 Z M9.58333333,7.91666667 L9.58333333,17.9166667 L9.58333333,7.91666667 Z M13.75,7.91666667 L13.75,17.9166667 L13.75,7.91666667 Z M2.08333333,9.58333333 L17.9166667,9.58333333 L2.08333333,9.58333333 Z M2.08333333,12.9166667 L17.9166667,12.9166667 L2.08333333,12.9166667 Z M2.08333333,16.25 L17.9166667,16.25 L2.08333333,16.25 Z" id="Shape"></path>
            </g>
        </g>
    </g>
</svg>