<?xml version="1.0" encoding="UTF-8" standalone="no"?>
<svg width="176px" height="136px" viewBox="0 0 176 136" version="1.1" xmlns="http://www.w3.org/2000/svg" xmlns:xlink="http://www.w3.org/1999/xlink">
    <!-- Generator: Sketch 39.1 (31720) - http://www.bohemiancoding.com/sketch -->
    <title>Page 1</title>
    <desc>Created with Sketch.</desc>
    <defs>
        <path d="M0.439612335,66.3301364 C0.439612335,102.8585 30.1518238,132.470955 66.8032423,132.470955 L66.8032423,132.470955 C103.453885,132.470955 133.166097,102.8585 133.166097,66.3301364 L133.166097,66.3301364 C133.166097,29.8025455 103.453885,0.190090909 66.8032423,0.190090909 L66.8032423,0.190090909 C30.1518238,0.190090909 0.439612335,29.8025455 0.439612335,66.3301364 L0.439612335,66.3301364 Z" id="path-1"></path>
        <polygon id="path-3" points="0 135.227273 175.990005 135.227273 175.990005 0.524681818 0 0.524681818"></polygon>
    </defs>
    <g id="Page-1" stroke="none" stroke-width="1" fill="none" fill-rule="evenodd">
        <g id="Release-29.sep-med-arbeidsgivere-" transform="translate(-440.000000, -403.000000)">
            <g id="Group-3" transform="translate(192.000000, 364.000000)">
                <path d="M0,0 L640,0 L640,344.418817 L640,458 L0,458 L0,0 Z" id="Bakgrunn---Bekreftet" fill="#FFFFFF"></path>
                <g id="Page-1" transform="translate(249.000000, 39.000000)">
                    <g id="Group-21" transform="translate(45.744493, 28.838955)">
                        <path d="M3.38191366,2.51167273 L2.80429251,3.77430909 C2.47942907,4.48521818 1.63742026,4.79894545 0.9241163,4.47517273 L0.891552423,4.46049091 C0.178248458,4.13671818 -0.136535683,3.29753636 0.188327753,2.58662727 L0.765173568,1.32321818 C1.09081233,0.612309091 1.93204581,0.298581818 2.64612511,0.622354545 L2.67868899,0.637809091 C3.39199295,0.961581818 3.70677709,1.80076364 3.38191366,2.51167273" id="Fill-1" fill="#C3232A"></path>
                        <polygon id="Fill-3" fill="#E8D7BC" points="38.1854097 21.3949636 43.6072952 21.5402364 39.9399824 17.5576 38.4947665 19.3109182"></polygon>
                        <polygon id="Fill-5" fill="#EDC55C" points="2.23349427 3.52502727 1.64889515 4.80389091 37.7978996 21.2189364 38.3824987 19.9400727"></polygon>
                        <polygon id="Fill-7" fill="#E1B754" points="38.9674855 18.6605909 2.81848106 2.24554545 2.23310661 3.52518182 38.3828863 19.9394545"></polygon>
                        <polygon id="Fill-9" fill="#EDC55C" points="2.81824846 2.24577727 38.9672529 18.6608227 39.5526273 17.3811864 3.40284758 0.966913636"></polygon>
                        <path d="M38.6511507,21.10125 C38.7612476,20.8601591 38.5286485,20.5595682 38.6751859,20.2381136 C38.6992211,20.1855682 38.729459,20.1461591 38.7635736,20.1129318 L38.3828863,19.9398409 L37.7982872,21.2187045 L38.1533885,21.3802045 C38.1533885,21.3802045 38.5410537,21.3423409 38.6511507,21.10125" id="Fill-11" fill="#EDC55C"></path>
                        <path d="M38.7634185,20.1127 C38.9401938,19.9396091 39.2293921,19.9635636 39.3852335,19.6227909 C39.5410749,19.2820182 39.3332863,19.0795636 39.3480176,18.8338364 L38.9673304,18.6607455 L38.3827313,19.9396091 L38.7634185,20.1127 Z" id="Fill-13" fill="#E1B754"></path>
                        <path d="M39.3482502,18.83345 C39.3513515,18.7863136 39.3614308,18.7368591 39.3854661,18.6850864 C39.5320035,18.3636318 39.9126907,18.3419955 40.0227877,18.1001318 C40.1336599,17.8590409 39.9072634,17.5429955 39.9072634,17.5429955 L39.5521621,17.3814955 L38.967563,18.6603591 L39.3482502,18.83345 Z" id="Fill-15" fill="#EDC55C"></path>
                        <polygon id="Fill-17" fill="#5D5C5A" points="43.6074502 21.5399273 42.3095471 20.1304727 41.6885075 21.4889273"></polygon>
                        <polygon id="Fill-19" fill="#5D5C5A" points="3.40308018 0.966604545 1.64850749 4.80396818 1.12515947 4.56674091 2.87973216 0.728604545"></polygon>
                    </g>
                    <g id="Group-158" transform="translate(0.775330, 1.793500)">
                        <path d="M30.7123877,55.4584818 L102.894872,55.4584818 C106.761445,55.4584818 109.896106,58.5246636 109.896106,62.3017545 L109.896106,97.4933 C109.896106,101.274255 106.761445,104.337345 102.894872,104.337345 L30.7123877,104.337345 C26.8442643,104.337345 23.7103789,101.274255 23.7103789,97.4933 L23.7103789,62.3017545 C23.7103789,58.5246636 26.8442643,55.4584818 30.7123877,55.4584818 L30.7123877,55.4584818 Z" id="Fill-22" fill="#585B5C"></path>
                        <path d="M30.3886872,65.2452273 L33.4225551,65.2452273 C34.0521233,65.2452273 34.5638414,65.7529091 34.5638414,66.3826818 L34.5638414,68.0734091 C34.5638414,68.7031818 34.0521233,69.2124091 33.4225551,69.2124091 L30.3886872,69.2124091 C29.7583436,69.2124091 29.2466256,68.7031818 29.2466256,68.0734091 L29.2466256,66.3826818 C29.2466256,65.7529091 29.7583436,65.2452273 30.3886872,65.2452273" id="Fill-24" fill="#37363A"></path>
                        <path d="M36.6773921,65.2452273 L39.7120352,65.2452273 C40.3431542,65.2452273 40.8533216,65.7529091 40.8533216,66.3826818 L40.8533216,68.0734091 C40.8533216,68.7031818 40.3431542,69.2124091 39.7120352,69.2124091 L36.6773921,69.2124091 C36.0501498,69.2124091 35.5384317,68.7031818 35.5384317,68.0734091 L35.5384317,66.3826818 C35.5384317,65.7529091 36.0501498,65.2452273 36.6773921,65.2452273" id="Fill-26" fill="#37363A"></path>
                        <path d="M42.9702062,65.2452273 L46.001748,65.2452273 C46.632867,65.2452273 47.1438097,65.7529091 47.1438097,66.3826818 L47.1438097,68.0734091 C47.1438097,68.7031818 46.632867,69.2124091 46.001748,69.2124091 L42.9702062,69.2124091 C42.3383119,69.2124091 41.8273692,68.7031818 41.8273692,68.0734091 L41.8273692,66.3826818 C41.8273692,65.7529091 42.3383119,65.2452273 42.9702062,65.2452273" id="Fill-28" fill="#37363A"></path>
                        <path d="M49.258911,65.2452273 L52.2935542,65.2452273 C52.9223471,65.2452273 53.4332899,65.7529091 53.4332899,66.3826818 L53.4332899,68.0734091 C53.4332899,68.7031818 52.9223471,69.2124091 52.2935542,69.2124091 L49.258911,69.2124091 C48.6285674,69.2124091 48.1168493,68.7031818 48.1168493,68.0734091 L48.1168493,66.3826818 C48.1168493,65.7529091 48.6285674,65.2452273 49.258911,65.2452273" id="Fill-30" fill="#37363A"></path>
                        <path d="M55.5495542,65.2452273 L58.583422,65.2452273 C59.2129903,65.2452273 59.7247084,65.7529091 59.7247084,66.3826818 L59.7247084,68.0734091 C59.7247084,68.7031818 59.2129903,69.2124091 58.583422,69.2124091 L55.5495542,69.2124091 C54.9192106,69.2124091 54.4082678,68.7031818 54.4082678,68.0734091 L54.4082678,66.3826818 C54.4082678,65.7529091 54.9192106,65.2452273 55.5495542,65.2452273" id="Fill-32" fill="#37363A"></path>
                        <path d="M61.839267,65.2452273 L64.8723595,65.2452273 C65.5019278,65.2452273 66.0144211,65.7529091 66.0144211,66.3826818 L66.0144211,68.0734091 C66.0144211,68.7031818 65.5019278,69.2124091 64.8723595,69.2124091 L61.839267,69.2124091 C61.2096987,69.2124091 60.6979806,68.7031818 60.6979806,68.0734091 L60.6979806,66.3826818 C60.6979806,65.7529091 61.2096987,65.2452273 61.839267,65.2452273" id="Fill-34" fill="#37363A"></path>
                        <path d="M68.1290573,65.2452273 L71.1629251,65.2452273 C71.7924934,65.2452273 72.3042115,65.7529091 72.3042115,66.3826818 L72.3042115,68.0734091 C72.3042115,68.7031818 71.7924934,69.2124091 71.1629251,69.2124091 L68.1290573,69.2124091 C67.499489,69.2124091 66.9877709,68.7031818 66.9877709,68.0734091 L66.9877709,66.3826818 C66.9877709,65.7529091 67.499489,65.2452273 68.1290573,65.2452273" id="Fill-36" fill="#37363A"></path>
                        <path d="M74.41877,65.2452273 L77.4526379,65.2452273 C78.0822062,65.2452273 78.5931489,65.7529091 78.5931489,66.3826818 L78.5931489,68.0734091 C78.5931489,68.7031818 78.0822062,69.2124091 77.4526379,69.2124091 L74.41877,69.2124091 C73.7892018,69.2124091 73.2774837,68.7031818 73.2774837,68.0734091 L73.2774837,66.3826818 C73.2774837,65.7529091 73.7892018,65.2452273 74.41877,65.2452273" id="Fill-38" fill="#37363A"></path>
                        <path d="M80.7084053,65.2452273 L83.7422731,65.2452273 C84.3718414,65.2452273 84.8843348,65.7529091 84.8843348,66.3826818 L84.8843348,68.0734091 C84.8843348,68.7031818 84.3718414,69.2124091 83.7422731,69.2124091 L80.7084053,69.2124091 C80.0796123,69.2124091 79.5671189,68.7031818 79.5671189,68.0734091 L79.5671189,66.3826818 C79.5671189,65.7529091 80.0796123,65.2452273 80.7084053,65.2452273" id="Fill-40" fill="#37363A"></path>
                        <path d="M86.9981181,65.2452273 L90.0319859,65.2452273 C90.6623295,65.2452273 91.1732722,65.7529091 91.1732722,66.3826818 L91.1732722,68.0734091 C91.1732722,68.7031818 90.6623295,69.2124091 90.0319859,69.2124091 L86.9981181,69.2124091 C86.3685498,69.2124091 85.8568317,68.7031818 85.8568317,68.0734091 L85.8568317,66.3826818 C85.8568317,65.7529091 86.3685498,65.2452273 86.9981181,65.2452273" id="Fill-42" fill="#37363A"></path>
                        <path d="M93.2878308,65.2452273 L102.611179,65.2452273 C103.240747,65.2452273 103.750915,65.7529091 103.750915,66.3826818 L103.750915,68.0734091 C103.750915,68.7031818 103.240747,69.2124091 102.611179,69.2124091 L93.2878308,69.2124091 C92.6590379,69.2124091 92.1480952,68.7031818 92.1480952,68.0734091 L92.1480952,66.3826818 C92.1480952,65.7529091 92.6590379,65.2452273 93.2878308,65.2452273" id="Fill-44" fill="#37363A"></path>
                        <path d="M30.3886872,71.4548636 L33.4225551,71.4548636 C34.0521233,71.4548636 34.5638414,71.9633182 34.5638414,72.5907727 L34.5638414,74.2830455 C34.5638414,74.9128182 34.0521233,75.4212727 33.4225551,75.4212727 L30.3886872,75.4212727 C29.7583436,75.4212727 29.2466256,74.9128182 29.2466256,74.2830455 L29.2466256,72.5907727 C29.2466256,71.9633182 29.7583436,71.4548636 30.3886872,71.4548636" id="Fill-46" fill="#37363A"></path>
                        <path d="M36.6773921,71.4548636 L39.7120352,71.4548636 C40.3431542,71.4548636 40.8533216,71.9633182 40.8533216,72.5907727 L40.8533216,74.2830455 C40.8533216,74.9128182 40.3431542,75.4212727 39.7120352,75.4212727 L36.6773921,75.4212727 C36.0501498,75.4212727 35.5384317,74.9128182 35.5384317,74.2830455 L35.5384317,72.5907727 C35.5384317,71.9633182 36.0501498,71.4548636 36.6773921,71.4548636" id="Fill-48" fill="#37363A"></path>
                        <path d="M42.9702062,71.4548636 L46.001748,71.4548636 C46.632867,71.4548636 47.1438097,71.9633182 47.1438097,72.5907727 L47.1438097,74.2830455 C47.1438097,74.9128182 46.632867,75.4212727 46.001748,75.4212727 L42.9702062,75.4212727 C42.3383119,75.4212727 41.8273692,74.9128182 41.8273692,74.2830455 L41.8273692,72.5907727 C41.8273692,71.9633182 42.3383119,71.4548636 42.9702062,71.4548636" id="Fill-50" fill="#37363A"></path>
                        <path d="M49.258911,71.4548636 L52.2935542,71.4548636 C52.9223471,71.4548636 53.4332899,71.9633182 53.4332899,72.5907727 L53.4332899,74.2830455 C53.4332899,74.9128182 52.9223471,75.4212727 52.2935542,75.4212727 L49.258911,75.4212727 C48.6285674,75.4212727 48.1168493,74.9128182 48.1168493,74.2830455 L48.1168493,72.5907727 C48.1168493,71.9633182 48.6285674,71.4548636 49.258911,71.4548636" id="Fill-52" fill="#37363A"></path>
                        <path d="M55.5495542,71.4548636 L58.583422,71.4548636 C59.2129903,71.4548636 59.7247084,71.9633182 59.7247084,72.5907727 L59.7247084,74.2830455 C59.7247084,74.9128182 59.2129903,75.4212727 58.583422,75.4212727 L55.5495542,75.4212727 C54.9192106,75.4212727 54.4082678,74.9128182 54.4082678,74.2830455 L54.4082678,72.5907727 C54.4082678,71.9633182 54.9192106,71.4548636 55.5495542,71.4548636" id="Fill-54" fill="#37363A"></path>
                        <path d="M61.839267,71.4548636 L64.8723595,71.4548636 C65.5019278,71.4548636 66.0144211,71.9633182 66.0144211,72.5907727 L66.0144211,74.2830455 C66.0144211,74.9128182 65.5019278,75.4212727 64.8723595,75.4212727 L61.839267,75.4212727 C61.2096987,75.4212727 60.6979806,74.9128182 60.6979806,74.2830455 L60.6979806,72.5907727 C60.6979806,71.9633182 61.2096987,71.4548636 61.839267,71.4548636" id="Fill-56" fill="#37363A"></path>
                        <path d="M68.1290573,71.4548636 L71.1629251,71.4548636 C71.7924934,71.4548636 72.3042115,71.9633182 72.3042115,72.5907727 L72.3042115,74.2830455 C72.3042115,74.9128182 71.7924934,75.4212727 71.1629251,75.4212727 L68.1290573,75.4212727 C67.499489,75.4212727 66.9877709,74.9128182 66.9877709,74.2830455 L66.9877709,72.5907727 C66.9877709,71.9633182 67.499489,71.4548636 68.1290573,71.4548636" id="Fill-58" fill="#37363A"></path>
                        <path d="M74.41877,71.4548636 L77.4526379,71.4548636 C78.0822062,71.4548636 78.5931489,71.9633182 78.5931489,72.5907727 L78.5931489,74.2830455 C78.5931489,74.9128182 78.0822062,75.4212727 77.4526379,75.4212727 L74.41877,75.4212727 C73.7892018,75.4212727 73.2774837,74.9128182 73.2774837,74.2830455 L73.2774837,72.5907727 C73.2774837,71.9633182 73.7892018,71.4548636 74.41877,71.4548636" id="Fill-60" fill="#37363A"></path>
                        <path d="M80.7084053,71.4548636 L83.7422731,71.4548636 C84.3718414,71.4548636 84.8843348,71.9633182 84.8843348,72.5907727 L84.8843348,74.2830455 C84.8843348,74.9128182 84.3718414,75.4212727 83.7422731,75.4212727 L80.7084053,75.4212727 C80.0796123,75.4212727 79.5671189,74.9128182 79.5671189,74.2830455 L79.5671189,72.5907727 C79.5671189,71.9633182 80.0796123,71.4548636 80.7084053,71.4548636" id="Fill-62" fill="#37363A"></path>
                        <path d="M86.9981181,71.4548636 L90.0319859,71.4548636 C90.6623295,71.4548636 91.1732722,71.9633182 91.1732722,72.5907727 L91.1732722,74.2830455 C91.1732722,74.9128182 90.6623295,75.4212727 90.0319859,75.4212727 L86.9981181,75.4212727 C86.3685498,75.4212727 85.8568317,74.9128182 85.8568317,74.2830455 L85.8568317,72.5907727 C85.8568317,71.9633182 86.3685498,71.4548636 86.9981181,71.4548636" id="Fill-64" fill="#37363A"></path>
                        <path d="M93.2878308,71.4548636 L96.3216987,71.4548636 C96.9520423,71.4548636 97.4637604,71.9633182 97.4637604,72.5907727 L97.4637604,74.2830455 C97.4637604,74.9128182 96.9520423,75.4212727 96.3216987,75.4212727 L93.2878308,75.4212727 C92.6590379,75.4212727 92.1480952,74.9128182 92.1480952,74.2830455 L92.1480952,72.5907727 C92.1480952,71.9633182 92.6590379,71.4548636 93.2878308,71.4548636" id="Fill-66" fill="#37363A"></path>
                        <path d="M99.5785515,71.4548636 L102.611644,71.4548636 C103.241212,71.4548636 103.754481,71.9633182 103.754481,72.5907727 L103.754481,74.2830455 C103.754481,74.9128182 103.241212,75.4212727 102.611644,75.4212727 L99.5785515,75.4212727 C98.9489833,75.4212727 98.4364899,74.9128182 98.4364899,74.2830455 L98.4364899,72.5907727 C98.4364899,71.9633182 98.9489833,71.4548636 99.5785515,71.4548636" id="Fill-68" fill="#37363A"></path>
                        <path d="M30.3886872,77.6655818 L33.4225551,77.6655818 C34.0521233,77.6655818 34.5638414,78.1732636 34.5638414,78.8007182 L34.5638414,80.4929909 C34.5638414,81.1212182 34.0521233,81.6319909 33.4225551,81.6319909 L30.3886872,81.6319909 C29.7583436,81.6319909 29.2466256,81.1212182 29.2466256,80.4929909 L29.2466256,78.8007182 C29.2466256,78.1732636 29.7583436,77.6655818 30.3886872,77.6655818" id="Fill-70" fill="#37363A"></path>
                        <path d="M36.6773921,77.6655818 L39.7120352,77.6655818 C40.3431542,77.6655818 40.8533216,78.1732636 40.8533216,78.8007182 L40.8533216,80.4929909 C40.8533216,81.1212182 40.3431542,81.6319909 39.7120352,81.6319909 L36.6773921,81.6319909 C36.0501498,81.6319909 35.5384317,81.1212182 35.5384317,80.4929909 L35.5384317,78.8007182 C35.5384317,78.1732636 36.0501498,77.6655818 36.6773921,77.6655818" id="Fill-72" fill="#37363A"></path>
                        <path d="M42.9702062,77.6655818 L46.001748,77.6655818 C46.632867,77.6655818 47.1438097,78.1732636 47.1438097,78.8007182 L47.1438097,80.4929909 C47.1438097,81.1212182 46.632867,81.6319909 46.001748,81.6319909 L42.9702062,81.6319909 C42.3383119,81.6319909 41.8273692,81.1212182 41.8273692,80.4929909 L41.8273692,78.8007182 C41.8273692,78.1732636 42.3383119,77.6655818 42.9702062,77.6655818" id="Fill-74" fill="#37363A"></path>
                        <path d="M49.258911,77.6655818 L52.2935542,77.6655818 C52.9223471,77.6655818 53.4332899,78.1732636 53.4332899,78.8007182 L53.4332899,80.4929909 C53.4332899,81.1212182 52.9223471,81.6319909 52.2935542,81.6319909 L49.258911,81.6319909 C48.6285674,81.6319909 48.1168493,81.1212182 48.1168493,80.4929909 L48.1168493,78.8007182 C48.1168493,78.1732636 48.6285674,77.6655818 49.258911,77.6655818" id="Fill-76" fill="#37363A"></path>
                        <path d="M55.5495542,77.6655818 L58.583422,77.6655818 C59.2129903,77.6655818 59.7247084,78.1732636 59.7247084,78.8007182 L59.7247084,80.4929909 C59.7247084,81.1212182 59.2129903,81.6319909 58.583422,81.6319909 L55.5495542,81.6319909 C54.9192106,81.6319909 54.4082678,81.1212182 54.4082678,80.4929909 L54.4082678,78.8007182 C54.4082678,78.1732636 54.9192106,77.6655818 55.5495542,77.6655818" id="Fill-78" fill="#37363A"></path>
                        <path d="M61.839267,77.6655818 L64.8723595,77.6655818 C65.5019278,77.6655818 66.0144211,78.1732636 66.0144211,78.8007182 L66.0144211,80.4929909 C66.0144211,81.1212182 65.5019278,81.6319909 64.8723595,81.6319909 L61.839267,81.6319909 C61.2096987,81.6319909 60.6979806,81.1212182 60.6979806,80.4929909 L60.6979806,78.8007182 C60.6979806,78.1732636 61.2096987,77.6655818 61.839267,77.6655818" id="Fill-80" fill="#37363A"></path>
                        <path d="M68.1290573,77.6655818 L71.1629251,77.6655818 C71.7924934,77.6655818 72.3042115,78.1732636 72.3042115,78.8007182 L72.3042115,80.4929909 C72.3042115,81.1212182 71.7924934,81.6319909 71.1629251,81.6319909 L68.1290573,81.6319909 C67.499489,81.6319909 66.9877709,81.1212182 66.9877709,80.4929909 L66.9877709,78.8007182 C66.9877709,78.1732636 67.499489,77.6655818 68.1290573,77.6655818" id="Fill-82" fill="#37363A"></path>
                        <path d="M74.41877,77.6655818 L77.4526379,77.6655818 C78.0822062,77.6655818 78.5931489,78.1732636 78.5931489,78.8007182 L78.5931489,80.4929909 C78.5931489,81.1212182 78.0822062,81.6319909 77.4526379,81.6319909 L74.41877,81.6319909 C73.7892018,81.6319909 73.2774837,81.1212182 73.2774837,80.4929909 L73.2774837,78.8007182 C73.2774837,78.1732636 73.7892018,77.6655818 74.41877,77.6655818" id="Fill-84" fill="#37363A"></path>
                        <path d="M80.7084053,77.6655818 L83.7422731,77.6655818 C84.3718414,77.6655818 84.8843348,78.1732636 84.8843348,78.8007182 L84.8843348,80.4929909 C84.8843348,81.1212182 84.3718414,81.6319909 83.7422731,81.6319909 L80.7084053,81.6319909 C80.0796123,81.6319909 79.5671189,81.1212182 79.5671189,80.4929909 L79.5671189,78.8007182 C79.5671189,78.1732636 80.0796123,77.6655818 80.7084053,77.6655818" id="Fill-86" fill="#37363A"></path>
                        <path d="M86.9981181,77.6655818 L90.0319859,77.6655818 C90.6623295,77.6655818 91.1732722,78.1732636 91.1732722,78.8007182 L91.1732722,80.4929909 C91.1732722,81.1212182 90.6623295,81.6319909 90.0319859,81.6319909 L86.9981181,81.6319909 C86.3685498,81.6319909 85.8568317,81.1212182 85.8568317,80.4929909 L85.8568317,78.8007182 C85.8568317,78.1732636 86.3685498,77.6655818 86.9981181,77.6655818" id="Fill-88" fill="#37363A"></path>
                        <path d="M93.2878308,77.6655818 L96.3216987,77.6655818 C96.9520423,77.6655818 97.4637604,78.1732636 97.4637604,78.8007182 L97.4637604,80.4929909 C97.4637604,81.1212182 96.9520423,81.6319909 96.3216987,81.6319909 L93.2878308,81.6319909 C92.6590379,81.6319909 92.1480952,81.1212182 92.1480952,80.4929909 L92.1480952,78.8007182 C92.1480952,78.1732636 92.6590379,77.6655818 93.2878308,77.6655818" id="Fill-90" fill="#37363A"></path>
                        <path d="M99.5785515,77.6655818 L102.611644,77.6655818 C103.241212,77.6655818 103.754481,78.1732636 103.754481,78.8007182 L103.754481,80.4929909 C103.754481,81.1212182 103.241212,81.6319909 102.611644,81.6319909 L99.5785515,81.6319909 C98.9489833,81.6319909 98.4364899,81.1212182 98.4364899,80.4929909 L98.4364899,78.8007182 C98.4364899,78.1732636 98.9489833,77.6655818 99.5785515,77.6655818" id="Fill-92" fill="#37363A"></path>
                        <path d="M30.3886872,83.8752182 L33.4225551,83.8752182 C34.0521233,83.8752182 34.5638414,84.3813545 34.5638414,85.0111273 L34.5638414,86.7034 C34.5638414,87.3308545 34.0521233,87.8416273 33.4225551,87.8416273 L30.3886872,87.8416273 C29.7583436,87.8416273 29.2466256,87.3308545 29.2466256,86.7034 L29.2466256,85.0111273 C29.2466256,84.3813545 29.7583436,83.8752182 30.3886872,83.8752182" id="Fill-94" fill="#37363A"></path>
                        <path d="M36.6773921,83.8752182 L39.7120352,83.8752182 C40.3431542,83.8752182 40.8533216,84.3813545 40.8533216,85.0111273 L40.8533216,86.7034 C40.8533216,87.3308545 40.3431542,87.8416273 39.7120352,87.8416273 L36.6773921,87.8416273 C36.0501498,87.8416273 35.5384317,87.3308545 35.5384317,86.7034 L35.5384317,85.0111273 C35.5384317,84.3813545 36.0501498,83.8752182 36.6773921,83.8752182" id="Fill-96" fill="#37363A"></path>
                        <path d="M42.9702062,83.8752182 L46.001748,83.8752182 C46.632867,83.8752182 47.1438097,84.3813545 47.1438097,85.0111273 L47.1438097,86.7034 C47.1438097,87.3308545 46.632867,87.8416273 46.001748,87.8416273 L42.9702062,87.8416273 C42.3383119,87.8416273 41.8273692,87.3308545 41.8273692,86.7034 L41.8273692,85.0111273 C41.8273692,84.3813545 42.3383119,83.8752182 42.9702062,83.8752182" id="Fill-98" fill="#37363A"></path>
                        <path d="M49.258911,83.8752182 L52.2935542,83.8752182 C52.9223471,83.8752182 53.4332899,84.3813545 53.4332899,85.0111273 L53.4332899,86.7034 C53.4332899,87.3308545 52.9223471,87.8416273 52.2935542,87.8416273 L49.258911,87.8416273 C48.6285674,87.8416273 48.1168493,87.3308545 48.1168493,86.7034 L48.1168493,85.0111273 C48.1168493,84.3813545 48.6285674,83.8752182 49.258911,83.8752182" id="Fill-100" fill="#37363A"></path>
                        <path d="M55.5495542,83.8752182 L58.583422,83.8752182 C59.2129903,83.8752182 59.7247084,84.3813545 59.7247084,85.0111273 L59.7247084,86.7034 C59.7247084,87.3308545 59.2129903,87.8416273 58.583422,87.8416273 L55.5495542,87.8416273 C54.9192106,87.8416273 54.4082678,87.3308545 54.4082678,86.7034 L54.4082678,85.0111273 C54.4082678,84.3813545 54.9192106,83.8752182 55.5495542,83.8752182" id="Fill-102" fill="#37363A"></path>
                        <path d="M61.839267,83.8752182 L64.8723595,83.8752182 C65.5019278,83.8752182 66.0144211,84.3813545 66.0144211,85.0111273 L66.0144211,86.7034 C66.0144211,87.3308545 65.5019278,87.8416273 64.8723595,87.8416273 L61.839267,87.8416273 C61.2096987,87.8416273 60.6979806,87.3308545 60.6979806,86.7034 L60.6979806,85.0111273 C60.6979806,84.3813545 61.2096987,83.8752182 61.839267,83.8752182" id="Fill-104" fill="#37363A"></path>
                        <path d="M68.1290573,83.8752182 L71.1629251,83.8752182 C71.7924934,83.8752182 72.3042115,84.3813545 72.3042115,85.0111273 L72.3042115,86.7034 C72.3042115,87.3308545 71.7924934,87.8416273 71.1629251,87.8416273 L68.1290573,87.8416273 C67.499489,87.8416273 66.9877709,87.3308545 66.9877709,86.7034 L66.9877709,85.0111273 C66.9877709,84.3813545 67.499489,83.8752182 68.1290573,83.8752182" id="Fill-106" fill="#37363A"></path>
                        <path d="M74.41877,83.8752182 L77.4526379,83.8752182 C78.0822062,83.8752182 78.5931489,84.3813545 78.5931489,85.0111273 L78.5931489,86.7034 C78.5931489,87.3308545 78.0822062,87.8416273 77.4526379,87.8416273 L74.41877,87.8416273 C73.7892018,87.8416273 73.2774837,87.3308545 73.2774837,86.7034 L73.2774837,85.0111273 C73.2774837,84.3813545 73.7892018,83.8752182 74.41877,83.8752182" id="Fill-108" fill="#37363A"></path>
                        <path d="M80.7084053,83.8752182 L83.7422731,83.8752182 C84.3718414,83.8752182 84.8843348,84.3813545 84.8843348,85.0111273 L84.8843348,86.7034 C84.8843348,87.3308545 84.3718414,87.8416273 83.7422731,87.8416273 L80.7084053,87.8416273 C80.0796123,87.8416273 79.5671189,87.3308545 79.5671189,86.7034 L79.5671189,85.0111273 C79.5671189,84.3813545 80.0796123,83.8752182 80.7084053,83.8752182" id="Fill-110" fill="#37363A"></path>
                        <path d="M86.9981181,83.8752182 L90.0319859,83.8752182 C90.6623295,83.8752182 91.1732722,84.3813545 91.1732722,85.0111273 L91.1732722,86.7034 C91.1732722,87.3308545 90.6623295,87.8416273 90.0319859,87.8416273 L86.9981181,87.8416273 C86.3685498,87.8416273 85.8568317,87.3308545 85.8568317,86.7034 L85.8568317,85.0111273 C85.8568317,84.3813545 86.3685498,83.8752182 86.9981181,83.8752182" id="Fill-112" fill="#37363A"></path>
                        <path d="M93.2878308,83.8752182 L96.3216987,83.8752182 C96.9520423,83.8752182 97.4637604,84.3813545 97.4637604,85.0111273 L97.4637604,86.7034 C97.4637604,87.3308545 96.9520423,87.8416273 96.3216987,87.8416273 L93.2878308,87.8416273 C92.6590379,87.8416273 92.1480952,87.3308545 92.1480952,86.7034 L92.1480952,85.0111273 C92.1480952,84.3813545 92.6590379,83.8752182 93.2878308,83.8752182" id="Fill-114" fill="#37363A"></path>
                        <path d="M99.5785515,83.8752182 L102.611644,83.8752182 C103.241212,83.8752182 103.754481,84.3813545 103.754481,85.0111273 L103.754481,86.7034 C103.754481,87.3308545 103.241212,87.8416273 102.611644,87.8416273 L99.5785515,87.8416273 C98.9489833,87.8416273 98.4364899,87.3308545 98.4364899,86.7034 L98.4364899,85.0111273 C98.4364899,84.3813545 98.9489833,83.8752182 99.5785515,83.8752182" id="Fill-116" fill="#37363A"></path>
                        <path d="M30.3886872,90.0827682 L33.4225551,90.0827682 C34.0521233,90.0827682 34.5638414,90.5912227 34.5638414,91.2209955 L34.5638414,92.9124955 C34.5638414,93.5414955 34.0521233,94.0514955 33.4225551,94.0514955 L30.3886872,94.0514955 C29.7583436,94.0514955 29.2466256,93.5414955 29.2466256,92.9124955 L29.2466256,91.2209955 C29.2466256,90.5912227 29.7583436,90.0827682 30.3886872,90.0827682" id="Fill-118" fill="#37363A"></path>
                        <path d="M36.6773921,90.0827682 L39.7120352,90.0827682 C40.3431542,90.0827682 40.8533216,90.5912227 40.8533216,91.2209955 L40.8533216,92.9124955 C40.8533216,93.5414955 40.3431542,94.0514955 39.7120352,94.0514955 L36.6773921,94.0514955 C36.0501498,94.0514955 35.5384317,93.5414955 35.5384317,92.9124955 L35.5384317,91.2209955 C35.5384317,90.5912227 36.0501498,90.0827682 36.6773921,90.0827682" id="Fill-120" fill="#37363A"></path>
                        <path d="M42.9702062,90.0827682 L46.001748,90.0827682 C46.632867,90.0827682 47.1438097,90.5912227 47.1438097,91.2209955 L47.1438097,92.9124955 C47.1438097,93.5414955 46.632867,94.0514955 46.001748,94.0514955 L42.9702062,94.0514955 C42.3383119,94.0514955 41.8273692,93.5414955 41.8273692,92.9124955 L41.8273692,91.2209955 C41.8273692,90.5912227 42.3383119,90.0827682 42.9702062,90.0827682" id="Fill-122" fill="#37363A"></path>
                        <path d="M49.258911,90.0827682 L52.2935542,90.0827682 C52.9223471,90.0827682 53.4332899,90.5912227 53.4332899,91.2209955 L53.4332899,92.9124955 C53.4332899,93.5414955 52.9223471,94.0514955 52.2935542,94.0514955 L49.258911,94.0514955 C48.6285674,94.0514955 48.1168493,93.5414955 48.1168493,92.9124955 L48.1168493,91.2209955 C48.1168493,90.5912227 48.6285674,90.0827682 49.258911,90.0827682" id="Fill-124" fill="#37363A"></path>
                        <path d="M80.7084053,90.0827682 L83.7422731,90.0827682 C84.3718414,90.0827682 84.8843348,90.5912227 84.8843348,91.2209955 L84.8843348,92.9124955 C84.8843348,93.5414955 84.3718414,94.0514955 83.7422731,94.0514955 L80.7084053,94.0514955 C80.0796123,94.0514955 79.5671189,93.5414955 79.5671189,92.9124955 L79.5671189,91.2209955 C79.5671189,90.5912227 80.0796123,90.0827682 80.7084053,90.0827682" id="Fill-126" fill="#37363A"></path>
                        <path d="M86.9981181,90.0827682 L90.0319859,90.0827682 C90.6623295,90.0827682 91.1732722,90.5912227 91.1732722,91.2209955 L91.1732722,92.9124955 C91.1732722,93.5414955 90.6623295,94.0514955 90.0319859,94.0514955 L86.9981181,94.0514955 C86.3685498,94.0514955 85.8568317,93.5414955 85.8568317,92.9124955 L85.8568317,91.2209955 C85.8568317,90.5912227 86.3685498,90.0827682 86.9981181,90.0827682" id="Fill-128" fill="#37363A"></path>
                        <path d="M93.2878308,90.0827682 L96.3216987,90.0827682 C96.9520423,90.0827682 97.4637604,90.5912227 97.4637604,91.2209955 L97.4637604,92.9124955 C97.4637604,93.5414955 96.9520423,94.0514955 96.3216987,94.0514955 L93.2878308,94.0514955 C92.6590379,94.0514955 92.1480952,93.5414955 92.1480952,92.9124955 L92.1480952,91.2209955 C92.1480952,90.5912227 92.6590379,90.0827682 93.2878308,90.0827682" id="Fill-130" fill="#37363A"></path>
                        <path d="M99.5785515,90.0827682 L102.611644,90.0827682 C103.241212,90.0827682 103.754481,90.5912227 103.754481,91.2209955 L103.754481,92.9124955 C103.754481,93.5414955 103.241212,94.0514955 102.611644,94.0514955 L99.5785515,94.0514955 C98.9489833,94.0514955 98.4364899,93.5414955 98.4364899,92.9124955 L98.4364899,91.2209955 C98.4364899,90.5912227 98.9489833,90.0827682 99.5785515,90.0827682" id="Fill-132" fill="#37363A"></path>
                        <path d="M55.5495542,90.0827682 L77.4596159,90.0827682 C78.0915101,90.0827682 78.6024529,90.5912227 78.6024529,91.2209955 L78.6024529,92.9124955 C78.6024529,93.5414955 78.0915101,94.0514955 77.4596159,94.0514955 L55.5495542,94.0514955 C54.9192106,94.0514955 54.4082678,93.5414955 54.4082678,92.9124955 L54.4082678,91.2209955 C54.4082678,90.5912227 54.9192106,90.0827682 55.5495542,90.0827682" id="Fill-134" fill="#37363A"></path>
                        <path d="M39.2651348,83.8841818 L39.2651348,83.8841818 C38.2246414,83.8841818 37.3834079,84.7233636 37.3834079,85.7580455 L37.3834079,112.7865 C37.3834079,113.821955 38.2246414,114.661909 39.2651348,114.661909 C40.3025269,114.661909 41.145311,113.821955 41.145311,112.7865 L41.145311,85.7580455 C41.145311,84.7233636 40.3025269,83.8841818 39.2651348,83.8841818" id="Fill-136" fill="#E6E5E2"></path>
                        <path d="M43.3940793,81.5573455 L43.3940793,81.5573455 C42.3559119,81.5573455 41.5131278,82.3949818 41.5131278,83.4312091 L41.5131278,110.457345 C41.5131278,111.493573 42.3559119,112.332755 43.3940793,112.332755 C44.4337974,112.332755 45.2758062,111.493573 45.2758062,110.457345 L45.2758062,83.4312091 C45.2758062,82.3949818 44.4337974,81.5573455 43.3940793,81.5573455" id="Fill-138" fill="#E6E5E2"></path>
                        <path d="M47.5261251,79.8629091 L47.5261251,79.8629091 C46.4871824,79.8629091 45.6443982,80.7036364 45.6443982,81.7390909 L45.6443982,108.766 C45.6443982,109.801455 46.4871824,110.640636 47.5261251,110.640636 C48.5650678,110.640636 49.4070767,109.801455 49.4070767,108.766 L49.4070767,81.7390909 C49.4070767,80.7036364 48.5650678,79.8629091 47.5261251,79.8629091" id="Fill-140" fill="#E6E5E2"></path>
                        <path d="M51.6574731,82.0773909 L51.6574731,82.0773909 C50.6185304,82.0773909 49.7765216,82.9181182 49.7765216,83.9535727 L49.7765216,103.478073 C49.7765216,104.5143 50.6185304,105.353482 51.6574731,105.353482 C52.6971912,105.353482 53.5392,104.5143 53.5392,103.478073 L53.5392,83.9535727 C53.5392,82.9181182 52.6971912,82.0773909 51.6574731,82.0773909" id="Fill-142" fill="#E6E5E2"></path>
                        <path d="M39.513163,117.948241 L39.513163,115.619241 C39.513163,114.981741 38.3997885,114.450877 38.3997885,114.450877 L40.7172511,95.74315 L51.657163,95.74315 L53.5396652,101.886332 C53.5396652,101.886332 54.0009868,102.026195 54.4607577,101.322241 C54.921304,100.614423 56.3037181,97.2963318 56.3037181,97.2963318 C56.3037181,97.2963318 58.1435771,93.3793773 59.8462026,94.0848773 C61.5449515,94.7903773 60.7665198,97.36665 60.7665198,97.36665 C60.7665198,97.36665 59.8997004,101.430423 59.4189956,103.36765 C58.8134626,105.818741 57.4008106,108.310786 56.2316123,110.148332 C55.0631894,111.982014 52.8317885,114.661832 52.0525815,114.661832 L51.8742555,117.948241 L39.513163,117.948241 Z" id="Fill-144" fill="#E6E5E2"></path>
                        <mask id="mask-2" fill="white">
                            <use xlink:href="#path-1"></use>
                        </mask>
                        <g id="Clip-147"></g>
                        <polygon id="Fill-146" fill="#0B546F" mask="url(#mask-2)" points="37.2747841 131.568409 54.0141674 131.568409 54.0141674 117.948318 37.2747841 117.948318"></polygon>
                        <polygon id="Fill-148" fill="#6F9BA9" mask="url(#mask-2)" points="37.2747841 122.985727 54.0141674 122.985727 54.0141674 117.948318 37.2747841 117.948318"></polygon>
                        <path d="M39.0201304,120.503727 C39.0201304,119.918773 39.4969586,119.444318 40.0838837,119.444318 C40.6700335,119.444318 41.145311,119.918773 41.145311,120.503727 C41.145311,121.087909 40.6700335,121.563136 40.0838837,121.563136 C39.4969586,121.563136 39.0201304,121.087909 39.0201304,120.503727" id="Fill-149" fill="#37363A" mask="url(#mask-2)"></path>
                        <path d="M94.7287824,83.8841818 L94.7287824,83.8841818 C95.7692758,83.8841818 96.6105093,84.7233636 96.6105093,85.7580455 L96.6105093,112.7865 C96.6105093,113.821955 95.7692758,114.661909 94.7287824,114.661909 C93.6913903,114.661909 92.8486062,113.821955 92.8486062,112.7865 L92.8486062,85.7580455 C92.8486062,84.7233636 93.6913903,83.8841818 94.7287824,83.8841818" id="Fill-150" fill="#E6E5E2" mask="url(#mask-2)"></path>
                        <path d="M90.5998379,81.5573455 L90.5998379,81.5573455 C91.6380053,81.5573455 92.4807894,82.3949818 92.4807894,83.4312091 L92.4807894,110.457345 C92.4807894,111.493573 91.6380053,112.332755 90.5998379,112.332755 C89.5601198,112.332755 88.7173357,111.493573 88.7173357,110.457345 L88.7173357,83.4312091 C88.7173357,82.3949818 89.5601198,81.5573455 90.5998379,81.5573455" id="Fill-151" fill="#E6E5E2" mask="url(#mask-2)"></path>
                        <path d="M86.4677145,79.8629091 L86.4677145,79.8629091 C87.5066573,79.8629091 88.3494414,80.7036364 88.3494414,81.7390909 L88.3494414,108.766 C88.3494414,109.801455 87.5066573,110.640636 86.4677145,110.640636 C85.4287718,110.640636 84.586763,109.801455 84.586763,108.766 L84.586763,81.7390909 C84.586763,80.7036364 85.4287718,79.8629091 86.4677145,79.8629091" id="Fill-152" fill="#E6E5E2" mask="url(#mask-2)"></path>
                        <path d="M82.3364441,82.0773909 L82.3364441,82.0773909 C83.3753868,82.0773909 84.2173956,82.9181182 84.2173956,83.9535727 L84.2173956,103.478073 C84.2173956,104.5143 83.3753868,105.353482 82.3364441,105.353482 C81.296726,105.353482 80.4547172,104.5143 80.4547172,103.478073 L80.4547172,83.9535727 C80.4547172,82.9181182 81.296726,82.0773909 82.3364441,82.0773909" id="Fill-153" fill="#E6E5E2" mask="url(#mask-2)"></path>
                        <path d="M94.4806767,117.948241 L94.4806767,115.619241 C94.4806767,114.981741 95.5940511,114.450877 95.5940511,114.450877 L93.2765885,95.74315 L82.3366767,95.74315 L80.4541744,101.886332 C80.4541744,101.886332 79.9928529,102.026195 79.5330819,101.322241 C79.0725357,100.614423 77.6901216,97.2963318 77.6901216,97.2963318 C77.6901216,97.2963318 75.8502626,93.3793773 74.147637,94.0848773 C72.4488881,94.7903773 73.2273198,97.36665 73.2273198,97.36665 C73.2273198,97.36665 74.0941392,101.430423 74.5748441,103.36765 C75.1803771,105.818741 76.5930291,108.310786 77.7622273,110.148332 C78.9306502,111.982014 81.1620511,114.661832 81.9412581,114.661832 L82.1195841,117.948241 L94.4806767,117.948241 Z" id="Fill-154" fill="#E6E5E2" mask="url(#mask-2)"></path>
                        <polygon id="Fill-155" fill="#0B546F" mask="url(#mask-2)" points="79.979207 131.568409 96.7185903 131.568409 96.7185903 117.948318 79.979207 117.948318"></polygon>
                        <polygon id="Fill-156" fill="#6F9BA9" mask="url(#mask-2)" points="79.979207 122.985727 96.7185903 122.985727 96.7185903 117.948318 79.979207 117.948318"></polygon>
                        <path d="M94.9737093,120.503727 C94.9737093,119.918773 94.4968811,119.444318 93.9099559,119.444318 C93.3238062,119.444318 92.8485286,119.918773 92.8485286,120.503727 C92.8485286,121.087909 93.3238062,121.563136 93.9099559,121.563136 C94.4968811,121.563136 94.9737093,121.087909 94.9737093,120.503727" id="Fill-157" fill="#37363A" mask="url(#mask-2)"></path>
                    </g>
                    <g id="Group-184" transform="translate(0.000000, 0.248045)">
                        <path d="M133.941505,67.8759 C133.941505,104.404264 104.229293,134.015945 67.5786502,134.015945 C30.9272317,134.015945 1.21502026,104.404264 1.21502026,67.8759 C1.21502026,31.3475364 30.9272317,1.73585455 67.5786502,1.73585455 C104.229293,1.73585455 133.941505,31.3475364 133.941505,67.8759 L133.941505,67.8759 Z" id="Stroke-159" stroke="#BCCFCF" stroke-width="3.134"></path>
                        <path d="M36.1321797,46.3639455 L30.1272458,43.9963091 C29.1309463,43.6037636 28.6386115,42.4701727 29.0324793,41.4779909 L29.7496599,39.6721273 C30.1435278,38.6799455 31.2801621,38.1892636 32.2764617,38.5818091 L38.2813956,40.9494455 C39.2769198,41.3419909 39.7692546,42.4755818 39.3753868,43.4677636 L38.6589815,45.2736273 C38.2651137,46.2658091 37.127704,46.7564909 36.1321797,46.3639455" id="Fill-161" fill="#C0BFB8"></path>
                        <path d="M31.7956793,40.7850091 C28.7687894,48.9967818 19.6353974,53.2089182 11.3959612,50.1921909 C3.15574978,47.1754636 -1.06980088,38.0727364 1.95708899,29.8609636 C4.98397885,21.6484182 14.1173709,17.4370545 22.356807,20.4537818 C30.5970185,23.4705091 34.8225692,32.5732364 31.7956793,40.7850091" id="Fill-163" fill="#C0BFB8"></path>
                        <path d="M28.3434432,39.5210591 C26.0166767,45.8326955 18.9968352,49.0704227 12.6639366,46.7514682 C6.33103789,44.4325136 3.08240352,37.4362409 5.40917004,31.1246045 C7.73593656,24.8129682 14.755778,21.5752409 21.0886767,23.8941955 C27.4215753,26.21315 30.6702097,33.2094227 28.3434432,39.5210591" id="Fill-165" fill="#2D2622"></path>
                        <path d="M16.464296,21.9048864 L16.5030626,23.14975 L16.464296,21.9048864 L16.4635207,21.9048864 C10.9408423,22.0756591 6.14154714,25.5258864 4.23578502,30.6946591 C1.67564405,37.6414773 5.2630978,45.36875 12.2325427,47.9202955 C13.8646132,48.5176136 15.5656881,48.7934773 17.2892476,48.7409318 C22.811926,48.5701591 27.6112211,45.1199318 29.5162079,39.9503864 C32.0771242,33.0043409 28.4896705,25.2770682 21.5194502,22.72475 C19.8881551,22.1274318 18.1870802,21.8515682 16.464296,21.9048864 M16.5022872,23.14975 C18.0211595,23.1026136 19.5741463,23.3398409 21.0891419,23.8938864 C27.4220405,26.2128409 30.6698996,33.2091136 28.343133,39.52075 C26.5730537,44.32325 22.0854414,47.3461591 17.2504811,47.4952955 C15.7308335,47.5424318 14.178622,47.3059773 12.6636264,46.7511591 C6.33072775,44.4329773 3.08286872,37.4367045 5.40885991,31.1242955 C7.17893921,26.3217955 11.6673269,23.2996591 16.5022872,23.14975" id="Fill-167" fill="#A4A49E"></path>
                        <path d="M19.4831225,26.3034045 C21.3322855,26.2462227 23.0891841,26.6294955 24.6700828,27.3380864 C22.5828934,25.3197227 19.7141709,24.1088591 16.5779595,24.20545 C10.4319154,24.3955409 5.60393304,29.5148591 5.79466432,35.6402682 C5.89080529,38.7528136 7.2685674,41.5214955 9.40382731,43.4718591 C8.60678767,41.9519045 8.12143084,40.2403136 8.06483172,38.4104955 C7.86324581,31.9249955 12.9757744,26.5043136 19.4831225,26.3034045" id="Fill-169" fill="#6B625E"></path>
                        <path d="M5.40885991,31.12445 C7.17893921,26.32195 11.6673269,23.2998136 16.5015119,23.1499045 C18.0211595,23.1027682 19.5741463,23.3399955 21.0883665,23.8940409 C21.7318907,24.1297227 22.3343225,24.4249045 22.9111683,24.7517682 C23.8206308,24.7764955 24.7107101,24.8862227 25.5713269,25.0739955 C24.4013533,24.0856773 23.0406485,23.2820409 21.5194502,22.7249045 C19.8881551,22.1275864 18.1870802,21.8517227 16.464296,21.9050409 L16.5030626,23.1499045 L16.4635207,21.9050409 L16.4627454,21.9050409 C10.940067,22.0758136 6.14077181,25.5260409 4.23578502,30.6948136 C1.81752952,37.2552682 4.88473656,44.5104045 11.104437,47.4459955 C10.5710097,46.7366318 10.1027101,45.9754955 9.70806696,45.1710864 C5.39102731,42.0531318 3.47983789,36.3581318 5.40885991,31.12445" id="Fill-171" fill="#FFFFFF"></path>
                        <path d="M124.709568,87.2607682 C124.007894,86.5599045 120.68793,84.15595 121.389604,83.4566318 L120.263824,79.90595 L146.854555,57.1985864 C147.55778,56.4984955 148.695189,56.4984955 149.397639,57.1985864 L175.987595,79.90595 L169.964053,92.8970409 C170.664952,93.5963591 147.943119,105.188041 147.241445,105.888905 L124.709568,87.2607682 Z" id="Fill-173" fill="#08566F"></path>
                        <path d="M170.548342,104.111786 L125.704007,104.111786 C125.395426,104.111786 125.145769,103.86065 125.145769,103.555423 L125.145769,73.4151955 C125.145769,73.1091955 125.395426,72.8596045 125.704007,72.8596045 L170.548342,72.8596045 C170.856148,72.8596045 171.105029,73.1091955 171.105029,73.4151955 L171.105029,103.555423 C171.105029,103.86065 170.856148,104.111786 170.548342,104.111786" id="Fill-175" fill="#DBDBD1"></path>
                        <mask id="mask-4" fill="white">
                            <use xlink:href="#path-3"></use>
                        </mask>
                        <g id="Clip-178"></g>
                        <polygon id="Fill-177" fill="#8E9294" mask="url(#mask-4)" points="134.075559 86.7185455 162.175859 86.7185455 162.175859 84.5147273 134.075559 84.5147273"></polygon>
                        <polygon id="Fill-179" fill="#8E9294" mask="url(#mask-4)" points="134.075559 91.7041818 162.175859 91.7041818 162.175859 89.5003636 134.075559 89.5003636"></polygon>
                        <polygon id="Fill-180" fill="#8E9294" mask="url(#mask-4)" points="134.075559 96.6913636 162.175859 96.6913636 162.175859 94.486 134.075559 94.486"></polygon>
                        <polygon id="Fill-181" fill="#8E9294" mask="url(#mask-4)" points="134.075559 101.677 162.175859 101.677 162.175859 99.4747273 134.075559 99.4747273"></polygon>
                        <path d="M122.366985,116.918891 L167.730791,116.918891 C168.893011,116.918891 120.262738,79.9052545 120.262738,79.9052545 L120.262738,114.822482 C120.262738,115.979255 121.204765,116.918891 122.366985,116.918891" id="Fill-182" fill="#D84B55" mask="url(#mask-4)"></path>
                        <path d="M173.885441,116.918891 L128.521635,116.918891 C127.359415,116.918891 175.988913,79.9052545 175.988913,79.9052545 L175.988913,114.822482 C175.988913,115.979255 175.047662,116.918891 173.885441,116.918891" id="Fill-183" fill="#C42B34" mask="url(#mask-4)"></path>
                    </g>
                </g>
            </g>
        </g>
    </g>
</svg>