<?xml version="1.0" encoding="UTF-8"?>
<svg width="100px" height="100px" viewBox="0 0 100 100" version="1.1" xmlns="http://www.w3.org/2000/svg" xmlns:xlink="http://www.w3.org/1999/xlink">
    <!-- Generator: Sketch 47.1 (45422) - http://www.bohemiancoding.com/sketch -->
    <title>Group 166</title>
    <desc>Created with Sketch.</desc>
    <defs>
        <circle id="path-1" cx="50" cy="50" r="50"></circle>
    </defs>
    <g id="Søknad-om-sykepenger" stroke="none" stroke-width="1" fill="none" fill-rule="evenodd">
        <g id="Før-du-begynner" transform="translate(-224.000000, -383.000000)">
            <g id="Group-166" transform="translate(224.000000, 383.000000)">
                <mask id="mask-2" fill="white">
                    <use xlink:href="#path-1"></use>
                </mask>
                <use id="Oval-13" fill="#A4DFF7" xlink:href="#path-1"></use>
                <g id="Søknad-på-telefon-i-hånd" mask="url(#mask-2)">
                    <g transform="translate(-26.000000, 24.000000)">
                        <g id="Page-1" stroke-width="1" fill="none" transform="translate(0.000000, 9.000000)">
                            <path d="M97.1981263,34.7786907 C97.1981263,36.4094919 95.8584421,37.7300497 94.2053895,37.7300497 L51.0563368,37.7300497 C49.4032842,37.7300497 48.0636,36.4094919 48.0636,34.7786907 C48.0636,33.1505872 49.4032842,31.8286805 51.0563368,31.8286805 L94.2053895,31.8286805 C95.8584421,31.8286805 97.1981263,33.1505872 97.1981263,34.7786907 Z" id="Fill-1" fill="#CCC8C4"></path>
                            <path d="M100.913116,28.3029665 L100.913116,28.3029665 C100.913116,29.93107 99.5748,31.2529767 97.9203789,31.2529767 L54.7754316,31.2529767 C53.1196421,31.2529767 51.7826947,29.93107 51.7826947,28.3029665 C51.7826947,26.6721653 53.1196421,25.3516075 54.7754316,25.3516075 L97.9203789,25.3516075 C99.5748,25.3516075 100.913116,26.6721653 100.913116,28.3029665" id="Fill-3" fill="#CCC8C4"></path>
                            <path d="M103.617937,21.8221166 L103.617937,21.8221166 C103.617937,23.451569 102.275516,24.7734757 100.623832,24.7734757 L57.4747789,24.7734757 C55.8217263,24.7734757 54.4834105,23.451569 54.4834105,21.8221166 C54.4834105,20.1926643 55.8217263,18.8707576 57.4747789,18.8707576 L100.623832,18.8707576 C102.275516,18.8707576 103.617937,20.1926643 103.617937,21.8221166" id="Fill-5" fill="#CCC8C4"></path>
                            <path d="M100.081937,15.3423458 L100.081937,15.3423458 C100.081937,16.9717982 98.7408842,18.2937049 97.0878316,18.2937049 L65.9165684,18.2937049 C64.2621474,18.2937049 62.9238316,16.9717982 62.9238316,15.3423458 C62.9238316,13.7115446 64.2621474,12.3909868 65.9165684,12.3909868 L97.0878316,12.3909868 C98.7408842,12.3909868 100.081937,13.7115446 100.081937,15.3423458" id="Fill-7" fill="#CCC8C4"></path>
                            <path d="M42.8166632,34.3895375 L46.5346632,34.3895375 C47.5527684,34.3895375 48.3998211,36.1363428 48.3998211,36.1363428 L78.2642421,32.5010994 L78.2642421,15.3419412 L68.4581368,12.3905822 C68.4581368,12.3905822 68.2337158,11.6675801 69.3585579,10.945927 C70.4902421,10.2229249 75.7874,8.05661663 75.7874,8.05661663 C75.7874,8.05661663 82.0397158,5.17000406 80.9135053,2.49921298 C79.7872947,-0.163484787 75.6738211,1.05725558 75.6738211,1.05725558 C75.6738211,1.05725558 69.1875053,2.41558215 66.0935053,3.16960852 C62.1798211,4.12057201 58.2018211,6.33544016 55.2692947,8.16857404 C52.3408737,10.0017079 48.0631895,13.500714 48.0631895,14.7228032 L42.8166632,15.0020223 L42.8166632,34.3895375 Z" id="Fill-9" fill="#CCC8C4"></path>
                            <polygon id="Fill-11" fill="#8E9738" points="0 37.9008185 42.8165263 37.9008185 42.8165263 11.6461329 0 11.6461329"></polygon>
                        </g>
                        <g id="Page-1" stroke-width="1" fill="none" transform="translate(69.000000, 0.000000)">
                            <path d="M27.1747826,52.9523282 L3.69782609,52.9523282 C1.65586957,52.9523282 0,51.3418189 0,49.3557989 L0,4.18415266 C0,2.1974984 1.65586957,0.587623404 3.69782609,0.587623404 L27.1747826,0.587623404 C29.2167391,0.587623404 30.8726087,2.1974984 30.8726087,4.18415266 L30.8726087,49.3557989 C30.8726087,51.3418189 29.2167391,52.9523282 27.1747826,52.9523282 Z" id="Fill-1" fill="#B5B9C1"></path>
                            <polygon id="Fill-3" fill="#FFFFFF" points="2.30347826 45.3692334 28.5691304 45.3692334 28.5691304 6.80200731 2.30347826 6.80200731"></polygon>
                            <path d="M17.6743043,49.0408648 C17.6743043,50.252394 16.671913,51.2349379 15.4360435,51.2349379 C14.2001739,51.2349379 13.1977826,50.252394 13.1977826,49.0408648 C13.1977826,47.8293355 14.2001739,46.8467916 15.4360435,46.8467916 C16.671913,46.8467916 17.6743043,47.8293355 17.6743043,49.0408648" id="Fill-5" fill="#657585"></path>
                        </g>
                        <path d="M43,44.2709003 L46.695383,44.2709003 C47.707295,44.2709003 48.5491949,46 48.5491949,46 L67.6531144,41.7366677 L67.2899686,26.8944498 L68.4854937,22.4949259 C68.4854937,22.4949259 68.2624378,21.7792522 69.3804373,21.0649137 C70.5052374,20.34924 75.7701721,18.2048893 75.7701721,18.2048893 C75.7701721,18.2048893 81.9844543,15.3475354 80.8650946,12.7038154 C79.745735,10.0681067 75.657284,11.2764736 75.657284,11.2764736 C75.657284,11.2764736 69.2104252,12.6210322 66.1352464,13.3674158 C62.2453696,14.3087404 58.2915682,16.5011587 55.3768808,18.3157119 C52.4662737,20.1302652 48.2146111,23.5938054 48.2146111,24.8035076 L43,25.0798965 L43,44.2709003 Z" id="Fill-29" fill="#CCC8C4"></path>
                        <g id="Group-2" stroke-width="1" fill="none" transform="translate(73.000000, 19.000000)">
                            <polygon id="Fill-10" fill="#A59D96" points="4.97900693 3.52987615 20 3.52987615 20 1.60990972 4.97900693 1.60990972"></polygon>
                            <polygon id="Fill-12" fill="#A59D96" points="4.97900693 8.77123871 18.6666667 8.77123871 18.6666667 7.02312798 4.97900693 7.02312798"></polygon>
                            <polygon id="Fill-13" fill="#A59D96" points="4.97900693 14.1825006 18.6666667 14.1825006 18.6666667 12.4343899 4.97900693 12.4343899"></polygon>
                            <polygon id="Fill-14" fill="#A59D96" points="4.97900693 18.6666667 11.3998722 18.6666667 11.3998722 17.84663 4.97900693 17.84663"></polygon>
                            <path d="M2.58666674,0.632713294 L2.02226204,0.632713294 L0.564404701,0.632713294 L0,0.632713294 L0,1.27782885 L0,2.85513637 L0,3.50025192 L0.564404701,3.50025192 L2.02226204,3.50025192 L2.58666674,3.50025192 L2.58666674,2.85513637 L2.58666674,1.27782885 L2.58666674,0.632713294 Z M0.564404701,2.85513637 L2.02226204,2.85513637 L2.02226204,1.27782885 L0.564404701,1.27782885 L0.564404701,2.85513637 Z" id="Fill-15" fill="#A59D96"></path>
                            <path d="M2.58666674,6.04417083 L2.02226204,6.04417083 L0.564404701,6.04417083 L0,6.04417083 L0,6.68928639 L0,8.26594879 L0,8.91106435 L0.564404701,8.91106435 L2.02226204,8.91106435 L2.58666674,8.91106435 L2.58666674,8.26594879 L2.58666674,6.68928639 L2.58666674,6.04417083 Z M0.564404701,8.26594879 L2.02226204,8.26594879 L2.02226204,6.68928639 L0.564404701,6.68928639 L0.564404701,8.26594879 Z" id="Fill-16" fill="#A59D96"></path>
                            <path d="M2.58666674,11.4556284 L2.02226204,11.4556284 L0.564404701,11.4556284 L0,11.4556284 L0,12.1007439 L0,13.6774063 L0,14.3225219 L0.564404701,14.3225219 L2.02226204,14.3225219 L2.58666674,14.3225219 L2.58666674,13.6774063 L2.58666674,12.1007439 L2.58666674,11.4556284 Z M0.564404701,13.6774063 L2.02226204,13.6774063 L2.02226204,12.1007439 L0.564404701,12.1007439 L0.564404701,13.6774063 Z" id="Fill-17" fill="#A59D96"></path>
                            <path d="M2.58666674,16.8680641 L2.02226204,16.8680641 L0.564404701,16.8680641 L0,16.8680641 L0,17.5131796 L0,19.089842 L0,19.7349576 L0.564404701,19.7349576 L2.02226204,19.7349576 L2.58666674,19.7349576 L2.58666674,19.089842 L2.58666674,17.5131796 L2.58666674,16.8680641 Z M0.564404701,19.089842 L2.02226204,19.089842 L2.02226204,17.5131796 L0.564404701,17.5131796 L0.564404701,19.089842 Z" id="Fill-18" fill="#A59D96"></path>
                        </g>
                    </g>
                </g>
            </g>
        </g>
    </g>
</svg>