<?xml version="1.0" encoding="UTF-8" standalone="no"?>
<svg width="16px" height="17px" viewBox="0 0 16 17" version="1.1" xmlns="http://www.w3.org/2000/svg" xmlns:xlink="http://www.w3.org/1999/xlink">
    <!-- Generator: Sketch 44.1 (41455) - http://www.bohemiancoding.com/sketch -->
    <title>check circle 2 copy</title>
    <desc>Created with Sketch.</desc>
    <defs></defs>
    <g id="PDF" stroke="none" stroke-width="1" fill="none" fill-rule="evenodd">
        <g id="A4-Copy-17" transform="translate(-46.000000, -198.000000)" fill="#3DA063">
            <g id="check-circle-2-copy" transform="translate(46.000000, 198.000000)">
                <g id="Filled_Version">
                    <path d="M8,0 C3.58866667,0 0,3.61899725 0,8.0661157 C0,12.5132342 3.58866667,16.1322314 8,16.1322314 C12.4106667,16.1322314 16,12.5132342 16,8.0661157 C16,3.61899725 12.4106667,0 8,0 Z M11.5606667,5.95951515 L6.56066667,10.6647493 C6.49666667,10.724573 6.41466667,10.7548209 6.33333333,10.7548209 C6.24733333,10.7548209 6.16266667,10.7218843 6.09733333,10.6566832 L4.43066667,8.97624242 C4.30066667,8.84516804 4.30066667,8.63208815 4.43066667,8.50101377 C4.56066667,8.36993939 4.772,8.36993939 4.902,8.50101377 L6.34066667,9.95157025 L11.1053333,5.46815427 C11.2393333,5.34178512 11.4506667,5.34783471 11.5766667,5.48361433 C11.7026667,5.61939394 11.6953333,5.83247383 11.5606667,5.95951515 Z" id="Shape"></path>
                </g>
            </g>
        </g>
    </g>
</svg>