<?xml version="1.0" encoding="UTF-8" standalone="no"?>
<svg width="183px" height="129px" viewBox="0 0 183 129" version="1.1" xmlns="http://www.w3.org/2000/svg" xmlns:xlink="http://www.w3.org/1999/xlink">
    <!-- Generator: sketchtool 3.8.1 (29687) - http://www.bohemiancoding.com/sketch -->
    <title>AA07D0E2-5A5F-464B-883E-1263105CBAD4</title>
    <desc>Created with sketchtool.</desc>
    <defs>
        <polygon id="path-1" points="0.786725495 29.7792623 20.2882923 29.7792623 20.2882923 0.800636738 0.786725495 0.800636738"></polygon>
    </defs>
    <g id="tidslinje-3105" stroke="none" stroke-width="1" fill="none" fill-rule="evenodd">
        <g id="landingsside" transform="translate(-268.000000, -370.000000)">
            <g id="illustrasjon-landingsside" transform="translate(268.000000, 370.000000)">
                <path d="M48.7791162,83.4519533 L48.7791162,113.022761 C48.7791162,113.022761 48.7065085,105.269517 67.6699244,105.269517 C86.6354757,105.269517 67.1253668,83.4519533 67.1253668,83.4519533 L48.7791162,83.4519533 L48.7791162,83.4519533 Z" id="Fill-1" fill="#2E3137"></path>
                <path d="M86.8507361,83.4519533 L86.8507361,113.022761 C86.8507361,113.022761 86.7930771,105.269517 67.8296613,105.269517 C48.8641099,105.269517 68.2439521,83.4519533 68.2439521,83.4519533 L86.8507361,83.4519533 Z" id="Fill-3" fill="#2E3137"></path>
                <path d="M86.5615868,83.2194624 C86.5615868,94.9078228 78.1006573,104.384009 67.6665075,104.384009 C57.2302223,104.384009 48.7714283,94.9078228 48.7714283,83.2194624 C48.7714283,71.5311019 57.2302223,62.0570423 67.6665075,62.0570423 C78.1006573,62.0570423 86.5615868,71.5311019 86.5615868,83.2194624" id="Fill-5" fill="#2E3137"></path>
                <path d="M73.9118352,97.7776929 L67.7188278,97.7776929 L61.5258204,97.7776929 C58.1858674,97.7776929 47.087571,104.822615 47.087571,111.237919 L47.087571,128.114253 L88.5422814,128.114253 L88.5422814,111.237919 C88.5422814,104.822615 77.2496527,97.7776929 73.9118352,97.7776929" id="Fill-7" fill="#96A947"></path>
                <path d="M73.5458071,97.2861223 C72.830408,97.2861223 67.7179736,99.4642626 67.7179736,99.4642626 C67.7179736,99.4642626 61.7000788,97.7583363 61.236671,97.6689985 C60.7711277,97.5775337 57.4226326,99.3451456 57.4226326,99.3451456 C58.2618919,100.572477 60.6472675,106.287968 67.7179736,106.287968 C74.7886796,106.287968 77.1825973,100.572477 78.0218566,99.3451456 C78.0218566,99.3451456 74.2612062,97.2861223 73.5458071,97.2861223" id="Fill-9" fill="#E6E4E1"></path>
                <path d="M52.1399973,79.5198144 C52.1399973,79.5198144 52.0588475,79.6836004 51.9520715,79.6112793 C51.8047207,79.5538479 51.7983141,79.5198144 51.6317436,79.5198144 C50.9078024,79.5198144 50.4721563,80.1047642 50.4721563,80.8258478 L50.4721563,86.0989043 C50.4721563,86.8199879 50.9078024,87.4049377 51.6317436,87.4049377 C51.9221743,87.4049377 52.1122355,87.3092186 52.327923,87.1496868 C54.0918624,95.1837064 60.310496,101.122542 67.7570536,101.122542 C75.2014756,101.122542 81.439329,95.1837064 83.2011328,87.1496868 C83.4189558,87.3092186 83.6196947,87.4049377 83.9122609,87.4049377 C84.6362021,87.4049377 85.1594045,86.8199879 85.1594045,86.0989043 L85.1594045,80.8258478 C85.1594045,80.1047642 84.6255245,79.5198144 83.9037188,79.5198144 C83.7350127,79.5198144 83.6026105,79.5538479 83.4573952,79.6112793 C66.665803,81.5511855 52.1399973,79.5198144 52.1399973,79.5198144" id="Fill-11" fill="#E6E4E1"></path>
                <g id="Group-15" transform="translate(59.794554, 98.335416)">
                    <mask id="mask-2" fill="white">
                        <use xlink:href="#path-1"></use>
                    </mask>
                    <g id="Clip-14"></g>
                    <polyline id="Fill-13" fill="#FEFEFE" mask="url(#mask-2)" points="18.1057911 0.800636738 0.786725495 29.7801131 20.2882923 29.7801131 20.2882923 1.97053633"></polyline>
                </g>
                <polyline id="Fill-16" fill="#FEFEFE" points="57.323758 99.0082145 66.1669455 127.272989 63.1622692 127.272989"></polyline>
                <path d="M71.5785663,20.4907226 L40.0604295,20.4907226 C38.6488509,20.4907226 37.5042123,21.6308429 37.5042123,23.0368495 L37.5042123,45.3308815 C37.5042123,46.7368881 38.6488509,47.8770084 40.0604295,47.8770084 L46.8620601,47.8770084 L46.8620601,58.4018506 L60.4589147,47.8770084 L71.5785663,47.8770084 C72.9901449,47.8770084 74.1347835,46.7368881 74.1347835,45.3308815 L74.1347835,23.0368495 C74.1347835,21.6308429 72.9901449,20.4907226 71.5785663,20.4907226" id="Fill-40" fill="#828687"></path>
                <path d="M62.86351,0.168928571 L106.041585,0.168928571 C107.976366,0.168928571 109.543837,1.73021275 109.543837,3.65735644 L109.543837,34.198117 C109.543837,36.1252607 107.976366,37.6865449 106.041585,37.6865449 L96.7221764,37.6865449 L96.7221764,52.1060891 L78.0961727,37.6865449 L62.86351,37.6865449 C60.928729,37.6865449 59.3612575,36.1252607 59.3612575,34.198117 L59.3612575,3.65735644 C59.3612575,1.73021275 60.928729,0.168928571 62.86351,0.168928571" id="Fill-41" fill="#561D5B"></path>
                <polygon id="Fill-42" fill="#FEFEFE" points="68.2469418 14.0154347 100.659861 14.0154347 100.659861 11.475689 68.2469418 11.475689"></polygon>
                <polygon id="Fill-43" fill="#FEFEFE" points="68.2469418 19.7628323 100.659861 19.7628323 100.659861 17.2230867 68.2469418 17.2230867"></polygon>
                <polygon id="Fill-44" fill="#FEFEFE" points="68.2469418 25.5102299 100.659861 25.5102299 100.659861 22.9704843 68.2469418 22.9704843"></polygon>
                <path d="M167.906526,97.4752206 L161.619555,97.4752206 L155.332585,97.4752206 C151.94138,97.4752206 140.796102,104.469093 140.796102,110.980116 L140.796102,128.113827 L182.443009,128.113827 L182.443009,110.980116 C182.443009,104.469093 171.295596,97.4752206 167.906526,97.4752206" id="Fill-57" fill="#4F7E8A"></path>
                <path d="M167.535159,97.4922374 L161.619769,99.702284 L155.040232,97.8793678 L152.394323,98.9854546 C153.246396,100.231929 157.878338,103.13328 160.261578,103.13328 L159.704208,103.107755 L159.704208,106.540879 L160.541331,107.004585 L157.466183,119.896878 L161.619769,125.64853 L165.771219,119.896878 L162.698206,107.004585 L163.53533,106.540879 L163.53533,103.107755 L162.975824,103.13328 C165.359064,103.13328 170.117002,100.231929 170.969075,98.9854546 L167.535159,97.4922374 Z" id="Fill-58" fill="#0F566F"></path>
                <path d="M177.824093,81.8364283 C177.824093,92.2612972 170.569732,100.714354 161.619769,100.714354 C152.669806,100.714354 145.415445,92.2612972 145.415445,81.8364283 C145.415445,71.4115594 152.669806,62.9606302 161.619769,62.9606302 C170.569732,62.9606302 177.824093,71.4115594 177.824093,81.8364283" id="Fill-59" fill="#E6E4E1"></path>
                <path d="M178.800026,86.7874434 L177.407667,86.7874434 C177.057442,86.7874434 176.773418,86.5045404 176.773418,86.1556976 L176.773418,79.417076 C176.773418,79.0661061 177.057442,78.7832031 177.407667,78.7832031 L178.800026,78.7832031 C179.150251,78.7832031 179.434275,79.0661061 179.434275,79.417076 L179.434275,86.1556976 C179.434275,86.5045404 179.150251,86.7874434 178.800026,86.7874434" id="Fill-60" fill="#E6E4E1"></path>
                <path d="M157.36859,93.4579981 L165.87223,93.4579981 L165.87223,90.9735568 L157.36859,90.9735568 L157.36859,93.4579981 Z M167.834772,90.5226137 L167.834772,88.901771 L154.793153,88.901771 L154.793153,90.7097977 L147.248361,90.7097977 C149.97542,96.6613959 155.359066,100.713503 161.556344,100.713503 C167.851856,100.713503 173.305974,96.6294896 175.990322,90.5226137 L167.834772,90.5226137 Z" id="Fill-61" fill="#BEBEBC"></path>
                <path d="M145.830376,86.7874434 L144.438017,86.7874434 C144.087792,86.7874434 143.803768,86.5045404 143.803768,86.1556976 L143.803768,79.417076 C143.803768,79.0661061 144.087792,78.7832031 144.438017,78.7832031 L145.830376,78.7832031 C146.180601,78.7832031 146.464626,79.0661061 146.464626,79.417076 L146.464626,86.1556976 C146.464626,86.5045404 146.180601,86.7874434 145.830376,86.7874434" id="Fill-62" fill="#E6E4E1"></path>
                <path d="M176.773204,80.8373341 C178.101497,81.1861769 177.689342,80.2183508 177.689342,78.782565 C177.689342,68.3576961 170.434981,59.9067669 161.485018,59.9067669 C152.535054,59.9067669 145.280693,68.3576961 145.280693,78.782565 C145.280693,80.1566652 145.404554,81.4946049 145.645867,82.7857487 C145.645867,82.7857487 150.158221,78.7293877 151.249471,77.0808928 C152.705896,74.8793545 154.113203,70.2763314 154.113203,70.2763314 C154.61505,70.2763314 160.902021,76.659729 176.773204,80.8373341" id="Fill-63" fill="#2E3137"></path>
                <path d="M135.574329,81.3035922 L135.533754,81.3035922 C135.533754,68.6793121 126.395865,58.4437542 115.124591,58.4437542 C103.851182,58.4437542 94.7132929,68.6793121 94.7132929,81.3035922 L94.7132929,81.3142277 C94.7090219,92.0964477 89.1310442,98.260755 89.1310442,98.260755 C89.1310442,98.260755 94.6406853,104.995122 115.124591,104.995122 L115.143811,104.995122 L115.165166,104.995122 C135.649072,104.995122 141.156578,98.260755 141.156578,98.260755 C141.156578,98.260755 135.574329,92.0921936 135.574329,81.3035922" id="Fill-64" fill="#E57F68"></path>
                <path d="M121.379102,97.7311096 L115.143384,97.7311096 L108.909801,97.7311096 C105.548493,97.7311096 94.4929073,104.667551 94.4929073,111.125396 L94.4929073,128.114465 L135.79386,128.114465 L135.79386,111.125396 C135.79386,104.667551 124.74041,97.7311096 121.379102,97.7311096" id="Fill-65" fill="#581E56"></path>
                <path d="M133.130654,78.6398372 C133.021742,78.0080914 132.472913,77.5273691 131.808767,77.5273691 C131.637925,77.5273691 131.47349,77.5614025 131.324004,77.620961 C131.304784,77.6230881 131.285564,77.6230881 131.266345,77.6252152 C126.279906,70.8610685 116.554749,77.101951 109.133818,70.6419782 C108.181376,69.6337375 107.685935,68.9296706 107.555668,68.9296706 C107.555668,68.9296706 100.358967,75.1450281 99.1588045,77.5273691 C99.1588045,77.5273691 99.0755192,77.6975363 98.9666077,77.620961 C98.8149858,77.5614025 98.6526863,77.5273691 98.4818447,77.5273691 C97.8155626,77.5273691 97.266734,78.0080914 97.1578225,78.6398372 C97.1300607,78.7461917 97.110841,78.8568004 97.110841,78.9716633 L97.110841,84.391489 C97.110841,85.1317164 97.7151931,85.7336829 98.458354,85.7336829 C98.7573268,85.7336829 99.0306733,85.6337097 99.2527674,85.4699237 C100.429439,90.832318 103.562246,95.2736823 107.703019,97.7368527 C106.549839,98.215448 104.775222,99.1513677 104.775222,99.1513677 C105.620887,100.389334 108.021212,106.140986 115.141035,106.140986 C122.258722,106.140986 124.667589,100.389334 125.513254,99.1513677 C125.513254,99.1513677 123.962867,98.3047858 122.658064,97.6943109 C126.764669,95.2226321 129.865444,90.8004117 131.035709,85.4699237 C131.257803,85.6337097 131.531149,85.7336829 131.830122,85.7336829 C132.573283,85.7336829 133.177635,85.1317164 133.177635,84.391489 L133.177635,78.9716633 C133.177635,78.8568004 133.158415,78.7461917 133.130654,78.6398372" id="Fill-66" fill="#E6E4E1"></path>
                <path d="M130.759372,122.210089 L118.625349,122.210089 C117.873646,122.210089 117.262887,121.601741 117.262887,120.853005 L117.262887,114.658919 C117.262887,113.910183 117.873646,113.301835 118.625349,113.301835 L130.759372,113.301835 C131.511075,113.301835 132.121834,113.910183 132.121834,114.658919 L132.121834,120.853005 C132.121834,121.601741 131.511075,122.210089 130.759372,122.210089" id="Fill-67" fill="#D12329"></path>
                <path d="M128.061784,117.908687 C128.061784,119.701824 126.603224,121.156754 124.802981,121.156754 C123.000602,121.156754 121.542042,119.701824 121.542042,117.908687 C121.542042,116.11555 123.000602,114.66062 124.802981,114.66062 C126.603224,114.66062 128.061784,116.11555 128.061784,117.908687" id="Fill-68" fill="#FEFEFE"></path>
                <polygon id="Fill-69" fill="#FEFEFE" points="120.580204 119.340006 119.943819 119.340006 120.622914 117.680876 121.261434 117.680876"></polygon>
                <polygon id="Fill-70" fill="#FEFEFE" points="128.594169 119.340006 128.199098 119.340006 128.878193 117.680876 129.273264 117.680876"></polygon>
                <polygon id="Fill-71" fill="#FEFEFE" points="129.681362 119.340006 129.514791 119.340006 130.191751 117.680876 130.360457 117.680876"></polygon>
                <path d="M122.326845,119.331923 L122.826557,119.331923 C122.854319,119.331923 122.873538,119.312779 122.873538,119.287254 L122.873538,117.734478 C122.873538,117.708953 122.854319,117.689809 122.826557,117.689809 L122.322574,117.689809 C122.288406,117.689809 122.26278,117.715334 122.26278,117.747241 L122.064176,118.236471 C122.053499,118.261997 122.072718,118.291776 122.098345,118.291776 L122.241425,118.291776 C122.26278,118.291776 122.281999,118.308793 122.281999,118.332191 L122.281999,119.287254 C122.281999,119.312779 122.301219,119.331923 122.326845,119.331923" id="Fill-72" fill="#C52B34"></path>
                <path d="M123.414252,119.331923 L123.916099,119.331923 C123.941725,119.331923 123.965216,119.312779 123.965216,119.287254 L123.965216,117.734478 C123.965216,117.708953 123.941725,117.689809 123.916099,117.689809 L123.136634,117.689809 C123.102466,117.689809 123.07684,117.715334 123.07684,117.747241 L122.878237,118.236471 L122.807764,118.291776 L123.207107,118.291776 C123.296798,118.291776 123.369406,118.36197 123.369406,118.453435 L123.369406,119.287254 C123.369406,119.312779 123.388626,119.331923 123.414252,119.331923" id="Fill-73" fill="#C52B34"></path>
                <path d="M125.659324,117.689597 L125.157477,117.689597 C125.131851,117.689597 125.110495,117.70874 125.110495,117.734265 L125.110495,119.287041 C125.110495,119.312566 125.131851,119.33171 125.157477,119.33171 L125.663595,119.33171 C125.697763,119.33171 125.72339,119.306185 125.72339,119.274279 L125.921993,118.785048 C125.93267,118.757396 125.915586,118.729744 125.883554,118.729744 L125.744745,118.729744 C125.72339,118.729744 125.706305,118.7106 125.706305,118.691456 L125.706305,117.734265 C125.706305,117.70874 125.682815,117.689597 125.659324,117.689597" id="Fill-74" fill="#C52B34"></path>
                <path d="M123.594276,119.331923 L123.925282,119.331923 C123.955179,119.331923 123.982941,119.306398 123.982941,119.274491 L124.181544,118.783134 C124.192222,118.757609 124.173002,118.727829 124.14524,118.727829 L124.004296,118.727829 L123.594276,119.331923 Z" id="Fill-75" fill="#C52B34"></path>
                <path d="M127.002139,117.689597 L127.600084,117.689597 C127.627846,117.689597 127.649201,117.717249 127.636388,117.742774 L127.004274,119.306185 C127.000003,119.323202 126.985055,119.33171 126.96797,119.33171 L126.427684,119.33171 L126.963699,117.715122 C126.970106,117.700232 126.985055,117.689597 126.985055,117.689597" id="Fill-76" fill="#C52B34"></path>
                <path d="M126.253853,117.689597 L125.410322,117.689597 C125.350528,117.689597 125.651636,117.747028 125.672991,117.802332 L126.270937,119.28066 C126.28375,119.312566 126.313647,119.33171 126.347816,119.33171 L126.858205,119.33171 L126.332867,117.744901 C126.322189,117.710867 126.290156,117.689597 126.253853,117.689597" id="Fill-77" fill="#C52B34"></path>
                <path d="M124.634061,117.689597 C124.913814,117.689597 125.150857,117.881035 125.150857,118.214988 C125.150857,118.546814 125.110282,118.565958 125.110282,118.565958 C125.110282,118.565958 125.061165,118.249021 124.817716,118.249021 C124.576402,118.249021 124.520878,118.389409 124.520878,118.493637 C124.520878,118.614881 124.642603,118.729744 124.713075,118.729744 L125.150857,118.729744 L124.892459,119.301931 C124.883917,119.321075 124.864697,119.33171 124.845477,119.33171 L124.644738,119.33171 C124.435458,119.33171 123.8909,119.059443 123.8909,118.531924 C123.8909,118.002279 124.294513,117.689597 124.634061,117.689597" id="Fill-78" fill="#C52B34"></path>
                <path d="M125.474815,114.23031 L124.208452,114.23031 C124.073914,114.23031 123.965003,114.121828 123.965003,113.987822 L123.965003,113.872959 C123.965003,113.738952 124.073914,113.628343 124.208452,113.628343 L125.474815,113.628343 C125.609353,113.628343 125.718264,113.738952 125.718264,113.872959 L125.718264,113.987822 C125.718264,114.121828 125.609353,114.23031 125.474815,114.23031" id="Fill-79" fill="#581E56"></path>
                <polygon id="Fill-80" fill="#824F82" points="124.438874 113.988672 125.24183 113.988672 125.24183 111.597823 124.438874 111.597823"></polygon>
                <path d="M37.3147917,77.4856781 C37.1439501,77.4856781 36.9795151,77.5197115 36.8300287,77.5792701 C36.7382014,77.5899055 36.6485095,77.5941597 36.5566822,77.6047952 C35.1408325,68.8624546 28.5655671,62.2450771 20.6491952,62.2450771 C12.8417348,62.2450771 6.94983564,63.6021606 4.80790928,77.247444 C4.76092785,77.3261463 4.70113329,77.413357 4.66482946,77.4856781 C4.66482946,77.4856781 4.58154418,77.6558453 4.47263267,77.5792701 C4.32101077,77.5197115 4.15871126,77.4856781 3.98786968,77.4856781 C3.24257327,77.4856781 2.64035668,78.0855175 2.64035668,78.8257449 L2.64035668,84.2370623 C2.64035668,84.9794168 3.24257327,85.5771291 3.98786968,85.5771291 C4.28470693,85.5771291 4.55805347,85.4771559 4.78014752,85.315497 C5.96749653,90.7246873 9.14515,95.1937037 13.3457175,97.6398574 C12.2010788,98.0971818 10.2812465,99.1096767 10.2812465,99.1096767 C11.1269124,100.347643 13.5272366,106.099295 20.6470597,106.099295 C27.7647472,106.099295 30.1736135,100.347643 31.0192793,99.1096767 C31.0192793,99.1096767 29.366387,98.2056634 28.0359582,97.5930614 C32.1959507,95.1383994 35.3394359,90.6906538 36.5203783,85.315497 C36.7446079,85.4771559 37.0158189,85.5771291 37.3147917,85.5771291 C38.0579526,85.5771291 38.6601692,84.9794168 38.6601692,84.2370623 L38.6601692,78.8257449 C38.6601692,78.0855175 38.0579526,77.4856781 37.3147917,77.4856781" id="Fill-81" fill="#E6E4E1"></path>
                <path d="M35.6633942,78.9980392 C36.9703324,79.3405007 36.5645836,78.3875643 36.5645836,76.9751765 C36.5645836,66.7183477 29.4255409,58.4035522 20.6207928,58.4035522 C11.8160446,58.4035522 4.67700192,66.7183477 4.67700192,76.9751765 C4.67700192,78.3280058 4.72825439,79.6701997 5.17457803,79.6340392 L5.95190724,79.6340392 C6.19962754,74.6375044 6.95346603,71.0384678 7.49802358,69.6601134 C8.57646108,66.9268025 9.68906689,65.3931705 13.4070069,67.528769 C17.084372,69.6388425 34.1322265,56.4657731 35.6633942,78.9980392" id="Fill-82" fill="#36363A"></path>
                <path d="M27.3927396,82.8697687 C25.0842427,82.8697687 23.2071208,81.0000565 23.2071208,78.700672 C23.2071208,76.4012875 25.0842427,74.5294482 27.3927396,74.5294482 C29.7012365,74.5294482 31.5783584,76.4012875 31.5783584,78.700672 C31.5783584,81.0000565 29.7012365,82.8697687 27.3927396,82.8697687 M13.9090676,82.8697687 C11.6005707,82.8697687 9.72344876,81.0000565 9.72344876,78.700672 C9.72344876,76.4012875 11.6005707,74.5294482 13.9090676,74.5294482 C16.2175645,74.5294482 18.0946864,76.4012875 18.0946864,78.700672 C18.0946864,81.0000565 16.2175645,82.8697687 13.9090676,82.8697687 M27.3927396,73.1978898 C24.575989,73.1978898 22.2717631,75.3164716 21.9364865,78.0348928 L19.3653207,78.0348928 C19.0300441,75.3164716 16.7258182,73.1978898 13.9090676,73.1978898 C10.8638163,73.1978898 8.38661337,75.6674414 8.38661337,78.700672 C8.38661337,81.7339026 10.8638163,84.2013272 13.9090676,84.2013272 C16.7258182,84.2013272 19.0300441,82.0848725 19.3653207,79.3664512 L21.9364865,79.3664512 C22.2717631,82.0848725 24.575989,84.2013272 27.3927396,84.2013272 C30.4379908,84.2013272 32.9151938,81.7339026 32.9151938,78.700672 C32.9151938,75.6674414 30.4379908,73.1978898 27.3927396,73.1978898" id="Fill-83" fill="#2E3137"></path>
                <path d="M28.1632351,97.6943109 C27.6336262,97.9474346 26.5146139,98.2877691 25.9551077,98.4834614 C24.9578199,100.131956 21.0519542,107.004585 21.0519542,107.004585 L20.2425922,107.004585 C20.2425922,107.004585 16.4862129,100.323394 15.4035043,98.5047323 C14.8247785,98.3047858 13.7570186,97.9984848 13.2103255,97.7368527 C9.94938676,98.5621637 0,105.062551 0,111.124758 L0,128.113827 L41.300953,128.113827 L41.300953,111.124758 C41.300953,105.062551 31.5501696,98.4366654 28.1632351,97.6943109" id="Fill-84" fill="#B0C8C8"></path>
                <path d="M24.5967035,98.8827162 C24.2721045,99.3570573 20.9107963,105.270368 20.9107963,105.270368 L20.3277994,105.270368 C20.3277994,105.270368 17.1586881,99.6357061 16.6867382,98.8912246 C16.2425501,98.7806159 15.8047685,98.6529905 15.375529,98.5040941 C16.456102,100.324883 20.2146169,107.006074 20.2146169,107.006074 L21.0239789,107.006074 C21.0239789,107.006074 24.9298446,100.131318 25.9249968,98.4828232 C25.4893508,98.6359737 25.0472982,98.7657262 24.594568,98.8805891 L24.5967035,98.8827162 Z" id="Fill-85" fill="#6897A4"></path>
                <path d="M20.9206197,105.269943 C20.9206197,105.269943 24.2819279,99.3566319 24.6065269,98.8822908 L24.6043914,98.8822908 C23.3316216,99.2056085 22.0033283,99.3949195 20.630189,99.3949195 C19.2698629,99.3949195 17.9565183,99.2098627 16.6944261,98.8907991 C17.1663759,99.6352807 20.3354873,105.269943 20.3354873,105.269943 L20.9206197,105.269943 Z" id="Fill-86" fill="#E6E4E1"></path>
                <path d="M11.2499183,107.478926 C8.4224901,102.546204 9.96006436,99.4257623 10.9317259,98.6727724 L12.1724629,98.1580166 C10.357271,100.144719 9.99850371,103.490632 12.1724629,107.025855 L11.2499183,107.478926 Z" id="Fill-87" fill="#FEFEFE"></path>
                <path d="M9.46035272,107.531465 C10.9402679,106.655104 11.7218682,106.365819 12.9604697,106.21905 C14.5172636,106.03612 15.9758236,106.62107 17.2635421,107.533592 C17.9212822,108.001552 18.3483861,108.6099 18.5427184,109.416067 C19.083005,111.685672 19.6681374,113.944642 20.2361856,116.209993 C20.5970885,117.65216 20.2191015,118.866728 19.1171733,119.868588 C19.0488366,119.930273 18.9954486,120.032374 18.9783645,120.123839 C18.8331491,120.847049 18.2672364,121.344788 17.5710569,121.349043 C16.8407092,121.355424 16.2513057,120.872574 16.1124969,120.157872 C15.9779592,119.475076 16.3495396,118.805043 17.0264994,118.539156 C17.4664165,118.366862 17.8956559,118.432802 18.331302,118.673163 C18.8651819,118.10523 19.087276,117.450086 18.9014858,116.684334 C18.5234988,115.140066 18.1284276,113.597926 17.7418985,112.055786 C17.5411597,111.251745 17.3276077,110.447705 17.1418175,109.639411 C17.0585322,109.271425 16.8663354,108.99703 16.5823113,108.76305 C14.6560724,107.174114 11.7902048,107.244308 9.95579332,108.928963 C9.41764233,109.424575 8.94996349,109.975491 8.63177104,110.643398 C8.44811634,111.030528 8.4011349,111.417659 8.51218193,111.847331 C9.10372092,114.150969 9.6739047,116.458862 10.2547661,118.764628 C10.4533694,119.54527 10.944539,120.060026 11.7218682,120.315277 C12.0165699,119.877096 12.4009635,119.600574 12.94125,119.579303 C13.6246163,119.551651 14.2375105,119.99834 14.4147587,120.657738 C14.5877358,121.300119 14.2866275,121.980788 13.6865464,122.306233 C13.0971429,122.627424 12.3518465,122.497671 11.9162005,121.978661 C11.7923403,121.831892 11.6599381,121.755317 11.4741479,121.704267 C10.1736163,121.355424 9.27883354,120.540748 8.93501485,119.24535 C8.28581683,116.805578 7.69214233,114.350916 7.08351918,111.900508 C6.94043936,111.326194 7.06857054,110.768896 7.29280012,110.232869 C7.75834344,109.12891 8.51431745,108.24404 9.46035272,107.531465" id="Fill-88" fill="#FEFEFE"></path>
                <polygon id="Fill-89" fill="#FEFEFE" points="30.7841586 109.387989 29.9406283 109.387989 29.9406283 98.3015952 30.7841586 98.7419028"></polygon>
                <path d="M34.2776554,111.379158 C34.2776554,113.533901 32.5243937,115.280242 30.3611121,115.280242 C28.1999661,115.280242 26.4467043,113.533901 26.4467043,111.379158 C26.4467043,109.224416 28.1999661,107.478075 30.3611121,107.478075 C32.5243937,107.478075 34.2776554,109.224416 34.2776554,111.379158" id="Fill-90" fill="#FEFEFE"></path>
                <path d="M33.326922,111.379158 C33.326922,113.010636 32.0007642,114.333686 30.360685,114.333686 C28.7248769,114.333686 27.3965835,113.010636 27.3965835,111.379158 C27.3965835,109.74768 28.7248769,108.42463 30.360685,108.42463 C32.0007642,108.42463 33.326922,109.74768 33.326922,111.379158" id="Fill-91" fill="#DCDCD8"></path>
            </g>
        </g>
    </g>
</svg>