<?xml version="1.0" encoding="utf-8"?>
<!-- Generator: Adobe Illustrator 19.2.1, SVG Export Plug-In . SVG Version: 6.00 Build 0)  -->
<svg version="1.1" id="Layer_1" xmlns="http://www.w3.org/2000/svg" xmlns:xlink="http://www.w3.org/1999/xlink" x="0px" y="0px"
	 viewBox="0 0 16 16" style="enable-background:new 0 0 16 16;" xml:space="preserve">
<style type="text/css">
	.st0{fill:#0067C5;}
</style>
<title>Dialogmøter hover</title>
<desc>Created with Sketch.</desc>
<g id="Page-1">
	<g id="Dialogmøter-hover">
		<g id="Group">
			<rect id="Rectangle-path" x="8" y="10.7" class="st0" width="2.7" height="2"/>
			<rect id="Rectangle-path_1_" x="4.7" y="10.7" class="st0" width="2.7" height="2"/>
			<rect id="Rectangle-path_2_" x="8" y="8" class="st0" width="2.7" height="2"/>
			<rect id="Rectangle-path_3_" x="4.7" y="8" class="st0" width="2.7" height="2"/>
			<path id="Shape" class="st0" d="M0,15.7C0,15.9,0.1,16,0.3,16h15.3c0.2,0,0.3-0.1,0.3-0.3V5.3H0V15.7z"/>
			<path id="Shape_1_" class="st0" d="M15.7,1.3h-2.3v-1C13.3,0.1,13.2,0,13,0h-2c-0.2,0-0.3,0.1-0.3,0.3v1H5.3v-1
				C5.3,0.1,5.2,0,5,0H3C2.8,0,2.7,0.1,2.7,0.3v1H0.3C0.1,1.3,0,1.5,0,1.7v3h16v-3C16,1.5,15.9,1.3,15.7,1.3z M4.7,2.7H3.3v-2h1.3
				V2.7z M12.7,2.7h-1.3v-2h1.3V2.7z"/>
		</g>
	</g>
</g>
</svg>
