<?xml version="1.0" encoding="UTF-8" standalone="no"?>
<svg width="24px" height="25px" viewBox="0 0 24 25" version="1.1" xmlns="http://www.w3.org/2000/svg" xmlns:xlink="http://www.w3.org/1999/xlink">
    <!-- Generator: sketchtool 3.8.1 (29687) - http://www.bohemiancoding.com/sketch -->
    <title>F0163D56-00C4-4630-BB63-6AAD9DD8D9A0</title>
    <desc>Created with sketchtool.</desc>
    <defs></defs>
    <g id="tidslinje-3105" stroke="none" stroke-width="1" fill="none" fill-rule="evenodd">
        <g id="siste-versjon-tidslinje" transform="translate(-220.000000, -1547.000000)" fill="#3E3832">
            <g id="clock-2-copy-5" transform="translate(220.000000, 1547.500000)">
                <g id="Filled_Version">
                    <g id="Group">
                        <path d="M12,0 C5.383,0 0,5.383 0,12 C0,18.617 5.383,24 12,24 C18.617,24 24,18.617 24,12 C24,5.383 18.617,0 12,0 L12,0 Z M17.869,17.838 C17.68,18.044 17.362,18.053 17.162,17.869 L11.162,12.369 C11.059,12.273 11,12.141 11,12 L11,6.5 C11,6.224 11.224,6 11.5,6 C11.776,6 12,6.224 12,6.5 L12,11.78 L17.838,17.131 C18.042,17.318 18.055,17.635 17.869,17.838 L17.869,17.838 Z" id="Shape"></path>
                    </g>
                </g>
            </g>
        </g>
    </g>
</svg>