<?xml version="1.0" encoding="UTF-8"?>
<svg width="70px" height="70px" viewBox="0 0 70 70" version="1.1" xmlns="http://www.w3.org/2000/svg" xmlns:xlink="http://www.w3.org/1999/xlink">
    <!-- Generator: Sketch 42 (36781) - http://www.bohemiancoding.com/sketch -->
    <title>Page 1 Copy 2</title>
    <desc>Created with Sketch.</desc>
    <defs>
        <polygon id="path-1" points="0 69.9592075 69.9793269 69.9592075 69.9793269 0.588228438 0 0.588228438"></polygon>
        <path d="M0.282692308,7.69070663 C3.50621879,8.66033396 6.92681356,9.18178904 10.4704327,9.18178904 C18.7904043,9.18178904 26.4322026,6.30726121 32.4375,1.50668219 L32.4375,0.27983683 L0.282692308,0.27983683 L0.282692308,7.69070663 L0.282692308,7.69070663 Z" id="path-3"></path>
    </defs>
    <g id="Kvitteringer" stroke="none" stroke-width="1" fill="none" fill-rule="evenodd">
        <g id="Kvittering-del-C---periode-ikke-over" transform="translate(-287.000000, -677.000000)">
            <g id="Page-1-Copy-2" transform="translate(287.000000, 677.000000)">
                <g id="Group-96" transform="translate(0.000000, 0.125427)">
                    <path d="M69.9347596,35.2687922 C69.9347596,54.3733668 54.2893269,69.8607649 34.9890865,69.8607649 C15.6895673,69.8607649 0.0448557692,54.3733668 0.0448557692,35.2687922 C0.0448557692,16.1642177 15.6895673,0.676819639 34.9890865,0.676819639 C54.2893269,0.676819639 69.9347596,16.1642177 69.9347596,35.2687922 Z" id="Fill-1" fill="#EBE8E2"></path>
                    <path d="M69.9347596,35.2687922 C69.9347596,54.3733668 54.2893269,69.8607649 34.9890865,69.8607649 C15.6895673,69.8607649 0.0448557692,54.3733668 0.0448557692,35.2687922 C0.0448557692,16.1642177 15.6895673,0.676819639 34.9890865,0.676819639 C54.2893269,0.676819639 69.9347596,16.1642177 69.9347596,35.2687922" id="Fill-3" fill="#EBE8E2"></path>
                    <path d="M55.8765144,28.1600801 L55.8765144,31.6294857 C55.8765144,32.3597742 55.279399,32.951572 54.5402163,32.951572 L15.6411779,32.951572 C14.9034375,32.951572 14.305601,32.3597742 14.305601,31.6294857 L14.305601,28.1600801 L55.8765144,28.1600801 Z" id="Fill-5" fill="#424552"></path>
                    <path d="M14.3059615,28.1600801 L14.3059615,6.5805201 C14.3059615,5.85094551 14.9030769,5.25843386 15.6415385,5.25843386 L54.5405769,5.25843386 C55.2790385,5.25843386 55.876875,5.85094551 55.876875,6.5805201 L55.876875,28.1600801 L14.3059615,28.1600801 Z" id="Fill-7" fill="#2D2F3C"></path>
                    <path d="M15.6447115,26.8473456 L15.6447115,7.2116521 C15.6447115,6.83901224 15.9504808,6.53561772 16.3276442,6.53561772 L53.8543269,6.53561772 C54.2314904,6.53561772 54.5379808,6.83901224 54.5379808,7.2116521 L54.5379808,26.8473456 L15.6447115,26.8473456 Z" id="Fill-9" fill="#FFFFFF"></path>
                    <mask id="mask-2" fill="white">
                        <use xlink:href="#path-1"></use>
                    </mask>
                    <g id="Clip-12"></g>
                    <polygon id="Fill-11" fill="#424552" mask="url(#mask-2)" points="30.2177885 36.5386946 39.9649038 36.5386946 39.9649038 32.1462558 30.2177885 32.1462558"></polygon>
                    <polygon id="Fill-13" fill="#424552" mask="url(#mask-2)" points="26.4591346 37.1954545 43.7228365 37.1954545 43.7228365 36.0325612 26.4591346 36.0325612"></polygon>
                    <path d="M35.4060577,30.867787 C35.4060577,31.0398295 35.2647115,31.1790341 35.0909135,31.1790341 C34.9163942,31.1790341 34.7757692,31.0398295 34.7757692,30.867787 C34.7757692,30.6957445 34.9163942,30.555826 35.0909135,30.555826 C35.2647115,30.555826 35.4060577,30.6957445 35.4060577,30.867787" id="Fill-14" fill="#2D2F3C" mask="url(#mask-2)"></path>
                    <polygon id="Fill-15" fill="#C9C7C5" mask="url(#mask-2)" points="29.8889423 13.3357955 40.9442308 13.3357955 40.9442308 10.9550408 29.8889423 10.9550408"></polygon>
                    <polygon id="Fill-16" fill="#C9C7C5" mask="url(#mask-2)" points="27.5388462 11.5877433 28.0342788 10.955255 26.9813942 10.955255"></polygon>
                    <polygon id="Fill-17" fill="#C9C7C5" mask="url(#mask-2)" points="26.9810337 10.9553977 26.8663702 10.9553977 26.8663702 12.1782561 28.1702163 12.1782561 28.1702163 10.9553977 28.0339183 10.9553977 27.5384856 11.5878861"></polygon>
                    <polygon id="Fill-18" fill="#C9C7C5" mask="url(#mask-2)" points="26.8658654 15.6544435 28.1725962 15.6544435 28.1725962 14.4337267 26.8658654 14.4337267"></polygon>
                    <polygon id="Fill-19" fill="#C9C7C5" mask="url(#mask-2)" points="26.8658654 19.020338 28.1725962 19.020338 28.1725962 17.7989073 26.8658654 17.7989073"></polygon>
                    <polygon id="Fill-20" fill="#C9C7C5" mask="url(#mask-2)" points="26.8658654 22.5290064 28.1725962 22.5290064 28.1725962 21.3068619 26.8658654 21.3068619"></polygon>
                    <polygon id="Fill-21" fill="#8ABF43" mask="url(#mask-2)" points="27.5071154 12.3768546 26.3020673 11.0126501 26.9936538 10.4151413 27.4638462 10.9484018 28.3054327 9.87474213 29.0309135 10.4322742"></polygon>
                    <polygon id="Fill-22" fill="#C9C7C5" mask="url(#mask-2)" points="29.8889423 16.8137675 40.9442308 16.8137675 40.9442308 14.4337267 29.8889423 14.4337267"></polygon>
                    <polygon id="Fill-23" fill="#C9C7C5" mask="url(#mask-2)" points="29.8889423 20.1789481 40.9442308 20.1789481 40.9442308 17.7989073 29.8889423 17.7989073"></polygon>
                    <polygon id="Fill-24" fill="#C9C7C5" mask="url(#mask-2)" points="29.8889423 23.6876166 40.9442308 23.6876166 40.9442308 21.3068619 29.8889423 21.3068619"></polygon>
                    <path d="M56.6723077,51.2841681 C56.6723077,55.6202112 53.120625,59.1360184 48.7403365,59.1360184 C44.3593269,59.1360184 40.8069231,55.6202112 40.8069231,51.2841681 C40.8069231,46.9474111 44.3593269,43.4323179 48.7403365,43.4323179 C53.120625,43.4323179 56.6723077,46.9474111 56.6723077,51.2841681" id="Fill-25" fill="#585B5C" mask="url(#mask-2)"></path>
                    <path d="M15.2510337,42.423549 L36.3404567,42.423549 C37.4705048,42.423549 38.3863702,43.3137442 38.3863702,44.4095338 L38.3863702,54.6221503 C38.3863702,55.7193677 37.4705048,56.6081352 36.3404567,56.6081352 L15.2510337,56.6081352 C14.1209856,56.6081352 13.2051202,55.7193677 13.2051202,54.6221503 L13.2051202,44.4095338 C13.2051202,43.3137442 14.1209856,42.423549 15.2510337,42.423549" id="Fill-26" fill="#585B5C" mask="url(#mask-2)"></path>
                    <path d="M15.1566346,45.2636786 L16.0429327,45.2636786 C16.2261058,45.2636786 16.3753846,45.4107357 16.3753846,45.5934863 L16.3753846,46.0839146 C16.3753846,46.2666652 16.2261058,46.4144362 16.0429327,46.4144362 L15.1566346,46.4144362 C14.9720192,46.4144362 14.8227404,46.2666652 14.8227404,46.0839146 L14.8227404,45.5934863 C14.8227404,45.4107357 14.9720192,45.2636786 15.1566346,45.2636786" id="Fill-27" fill="#37363A" mask="url(#mask-2)"></path>
                    <path d="M16.9940625,45.2636786 L17.8803606,45.2636786 C18.0642548,45.2636786 18.2135337,45.4107357 18.2135337,45.5934863 L18.2135337,46.0839146 C18.2135337,46.2666652 18.0642548,46.4144362 17.8803606,46.4144362 L16.9940625,46.4144362 C16.8108894,46.4144362 16.6608894,46.2666652 16.6608894,46.0839146 L16.6608894,45.5934863 C16.6608894,45.4107357 16.8108894,45.2636786 16.9940625,45.2636786" id="Fill-28" fill="#37363A" mask="url(#mask-2)"></path>
                    <path d="M18.8321394,45.2636786 L19.7184375,45.2636786 C19.9016106,45.2636786 20.0516106,45.4107357 20.0516106,45.5934863 L20.0516106,46.0839146 C20.0516106,46.2666652 19.9016106,46.4144362 19.7184375,46.4144362 L18.8321394,46.4144362 C18.6482452,46.4144362 18.4982452,46.2666652 18.4982452,46.0839146 L18.4982452,45.5934863 C18.4982452,45.4107357 18.6482452,45.2636786 18.8321394,45.2636786" id="Fill-29" fill="#37363A" mask="url(#mask-2)"></path>
                    <path d="M20.6702885,45.2636786 L21.5565865,45.2636786 C21.7404808,45.2636786 21.8890385,45.4107357 21.8890385,45.5934863 L21.8890385,46.0839146 C21.8890385,46.2666652 21.7404808,46.4144362 21.5565865,46.4144362 L20.6702885,46.4144362 C20.4856731,46.4144362 20.3356731,46.2666652 20.3356731,46.0839146 L20.3356731,45.5934863 C20.3356731,45.4107357 20.4856731,45.2636786 20.6702885,45.2636786" id="Fill-30" fill="#37363A" mask="url(#mask-2)"></path>
                    <path d="M22.5083654,45.2636786 L23.3946635,45.2636786 C23.5778365,45.2636786 23.7271154,45.4107357 23.7271154,45.5934863 L23.7271154,46.0839146 C23.7271154,46.2666652 23.5778365,46.4144362 23.3946635,46.4144362 L22.5083654,46.4144362 C22.3230288,46.4144362 22.1744712,46.2666652 22.1744712,46.0839146 L22.1744712,45.5934863 C22.1744712,45.4107357 22.3230288,45.2636786 22.5083654,45.2636786" id="Fill-31" fill="#37363A" mask="url(#mask-2)"></path>
                    <path d="M24.3457212,45.2636786 L25.2312981,45.2636786 C25.4151923,45.2636786 25.5644712,45.4107357 25.5644712,45.5934863 L25.5644712,46.0839146 C25.5644712,46.2666652 25.4151923,46.4144362 25.2312981,46.4144362 L24.3457212,46.4144362 C24.1618269,46.4144362 24.0118269,46.2666652 24.0118269,46.0839146 L24.0118269,45.5934863 C24.0118269,45.4107357 24.1618269,45.2636786 24.3457212,45.2636786" id="Fill-32" fill="#37363A" mask="url(#mask-2)"></path>
                    <path d="M26.183149,45.2636786 L27.0694471,45.2636786 C27.2533413,45.2636786 27.4026202,45.4107357 27.4026202,45.5934863 L27.4026202,46.0839146 C27.4026202,46.2666652 27.2533413,46.4144362 27.0694471,46.4144362 L26.183149,46.4144362 C25.9992548,46.4144362 25.849976,46.2666652 25.849976,46.0839146 L25.849976,45.5934863 C25.849976,45.4107357 25.9992548,45.2636786 26.183149,45.2636786" id="Fill-33" fill="#37363A" mask="url(#mask-2)"></path>
                    <path d="M28.021226,45.2636786 L28.907524,45.2636786 C29.0914183,45.2636786 29.239976,45.4107357 29.239976,45.5934863 L29.239976,46.0839146 C29.239976,46.2666652 29.0914183,46.4144362 28.907524,46.4144362 L28.021226,46.4144362 C27.8366106,46.4144362 27.6866106,46.2666652 27.6866106,46.0839146 L27.6866106,45.5934863 C27.6866106,45.4107357 27.8366106,45.2636786 28.021226,45.2636786" id="Fill-34" fill="#37363A" mask="url(#mask-2)"></path>
                    <path d="M29.8586538,45.2636786 L30.7449519,45.2636786 C30.9288462,45.2636786 31.078125,45.4107357 31.078125,45.5934863 L31.078125,46.0839146 C31.078125,46.2666652 30.9288462,46.4144362 30.7449519,46.4144362 L29.8586538,46.4144362 C29.6747596,46.4144362 29.5254808,46.2666652 29.5254808,46.0839146 L29.5254808,45.5934863 C29.5254808,45.4107357 29.6747596,45.2636786 29.8586538,45.2636786" id="Fill-35" fill="#37363A" mask="url(#mask-2)"></path>
                    <path d="M31.6960096,45.2636786 L32.5823077,45.2636786 C32.7662019,45.2636786 32.9147596,45.4107357 32.9147596,45.5934863 L32.9147596,46.0839146 C32.9147596,46.2666652 32.7662019,46.4144362 32.5823077,46.4144362 L31.6960096,46.4144362 C31.5121154,46.4144362 31.3628365,46.2666652 31.3628365,46.0839146 L31.3628365,45.5934863 C31.3628365,45.4107357 31.5121154,45.2636786 31.6960096,45.2636786" id="Fill-36" fill="#37363A" mask="url(#mask-2)"></path>
                    <path d="M33.5341587,45.2636786 L36.2579567,45.2636786 C36.441851,45.2636786 36.5911298,45.4107357 36.5911298,45.5934863 L36.5911298,46.0839146 C36.5911298,46.2666652 36.441851,46.4144362 36.2579567,46.4144362 L33.5341587,46.4144362 C33.3502644,46.4144362 33.2009856,46.2666652 33.2009856,46.0839146 L33.2009856,45.5934863 C33.2009856,45.4107357 33.3502644,45.2636786 33.5341587,45.2636786" id="Fill-37" fill="#37363A" mask="url(#mask-2)"></path>
                    <path d="M15.1566346,47.0650568 L16.0429327,47.0650568 C16.2261058,47.0650568 16.3753846,47.2128278 16.3753846,47.3955784 L16.3753846,47.8860067 C16.3753846,48.0694712 16.2261058,48.2165283 16.0429327,48.2165283 L15.1566346,48.2165283 C14.9720192,48.2165283 14.8227404,48.0694712 14.8227404,47.8860067 L14.8227404,47.3955784 C14.8227404,47.2128278 14.9720192,47.0650568 15.1566346,47.0650568" id="Fill-38" fill="#37363A" mask="url(#mask-2)"></path>
                    <path d="M16.9940625,47.0650568 L17.8803606,47.0650568 C18.0642548,47.0650568 18.2135337,47.2128278 18.2135337,47.3955784 L18.2135337,47.8860067 C18.2135337,48.0694712 18.0642548,48.2165283 17.8803606,48.2165283 L16.9940625,48.2165283 C16.8108894,48.2165283 16.6608894,48.0694712 16.6608894,47.8860067 L16.6608894,47.3955784 C16.6608894,47.2128278 16.8108894,47.0650568 16.9940625,47.0650568" id="Fill-39" fill="#37363A" mask="url(#mask-2)"></path>
                    <path d="M18.8321394,47.0650568 L19.7184375,47.0650568 C19.9016106,47.0650568 20.0516106,47.2128278 20.0516106,47.3955784 L20.0516106,47.8860067 C20.0516106,48.0694712 19.9016106,48.2165283 19.7184375,48.2165283 L18.8321394,48.2165283 C18.6482452,48.2165283 18.4982452,48.0694712 18.4982452,47.8860067 L18.4982452,47.3955784 C18.4982452,47.2128278 18.6482452,47.0650568 18.8321394,47.0650568" id="Fill-40" fill="#37363A" mask="url(#mask-2)"></path>
                    <path d="M20.6702885,47.0650568 L21.5565865,47.0650568 C21.7404808,47.0650568 21.8890385,47.2128278 21.8890385,47.3955784 L21.8890385,47.8860067 C21.8890385,48.0694712 21.7404808,48.2165283 21.5565865,48.2165283 L20.6702885,48.2165283 C20.4856731,48.2165283 20.3356731,48.0694712 20.3356731,47.8860067 L20.3356731,47.3955784 C20.3356731,47.2128278 20.4856731,47.0650568 20.6702885,47.0650568" id="Fill-41" fill="#37363A" mask="url(#mask-2)"></path>
                    <path d="M22.5083654,47.0650568 L23.3946635,47.0650568 C23.5778365,47.0650568 23.7271154,47.2128278 23.7271154,47.3955784 L23.7271154,47.8860067 C23.7271154,48.0694712 23.5778365,48.2165283 23.3946635,48.2165283 L22.5083654,48.2165283 C22.3230288,48.2165283 22.1744712,48.0694712 22.1744712,47.8860067 L22.1744712,47.3955784 C22.1744712,47.2128278 22.3230288,47.0650568 22.5083654,47.0650568" id="Fill-42" fill="#37363A" mask="url(#mask-2)"></path>
                    <path d="M24.3457212,47.0650568 L25.2312981,47.0650568 C25.4151923,47.0650568 25.5644712,47.2128278 25.5644712,47.3955784 L25.5644712,47.8860067 C25.5644712,48.0694712 25.4151923,48.2165283 25.2312981,48.2165283 L24.3457212,48.2165283 C24.1618269,48.2165283 24.0118269,48.0694712 24.0118269,47.8860067 L24.0118269,47.3955784 C24.0118269,47.2128278 24.1618269,47.0650568 24.3457212,47.0650568" id="Fill-43" fill="#37363A" mask="url(#mask-2)"></path>
                    <path d="M26.183149,47.0650568 L27.0694471,47.0650568 C27.2533413,47.0650568 27.4026202,47.2128278 27.4026202,47.3955784 L27.4026202,47.8860067 C27.4026202,48.0694712 27.2533413,48.2165283 27.0694471,48.2165283 L26.183149,48.2165283 C25.9992548,48.2165283 25.849976,48.0694712 25.849976,47.8860067 L25.849976,47.3955784 C25.849976,47.2128278 25.9992548,47.0650568 26.183149,47.0650568" id="Fill-44" fill="#37363A" mask="url(#mask-2)"></path>
                    <path d="M28.021226,47.0650568 L28.907524,47.0650568 C29.0914183,47.0650568 29.239976,47.2128278 29.239976,47.3955784 L29.239976,47.8860067 C29.239976,48.0694712 29.0914183,48.2165283 28.907524,48.2165283 L28.021226,48.2165283 C27.8366106,48.2165283 27.6866106,48.0694712 27.6866106,47.8860067 L27.6866106,47.3955784 C27.6866106,47.2128278 27.8366106,47.0650568 28.021226,47.0650568" id="Fill-45" fill="#37363A" mask="url(#mask-2)"></path>
                    <path d="M29.8586538,47.0650568 L30.7449519,47.0650568 C30.9288462,47.0650568 31.078125,47.2128278 31.078125,47.3955784 L31.078125,47.8860067 C31.078125,48.0694712 30.9288462,48.2165283 30.7449519,48.2165283 L29.8586538,48.2165283 C29.6747596,48.2165283 29.5254808,48.0694712 29.5254808,47.8860067 L29.5254808,47.3955784 C29.5254808,47.2128278 29.6747596,47.0650568 29.8586538,47.0650568" id="Fill-46" fill="#37363A" mask="url(#mask-2)"></path>
                    <path d="M31.6960096,47.0650568 L32.5823077,47.0650568 C32.7662019,47.0650568 32.9147596,47.2128278 32.9147596,47.3955784 L32.9147596,47.8860067 C32.9147596,48.0694712 32.7662019,48.2165283 32.5823077,48.2165283 L31.6960096,48.2165283 C31.5121154,48.2165283 31.3628365,48.0694712 31.3628365,47.8860067 L31.3628365,47.3955784 C31.3628365,47.2128278 31.5121154,47.0650568 31.6960096,47.0650568" id="Fill-47" fill="#37363A" mask="url(#mask-2)"></path>
                    <path d="M33.5341587,47.0650568 L34.4204567,47.0650568 C34.604351,47.0650568 34.7536298,47.2128278 34.7536298,47.3955784 L34.7536298,47.8860067 C34.7536298,48.0694712 34.604351,48.2165283 34.4204567,48.2165283 L33.5341587,48.2165283 C33.3502644,48.2165283 33.2009856,48.0694712 33.2009856,47.8860067 L33.2009856,47.3955784 C33.2009856,47.2128278 33.3502644,47.0650568 33.5341587,47.0650568" id="Fill-48" fill="#37363A" mask="url(#mask-2)"></path>
                    <path d="M35.3715144,47.0650568 L36.2578125,47.0650568 C36.4417067,47.0650568 36.5917067,47.2128278 36.5917067,47.3955784 L36.5917067,47.8860067 C36.5917067,48.0694712 36.4417067,48.2165283 36.2578125,48.2165283 L35.3715144,48.2165283 C35.1876202,48.2165283 35.0383413,48.0694712 35.0383413,47.8860067 L35.0383413,47.3955784 C35.0383413,47.2128278 35.1876202,47.0650568 35.3715144,47.0650568" id="Fill-49" fill="#37363A" mask="url(#mask-2)"></path>
                    <path d="M15.1566346,48.8678628 L16.0429327,48.8678628 C16.2261058,48.8678628 16.3753846,49.0149199 16.3753846,49.1976705 L16.3753846,49.6880988 C16.3753846,49.8708494 16.2261058,50.0186203 16.0429327,50.0186203 L15.1566346,50.0186203 C14.9720192,50.0186203 14.8227404,49.8708494 14.8227404,49.6880988 L14.8227404,49.1976705 C14.8227404,49.0149199 14.9720192,48.8678628 15.1566346,48.8678628" id="Fill-50" fill="#37363A" mask="url(#mask-2)"></path>
                    <path d="M16.9940625,48.8678628 L17.8803606,48.8678628 C18.0642548,48.8678628 18.2135337,49.0149199 18.2135337,49.1976705 L18.2135337,49.6880988 C18.2135337,49.8708494 18.0642548,50.0186203 17.8803606,50.0186203 L16.9940625,50.0186203 C16.8108894,50.0186203 16.6608894,49.8708494 16.6608894,49.6880988 L16.6608894,49.1976705 C16.6608894,49.0149199 16.8108894,48.8678628 16.9940625,48.8678628" id="Fill-51" fill="#37363A" mask="url(#mask-2)"></path>
                    <path d="M18.8321394,48.8678628 L19.7184375,48.8678628 C19.9016106,48.8678628 20.0516106,49.0149199 20.0516106,49.1976705 L20.0516106,49.6880988 C20.0516106,49.8708494 19.9016106,50.0186203 19.7184375,50.0186203 L18.8321394,50.0186203 C18.6482452,50.0186203 18.4982452,49.8708494 18.4982452,49.6880988 L18.4982452,49.1976705 C18.4982452,49.0149199 18.6482452,48.8678628 18.8321394,48.8678628" id="Fill-52" fill="#37363A" mask="url(#mask-2)"></path>
                    <path d="M20.6702885,48.8678628 L21.5565865,48.8678628 C21.7404808,48.8678628 21.8890385,49.0149199 21.8890385,49.1976705 L21.8890385,49.6880988 C21.8890385,49.8708494 21.7404808,50.0186203 21.5565865,50.0186203 L20.6702885,50.0186203 C20.4856731,50.0186203 20.3356731,49.8708494 20.3356731,49.6880988 L20.3356731,49.1976705 C20.3356731,49.0149199 20.4856731,48.8678628 20.6702885,48.8678628" id="Fill-53" fill="#37363A" mask="url(#mask-2)"></path>
                    <path d="M22.5083654,48.8678628 L23.3946635,48.8678628 C23.5778365,48.8678628 23.7271154,49.0149199 23.7271154,49.1976705 L23.7271154,49.6880988 C23.7271154,49.8708494 23.5778365,50.0186203 23.3946635,50.0186203 L22.5083654,50.0186203 C22.3230288,50.0186203 22.1744712,49.8708494 22.1744712,49.6880988 L22.1744712,49.1976705 C22.1744712,49.0149199 22.3230288,48.8678628 22.5083654,48.8678628" id="Fill-54" fill="#37363A" mask="url(#mask-2)"></path>
                    <path d="M24.3457212,48.8678628 L25.2312981,48.8678628 C25.4151923,48.8678628 25.5644712,49.0149199 25.5644712,49.1976705 L25.5644712,49.6880988 C25.5644712,49.8708494 25.4151923,50.0186203 25.2312981,50.0186203 L24.3457212,50.0186203 C24.1618269,50.0186203 24.0118269,49.8708494 24.0118269,49.6880988 L24.0118269,49.1976705 C24.0118269,49.0149199 24.1618269,48.8678628 24.3457212,48.8678628" id="Fill-55" fill="#37363A" mask="url(#mask-2)"></path>
                    <path d="M26.183149,48.8678628 L27.0694471,48.8678628 C27.2533413,48.8678628 27.4026202,49.0149199 27.4026202,49.1976705 L27.4026202,49.6880988 C27.4026202,49.8708494 27.2533413,50.0186203 27.0694471,50.0186203 L26.183149,50.0186203 C25.9992548,50.0186203 25.849976,49.8708494 25.849976,49.6880988 L25.849976,49.1976705 C25.849976,49.0149199 25.9992548,48.8678628 26.183149,48.8678628" id="Fill-56" fill="#37363A" mask="url(#mask-2)"></path>
                    <path d="M28.021226,48.8678628 L28.907524,48.8678628 C29.0914183,48.8678628 29.239976,49.0149199 29.239976,49.1976705 L29.239976,49.6880988 C29.239976,49.8708494 29.0914183,50.0186203 28.907524,50.0186203 L28.021226,50.0186203 C27.8366106,50.0186203 27.6866106,49.8708494 27.6866106,49.6880988 L27.6866106,49.1976705 C27.6866106,49.0149199 27.8366106,48.8678628 28.021226,48.8678628" id="Fill-57" fill="#37363A" mask="url(#mask-2)"></path>
                    <path d="M29.8586538,48.8678628 L30.7449519,48.8678628 C30.9288462,48.8678628 31.078125,49.0149199 31.078125,49.1976705 L31.078125,49.6880988 C31.078125,49.8708494 30.9288462,50.0186203 30.7449519,50.0186203 L29.8586538,50.0186203 C29.6747596,50.0186203 29.5254808,49.8708494 29.5254808,49.6880988 L29.5254808,49.1976705 C29.5254808,49.0149199 29.6747596,48.8678628 29.8586538,48.8678628" id="Fill-58" fill="#37363A" mask="url(#mask-2)"></path>
                    <path d="M31.6960096,48.8678628 L32.5823077,48.8678628 C32.7662019,48.8678628 32.9147596,49.0149199 32.9147596,49.1976705 L32.9147596,49.6880988 C32.9147596,49.8708494 32.7662019,50.0186203 32.5823077,50.0186203 L31.6960096,50.0186203 C31.5121154,50.0186203 31.3628365,49.8708494 31.3628365,49.6880988 L31.3628365,49.1976705 C31.3628365,49.0149199 31.5121154,48.8678628 31.6960096,48.8678628" id="Fill-59" fill="#37363A" mask="url(#mask-2)"></path>
                    <path d="M33.5341587,48.8678628 L34.4204567,48.8678628 C34.604351,48.8678628 34.7536298,49.0149199 34.7536298,49.1976705 L34.7536298,49.6880988 C34.7536298,49.8708494 34.604351,50.0186203 34.4204567,50.0186203 L33.5341587,50.0186203 C33.3502644,50.0186203 33.2009856,49.8708494 33.2009856,49.6880988 L33.2009856,49.1976705 C33.2009856,49.0149199 33.3502644,48.8678628 33.5341587,48.8678628" id="Fill-60" fill="#37363A" mask="url(#mask-2)"></path>
                    <path d="M35.3715144,48.8678628 L36.2578125,48.8678628 C36.4417067,48.8678628 36.5917067,49.0149199 36.5917067,49.1976705 L36.5917067,49.6880988 C36.5917067,49.8708494 36.4417067,50.0186203 36.2578125,50.0186203 L35.3715144,50.0186203 C35.1876202,50.0186203 35.0383413,49.8708494 35.0383413,49.6880988 L35.0383413,49.1976705 C35.0383413,49.0149199 35.1876202,48.8678628 35.3715144,48.8678628" id="Fill-61" fill="#37363A" mask="url(#mask-2)"></path>
                    <path d="M15.1566346,50.6699548 L16.0429327,50.6699548 C16.2261058,50.6699548 16.3753846,50.8170119 16.3753846,50.9997625 L16.3753846,51.4909047 C16.3753846,51.6722276 16.2261058,51.8207124 16.0429327,51.8207124 L15.1566346,51.8207124 C14.9720192,51.8207124 14.8227404,51.6722276 14.8227404,51.4909047 L14.8227404,50.9997625 C14.8227404,50.8170119 14.9720192,50.6699548 15.1566346,50.6699548" id="Fill-62" fill="#37363A" mask="url(#mask-2)"></path>
                    <path d="M16.9940625,50.6699548 L17.8803606,50.6699548 C18.0642548,50.6699548 18.2135337,50.8170119 18.2135337,50.9997625 L18.2135337,51.4909047 C18.2135337,51.6722276 18.0642548,51.8207124 17.8803606,51.8207124 L16.9940625,51.8207124 C16.8108894,51.8207124 16.6608894,51.6722276 16.6608894,51.4909047 L16.6608894,50.9997625 C16.6608894,50.8170119 16.8108894,50.6699548 16.9940625,50.6699548" id="Fill-63" fill="#37363A" mask="url(#mask-2)"></path>
                    <path d="M18.8321394,50.6699548 L19.7184375,50.6699548 C19.9016106,50.6699548 20.0516106,50.8170119 20.0516106,50.9997625 L20.0516106,51.4909047 C20.0516106,51.6722276 19.9016106,51.8207124 19.7184375,51.8207124 L18.8321394,51.8207124 C18.6482452,51.8207124 18.4982452,51.6722276 18.4982452,51.4909047 L18.4982452,50.9997625 C18.4982452,50.8170119 18.6482452,50.6699548 18.8321394,50.6699548" id="Fill-64" fill="#37363A" mask="url(#mask-2)"></path>
                    <path d="M20.6702885,50.6699548 L21.5565865,50.6699548 C21.7404808,50.6699548 21.8890385,50.8170119 21.8890385,50.9997625 L21.8890385,51.4909047 C21.8890385,51.6722276 21.7404808,51.8207124 21.5565865,51.8207124 L20.6702885,51.8207124 C20.4856731,51.8207124 20.3356731,51.6722276 20.3356731,51.4909047 L20.3356731,50.9997625 C20.3356731,50.8170119 20.4856731,50.6699548 20.6702885,50.6699548" id="Fill-65" fill="#37363A" mask="url(#mask-2)"></path>
                    <path d="M22.5083654,50.6699548 L23.3946635,50.6699548 C23.5778365,50.6699548 23.7271154,50.8170119 23.7271154,50.9997625 L23.7271154,51.4909047 C23.7271154,51.6722276 23.5778365,51.8207124 23.3946635,51.8207124 L22.5083654,51.8207124 C22.3230288,51.8207124 22.1744712,51.6722276 22.1744712,51.4909047 L22.1744712,50.9997625 C22.1744712,50.8170119 22.3230288,50.6699548 22.5083654,50.6699548" id="Fill-66" fill="#37363A" mask="url(#mask-2)"></path>
                    <path d="M24.3457212,50.6699548 L25.2312981,50.6699548 C25.4151923,50.6699548 25.5644712,50.8170119 25.5644712,50.9997625 L25.5644712,51.4909047 C25.5644712,51.6722276 25.4151923,51.8207124 25.2312981,51.8207124 L24.3457212,51.8207124 C24.1618269,51.8207124 24.0118269,51.6722276 24.0118269,51.4909047 L24.0118269,50.9997625 C24.0118269,50.8170119 24.1618269,50.6699548 24.3457212,50.6699548" id="Fill-67" fill="#37363A" mask="url(#mask-2)"></path>
                    <path d="M26.183149,50.6699548 L27.0694471,50.6699548 C27.2533413,50.6699548 27.4026202,50.8170119 27.4026202,50.9997625 L27.4026202,51.4909047 C27.4026202,51.6722276 27.2533413,51.8207124 27.0694471,51.8207124 L26.183149,51.8207124 C25.9992548,51.8207124 25.849976,51.6722276 25.849976,51.4909047 L25.849976,50.9997625 C25.849976,50.8170119 25.9992548,50.6699548 26.183149,50.6699548" id="Fill-68" fill="#37363A" mask="url(#mask-2)"></path>
                    <path d="M28.021226,50.6699548 L28.907524,50.6699548 C29.0914183,50.6699548 29.239976,50.8170119 29.239976,50.9997625 L29.239976,51.4909047 C29.239976,51.6722276 29.0914183,51.8207124 28.907524,51.8207124 L28.021226,51.8207124 C27.8366106,51.8207124 27.6866106,51.6722276 27.6866106,51.4909047 L27.6866106,50.9997625 C27.6866106,50.8170119 27.8366106,50.6699548 28.021226,50.6699548" id="Fill-69" fill="#37363A" mask="url(#mask-2)"></path>
                    <path d="M29.8586538,50.6699548 L30.7449519,50.6699548 C30.9288462,50.6699548 31.078125,50.8170119 31.078125,50.9997625 L31.078125,51.4909047 C31.078125,51.6722276 30.9288462,51.8207124 30.7449519,51.8207124 L29.8586538,51.8207124 C29.6747596,51.8207124 29.5254808,51.6722276 29.5254808,51.4909047 L29.5254808,50.9997625 C29.5254808,50.8170119 29.6747596,50.6699548 29.8586538,50.6699548" id="Fill-70" fill="#37363A" mask="url(#mask-2)"></path>
                    <path d="M31.6960096,50.6699548 L32.5823077,50.6699548 C32.7662019,50.6699548 32.9147596,50.8170119 32.9147596,50.9997625 L32.9147596,51.4909047 C32.9147596,51.6722276 32.7662019,51.8207124 32.5823077,51.8207124 L31.6960096,51.8207124 C31.5121154,51.8207124 31.3628365,51.6722276 31.3628365,51.4909047 L31.3628365,50.9997625 C31.3628365,50.8170119 31.5121154,50.6699548 31.6960096,50.6699548" id="Fill-71" fill="#37363A" mask="url(#mask-2)"></path>
                    <path d="M33.5341587,50.6699548 L34.4204567,50.6699548 C34.604351,50.6699548 34.7536298,50.8170119 34.7536298,50.9997625 L34.7536298,51.4909047 C34.7536298,51.6722276 34.604351,51.8207124 34.4204567,51.8207124 L33.5341587,51.8207124 C33.3502644,51.8207124 33.2009856,51.6722276 33.2009856,51.4909047 L33.2009856,50.9997625 C33.2009856,50.8170119 33.3502644,50.6699548 33.5341587,50.6699548" id="Fill-72" fill="#37363A" mask="url(#mask-2)"></path>
                    <path d="M35.3715144,50.6699548 L36.2578125,50.6699548 C36.4417067,50.6699548 36.5917067,50.8170119 36.5917067,50.9997625 L36.5917067,51.4909047 C36.5917067,51.6722276 36.4417067,51.8207124 36.2578125,51.8207124 L35.3715144,51.8207124 C35.1876202,51.8207124 35.0383413,51.6722276 35.0383413,51.4909047 L35.0383413,50.9997625 C35.0383413,50.8170119 35.1876202,50.6699548 35.3715144,50.6699548" id="Fill-73" fill="#37363A" mask="url(#mask-2)"></path>
                    <path d="M15.1566346,52.4714044 L16.0429327,52.4714044 C16.2261058,52.4714044 16.3753846,52.6184615 16.3753846,52.801926 L16.3753846,53.2923543 C16.3753846,53.474391 16.2261058,53.6228759 16.0429327,53.6228759 L15.1566346,53.6228759 C14.9720192,53.6228759 14.8227404,53.474391 14.8227404,53.2923543 L14.8227404,52.801926 C14.8227404,52.6184615 14.9720192,52.4714044 15.1566346,52.4714044" id="Fill-74" fill="#37363A" mask="url(#mask-2)"></path>
                    <path d="M16.9940625,52.4714044 L17.8803606,52.4714044 C18.0642548,52.4714044 18.2135337,52.6184615 18.2135337,52.801926 L18.2135337,53.2923543 C18.2135337,53.474391 18.0642548,53.6228759 17.8803606,53.6228759 L16.9940625,53.6228759 C16.8108894,53.6228759 16.6608894,53.474391 16.6608894,53.2923543 L16.6608894,52.801926 C16.6608894,52.6184615 16.8108894,52.4714044 16.9940625,52.4714044" id="Fill-75" fill="#37363A" mask="url(#mask-2)"></path>
                    <path d="M18.8321394,52.4714044 L19.7184375,52.4714044 C19.9016106,52.4714044 20.0516106,52.6184615 20.0516106,52.801926 L20.0516106,53.2923543 C20.0516106,53.474391 19.9016106,53.6228759 19.7184375,53.6228759 L18.8321394,53.6228759 C18.6482452,53.6228759 18.4982452,53.474391 18.4982452,53.2923543 L18.4982452,52.801926 C18.4982452,52.6184615 18.6482452,52.4714044 18.8321394,52.4714044" id="Fill-76" fill="#37363A" mask="url(#mask-2)"></path>
                    <path d="M20.6702885,52.4714044 L21.5565865,52.4714044 C21.7404808,52.4714044 21.8890385,52.6184615 21.8890385,52.801926 L21.8890385,53.2923543 C21.8890385,53.474391 21.7404808,53.6228759 21.5565865,53.6228759 L20.6702885,53.6228759 C20.4856731,53.6228759 20.3356731,53.474391 20.3356731,53.2923543 L20.3356731,52.801926 C20.3356731,52.6184615 20.4856731,52.4714044 20.6702885,52.4714044" id="Fill-77" fill="#37363A" mask="url(#mask-2)"></path>
                    <path d="M29.8586538,52.4714044 L30.7449519,52.4714044 C30.9288462,52.4714044 31.078125,52.6184615 31.078125,52.801926 L31.078125,53.2923543 C31.078125,53.474391 30.9288462,53.6228759 30.7449519,53.6228759 L29.8586538,53.6228759 C29.6747596,53.6228759 29.5254808,53.474391 29.5254808,53.2923543 L29.5254808,52.801926 C29.5254808,52.6184615 29.6747596,52.4714044 29.8586538,52.4714044" id="Fill-78" fill="#37363A" mask="url(#mask-2)"></path>
                    <path d="M31.6960096,52.4714044 L32.5823077,52.4714044 C32.7662019,52.4714044 32.9147596,52.6184615 32.9147596,52.801926 L32.9147596,53.2923543 C32.9147596,53.474391 32.7662019,53.6228759 32.5823077,53.6228759 L31.6960096,53.6228759 C31.5121154,53.6228759 31.3628365,53.474391 31.3628365,53.2923543 L31.3628365,52.801926 C31.3628365,52.6184615 31.5121154,52.4714044 31.6960096,52.4714044" id="Fill-79" fill="#37363A" mask="url(#mask-2)"></path>
                    <path d="M33.5341587,52.4714044 L34.4204567,52.4714044 C34.604351,52.4714044 34.7536298,52.6184615 34.7536298,52.801926 L34.7536298,53.2923543 C34.7536298,53.474391 34.604351,53.6228759 34.4204567,53.6228759 L33.5341587,53.6228759 C33.3502644,53.6228759 33.2009856,53.474391 33.2009856,53.2923543 L33.2009856,52.801926 C33.2009856,52.6184615 33.3502644,52.4714044 33.5341587,52.4714044" id="Fill-80" fill="#37363A" mask="url(#mask-2)"></path>
                    <path d="M35.3715144,52.4714044 L36.2578125,52.4714044 C36.4417067,52.4714044 36.5917067,52.6184615 36.5917067,52.801926 L36.5917067,53.2923543 C36.5917067,53.474391 36.4417067,53.6228759 36.2578125,53.6228759 L35.3715144,53.6228759 C35.1876202,53.6228759 35.0383413,53.474391 35.0383413,53.2923543 L35.0383413,52.801926 C35.0383413,52.6184615 35.1876202,52.4714044 35.3715144,52.4714044" id="Fill-81" fill="#37363A" mask="url(#mask-2)"></path>
                    <path d="M22.5083654,52.4714044 L28.9093269,52.4714044 C29.0939423,52.4714044 29.2439423,52.6184615 29.2439423,52.801926 L29.2439423,53.2923543 C29.2439423,53.474391 29.0939423,53.6228759 28.9093269,53.6228759 L22.5083654,53.6228759 C22.3230288,53.6228759 22.1744712,53.474391 22.1744712,53.2923543 L22.1744712,52.801926 C22.1744712,52.6184615 22.3230288,52.4714044 22.5083654,52.4714044" id="Fill-82" fill="#37363A" mask="url(#mask-2)"></path>
                    <path d="M25.577524,48.6921795 L25.577524,48.6921795 C25.1722356,48.6921795 24.8441106,49.0169901 24.8441106,49.4174709 L24.8441106,59.8778001 C24.8441106,60.2782809 25.1722356,60.6038054 25.577524,60.6038054 C25.9820913,60.6038054 26.3109375,60.2782809 26.3109375,59.8778001 L26.3109375,49.4174709 C26.3109375,49.0169901 25.9820913,48.6921795 25.577524,48.6921795" id="Fill-83" fill="#FFFFFF" mask="url(#mask-2)"></path>
                    <path d="M27.1859856,47.7914904 L27.1859856,47.7914904 C26.7821394,47.7914904 26.4532933,48.1155871 26.4532933,48.5174956 L26.4532933,58.977111 C26.4532933,59.3775918 26.7821394,59.7024024 27.1859856,59.7024024 C27.591274,59.7024024 27.919399,59.3775918 27.919399,58.977111 L27.919399,48.5174956 C27.919399,48.1155871 27.591274,47.7914904 27.1859856,47.7914904" id="Fill-84" fill="#FFFFFF" mask="url(#mask-2)"></path>
                    <path d="M28.7973317,47.1361582 L28.7973317,47.1361582 C28.3920433,47.1361582 28.0631971,47.4609688 28.0631971,47.8614496 L28.0631971,58.3217788 C28.0631971,58.7222596 28.3920433,59.0477841 28.7973317,59.0477841 C29.2011779,59.0477841 29.530024,58.7222596 29.530024,58.3217788 L29.530024,47.8614496 C29.530024,47.4609688 29.2011779,47.1361582 28.7973317,47.1361582" id="Fill-85" fill="#FFFFFF" mask="url(#mask-2)"></path>
                    <path d="M30.4065144,47.9929443 L30.4065144,47.9929443 C30.0019471,47.9929443 29.6723798,48.3184688 29.6723798,48.7196635 L29.6723798,56.2759717 C29.6723798,56.6764525 30.0019471,57.0005492 30.4065144,57.0005492 C30.8118029,57.0005492 31.1399279,56.6764525 31.1399279,56.2759717 L31.1399279,48.7196635 C31.1399279,48.3184688 30.8118029,47.9929443 30.4065144,47.9929443" id="Fill-86" fill="#FFFFFF" mask="url(#mask-2)"></path>
                    <path d="M25.6746635,61.875778 L25.6746635,60.9741608 C25.6746635,60.7278759 25.2405288,60.5222815 25.2405288,60.5222815 L26.1426923,53.2815035 L30.406875,53.2815035 L31.1402885,55.6594027 C31.1402885,55.6594027 31.3191346,55.7136568 31.4994231,55.4402448 C31.6782692,55.1675466 32.21625,53.8825816 32.21625,53.8825816 C32.21625,53.8825816 32.9337981,52.3677506 33.5965385,52.6397348 C34.2585577,52.912433 33.9556731,53.9104225 33.9556731,53.9104225 C33.9556731,53.9104225 33.6181731,55.4830769 33.4306731,56.2326399 C33.1948558,57.1813724 32.6446154,58.1450962 32.1888462,58.856824 C31.7330769,59.5671241 30.8633654,60.6036626 30.5604808,60.6036626 L30.4905288,61.875778 L25.6746635,61.875778 Z" id="Fill-87" fill="#FFFFFF" mask="url(#mask-2)"></path>
                    <path d="M54.7996875,50.4650029 C54.7996875,53.5203642 53.133101,55.9974913 51.0778125,55.9974913 C49.022524,55.9974913 47.3559375,53.5203642 47.3559375,50.4650029 C47.3559375,47.4089277 49.022524,44.9318007 51.0778125,44.9318007 C53.133101,44.9318007 54.7996875,47.4089277 54.7996875,50.4650029" id="Fill-88" fill="#37363A" mask="url(#mask-2)"></path>
                    <polygon id="Fill-89" fill="#585B5C" mask="url(#mask-2)" points="51.0050481 48.4303322 51.15 48.4303322 51.15 45.0066142 51.0050481 45.0066142"></polygon>
                    <polygon id="Fill-90" fill="#585B5C" mask="url(#mask-2)" points="47.6185096 48.6344988 54.5358173 48.6344988 54.5358173 48.4902972 47.6185096 48.4902972"></polygon>
                    <path d="M56.1814904,50.517972 L56.1814904,50.517972 C56.5875,50.517972 56.9149038,50.8427826 56.9149038,51.2439773 L56.9149038,58.96162 C56.9149038,59.3628147 56.5875,59.6876253 56.1814904,59.6876253 C55.7776442,59.6876253 55.4480769,59.3628147 55.4480769,58.96162 L55.4480769,51.2439773 C55.4480769,50.8427826 55.7776442,50.517972 56.1814904,50.517972" id="Fill-91" fill="#FFFFFF" mask="url(#mask-2)"></path>
                    <path d="M54.5729567,48.6071576 L54.5729567,48.6071576 C54.977524,48.6071576 55.3063702,48.9312544 55.3063702,49.3331629 L55.3063702,58.0595032 C55.3063702,58.4614117 54.977524,58.7862223 54.5729567,58.7862223 C54.1676683,58.7862223 53.8388221,58.4614117 53.8388221,58.0595032 L53.8388221,49.3331629 C53.8388221,48.9312544 54.1676683,48.6071576 54.5729567,48.6071576" id="Fill-92" fill="#FFFFFF" mask="url(#mask-2)"></path>
                    <path d="M52.9623317,46.2194784 L52.9623317,46.2194784 C53.3676202,46.2194784 53.6964663,46.5450029 53.6964663,46.9454837 L53.6964663,57.4050991 C53.6964663,57.8062937 53.3676202,58.1311043 52.9623317,58.1311043 C52.5577644,58.1311043 52.2296394,57.8062937 52.2296394,57.4050991 L52.2296394,46.9454837 C52.2296394,46.5450029 52.5577644,46.2194784 52.9623317,46.2194784" id="Fill-93" fill="#FFFFFF" mask="url(#mask-2)"></path>
                    <path d="M51.3524279,47.6534994 L51.3524279,47.6534994 C51.7577163,47.6534994 52.0858413,47.9790239 52.0858413,48.3802185 L52.0858413,55.3597203 C52.0858413,55.760201 51.7577163,56.0850117 51.3524279,56.0850117 C50.9478606,56.0850117 50.6197356,55.760201 50.6197356,55.3597203 L50.6197356,48.3802185 C50.6197356,47.9790239 50.9478606,47.6534994 51.3524279,47.6534994" id="Fill-94" fill="#FFFFFF" mask="url(#mask-2)"></path>
                    <path d="M56.085649,60.9590268 L56.085649,60.0574097 C56.085649,59.8111247 56.5183413,59.6055303 56.5183413,59.6055303 L55.6161779,52.3654662 L51.3527163,52.3654662 L50.620024,54.7433654 C50.620024,54.7433654 50.4397356,54.7969056 50.2601683,54.5242075 C50.080601,54.2507955 49.5426202,52.9665443 49.5426202,52.9665443 C49.5426202,52.9665443 48.8257933,51.4509994 48.1623317,51.7236976 C47.5003125,51.9963957 47.8039183,52.9936713 47.8039183,52.9936713 C47.8039183,52.9936713 48.1406971,54.5663258 48.3281971,55.3166026 C48.5640144,56.2646212 49.114976,57.2290589 49.570024,57.9400728 C50.0250721,58.650373 50.8955048,59.6869114 51.1991106,59.6869114 L51.2676202,60.9590268 L56.085649,60.9590268 Z" id="Fill-95" fill="#FFFFFF" mask="url(#mask-2)"></path>
                </g>
                <g id="Group-101" transform="translate(24.519231, 60.804331)">
                    <mask id="mask-4" fill="white">
                        <use xlink:href="#path-3"></use>
                    </mask>
                    <g id="Clip-98"></g>
                    <polygon id="Fill-97" fill="#52818D" mask="url(#mask-4)" points="0.282692308 9.28030303 6.80552885 9.28030303 6.80552885 1.19715909 0.282692308 1.19715909"></polygon>
                    <polygon id="Fill-99" fill="#52818D" mask="url(#mask-4)" points="25.9146635 5.55104895 32.4375 5.55104895 32.4375 0.27983683 25.9146635 0.27983683"></polygon>
                    <polygon id="Fill-100" fill="#0D546F" mask="url(#mask-4)" points="25.9146635 2.22870047 32.4375 2.22870047 32.4375 0.27983683 25.9146635 0.27983683"></polygon>
                </g>
                <g id="Group-106" transform="translate(24.519231, 61.518201)">
                    <polygon id="Fill-102" fill="#0D546F" points="0.282692308 2.43215326 6.80552885 2.43215326 6.80552885 0.483289627 0.282692308 0.483289627"></polygon>
                    <path d="M0.963173077,1.47157051 C0.963173077,1.24598776 1.14923077,1.06252331 1.37711538,1.06252331 C1.60572115,1.06252331 1.79105769,1.24598776 1.79105769,1.47157051 C1.79105769,1.69786713 1.60572115,1.88204545 1.37711538,1.88204545 C1.14923077,1.88204545 0.963173077,1.69786713 0.963173077,1.47157051" id="Fill-104" fill="#37363A"></path>
                    <path d="M31.7573077,0.555533217 C31.7573077,0.329236597 31.5719712,0.145772145 31.3440865,0.145772145 C31.1154808,0.145772145 30.9294231,0.329236597 30.9294231,0.555533217 C30.9294231,0.781115967 31.1154808,0.965294289 31.3440865,0.965294289 C31.5719712,0.965294289 31.7573077,0.781115967 31.7573077,0.555533217" id="Fill-105" fill="#37363A"></path>
                </g>
            </g>
        </g>
    </g>
</svg>