<?xml version="1.0" encoding="UTF-8"?>
<svg width="70px" height="70px" viewBox="0 0 70 70" version="1.1" xmlns="http://www.w3.org/2000/svg" xmlns:xlink="http://www.w3.org/1999/xlink">
    <!-- Generator: Sketch 49 (51002) - http://www.bohemiancoding.com/sketch -->
    <title>Group 7</title>
    <desc>Created with Sketch.</desc>
    <defs></defs>
    <g id="Søknad---uten-AG" stroke="none" stroke-width="1" fill="none" fill-rule="evenodd">
        <g id="Kvittering-sykmelding-selvstendig---sok" transform="translate(-225.000000, -483.000000)">
            <g id="Group-7" transform="translate(225.000000, 483.000000)">
                <g id="Group-6-Copy-3">
                    <g id="Group-5-Copy-2" fill="#EAE8E2">
                        <circle id="Oval-2" cx="35" cy="35" r="35"></circle>
                    </g>
                    <g id="Group-5-Copy" transform="translate(18.375000, 18.375000)" fill="#FFFFFF">
                        <circle id="Oval-2" cx="16.625" cy="16.625" r="16.625"></circle>
                    </g>
                    <g id="Group-5" transform="translate(14.875000, 14.875000)" fill="#EAE8E2">
                        <g id="Group-11-Copy-5">
                            <g id="Fill-11-Copy-4">
                                <path d="M20.1236956,0.00117375509 C9.02835644,0.00117375509 0.00217983087,9.02902716 0.00217983087,20.1226895 C0.00217983087,31.2163519 9.02835644,40.2442053 20.1236956,40.2442053 C31.2173579,40.2442053 40.2452113,31.2163519 40.2452113,20.1226895 C40.2452113,9.02902716 31.2173579,0.00117375509 20.1236956,0.00117375509" id="Fill-11"></path>
                            </g>
                        </g>
                    </g>
                    <g id="Group-5" transform="translate(14.875000, 14.875000)" fill="#EAE8E2">
                        <g id="Group-11-Copy-5">
                            <g id="Fill-11-Copy-3">
                                <path d="M29.0794469,14.8676203 L16.5034995,26.6051712 C16.3425274,26.7544057 16.1362819,26.8298614 15.9317131,26.8298614 C15.7170836,26.8298614 15.5024541,26.7476986 15.3398052,26.5850497 L11.1478228,22.3930672 C10.8191713,22.0644158 10.8191713,21.5345492 11.1478228,21.2075746 C11.4747974,20.8789231 12.004664,20.8789231 12.3333154,21.2075746 L15.9518347,24.8260938 L27.9358741,13.6418846 C28.2729095,13.3266476 28.8044528,13.3434155 29.1196899,13.6804509 C29.4366038,14.0208399 29.4181591,14.5507064 29.0794469,14.8676203 M20.1236956,0.00117375509 C9.02835644,0.00117375509 0.00217983087,9.02902716 0.00217983087,20.1226895 C0.00217983087,31.2163519 9.02835644,40.2442053 20.1236956,40.2442053 C31.2173579,40.2442053 40.2452113,31.2163519 40.2452113,20.1226895 C40.2452113,9.02902716 31.2173579,0.00117375509 20.1236956,0.00117375509" id="Fill-11"></path>
                            </g>
                        </g>
                    </g>
                </g>
                <g id="Brev" transform="translate(13.000000, 11.000000)">
                    <path d="M3.94175893,24.3863036 C3.3856875,23.8294286 0.753991071,21.9177321 1.31086607,21.3608571 L0.418098214,18.5371071 L21.4933661,0.480053571 C22.0502411,-0.0768214286 22.9518482,-0.0768214286 23.5095268,0.480053571 L44.5831875,18.5371071 L39.8099732,28.868625 C40.3652411,29.4246964 22.3564018,38.6432679 21.8003304,39.2009464 L3.94175893,24.3863036 Z" id="Fill-169" fill="#0C576F"></path>
                    <path d="M40.27275,37.7873036 L4.73078571,37.7873036 C4.48569643,37.7873036 4.28801786,37.5872143 4.28801786,37.3453393 L4.28801786,13.3764107 C4.28801786,13.132125 4.48569643,12.9336429 4.73078571,12.9336429 L40.27275,12.9336429 C40.5162321,12.9336429 40.7139107,13.132125 40.7139107,13.3764107 L40.7139107,37.3453393 C40.7139107,37.5872143 40.5162321,37.7873036 40.27275,37.7873036" id="Fill-170" fill="#DCDCD2"></path>
                    <polygon id="Fill-171" fill="#8F9395" points="11.3649107 23.9552679 33.6366964 23.9552679 33.6366964 22.2026786 11.3649107 22.2026786"></polygon>
                    <polygon id="Fill-172" fill="#8F9395" points="11.3649107 27.9200893 33.6366964 27.9200893 33.6366964 26.1675 11.3649107 26.1675"></polygon>
                    <polygon id="Fill-173" fill="#8F9395" points="11.3649107 31.8857143 33.6366964 31.8857143 33.6366964 30.1323214 11.3649107 30.1323214"></polygon>
                    <polygon id="Fill-174" fill="#8F9395" points="11.3649107 35.8505357 33.6366964 35.8505357 33.6366964 34.09875 11.3649107 34.09875"></polygon>
                    <path d="M2.08502679,47.9720089 L38.0392232,47.9720089 C38.9609196,47.9720089 0.417616071,18.5371875 0.417616071,18.5371875 L0.417616071,46.3045982 C0.417616071,47.2246875 1.16413393,47.9720089 2.08502679,47.9720089" id="Fill-175" fill="#D94C56"></path>
                    <path d="M42.9173036,47.9720089 L6.96310714,47.9720089 C6.04221429,47.9720089 44.5847143,18.5371875 44.5847143,18.5371875 L44.5847143,46.3045982 C44.5847143,47.2246875 43.8381964,47.9720089 42.9173036,47.9720089" id="Fill-176" fill="#C52C35"></path>
                </g>
            </g>
        </g>
    </g>
</svg>