<?xml version="1.0" encoding="UTF-8" standalone="no"?>
<svg width="143px" height="143px" viewBox="0 0 143 143" version="1.1" xmlns="http://www.w3.org/2000/svg" xmlns:xlink="http://www.w3.org/1999/xlink">
    <!-- Generator: Sketch 43.2 (39069) - http://www.bohemiancoding.com/sketch -->
    <title>Leder illustrasjon</title>
    <desc>Created with Sketch.</desc>
    <defs>
        <circle id="path-1" cx="71.5" cy="71.5" r="71.5"></circle>
        <polygon id="path-3" points="82.9541496 0.194775448 82.9541496 61.3947868 0.000614623147 61.3947868 0.000614623147 0.194775448 82.9541496 0.194775448"></polygon>
        <polygon id="path-5" points="0.270434185 0.162935961 64.5338939 0.162935961 64.5338939 35.5537423 0.270434185 35.5537423 0.270434185 0.162935961"></polygon>
    </defs>
    <g id="AT-vol.2" stroke="none" stroke-width="1" fill="none" fill-rule="evenodd">
        <g id="Velge-leder" transform="translate(-454.000000, -385.000000)">
            <g id="Leder-illustrasjon" transform="translate(454.000000, 385.000000)">
                <g id="Page-1">
                    <g id="Group">
                        <mask id="mask-2" fill="white">
                            <use xlink:href="#path-1"></use>
                        </mask>
                        <use id="Mask" fill="#C2EAF7" xlink:href="#path-1"></use>
                        <g id="Page-1" mask="url(#mask-2)">
                            <g transform="translate(29.973799, 27.475983)">
                                <g id="Group-3" stroke="none" stroke-width="1" fill="none" fill-rule="evenodd" transform="translate(0.000000, 73.172810)">
                                    <mask id="mask-4" fill="white">
                                        <use xlink:href="#path-3"></use>
                                    </mask>
                                    <g id="Clip-2"></g>
                                    <path d="M53.9998678,0.194775448 L41.4769211,0.194775448 L28.9539745,0.194775448 C22.2038758,0.194775448 0.000614623147,14.1682639 0.000614623147,27.1717122 L0.000614623147,61.3947868 L82.9547642,61.3947868 L82.9547642,27.1717122 C82.9547642,14.1682639 60.7499665,0.194775448 53.9998678,0.194775448" id="Fill-1" fill="#105573" mask="url(#mask-4)"></path>
                                </g>
                                <path d="M73.7526265,39.5245459 C73.7526265,60.3497097 59.3012997,77.2317834 41.4772284,77.2317834 C23.6516206,77.2317834 9.203367,60.3497097 9.203367,39.5245459 C9.203367,18.7009171 23.6516206,1.82037825 41.4772284,1.82037825 C59.3012997,1.82037825 73.7526265,18.7009171 73.7526265,39.5245459" id="Fill-4" stroke="none" fill="#EDE8E5" fill-rule="evenodd"></path>
                                <path d="M60.1026146,71.710076 C60.1026146,71.272637 60.0549813,70.8444073 59.9827631,70.4161776 C54.7169793,74.7199629 48.2926309,77.231016 41.3504624,77.231016 C34.5327552,77.231016 28.2144292,74.7537301 23.0039615,70.5389675 C22.9424992,70.9242207 22.911768,71.3156135 22.911768,71.710076 C22.911768,76.442091 33.1022198,84.5446882 38.5247325,88.5215455 L39.3590834,85.0143595 L37.6903816,84.0888308 L37.6903816,77.231016 L38.8013129,77.2847365 L44.2084601,77.2847365 L45.3240011,77.231016 L45.3240011,84.0888308 L43.6537627,85.0143595 L44.5710877,88.8776361 C49.6617039,85.0435221 60.1026146,76.5863691 60.1026146,71.710076" id="Fill-6" stroke="none" fill="#FEFEFE" fill-rule="evenodd"></path>
                                <path d="M45.3232328,84.0891378 L45.3232328,77.2313229 L44.2107649,77.2850435 L38.8020812,77.2850435 L37.6896133,77.2313229 L37.6896133,84.0891378 L39.3567786,85.0162014 L38.5255008,88.5233873 C40.4861486,89.9600289 41.8413927,90.8748135 41.8413927,90.8748135 C41.8413927,90.8748135 42.9338853,90.1135163 44.571856,88.8779431 L43.6545309,85.0162014 L45.3232328,84.0891378 Z" id="Fill-8" stroke="none" fill="#9ABDCD" fill-rule="evenodd"></path>
                                <g id="Group-12" stroke="none" stroke-width="1" fill="none" fill-rule="evenodd" transform="translate(9.219347, 0.123336)">
                                    <mask id="mask-6" fill="white">
                                        <use xlink:href="#path-5"></use>
                                    </mask>
                                    <g id="Clip-11"></g>
                                    <path d="M33.5461314,0.162628986 C4.66191657,0.162628986 0.270434185,28.6514161 0.270434185,34.3749595 L0.92193472,35.5537423 C1.67331152,23.0076863 9.69107047,15.2550402 14.2654032,10.9052087 C14.2654032,10.9052087 25.79727,13.6879343 33.484669,13.7170969 L33.484669,13.7201667 C33.5046443,13.7201667 33.5261561,13.7186318 33.5461314,13.7186318 C33.5661066,13.7186318 33.5876184,13.7201667 33.6075937,13.7201667 L33.6075937,13.7170969 C41.2949927,13.6879343 52.8268595,10.9052087 52.8268595,10.9052087 C57.4011922,15.2550402 63.0572618,23.0076863 63.8086386,35.5537423 L64.5338939,34.3749595 C64.5338939,28.6514161 62.4303461,0.162628986 33.5461314,0.162628986" id="Fill-10" fill="#B8B1A9" mask="url(#mask-6)"></path>
                                </g>
                                <path d="M74.3102433,49.4149639 L74.3102433,49.4149639 C72.8474402,49.4149639 71.6581444,48.2315764 71.6581444,46.7657722 L71.6581444,36.0753782 C71.6581444,34.609574 72.8474402,33.4246517 74.3102433,33.4246517 C75.7761195,33.4246517 76.9623422,34.609574 76.9623422,36.0753782 L76.9623422,46.7657722 C76.9623422,48.2315764 75.7761195,49.4149639 74.3102433,49.4149639" id="Fill-13" stroke="none" fill="#EDE8E5" fill-rule="evenodd"></path>
                                <path d="M8.64421359,49.4149639 L8.64421359,49.4149639 C7.1814105,49.4149639 5.99211472,48.2315764 5.99211472,46.7657722 L5.99211472,36.0753782 C5.99211472,34.609574 7.1814105,33.4246517 8.64421359,33.4246517 C10.1100898,33.4246517 11.2963125,34.609574 11.2963125,36.0753782 L11.2963125,46.7657722 C11.2963125,48.2315764 10.1100898,49.4149639 8.64421359,49.4149639" id="Fill-15" stroke="none" fill="#EDE8E5" fill-rule="evenodd"></path>
                                <path d="M29.5870364,36.824243 C27.3636371,36.9915442 26.7413312,33.717659 27.4112704,31.5795802 C27.5372682,31.1743736 28.2732794,29.3309905 29.5762805,29.3309905 C30.877745,29.3309905 31.4524176,30.3378675 31.5323186,30.5113083 C32.4895942,32.5956665 32.020944,36.6400582 29.5870364,36.824243" id="Fill-17" stroke="none" fill="#625D58" fill-rule="evenodd"></path>
                                <path d="M54.401524,36.824243 C56.6249232,36.9915442 57.2472292,33.717659 56.5772899,31.5795802 C56.4512922,31.1743736 55.715281,29.3309905 54.4122799,29.3309905 C53.1108154,29.3309905 52.5361427,30.3378675 52.4562417,30.5113083 C51.4989662,32.5956665 51.9676163,36.6400582 54.401524,36.824243" id="Fill-19" stroke="none" fill="#625D58" fill-rule="evenodd"></path>
                                <path d="M42.5821672,39.8299858 C43.9112898,39.6258476 45.2081446,39.6749636 45.815085,40.4209121 C47.2978633,42.2412721 46.8722368,44.3425139 44.3768668,45.894271 C43.1276453,46.6693821 41.3606037,46.9871009 40.2773304,46.5082204" id="Stroke-21" stroke="#D0BEA3" stroke-width="0.506" fill="none" stroke-linecap="round"></path>
                                <path d="M52.1612226,52.0857972 C52.1612226,52.0857972 49.3523948,58.5123126 41.5374615,58.2728723 C33.7225282,58.0334321 30.7923123,52.0857972 30.7923123,52.0857972" id="Stroke-23" stroke="#583931" stroke-width="1.013" fill="none" stroke-linecap="round"></path>
                            </g>
                        </g>
                    </g>
                </g>
            </g>
        </g>
    </g>
</svg>