<?xml version="1.0" encoding="UTF-8" standalone="no"?>
<svg width="144px" height="144px" viewBox="0 0 144 144" version="1.1" xmlns="http://www.w3.org/2000/svg" xmlns:xlink="http://www.w3.org/1999/xlink">
    <!-- Generator: Sketch 42 (36781) - http://www.bohemiancoding.com/sketch -->
    <title>Group</title>
    <desc>Created with Sketch.</desc>
    <defs></defs>
    <g id="Ferdige-AG" stroke="none" stroke-width="1" fill="none" fill-rule="evenodd">
        <g id="Nytt-design_Suksess-innsendt-Copy" transform="translate(-437.000000, -394.000000)">
            <g id="Group" transform="translate(437.000000, 394.000000)">
                <ellipse id="Oval-Copy" fill="#D2E7DA" cx="72" cy="72" rx="72" ry="72"></ellipse>
                <g id="Planlegger-ikon-Copy" transform="translate(23.000000, 25.000000)">
                    <path d="M5.58329104,46.6490354 L0.36411194,33.4186299 L5.58329104,46.6490354 Z" id="Fill-68" fill="#C32026"></path>
                    <path d="M61.3158716,17.6528951 C59.9419463,18.2030068 58.3841552,17.5274055 57.8383493,16.1426415 C57.2910955,14.7564184 57.9628567,13.1877974 59.3367821,12.6362265 C60.7107075,12.0861148 62.2684985,12.7631754 62.8143045,14.1479393 C63.3615582,15.5327033 62.689797,17.1027834 61.3158716,17.6528951 M18.6908866,34.7340827 C17.3169612,35.2841944 15.7606179,34.608593 15.2133642,33.2223698 C14.6675582,31.8376059 15.3378716,30.2675258 16.7132448,29.7174141 C18.0871701,29.1673023 19.6435134,29.8429037 20.1907672,31.2276677 C20.7365731,32.6138908 20.0662597,34.1825118 18.6908866,34.7340827 M69.0845582,0.752646209 C68.4185881,0.738054387 67.7381403,0.854788967 67.0808567,1.11890096 L3.23748358,26.7027435 C0.60400597,27.7577323 -0.683053731,30.7651069 0.365125373,33.4193594 L5.58285672,46.649765 L78.9626328,17.2443241 L73.7434537,4.01391856 C72.9587672,2.02359396 71.0839164,0.796421677 69.0845582,0.752646209" id="Fill-70" fill="#CC2026"></path>
                    <path d="M5.5835806,46.6488895 L11.5744164,61.8375176 L22.840894,90.3966328 C23.8876254,93.0508853 26.8714612,94.3466392 29.5049388,93.2916504 L93.3483119,67.7078078 C95.9817896,66.6528191 97.2674015,63.6454444 96.2206701,60.9911919 L88.5460881,41.5388332 L78.9633567,17.2434486 L5.5835806,46.6488895 Z" id="Fill-72" fill="#FFFFFF"></path>
                    <path d="M23.9222269,39.3003017 L43.0746597,87.8531322" id="Stroke-74" stroke="#878686" stroke-width="1.11"></path>
                    <path d="M42.9556537,31.6730101 L62.1080866,80.2258406" id="Stroke-76" stroke="#878686" stroke-width="1.11"></path>
                    <path d="M61.7956597,24.1234929 L80.9480925,72.6763234" id="Stroke-78" stroke="#878686" stroke-width="1.11"></path>
                    <path d="M10.0312478,57.9244286 L83.4110239,28.5189877" id="Stroke-80" stroke="#878686" stroke-width="1.11"></path>
                    <path d="M14.7783119,69.9581587 L88.1580881,40.5527178" id="Stroke-82" stroke="#878686" stroke-width="1.11"></path>
                    <path d="M19.5253761,81.9918889 L92.9051522,52.586448" id="Stroke-84" stroke="#878686" stroke-width="1.11"></path>
                    <path d="M44.6414269,69.9927413 C44.2085463,70.166384 43.719203,70.1415779 43.3036955,69.9227006 L38.1757254,67.2086216 C37.3910388,66.7927547 37.0899045,65.8165617 37.5010687,65.0271441 C37.9122328,64.2362673 38.8807851,63.9327574 39.6654716,64.3471652 L42.9996657,66.1113165 L45.9748149,54.4057565 C46.1948746,53.5433797 47.0664269,53.0209925 47.926397,53.2427882 C48.7834716,53.4645839 49.3003224,54.3444708 49.0802627,55.2083067 L45.6027403,68.8925179 C45.4796806,69.3711297 45.1481433,69.7680273 44.7007851,69.9679352 C44.6805164,69.9766903 44.6616955,69.9854454 44.6414269,69.9927413" id="Fill-86" fill="#31AC65"></path>
                </g>
            </g>
        </g>
    </g>
</svg>