<?xml version="1.0" encoding="UTF-8"?>
<svg width="119px" height="119px" viewBox="0 0 119 119" version="1.1" xmlns="http://www.w3.org/2000/svg" xmlns:xlink="http://www.w3.org/1999/xlink">
    <!-- Generator: Sketch 42 (36781) - http://www.bohemiancoding.com/sketch -->
    <title>Page 1</title>
    <desc>Created with Sketch.</desc>
    <defs></defs>
    <g id="Landingssiden" stroke="none" stroke-width="1" fill="none" fill-rule="evenodd">
        <g id="Page-1" transform="translate(1.000000, 2.000000)">
            <path d="M116.397754,57.6071105 C116.397754,89.2133895 90.4805636,114.834988 58.511159,114.834988 C26.541078,114.834988 0.623887283,89.2133895 0.623887283,57.6071105 C0.623887283,26.0008314 26.541078,0.379232558 58.511159,0.379232558 C90.4805636,0.379232558 116.397754,26.0008314 116.397754,57.6071105 L116.397754,57.6071105 Z" id="Fill-1" fill="#FFFFFF"></path>
            <path d="M116.397754,57.6071105 C116.397754,89.2133895 90.4805636,114.834988 58.511159,114.834988 C26.541078,114.834988 0.623887283,89.2133895 0.623887283,57.6071105 C0.623887283,26.0008314 26.541078,0.379232558 58.511159,0.379232558 C90.4805636,0.379232558 116.397754,26.0008314 116.397754,57.6071105 L116.397754,57.6071105 Z" id="Stroke-3" stroke="#BCCFCF" stroke-width="3.134"></path>
            <path d="M89.0146145,44.9107762 L88.9557763,44.9107762 C88.9557763,26.6010378 75.6022214,11.7566773 59.1309208,11.7566773 C42.6589439,11.7566773 29.305389,26.6010378 29.305389,44.9107762 C29.305389,44.916125 29.3060653,44.9214738 29.3060653,44.9268227 C29.2999786,60.5641483 21.1478514,69.5047297 21.1478514,69.5047297 C21.1478514,69.5047297 29.1985335,79.2730436 59.1315971,79.2730436 L59.160678,79.272375 L59.189759,79.2730436 C89.1221462,79.2730436 97.1728283,69.5047297 97.1728283,69.5047297 C97.1728283,69.5047297 89.0146145,60.5581308 89.0146145,44.9107762" id="Fill-5" fill="#E57D61"></path>
            <path d="M61.3330908,65.179593 C77.4405416,65.179593 90.1394376,77.014564 90.1394376,91.1756105 L90.1394376,103.300756 C90.1394376,103.841657 76.8636572,112.804302 59.3880503,112.804302 C43.1088191,112.804302 34.0619462,107.653372 28.3816977,104.232122 C27.5376746,100.763401 26.8823393,95.3269767 26.8823393,91.1756105 C26.8823393,77.014564 45.2269925,65.179593 61.3330908,65.179593 L65.3046875,76.6113281" id="Fill-7" fill="#5F224E"></path>
            <path d="M83.5121653,39.4332326 C83.2612578,39.4332326 83.0232,39.4840465 82.8034023,39.5682907 C75.4330786,29.7658779 61.2226509,38.8161105 50.3768185,29.4489593 C48.9870208,27.9840465 48.2627029,26.9630872 48.0726624,26.9630872 C48.0726624,26.9630872 37.5534832,35.9792209 35.8018647,39.4332326 C35.8018647,39.4332326 35.678778,39.6799477 35.5191711,39.5682907 C35.3000497,39.4840465 35.0619919,39.4332326 34.8117607,39.4332326 C33.8385642,39.4332326 33.0364717,40.1319244 32.877541,41.0472442 C32.836963,41.2023605 32.8092347,41.362157 32.8092347,41.5293081 L32.8092347,49.3887558 C32.8092347,50.4632035 33.6904543,51.335064 34.7779457,51.335064 C35.2141595,51.335064 35.6131769,51.1906453 35.9391538,50.9532907 C37.5453676,58.2156744 41.6417202,64.3133488 47.1062289,67.9980291 C45.7029052,68.5202093 43.2601075,69.719686 43.2601075,69.719686 C44.4957087,71.5128837 48.7523445,80.9341919 59.1545237,80.9341919 C69.5567029,80.9341919 75.0658474,71.3136395 76.099911,68.8478256 C76.099911,68.8478256 74.5674139,67.8081453 72.3180382,67.2090756 C77.2286566,63.47425 80.8847376,57.7189012 82.3813908,50.9532907 C82.7080439,51.1906453 83.1070613,51.335064 83.5425988,51.335064 C84.6300902,51.335064 85.5119861,50.4632035 85.5119861,49.3887558 L85.5119861,41.5293081 C85.5119861,41.362157 85.4842578,41.2023605 85.4436798,41.0472442 C85.2840728,40.1312558 84.4826566,39.4332326 83.5121653,39.4332326 Z" id="Fill-9" fill="#F2EFEE"></path>
            <path d="M74.1871977,92.6667994 L72.4754809,92.6667994 C72.2401283,92.6667994 72.0494116,92.4782529 72.0494116,92.2455785 L72.0494116,92.2161599 C72.0494116,91.9834855 72.2401283,91.794939 72.4754809,91.794939 L74.1871977,91.794939 C74.4225503,91.794939 74.6132671,91.9834855 74.6132671,92.2161599 L74.6132671,92.2455785 C74.6132671,92.4782529 74.4225503,92.6667994 74.1871977,92.6667994" id="Fill-11" fill="#5F224E"></path>
            <path d="M50.0313642,47.4114244 C48.2675723,47.5451453 47.7745491,44.9335756 48.3054451,43.2286337 C48.4055376,42.9050291 48.989185,41.4340988 50.0225723,41.4340988 C51.0552832,41.4340988 51.5111098,42.2377616 51.5740058,42.3761628 C52.3334913,44.0389826 51.961526,47.265 50.0313642,47.4114244" id="Fill-13" fill="#78ACCD"></path>
            <path d="M69.7134694,47.4114244 C71.4772613,47.5451453 71.9702844,44.9335756 71.4393884,43.2286337 C71.339296,42.9050291 70.7556486,41.4340988 69.7222613,41.4340988 C68.6895503,41.4340988 68.2337237,42.2377616 68.1708277,42.3761628 C67.4113422,44.0389826 67.7833075,47.265 69.7134694,47.4114244" id="Fill-15" fill="#78ACCD"></path>
            <g id="Group-22" transform="translate(58.161850, 48.809477)">
                <path d="M2.1768763,0.562898256 C3.2305526,0.399758721 4.25920578,0.439206395 4.74140809,1.03426453 C5.9174948,2.48580523 5.57934451,4.16199709 3.59981272,5.3995843 C2.60970867,6.0180436 1.20773757,6.27144477 0.348835838,5.88967151" id="Fill-19" fill="#F2EFEE"></path>
                <path d="M2.1768763,0.562898256 C3.2305526,0.399758721 4.25920578,0.439206395 4.74140809,1.03426453 C5.9174948,2.48580523 5.57934451,4.16199709 3.59981272,5.3995843 C2.60970867,6.0180436 1.20773757,6.27144477 0.348835838,5.88967151" id="Stroke-21" stroke="#D2C1A4" stroke-width="0.506" stroke-linecap="round"></path>
            </g>
            <polygon id="Fill-23" fill="#F2EFEE" points="57.0785514 86.9295029 62.2583376 86.9295029 71.6420081 75.3104913 47.1355803 75.3104913"></polygon>
            <path d="M84.7812434,101.495724 L65.9286884,101.495724 C65.4241682,101.495724 65.0156827,101.091218 65.0156827,100.593108 L65.0156827,90.0933401 C65.0156827,89.594561 65.4241682,89.1907238 65.9286884,89.1907238 L84.7812434,89.1907238 C85.2857636,89.1907238 85.6942491,89.594561 85.6942491,90.0933401 L85.6942491,100.593108 C85.6942491,101.091218 85.2857636,101.495724 84.7812434,101.495724" id="Fill-25" fill="#CD1719"></path>
            <path d="M80.0438254,95.5536337 C80.0438254,98.0301453 78.0142474,100.039971 75.5092301,100.039971 C73.0001549,100.039971 70.968548,98.0301453 70.968548,95.5536337 C70.968548,93.0771221 73.0001549,91.0672965 75.5092301,91.0672965 C78.0142474,91.0672965 80.0438254,93.0771221 80.0438254,95.5536337" id="Fill-27" fill="#FFFFFF"></path>
            <polygon id="Fill-29" fill="#FFFFFF" points="69.6310283 97.5309651 68.7457509 97.5309651 69.6918954 95.2383198 70.5785254 95.2383198"></polygon>
            <polygon id="Fill-31" fill="#FFFFFF" points="80.7847803 97.5309651 80.2356243 97.5309651 81.1817688 95.2383198 81.7302486 95.2383198"></polygon>
            <polygon id="Fill-33" fill="#FFFFFF" points="82.2982058 97.5309651 82.0662347 97.5309651 83.009674 95.2383198 83.2423214 95.2383198"></polygon>
            <path d="M72.0621936,97.5199331 L72.7587832,97.5199331 C72.7959798,97.5199331 72.8230318,97.493189 72.8230318,97.4584215 L72.8230318,95.3135378 C72.8230318,95.2787703 72.7959798,95.2513576 72.7587832,95.2513576 L72.0554306,95.2513576 C72.0087659,95.2513576 71.9742746,95.2874622 71.9742746,95.3315901 L71.6969913,96.0075494 C71.6800838,96.0423169 71.7084884,96.0837703 71.745685,96.0837703 L71.9445173,96.0837703 C71.9742746,96.0837703 71.999974,96.1058343 71.999974,96.1385959 L71.999974,97.4584215 C71.999974,97.493189 72.027026,97.5199331 72.0621936,97.5199331" id="Fill-35" fill="#C42229"></path>
            <path d="M73.5756191,97.5199331 L74.2742376,97.5199331 C74.3114341,97.5199331 74.3411913,97.493189 74.3411913,97.4584215 L74.3411913,95.3135378 C74.3411913,95.2787703 74.3114341,95.2513576 74.2742376,95.2513576 L73.1887751,95.2513576 C73.1427867,95.2513576 73.1055902,95.2874622 73.1055902,95.3315901 L72.8289832,96.0075494 L72.7329486,96.0837703 L73.2881913,96.0837703 C73.4119543,96.0837703 73.5133994,96.180718 73.5133994,96.3050785 L73.5133994,97.4584215 C73.5133994,97.493189 73.5404514,97.5199331 73.5756191,97.5199331" id="Fill-37" fill="#C42229"></path>
            <path d="M76.0015092,95.251157 C75.9663416,95.251157 75.9372607,95.2779012 75.9372607,95.3126686 L75.9372607,97.4575523 C75.9372607,97.4923198 75.9663416,97.5197326 76.0015092,97.5197326 L76.7068908,97.5197326 C76.7535555,97.5197326 76.7887231,97.4836279 76.7887231,97.4395 L77.0653301,96.7635407 C77.0822376,96.727436 77.0558618,96.6873198 77.0132549,96.6873198 L76.8198329,96.6873198 C76.7887231,96.6873198 76.7664052,96.6619128 76.7664052,96.6338314 L76.7664052,95.3126686 C76.7664052,95.2779012 76.7332665,95.251157 76.7001277,95.251157 L76.0015092,95.251157 Z" id="Fill-39" fill="#C42229"></path>
            <path d="M73.8262561,97.5199331 L74.2854642,97.5199331 C74.3294237,97.5199331 74.3666202,97.4831599 74.3666202,97.4397006 L74.6425509,96.7630727 C74.6594584,96.7276366 74.6324064,96.6868517 74.5918283,96.6868517 L74.3984064,96.6868517 L73.8262561,97.5199331 Z" id="Fill-41" fill="#C42229"></path>
            <path d="M78.569152,95.251157 L79.4003254,95.251157 C79.4409035,95.251157 79.4693081,95.2892674 79.4524006,95.3260407 L78.5725335,97.4856337 C78.5657705,97.5070291 78.5454815,97.5197326 78.5204584,97.5197326 L77.7690884,97.5197326 L78.5157243,95.2879302 C78.5231636,95.2658663 78.5454815,95.251157 78.569152,95.251157" id="Fill-43" fill="#C42229"></path>
            <path d="M77.5277844,95.251157 L76.3530503,95.251157 C76.2705416,95.251157 76.6912006,95.3313895 76.7202815,95.4062733 L77.5514549,97.4488605 C77.5683624,97.4943256 77.6102931,97.5197326 77.6569578,97.5197326 L78.3697786,97.5197326 L77.6366688,95.3273779 C77.6217902,95.279907 77.5771543,95.251157 77.5277844,95.251157" id="Fill-45" fill="#C42229"></path>
            <path d="M75.2732012,95.251157 C75.662074,95.251157 75.9934613,95.5152558 75.9934613,95.9785988 C75.9934613,96.4359244 75.9346231,96.4626686 75.9346231,96.4626686 C75.9346231,96.4626686 75.869022,96.0254012 75.5274902,96.0254012 C75.1920451,96.0254012 75.1149468,96.2192965 75.1149468,96.3630465 C75.1149468,96.5308663 75.2867272,96.6873198 75.3820855,96.6873198 L75.9934613,96.6873198 L75.6329931,97.4776105 C75.6201434,97.503686 75.5944439,97.5197326 75.5660393,97.5197326 L75.2880798,97.5197326 C74.9965942,97.5197326 74.237785,97.1426395 74.237785,96.4138605 C74.237785,95.682407 74.8018197,95.251157 75.2732012,95.251157" id="Fill-47" fill="#C42229"></path>
            <path d="M76.6197156,90.4723052 L74.5049237,90.4723052 C74.4142994,90.4723052 74.341259,90.4000959 74.341259,90.3105029 L74.341259,89.8037006 C74.341259,89.7141076 74.4142994,89.6418983 74.5049237,89.6418983 L76.6197156,89.6418983 C76.7103399,89.6418983 76.7833803,89.7141076 76.7833803,89.8037006 L76.7833803,90.3105029 C76.7833803,90.4000959 76.7103399,90.4723052 76.6197156,90.4723052" id="Fill-49" fill="#5B1F52"></path>
            <polygon id="Fill-51" fill="#86497E" points="75.0044393 90.1372674 76.1203353 90.1372674 76.1203353 86.8350291 75.0044393 86.8350291"></polygon>
            <path d="M53,59.5069661 C53,59.5069661 55.5533979,62.5454246 59.9784376,62.5454246 C64.4040844,62.5454246 67.0728284,59.5069661 67.0728284,59.5069661" stroke="#D19E9D" stroke-width="0.6"></path>
        </g>
    </g>
</svg>