<?xml version="1.0" encoding="UTF-8" standalone="no"?>
<svg width="72px" height="72px" viewBox="0 0 72 72" version="1.1" xmlns="http://www.w3.org/2000/svg" xmlns:xlink="http://www.w3.org/1999/xlink">
    <!-- Generator: Sketch 46.2 (44496) - http://www.bohemiancoding.com/sketch -->
    <title>Fylle inn arbeidsoppgaver illustrasjon</title>
    <desc>Created with Sketch.</desc>
    <defs>
        <ellipse id="path-1" cx="35.9435648" cy="35.9852948" rx="35.9435648" ry="35.9852948"></ellipse>
        <polygon id="path-3" points="0 56.4417476 59.8162902 56.4417476 59.8162902 0.00354368932 0 0.00354368932"></polygon>
        <polygon id="path-5" points="0.0309300826 4.31410656 0.973061244 5.19509709 3.27362644 4.15898058 5.42319545 4.06854369 4.43427674 2.50599515 3.20716685 1.7942233 3.20716685 1.30966019 1.85528736 0.256796117 0.0309300826 0.256796117"></polygon>
        <polygon id="path-7" points="0.21245802 3.47972426 1.44988244 4.63684466 3.75044764 3.60072816 5.90001664 3.51029126 4.91109793 1.94774272 3.68398804 1.23597087 3.68398804 0.751407767 3.27268982 0.431082524 0.21245802 0.431082524 0.21245802 3.47972426"></polygon>
        <polygon id="path-9" points="0.448841493 2.08708953 1.98155916 3.52033981 4.28212436 2.4842233 6.43169337 2.39378641 5.44277466 0.831237864 4.21566477 0.119466019 4.21566477 0.0473398058 0.448841493 0.0473398058 0.448841493 2.08708953"></polygon>
        <polygon id="path-11" points="6.80546211 1.90731986 1.78696548 0.160776699 0.299333998 0.0569417476 3.21059711 3.29424757 6.80546211 3.29424757 6.80546211 1.90731986"></polygon>
        <polygon id="path-13" points="3.69555039 4.02734466 3.78341159 3.93121359 0.299333998 0.0569417476 1.78696548 0.160776699 6.50963718 1.80436651 6.50963718 4.02734466 3.69555039 4.02734466"></polygon>
        <polygon id="path-15" points="4.07911133 4.7601068 3.36604536 4.38786408 3.78341159 3.93121359 0.299333998 0.0569417476 1.78696548 0.160776699 6.21434393 1.7015982 6.21434393 4.7601068 4.07911133 4.7601068"></polygon>
    </defs>
    <g id="Stilling" stroke="none" stroke-width="1" fill="none" fill-rule="evenodd">
        <g id="Visning-i-løsning-Copy" transform="translate(-215.000000, -446.000000)">
            <g id="Fylle-inn-arbeidsoppgaver-illustrasjon" transform="translate(215.000000, 446.000000)">
                <mask id="mask-2" fill="white">
                    <use xlink:href="#path-1"></use>
                </mask>
                <use id="Mask" fill="#C2EAF7" xlink:href="#path-1"></use>
                <g id="Page-1" mask="url(#mask-2)">
                    <g transform="translate(5.245033, 10.000000)">
                        <g id="Group-26" transform="translate(0.000000, 0.054709)">
                            <path d="M43.122917,3.87803883 C44.2128543,3.87803883 45.0970327,4.80585437 45.0970327,5.9508301 L45.0970327,40.9582816 C45.0970327,42.1032573 44.2128543,43.0310728 43.122917,43.0310728 L16.6911402,43.0310728 C16.6230856,43.0310728 16.5560943,43.0277233 16.4896347,43.020466 C16.0914088,42.9780388 15.7282736,42.8111214 15.4358514,42.5576748 C15.3869372,42.5158058 15.3401496,42.4711456 15.2954888,42.4242524 C15.0721845,42.1897864 14.902048,41.8994951 14.8063462,41.5745922 C14.7483934,41.3803204 14.7175562,41.1732087 14.7175562,40.9582816 L14.7175562,5.9508301 C14.7175562,4.80585437 15.6012029,3.87803883 16.6911402,3.87803883 L43.122917,3.87803883 Z" id="Fill-1" fill="#585B5C"></path>
                            <path d="M17.1635881,11.5297257 L17.1635881,38.4654053 C17.1635881,39.4255995 17.9052771,40.2043617 18.8197611,40.2043617 L40.9949341,40.2043617 C41.909418,40.2043617 42.6505754,39.4255995 42.6505754,38.4654053 L42.6505754,7.53933738 C42.6505754,6.5791432 41.909418,5.80038107 40.9949341,5.80038107 L22.9274955,5.80038107 L17.1635881,11.5297257 Z" id="Fill-3" fill="#FFFFFF"></path>
                            <path d="M22.9272828,5.80060437 L22.9272828,9.79099272 C22.9272828,10.7511869 22.1855938,11.529949 21.2711098,11.529949 L17.1633754,11.529949 L22.9272828,5.80060437 Z" id="Fill-5" fill="#CCCAC8"></path>
                            <mask id="mask-4" fill="white">
                                <use xlink:href="#path-3"></use>
                            </mask>
                            <g id="Clip-8"></g>
                            <polygon id="Fill-7" fill="#CCCAC8" mask="url(#mask-4)" points="25.6177798 20.5377427 37.9250326 20.5377427 37.9250326 19.0946602 25.6177798 19.0946602"></polygon>
                            <polygon id="Fill-9" fill="#CCCAC8" mask="url(#mask-4)" points="25.6177798 23.8035194 37.9250326 23.8035194 37.9250326 22.3604369 25.6177798 22.3604369"></polygon>
                            <polygon id="Fill-10" fill="#CCCAC8" mask="url(#mask-4)" points="25.6177798 27.0692961 37.9250326 27.0692961 37.9250326 25.6262136 25.6177798 25.6262136"></polygon>
                            <polygon id="Fill-11" fill="#CCCAC8" mask="url(#mask-4)" points="25.6177798 30.3345146 37.9250326 30.3345146 37.9250326 28.891432 25.6177798 28.891432"></polygon>
                            <polygon id="Fill-12" fill="#CCCAC8" mask="url(#mask-4)" points="22.2538611 20.5377427 23.7064019 20.5377427 23.7064019 19.0946602 22.2538611 19.0946602"></polygon>
                            <polygon id="Fill-13" fill="#CCCAC8" mask="url(#mask-4)" points="22.2538611 23.8035194 23.7064019 23.8035194 23.7064019 22.3604369 22.2538611 22.3604369"></polygon>
                            <polygon id="Fill-14" fill="#CCCAC8" mask="url(#mask-4)" points="22.2538611 27.0692961 23.7064019 27.0692961 23.7064019 25.6262136 22.2538611 25.6262136"></polygon>
                            <polygon id="Fill-15" fill="#CCCAC8" mask="url(#mask-4)" points="22.2538611 30.3345146 23.7064019 30.3345146 23.7064019 28.891432 22.2538611 28.891432"></polygon>
                            <polyline id="Stroke-16" stroke="#8DC63F" stroke-width="0.423" mask="url(#mask-4)" points="22.0692629 18.7207985 23.0023556 19.8412112 24.3182555 18.0592694"></polyline>
                            <path d="M29.9070818,4.85151942 C29.5545801,4.85151942 29.2690697,4.55173786 29.2690697,4.1816165 C29.2690697,3.81149515 29.5545801,3.51171359 29.9070818,3.51171359 C30.2595834,3.51171359 30.5450938,3.81149515 30.5450938,4.1816165 C30.5450938,4.55173786 30.2595834,4.85151942 29.9070818,4.85151942 M33.8531864,2.1105 L31.4755281,2.1105 L31.4755281,1.6505 C31.4755281,0.740548544 30.7731831,0.00365533981 29.9070818,0.00365533981 C29.0409804,0.00365533981 28.3386354,0.740548544 28.3386354,1.6505 L28.3386354,2.1105 L25.9609771,2.1105 C24.7891616,2.1105 23.8385236,3.10809709 23.8385236,4.33904369 L23.8385236,7.01977184 L35.9756399,7.01977184 L35.9756399,4.33904369 C35.9756399,3.10809709 35.0255336,2.1105 33.8531864,2.1105" id="Fill-17" fill="#37363A" mask="url(#mask-4)"></path>
                            <polygon id="Fill-18" fill="#8D9638" mask="url(#mask-4)" points="3.90644159 45.3917549 13.4314302 48.9243762 10.902244 56.4418034 0.000212670691 56.4418034"></polygon>
                            <polygon id="Fill-19" fill="#8FA14D" mask="url(#mask-4)" points="3.90644159 45.3917549 13.4314302 48.9243762 12.4153959 51.9439636 2.89040736 48.4113422"></polygon>
                            <path d="M4.38505698,47.2919903 C4.50308921,46.9414078 4.8688828,46.7577427 5.20277578,46.8816748 C5.53666877,47.0056068 5.71159041,47.3896845 5.59355818,47.740267 C5.47605762,48.0908495 5.10973236,48.2745146 4.77583937,48.1505825 C4.44194639,48.0266505 4.26702474,47.6425728 4.38505698,47.2919903" id="Fill-20" fill="#37363A" mask="url(#mask-4)"></path>
                            <polygon id="Fill-21" fill="#8D9638" mask="url(#mask-4)" points="55.9096891 45.3917549 46.3847006 48.9243762 48.9138867 56.4418034 59.815918 56.4418034"></polygon>
                            <polygon id="Fill-22" fill="#8FA14D" mask="url(#mask-4)" points="55.9096891 45.3917549 46.3847006 48.9243762 47.4007348 51.9439636 56.9257234 48.4113422"></polygon>
                            <path d="M55.4310737,47.2919903 C55.3130415,46.9414078 54.9472479,46.7577427 54.6133549,46.8816748 C54.2794619,47.0056068 54.1045403,47.3896845 54.2225725,47.740267 C54.3400731,48.0908495 54.7063984,48.2745146 55.0402913,48.1505825 C55.3741843,48.0266505 55.549106,47.6425728 55.4310737,47.2919903" id="Fill-23" fill="#37363A" mask="url(#mask-4)"></path>
                            <path d="M11.3760211,42.5747573 L11.5264856,42.689199 C12.2394641,43.2301456 13.2358263,43.0621117 13.751021,42.3134951 L19.0427995,34.6297087 C19.5585259,33.8810922 19.3984912,32.8349272 18.6855127,32.2939806 L18.5350482,32.1795388 C17.8215381,31.638034 16.8257076,31.806068 16.3099811,32.5546845 L11.0187343,40.2390291 C10.5030079,40.9876456 10.6630426,42.0332524 11.3760211,42.5747573" id="Fill-24" fill="#E7E6E2" mask="url(#mask-4)"></path>
                            <path d="M14.4141283,35.3080413 L14.4141283,35.0741335 L14.4141283,29.4419248 L13.9324291,29.4419248 C13.8255621,29.4419248 13.7240119,29.486585 13.6501088,29.5680898 C12.850467,30.4445461 8.13183604,35.6201044 7.28593837,36.5998374 C7.19502165,36.7053471 7.12856206,36.8303956 7.09081301,36.9671675 L4.68178576,45.6792549 L12.0029743,48.3945947 C12.0029743,48.3945947 12.1204749,47.8179199 12.2379754,47.1602985 C12.355476,46.5026772 14.0063322,44.4471917 14.4141283,43.419449 C14.8219243,42.3917063 14.9676037,40.5472403 15.600299,39.628915 C16.2324627,38.7105898 14.4141283,35.3080413 14.4141283,35.3080413" id="Fill-25" fill="#E7E6E2" mask="url(#mask-4)"></path>
                        </g>
                        <g id="Group-52" transform="translate(32.432280, 28.025583)">
                            <g id="Group-29" transform="translate(15.950302, 6.140777)" fill="#C5232A">
                                <path d="M0.42332101,2.06799029 L1.05016787,0.513257282 C1.12194423,0.335174757 1.31706959,0.251995146 1.48667447,0.327359223 L2.29641812,0.687432039 C2.46549132,0.762796117 2.54471115,0.967674757 2.47293479,1.14575728 L1.84608793,2.70049029 C1.77431157,2.87801456 1.57918622,2.96119417 1.40958134,2.8858301 L0.600369361,2.52631553 C0.430764485,2.45095146 0.351544652,2.24551456 0.42332101,2.06799029" id="Fill-27"></path>
                            </g>
                            <polygon id="Fill-30" fill="#E9D8BD" points="3.25104369 0.162842233 0.336391865 0.163400485 2.36473858 2.36179854 3.11546612 1.34745388"></polygon>
                            <g id="Group-34" transform="translate(3.135205, 0.000000)">
                                <mask id="mask-6" fill="white">
                                    <use xlink:href="#path-5"></use>
                                </mask>
                                <g id="Clip-33"></g>
                                <polygon id="Fill-32" fill="#EEC85D" mask="url(#mask-6)" points="14.0081796 7.20201456 14.3037918 6.46902913 0.326542343 0.256796117 0.0309300826 0.989223301"></polygon>
                            </g>
                            <g id="Group-37" transform="translate(2.658384, 0.558252)">
                                <mask id="mask-8" fill="white">
                                    <use xlink:href="#path-7"></use>
                                </mask>
                                <g id="Clip-36"></g>
                                <polygon id="Fill-35" fill="#E2B954" mask="url(#mask-8)" points="0.21245802 1.16406796 14.1897075 7.37685922 14.4847881 6.64387379 0.508070281 0.431082524"></polygon>
                            </g>
                            <g id="Group-40" transform="translate(2.126707, 1.674757)">
                                <mask id="mask-10" fill="white">
                                    <use xlink:href="#path-9"></use>
                                </mask>
                                <g id="Clip-39"></g>
                                <polygon id="Fill-38" fill="#EEC85D" mask="url(#mask-10)" points="14.7211716 6.26013107 0.743922077 0.0473398058 0.448841493 0.780325243 14.4255593 6.9931165"></polygon>
                            </g>
                            <path d="M3.00519637,0.336179612 C2.94937031,0.474626214 3.07909943,0.640985437 3.00466469,0.825208738 C2.9929678,0.854796117 2.9770175,0.878242718 2.95947217,0.897223301 L3.16629441,0.989334951 L3.46190668,0.256349515 L3.26890802,0.170378641 C3.26890802,0.170378641 3.06102242,0.19773301 3.00519637,0.336179612" id="Fill-41" fill="#EEC85D"></path>
                            <path d="M2.9592595,0.897390777 C2.86674775,0.997876214 2.71096647,0.988944175 2.63227831,1.18433252 C2.55359015,1.37916262 2.66843233,1.49081311 2.66364724,1.63037621 L2.87100116,1.72248786 L3.16608174,0.989502427 L2.9592595,0.897390777 Z" id="Fill-43" fill="#E2B954"></path>
                            <path d="M2.66375357,1.63026456 C2.66269022,1.65706068 2.65790513,1.6849733 2.64620824,1.71456068 C2.5717735,1.89934223 2.36760963,1.91720631 2.31178358,2.05565291 C2.25595752,2.19354126 2.38196491,2.36939078 2.38196491,2.36939078 L2.57549524,2.45536165 L2.87057582,1.72237621 L2.66375357,1.63026456 Z" id="Fill-45" fill="#EEC85D"></path>
                            <polygon id="Fill-47" fill="#5C5B5A" points="0.336232362 0.163623786 1.05399594 0.941269417 1.36768521 0.163623786"></polygon>
                            <g id="Group-51" transform="translate(16.481979, 6.140777)" fill="#5C5B5A">
                                <polygon id="Fill-49" points="0.0703939987 2.52704126 0.956699103 0.328084951 1.24167783 0.454808252 0.354841048 2.65376456"></polygon>
                            </g>
                        </g>
                        <g id="Group-65" transform="translate(37.749048, 28.025583)">
                            <path d="M2.53912855,9.90853398 L2.54816705,10.0760097 C2.59176454,10.8687282 3.23881512,11.4749903 3.99432775,11.4292136 L8.89053873,11.1344563 C9.64605136,11.0892379 10.2229206,10.4092864 10.1798548,9.61656796 L10.1702846,9.44909223 C10.1272188,8.65581553 9.47963655,8.05011165 8.72465559,8.0953301 L3.82791293,8.39008738 C3.07293198,8.43586408 2.49606273,9.11581553 2.53912855,9.90853398" id="Fill-53" fill="#E7E6E2"></path>
                            <path d="M1.52118028,7.69913835 L1.53021879,7.86661408 C1.57381628,8.65933252 2.22086686,9.26559466 2.97637949,9.21981796 L7.87259047,8.92506068 C8.6281031,8.87984223 9.20497235,8.19989078 9.16190653,7.40661408 L9.15233635,7.2396966 C9.10927054,6.4464199 8.46168828,5.84071602 7.70670733,5.88593447 L2.80996467,6.18069175 C2.05498372,6.22646845 1.47811447,6.9064199 1.52118028,7.69913835" id="Fill-55" fill="#E7E6E2"></path>
                            <path d="M0.268230909,5.53395631 L0.277269413,5.70143204 C0.320866905,6.49415049 0.967917482,7.10041262 1.72343011,7.05463592 L6.61964109,6.75987864 C7.37515372,6.71466019 7.95202297,6.03470874 7.90895716,5.24199029 L7.89938698,5.07451456 C7.85632116,4.28123786 7.20873891,3.67553398 6.45375796,3.72075243 L1.5570153,4.01606796 C0.802034343,4.06128641 0.225165094,4.74123786 0.268230909,5.53395631" id="Fill-57" fill="#E7E6E2"></path>
                            <path d="M1.05277309,1.61033495 L1.02353087,1.77501942 C0.884231565,2.55601456 1.37390583,3.30742233 2.1171899,3.45368447 L6.93790278,4.40215534 C7.68118685,4.54841748 8.3973554,4.03426699 8.5366547,3.2538301 L8.56589692,3.08858738 C8.70519623,2.30815049 8.21552196,1.55674272 7.47170622,1.41048058 L2.65152501,0.461451456 C1.90770927,0.31518932 1.19207239,0.829898058 1.05277309,1.61033495" id="Fill-59" fill="#E7E6E2"></path>
                            <path d="M4.09396397,5.4156068 L2.25276746,2.50599515 L1.0251259,1.79478155 L7.84972837,1.57148058 C7.95446869,1.59492718 15.4872646,7.34381068 16.1204915,8.4865534 C16.1890778,8.60936893 16.2289536,8.74669903 16.2390555,8.88849515 L16.8728141,17.9360922 L9.67603793,20.5436893 C9.67603793,20.5436893 9.57661438,19.9396602 9.44210017,19.2853883 C9.26983691,18.4474515 7.99540779,14.6982282 7.79921908,13.6034951 C7.60356205,12.5093204 6.96767668,11.0366505 6.20312555,10.237233 C5.20304162,9.19162621 4.09396397,5.4156068 4.09396397,5.4156068" id="Fill-61" fill="#E7E6E2"></path>
                            <path d="M10.288689,12.1477403 L10.4200132,12.0092937 C11.0404799,11.3550218 11.0383532,10.2954587 10.4146964,9.6434199 L4.01543532,2.95332282 C3.39177851,2.30128398 2.38265609,2.30351699 1.76218935,2.95834709 L1.63086519,3.09679369 C1.00986678,3.75106553 1.01252516,4.81062864 1.63565028,5.46210922 L8.03544305,12.1527646 C8.65909985,12.8048034 9.66769061,12.8025704 10.288689,12.1477403" id="Fill-63" fill="#E7E6E2"></path>
                        </g>
                        <g id="Group-94" transform="translate(32.432280, 28.025583)">
                            <path d="M16.3736228,8.20876699 L17.0004697,6.65403398 C17.0722461,6.47595146 17.2673714,6.39277184 17.4369763,6.46813592 L18.2467199,6.82820874 C18.4157931,6.90357282 18.495013,7.10845146 18.4232366,7.28653398 L17.7963898,8.84126699 C17.7246134,9.01879126 17.529488,9.10197087 17.3598832,9.0266068 L16.5506712,8.66709223 C16.3810663,8.59172816 16.3018465,8.38629126 16.3736228,8.20876699" id="Fill-66" fill="#C5232A"></path>
                            <g id="Group-70" fill="#E9D8BD">
                                <polygon id="Fill-68" points="3.25104369 0.162842233 0.336391865 0.163400485 2.36473858 2.36179854 3.11546612 1.34745388"></polygon>
                            </g>
                            <g id="Group-73" transform="translate(10.633535, 3.907767)">
                                <mask id="mask-12" fill="white">
                                    <use xlink:href="#path-11"></use>
                                </mask>
                                <g id="Clip-72"></g>
                                <polygon id="Fill-71" fill="#EEC85D" mask="url(#mask-12)" points="6.50984985 3.29424757 6.80546211 2.56126214 -7.17178738 -3.65097087 -7.46739964 -2.91854369"></polygon>
                            </g>
                            <g id="Group-76" transform="translate(10.633535, 3.907767)">
                                <mask id="mask-14" fill="white">
                                    <use xlink:href="#path-13"></use>
                                </mask>
                                <g id="Clip-75"></g>
                                <polygon id="Fill-74" fill="#E2B954" mask="url(#mask-14)" points="-7.76269289 -2.1854466 6.2145566 4.02734466 6.50963718 3.29435922 -7.46708063 -2.91843204"></polygon>
                            </g>
                            <g id="Group-79" transform="translate(10.633535, 3.907767)">
                                <mask id="mask-16" fill="white">
                                    <use xlink:href="#path-15"></use>
                                </mask>
                                <g id="Clip-78"></g>
                                <polygon id="Fill-77" fill="#EEC85D" mask="url(#mask-16)" points="6.21434393 4.02712136 -7.76290556 -2.1856699 -8.05798615 -1.45268447 5.91873167 4.7601068"></polygon>
                            </g>
                            <g id="Group-82" transform="translate(2.658384, 0.000000)" fill="#EEC85D">
                                <path d="M0.346812729,0.336179612 C0.290986673,0.474626214 0.420715794,0.640985437 0.346281053,0.825208738 C0.334584165,0.854796117 0.318633863,0.878242718 0.301088531,0.897223301 L0.507910778,0.989334951 L0.803523038,0.256349515 L0.610524386,0.170378641 C0.610524386,0.170378641 0.402638786,0.19773301 0.346812729,0.336179612" id="Fill-80"></path>
                            </g>
                            <g id="Group-85" transform="translate(2.603528, 0.558252)" fill="#E2B954">
                                <path d="M0.355731395,0.33913835 C0.263219645,0.439623786 0.107438364,0.430691748 0.0287502081,0.626080097 C-0.0499379476,0.820910194 0.0649042255,0.93256068 0.060119135,1.07212379 L0.267473059,1.16423544 L0.562553642,0.43125 L0.355731395,0.33913835 Z" id="Fill-83"></path>
                            </g>
                            <g id="Group-88" transform="translate(2.126707, 1.616505)" fill="#EEC85D">
                                <path d="M0.537046662,0.0137597087 C0.535983309,0.0405558252 0.531198218,0.0684684466 0.51950133,0.0980558252 C0.445066589,0.282837379 0.240902725,0.300701456 0.185076669,0.439148058 C0.129250612,0.577036408 0.255257997,0.752885922 0.255257997,0.752885922 L0.448788326,0.838856796 L0.743868909,0.105871359 L0.537046662,0.0137597087 Z" id="Fill-86"></path>
                            </g>
                            <g id="Group-91" fill="#5C5B5A">
                                <polygon id="Fill-89" points="0.336232362 0.163623786 1.05399594 0.941269417 1.36768521 0.163623786"></polygon>
                            </g>
                            <polygon id="Fill-92" fill="#5C5B5A" points="16.5523725 8.66781796 17.4386777 6.46886165 17.7236564 6.59558495 16.8368196 8.79454126"></polygon>
                        </g>
                    </g>
                </g>
            </g>
        </g>
    </g>
</svg>