<?xml version="1.0" encoding="utf-8"?>
<!-- Generator: Adobe Illustrator 19.2.1, SVG Export Plug-In . SVG Version: 6.00 Build 0)  -->
<svg version="1.1" id="Layer_1" xmlns="http://www.w3.org/2000/svg" xmlns:xlink="http://www.w3.org/1999/xlink" x="0px" y="0px"
	 viewBox="0 0 66 66" style="enable-background:new 0 0 66 66;" xml:space="preserve">
<style type="text/css">
	.st0{fill:none;stroke:#3E3832;stroke-width:2;stroke-linejoin:round;}
</style>
<title>64_2</title>
<path class="st0" d="M27.4,41.3c0,0-7.1-2.6-7.1-15.4c0-5.1,3.4-13.7,12.7-13.7s12.7,8.9,12.7,13.7c0,12.6-7.4,15.2-7.2,15.4v7
	c6.9,2.6,13.7,4.7,17.2,7.2c12.4-12.6,12.3-32.8-0.3-45.3S22.7-2,10.3,10.5c-12.3,12.5-12.3,32.5,0,45c3.7-2.6,11-4.9,17.2-7.2
	L27.4,41.3L27.4,41.3z"/>
<path class="st0" d="M10.2,55.5c12.4,12.6,32.7,12.7,45.3,0.3c0.1-0.1,0.2-0.2,0.3-0.3"/>
</svg>
