<?xml version="1.0" encoding="utf-8"?>
<!-- Generator: Adobe Illustrator 19.2.1, SVG Export Plug-In . SVG Version: 6.00 Build 0)  -->
<svg version="1.1" id="Layer_1" xmlns="http://www.w3.org/2000/svg" xmlns:xlink="http://www.w3.org/1999/xlink" x="0px" y="0px"
	 width="110.7px" height="110.7px" viewBox="0 0 110.7 110.7" style="enable-background:new 0 0 110.7 110.7;" xml:space="preserve"
	>
<g>
	<path d="M92.6,96.3L92,95.7c-1.2-1.1-2.5-1.9-4-2.5l-22.3-8V71.4l0.3-0.3c6.3-4.5,9.9-12.3,9.9-21.5c0-14-9.4-25.3-20.9-25.3
		c-11.6,0-21,11.4-21,25.3c0,9.1,3.9,17.6,10.6,22.2l0.1,0.3v13l-22.1,8c-1.5,0.5-2.8,1.4-4,2.5L18,96.3l-0.6-0.5
		C6.4,85.3,0,70.6,0,55.3C0,24.8,24.8,0,55.3,0c30.5,0,55.3,24.8,55.3,55.3c0,15.3-6.4,30-17.5,40.4L92.6,96.3z M67.7,84l21,7.6
		c1.5,0.5,2.8,1.3,4,2.3C103.1,83.9,109,69.8,109,55.3c0-29.6-24.1-53.6-53.6-53.6c-29.6,0-53.6,24-53.6,53.6
		c0,14.7,5.8,28.4,16.4,38.6c1.2-1,2.7-1.8,4.2-2.3L43.7,84V73.1c-7-5-11.4-13.9-11.4-23.4c0-14.9,10.1-27,22.7-27
		c12.5,0,22.8,12.1,22.8,27c0,9.5-4.1,17.7-10.1,22.6V84z"/>
	<path d="M55.4,110.7c-14.1,0-27.5-5.3-37.8-15l-0.7-0.6l0.7-0.6c1.4-1.2,3.1-2.2,4.8-2.8L43.7,84V73.1c-7-5-11.4-13.9-11.4-23.4
		c0-14.9,10.1-27,22.7-27c12.5,0,22.8,12.1,22.8,27c0,9.5-4.1,17.8-10.1,22.6V84l21,7.6c1.7,0.6,3.2,1.6,4.6,2.8l0.6,0.6l-0.7,0.6
		C82.9,105.4,69.4,110.7,55.4,110.7z M19.4,95.1c9.9,8.9,22.6,13.8,35.9,13.8c13.3,0,26-4.9,35.9-13.8c-1-0.8-2.1-1.4-3.3-1.9
		l-22.3-8V71.4l0.3-0.3c6.3-4.5,9.9-12.3,9.9-21.5c0-14-9.4-25.3-20.9-25.3c-11.6,0-21,11.4-21,25.3c0,9.1,3.9,17.6,10.6,22.2
		l0.1,0.3v13l-22.1,8C21.3,93.7,20.4,94.3,19.4,95.1z"/>
</g>
</svg>
