<?xml version="1.0" encoding="UTF-8"?>
<svg width="110px" height="110px" viewBox="0 0 110 110" version="1.1" xmlns="http://www.w3.org/2000/svg" xmlns:xlink="http://www.w3.org/1999/xlink">
    <!-- Generator: Sketch 47.1 (45422) - http://www.bohemiancoding.com/sketch -->
    <title>Group 140</title>
    <desc>Created with Sketch.</desc>
    <defs>
        <circle id="path-1" cx="55" cy="55" r="55"></circle>
    </defs>
    <g id="Søknad-om-sykepenger" stroke="none" stroke-width="1" fill="none" fill-rule="evenodd">
        <g id="Før-du-begynner" transform="translate(-226.000000, -344.000000)">
            <g id="Group-140" transform="translate(226.000000, 344.000000)">
                <g id="Group-139">
                    <g id="Group-138">
                        <mask id="mask-2" fill="white">
                            <use xlink:href="#path-1"></use>
                        </mask>
                        <use id="Oval-6" fill="#AFE3F7" xlink:href="#path-1"></use>
                        <g id="Group-137" mask="url(#mask-2)">
                            <g transform="translate(17.600000, 28.600000)">
                                <circle id="Oval-7" fill="#FFFFFF" cx="37.95" cy="22.77" r="22.77"></circle>
                                <circle id="Oval-7" fill="#FFFFFF" cx="37.95" cy="79.772" r="37.95"></circle>
                                <g id="Blid-mann" stroke-width="1" fill="none" transform="translate(28.006000, 13.244000)">
                                    <path d="M2.3116104,5.8981131 C0.6642009,6.0222096 0.2031084,3.5937891 0.6983559,2.0078586 C0.7928514,1.7072946 1.3381929,0.3399561 2.3036409,0.3399561 C3.2679504,0.3399561 3.6937494,1.0868121 3.7529514,1.2154626 C4.4622369,2.7615456 4.1138559,5.7614931 2.3116104,5.8981131" id="Fill-61" fill="#635E59"></path>
                                    <path d="M14.0027357,10.6703803 C14.0745591,10.3219234 14.1826073,9.35941148 14.4048909,8.13127228 C14.4943777,7.63684863 14.4989241,6.68547311 14.68666,6.35225171 C15.1461019,5.53676664 14.6716663,4.42057918 15.3946332,4.42057918 C15.9762706,4.42057918 16.0125539,5.09528519 16.1869387,5.43863835 C16.5372721,6.12842365 16.5781363,6.77834214 16.6498736,7.01612331 C16.9259058,7.93388259 17.3253989,8.47054546 17.3882656,9.65360703 C17.4117735,10.0959934 17.741398,10.8127539 17.7735171,11.2676134 C17.8312932,12.085818 18.5879424,13.4365068 18.5821833,14.240724 C18.577416,14.906431 18.9164042,15.6969586 19.1745837,16.256628 C19.5450305,17.0596653 19.4339656,17.9518957 19.2146731,18.5820319 C19.0710755,18.994659 17.6089179,19.4133113 17.2301587,19.6551335 C16.6957393,19.9963384 15.9268088,19.7472731 15.4090971,19.8071343 C14.8632402,19.8698526 14.2323287,19.2986617 14.0298595,19.0579002 C13.7038328,18.6702132 13.879571,18.3068003 13.8997775,17.4251004 C13.9071723,17.1024313 13.7380699,16.5777441 13.737352,16.1456761 C13.7358383,15.2346585 13.7037199,14.2316247 13.7355031,13.2116978 C13.7619867,12.3618336 13.8328387,11.5002402 14.0027357,10.6703803 Z" id="Fill-61" fill="#FF9100" transform="translate(16.569045, 12.129968) scale(1, -1) rotate(81.000000) translate(-16.569045, -12.129968) "></path>
                                    <path d="M18.4977023,5.8981131 C20.1451118,6.0222096 20.6062043,3.5937891 20.1098183,2.0078586 C20.0164613,1.7072946 19.4711198,0.3399561 18.5056718,0.3399561 C17.5413623,0.3399561 17.1155633,1.0868121 17.0563613,1.2154626 C16.3470758,2.7615456 16.6943183,5.7614931 18.4977023,5.8981131" id="Fill-63" fill="#635E59"></path>
                                </g>
                            </g>
                        </g>
                    </g>
                    <path d="M31.7850187,30.6060259 L71.3850187,30.6060259 L71.3850187,35.4060259 L31.7850187,35.4060259 L31.7850187,30.6060259 Z M36.5850187,19.8060259 L66.5850187,19.8060259 L66.5850187,30.6060259 L36.5850187,30.6060259 L36.5850187,19.8060259 Z" id="Combined-Shape" fill="#625D58" transform="translate(51.585019, 27.606026) rotate(-8.000000) translate(-51.585019, -27.606026) "></path>
                    <path d="M52.5541382,62.8579102 C53.3831916,62.8817579 55.5609458,65.459285 58.0474243,65.2203857 C59.6005648,65.071161 61.41379,63.4345846 62.803125,62.4572266" id="Path-2" stroke="#987474" stroke-linecap="round"></path>
                </g>
                <path d="M32.0068848,92.3935547 L37.6368652,94.7740234 L41.4213379,96.2929687 C55.5290527,82.5988281 72.9850058,73.2538061 71.7984985,74.0998779 C71.6153123,73.9880096 71.0742073,73.7015214 70.3619995,73.4412476 C69.2762329,73.044458 68.7341404,72.8046276 67.8283203,72.4909668 C65.9073627,71.8257916 63.6015019,71.5 62.78459,71.5 L56.88859,71.5 L32.0068848,92.3935547 Z" id="Fill-199" fill="#A23B28"></path>
                <path d="M72.9399902,88.8454102 L55.3468384,71.5 L46.5212,71.5 C44.8338,71.5 41.4960283,72.6040788 38.2290283,74.6357788 C38.2290283,74.6698788 55.5845093,77.3438843 60.0296265,94.5751587 L72.9399902,88.8454102 Z" id="Fill-201" fill="#A23B28"></path>
                <circle id="Oval-8" fill="#3E3832" cx="55" cy="93.5" r="1.1"></circle>
                <circle id="Oval-8" fill="#3E3832" cx="55" cy="100.65" r="1.65"></circle>
                <path d="M34.5994,91.3 C33.6593804,92.0623668 31.7400196,93.1050717 30.8,93.8674385 L34.5994,91.3 Z" id="Path-3" stroke="#A23B28"></path>
                <path d="M35.1426024,92.4015556 C34.4924966,93.2573684 33.8423909,94.1131813 33.1922852,94.9689941" id="Path-4" stroke="#A23B28"></path>
                <path d="M36.0303711,93.9527832 C35.5695312,94.5672363 35.1086914,95.1816895 34.6478516,95.7961426" id="Path-5" stroke="#A23B28"></path>
                <path d="M37.9198339,93.4999443 C37.4497135,94.3557571 36.9795931,95.21157 36.5094727,96.0673828" id="Path-6" stroke="#A23B28"></path>
                <path d="M39.0913574,95.2907227 C38.9201986,95.8482422 38.7490397,96.4057617 38.5778809,96.9632812" id="Path-7" stroke="#A23B28"></path>
                <path d="M40.8466309,95.9320312 C40.7923828,96.4433594 40.7381348,96.9546875 40.6838867,97.4660156" id="Path-8" stroke="#A23B28"></path>
                <path d="M60.5064453,93.9855469 C60.5044759,94.649056 60.5025065,95.3125651 60.5005371,95.9760742" id="Path-9" stroke="#A23B28"></path>
                <path d="M61.1417726,92.8919365 C61.6084013,93.7477493 62.0750299,94.6035622 62.5416585,95.459375" id="Path-10" stroke="#A23B28"></path>
                <path d="M62.0561176,92.0540458 C63.3225842,92.9098587 64.5890509,93.7656715 65.8555176,94.6214844" id="Path-11" stroke="#A23B28" transform="translate(63.955818, 93.337765) rotate(10.000000) translate(-63.955818, -93.337765) "></path>
                <path d="M64.6678957,92.292041 C65.3180014,92.6587077 65.9681072,93.0253743 66.6182129,93.392041" id="Path-12" stroke="#A23B28" transform="translate(65.643054, 92.842041) rotate(7.000000) translate(-65.643054, -92.842041) "></path>
                <path d="M67.0709961,90.3627441 C67.5098145,90.9510579 67.9486328,91.5393717 68.3874512,92.1276855" id="Path-13" stroke="#A23B28"></path>
                <path d="M69.36875,90.3600586 C69.8242187,91.1089681 70.2796875,91.8578776 70.7351562,92.6067871" id="Path-14" stroke="#A23B28"></path>
                <path d="M70.3397707,89.0360283 C70.9898764,89.8918411 71.6399822,90.747654 72.2900879,91.6034668" id="Path-15" stroke="#A23B28"></path>
                <path d="M70.901123,87.9887207 C71.7583496,88.4979004 72.6155762,89.0070801 73.4728027,89.5162598" id="Path-16" stroke="#A23B28"></path>
            </g>
        </g>
    </g>
</svg>