<?xml version="1.0" encoding="UTF-8"?>
<svg width="31px" height="31px" viewBox="0 0 31 31" version="1.1" xmlns="http://www.w3.org/2000/svg" xmlns:xlink="http://www.w3.org/1999/xlink">
    <!-- Generator: Sketch 41.2 (35397) - http://www.bohemiancoding.com/sketch -->
    <title>Søknader hover</title>
    <desc>Created with Sketch.</desc>
    <defs></defs>
    <g id="Page-1" stroke="none" stroke-width="1" fill="none" fill-rule="evenodd">
        <g id="Søknader-hover" fill="#3E3832">
            <g id="Filled_Version">
                <g id="Group">
                    <polygon id="Shape" points="22.03872 20.2176 22.03872 20.21504 17.55872 24.69504 21.66368 28.8 26.47392 23.99232 27.80128 22.6624 23.69632 18.55744"></polygon>
                    <path d="M15.9664,24.47744 L22.03872,18.40768 L22.03872,7.04 C22.03872,6.86976 21.97088,6.7072 21.85184,6.58688 L15.45184,0.18688 C15.33152,0.06784 15.16896,0 14.99872,0 L0.91872,0 C0.56672,0 0.27872,0.28544 0.27872,0.64 L0.27872,27.52 C0.27872,27.872 0.56672,28.16 0.91872,28.16 L14.83104,28.16 L15.80384,24.7552 C15.832,24.65024 15.8896,24.55552 15.9664,24.47744 Z M14.99872,0.64 L21.39872,7.04 L14.99872,7.04 L14.99872,0.64 L14.99872,0.64 Z" id="Shape"></path>
                    <path d="M30.81312,18.74688 L27.61312,15.54688 C27.36352,15.29728 26.95776,15.29728 26.70816,15.54688 L24.60128,17.65248 L28.70624,21.75744 L30.81312,19.65184 C30.93344,19.53152 31,19.36896 31,19.19872 C31,19.02848 30.93344,18.8672 30.81312,18.74688 Z" id="Shape"></path>
                    <path d="M16.16096,28.16 L16.16096,28.16 L15.66304,29.90464 C15.59776,30.12736 15.66048,30.36928 15.8256,30.53184 C15.94848,30.65728 16.11104,30.72 16.27872,30.72 C16.33632,30.72 16.3952,30.71232 16.4528,30.69696 L20.57312,29.51936 L16.84064,25.78688 L16.16096,28.16 Z" id="Shape"></path>
                </g>
            </g>
        </g>
    </g>
</svg>