<?xml version="1.0" encoding="UTF-8"?>
<svg width="100px" height="99px" viewBox="0 0 100 99" version="1.1" xmlns="http://www.w3.org/2000/svg" xmlns:xlink="http://www.w3.org/1999/xlink">
    <!-- Generator: Sketch 47.1 (45422) - http://www.bohemiancoding.com/sketch -->
    <title>Group 3</title>
    <desc>Created with Sketch.</desc>
    <defs>
        <polygon id="path-1" points="0 99.9417249 99.970467 99.9417249 99.970467 0.84032634 0 0.84032634"></polygon>
        <path d="M0.403846154,10.9867238 C5.00888398,12.3719057 9.89544795,13.1168415 14.957761,13.1168415 C26.8434347,13.1168415 37.7602895,9.01037316 46.3392857,2.15240312 L46.3392857,0.3997669 L0.403846154,0.3997669 L0.403846154,10.9867238 L0.403846154,10.9867238 Z" id="path-3"></path>
    </defs>
    <g id="Oversikt-over-sykmeldinger" stroke="none" stroke-width="1" fill="none" fill-rule="evenodd">
        <g id="Group-3" transform="translate(0.000000, -1.000000)">
            <g id="Page-1-Copy-2">
                <g id="Group-96" transform="translate(0.000000, 0.179181)">
                    <path d="M99.9067995,50.3839889 C99.9067995,77.6762383 77.5561813,99.8010927 49.9844093,99.8010927 C22.4136676,99.8010927 0.0640796703,77.6762383 0.0640796703,50.3839889 C0.0640796703,23.0917395 22.4136676,0.966885198 49.9844093,0.966885198 C77.5561813,0.966885198 99.9067995,23.0917395 99.9067995,50.3839889 Z" id="Fill-1" fill="#EAE8E2"></path>
                    <path d="M99.9067995,50.3839889 C99.9067995,77.6762383 77.5561813,99.8010927 49.9844093,99.8010927 C22.4136676,99.8010927 0.0640796703,77.6762383 0.0640796703,50.3839889 C0.0640796703,23.0917395 22.4136676,0.966885198 49.9844093,0.966885198 C77.5561813,0.966885198 99.9067995,23.0917395 99.9067995,50.3839889" id="Fill-3" fill="#EAE8E2"></path>
                    <path d="M79.823592,40.2286859 L79.823592,45.1849796 C79.823592,46.2282488 78.9705701,47.0736742 77.9145948,47.0736742 L22.3445398,47.0736742 C21.290625,47.0736742 20.4365728,46.2282488 20.4365728,45.1849796 L20.4365728,40.2286859 L79.823592,40.2286859 Z" id="Fill-5" fill="#424552"></path>
                    <path d="M20.4370879,40.2286859 L20.4370879,9.40074301 C20.4370879,8.35849359 21.2901099,7.51204837 22.3450549,7.51204837 L77.9151099,7.51204837 C78.9700549,7.51204837 79.8241071,8.35849359 79.8241071,9.40074301 L79.8241071,40.2286859 L20.4370879,40.2286859 Z" id="Fill-7" fill="#2D2F3C"></path>
                    <path d="M22.3495879,38.3533508 L22.3495879,10.3023601 C22.3495879,9.77001748 22.7864011,9.33659674 23.325206,9.33659674 L76.9347527,9.33659674 C77.4735577,9.33659674 77.9114011,9.77001748 77.9114011,10.3023601 L77.9114011,38.3533508 L22.3495879,38.3533508 Z" id="Fill-9" fill="#FFFFFF"></path>
                    <mask id="mask-2" fill="white">
                        <use xlink:href="#path-1"></use>
                    </mask>
                    <g id="Clip-12"></g>
                    <polygon id="Fill-11" fill="#424552" mask="url(#mask-2)" points="43.1682692 52.1981352 57.0927198 52.1981352 57.0927198 45.9232226 43.1682692 45.9232226"></polygon>
                    <polygon id="Fill-13" fill="#424552" mask="url(#mask-2)" points="37.7987637 53.1363636 62.4611951 53.1363636 62.4611951 51.4750874 37.7987637 51.4750874"></polygon>
                    <path d="M50.5800824,44.0968386 C50.5800824,44.3426136 50.3781593,44.5414773 50.1298764,44.5414773 C49.8805632,44.5414773 49.6796703,44.3426136 49.6796703,44.0968386 C49.6796703,43.8510635 49.8805632,43.6511801 50.1298764,43.6511801 C50.3781593,43.6511801 50.5800824,43.8510635 50.5800824,44.0968386" id="Fill-14" fill="#2D2F3C" mask="url(#mask-2)"></path>
                    <path d="M80.9604396,73.2630973 C80.9604396,79.4574446 75.8866071,84.4800262 69.6290522,84.4800262 C63.370467,84.4800262 58.2956044,79.4574446 58.2956044,73.2630973 C58.2956044,67.0677302 63.370467,62.0461684 69.6290522,62.0461684 C75.8866071,62.0461684 80.9604396,67.0677302 80.9604396,73.2630973" id="Fill-25" fill="#585B5C" mask="url(#mask-2)"></path>
                    <path d="M21.7871909,60.6050699 L51.9149382,60.6050699 C53.5292926,60.6050699 54.8376717,61.8767774 54.8376717,63.4421911 L54.8376717,78.0316434 C54.8376717,79.5990967 53.5292926,80.8687646 51.9149382,80.8687646 L21.7871909,80.8687646 C20.1728365,80.8687646 18.8644574,79.5990967 18.8644574,78.0316434 L18.8644574,63.4421911 C18.8644574,61.8767774 20.1728365,60.6050699 21.7871909,60.6050699" id="Fill-26" fill="#585B5C" mask="url(#mask-2)"></path>
                    <path d="M21.6523352,64.662398 L22.9184753,64.662398 C23.1801511,64.662398 23.3934066,64.8724796 23.3934066,65.1335519 L23.3934066,65.8341638 C23.3934066,66.095236 23.1801511,66.3063374 22.9184753,66.3063374 L21.6523352,66.3063374 C21.3885989,66.3063374 21.1753434,66.095236 21.1753434,65.8341638 L21.1753434,65.1335519 C21.1753434,64.8724796 21.3885989,64.662398 21.6523352,64.662398" id="Fill-27" fill="#37363A" mask="url(#mask-2)"></path>
                    <path d="M24.2772321,64.662398 L25.5433723,64.662398 C25.8060783,64.662398 26.0193338,64.8724796 26.0193338,65.1335519 L26.0193338,65.8341638 C26.0193338,66.095236 25.8060783,66.3063374 25.5433723,66.3063374 L24.2772321,66.3063374 C24.0155563,66.3063374 23.8012706,66.095236 23.8012706,65.8341638 L23.8012706,65.1335519 C23.8012706,64.8724796 24.0155563,64.662398 24.2772321,64.662398" id="Fill-28" fill="#37363A" mask="url(#mask-2)"></path>
                    <path d="M26.9030563,64.662398 L28.1691964,64.662398 C28.4308723,64.662398 28.645158,64.8724796 28.645158,65.1335519 L28.645158,65.8341638 C28.645158,66.095236 28.4308723,66.3063374 28.1691964,66.3063374 L26.9030563,66.3063374 C26.6403503,66.3063374 26.4260646,66.095236 26.4260646,65.8341638 L26.4260646,65.1335519 C26.4260646,64.8724796 26.6403503,64.662398 26.9030563,64.662398" id="Fill-29" fill="#37363A" mask="url(#mask-2)"></path>
                    <path d="M29.5289835,64.662398 L30.7951236,64.662398 C31.0578297,64.662398 31.2700549,64.8724796 31.2700549,65.1335519 L31.2700549,65.8341638 C31.2700549,66.095236 31.0578297,66.3063374 30.7951236,66.3063374 L29.5289835,66.3063374 C29.2652473,66.3063374 29.0509615,66.095236 29.0509615,65.8341638 L29.0509615,65.1335519 C29.0509615,64.8724796 29.2652473,64.662398 29.5289835,64.662398" id="Fill-30" fill="#37363A" mask="url(#mask-2)"></path>
                    <path d="M32.1548077,64.662398 L33.4209478,64.662398 C33.6826236,64.662398 33.8958791,64.8724796 33.8958791,65.1335519 L33.8958791,65.8341638 C33.8958791,66.095236 33.6826236,66.3063374 33.4209478,66.3063374 L32.1548077,66.3063374 C31.8900412,66.3063374 31.6778159,66.095236 31.6778159,65.8341638 L31.6778159,65.1335519 C31.6778159,64.8724796 31.8900412,64.662398 32.1548077,64.662398" id="Fill-31" fill="#37363A" mask="url(#mask-2)"></path>
                    <path d="M34.7796016,64.662398 L36.0447115,64.662398 C36.3074176,64.662398 36.5206731,64.8724796 36.5206731,65.1335519 L36.5206731,65.8341638 C36.5206731,66.095236 36.3074176,66.3063374 36.0447115,66.3063374 L34.7796016,66.3063374 C34.5168956,66.3063374 34.3026099,66.095236 34.3026099,65.8341638 L34.3026099,65.1335519 C34.3026099,64.8724796 34.5168956,64.662398 34.7796016,64.662398" id="Fill-32" fill="#37363A" mask="url(#mask-2)"></path>
                    <path d="M37.4044986,64.662398 L38.6706387,64.662398 C38.9333448,64.662398 39.1466003,64.8724796 39.1466003,65.1335519 L39.1466003,65.8341638 C39.1466003,66.095236 38.9333448,66.3063374 38.6706387,66.3063374 L37.4044986,66.3063374 C37.1417926,66.3063374 36.9285371,66.095236 36.9285371,65.8341638 L36.9285371,65.1335519 C36.9285371,64.8724796 37.1417926,64.662398 37.4044986,64.662398" id="Fill-33" fill="#37363A" mask="url(#mask-2)"></path>
                    <path d="M40.0303228,64.662398 L41.2964629,64.662398 C41.559169,64.662398 41.7713942,64.8724796 41.7713942,65.1335519 L41.7713942,65.8341638 C41.7713942,66.095236 41.559169,66.3063374 41.2964629,66.3063374 L40.0303228,66.3063374 C39.7665865,66.3063374 39.5523008,66.095236 39.5523008,65.8341638 L39.5523008,65.1335519 C39.5523008,64.8724796 39.7665865,64.662398 40.0303228,64.662398" id="Fill-34" fill="#37363A" mask="url(#mask-2)"></path>
                    <path d="M42.6552198,64.662398 L43.9213599,64.662398 C44.1840659,64.662398 44.3973214,64.8724796 44.3973214,65.1335519 L44.3973214,65.8341638 C44.3973214,66.095236 44.1840659,66.3063374 43.9213599,66.3063374 L42.6552198,66.3063374 C42.3925137,66.3063374 42.1792582,66.095236 42.1792582,65.8341638 L42.1792582,65.1335519 C42.1792582,64.8724796 42.3925137,64.662398 42.6552198,64.662398" id="Fill-35" fill="#37363A" mask="url(#mask-2)"></path>
                    <path d="M45.2800137,64.662398 L46.5461538,64.662398 C46.8088599,64.662398 47.0210852,64.8724796 47.0210852,65.1335519 L47.0210852,65.8341638 C47.0210852,66.095236 46.8088599,66.3063374 46.5461538,66.3063374 L45.2800137,66.3063374 C45.0173077,66.3063374 44.8040522,66.095236 44.8040522,65.8341638 L44.8040522,65.1335519 C44.8040522,64.8724796 45.0173077,64.662398 45.2800137,64.662398" id="Fill-36" fill="#37363A" mask="url(#mask-2)"></path>
                    <path d="M47.9059409,64.662398 L51.797081,64.662398 C52.0597871,64.662398 52.2730426,64.8724796 52.2730426,65.1335519 L52.2730426,65.8341638 C52.2730426,66.095236 52.0597871,66.3063374 51.797081,66.3063374 L47.9059409,66.3063374 C47.6432349,66.3063374 47.4299794,66.095236 47.4299794,65.8341638 L47.4299794,65.1335519 C47.4299794,64.8724796 47.6432349,64.662398 47.9059409,64.662398" id="Fill-37" fill="#37363A" mask="url(#mask-2)"></path>
                    <path d="M21.6523352,67.2357955 L22.9184753,67.2357955 C23.1801511,67.2357955 23.3934066,67.4468969 23.3934066,67.7079691 L23.3934066,68.408581 C23.3934066,68.6706731 23.1801511,68.8807547 22.9184753,68.8807547 L21.6523352,68.8807547 C21.3885989,68.8807547 21.1753434,68.6706731 21.1753434,68.408581 L21.1753434,67.7079691 C21.1753434,67.4468969 21.3885989,67.2357955 21.6523352,67.2357955" id="Fill-38" fill="#37363A" mask="url(#mask-2)"></path>
                    <path d="M24.2772321,67.2357955 L25.5433723,67.2357955 C25.8060783,67.2357955 26.0193338,67.4468969 26.0193338,67.7079691 L26.0193338,68.408581 C26.0193338,68.6706731 25.8060783,68.8807547 25.5433723,68.8807547 L24.2772321,68.8807547 C24.0155563,68.8807547 23.8012706,68.6706731 23.8012706,68.408581 L23.8012706,67.7079691 C23.8012706,67.4468969 24.0155563,67.2357955 24.2772321,67.2357955" id="Fill-39" fill="#37363A" mask="url(#mask-2)"></path>
                    <path d="M26.9030563,67.2357955 L28.1691964,67.2357955 C28.4308723,67.2357955 28.645158,67.4468969 28.645158,67.7079691 L28.645158,68.408581 C28.645158,68.6706731 28.4308723,68.8807547 28.1691964,68.8807547 L26.9030563,68.8807547 C26.6403503,68.8807547 26.4260646,68.6706731 26.4260646,68.408581 L26.4260646,67.7079691 C26.4260646,67.4468969 26.6403503,67.2357955 26.9030563,67.2357955" id="Fill-40" fill="#37363A" mask="url(#mask-2)"></path>
                    <path d="M29.5289835,67.2357955 L30.7951236,67.2357955 C31.0578297,67.2357955 31.2700549,67.4468969 31.2700549,67.7079691 L31.2700549,68.408581 C31.2700549,68.6706731 31.0578297,68.8807547 30.7951236,68.8807547 L29.5289835,68.8807547 C29.2652473,68.8807547 29.0509615,68.6706731 29.0509615,68.408581 L29.0509615,67.7079691 C29.0509615,67.4468969 29.2652473,67.2357955 29.5289835,67.2357955" id="Fill-41" fill="#37363A" mask="url(#mask-2)"></path>
                    <path d="M32.1548077,67.2357955 L33.4209478,67.2357955 C33.6826236,67.2357955 33.8958791,67.4468969 33.8958791,67.7079691 L33.8958791,68.408581 C33.8958791,68.6706731 33.6826236,68.8807547 33.4209478,68.8807547 L32.1548077,68.8807547 C31.8900412,68.8807547 31.6778159,68.6706731 31.6778159,68.408581 L31.6778159,67.7079691 C31.6778159,67.4468969 31.8900412,67.2357955 32.1548077,67.2357955" id="Fill-42" fill="#37363A" mask="url(#mask-2)"></path>
                    <path d="M34.7796016,67.2357955 L36.0447115,67.2357955 C36.3074176,67.2357955 36.5206731,67.4468969 36.5206731,67.7079691 L36.5206731,68.408581 C36.5206731,68.6706731 36.3074176,68.8807547 36.0447115,68.8807547 L34.7796016,68.8807547 C34.5168956,68.8807547 34.3026099,68.6706731 34.3026099,68.408581 L34.3026099,67.7079691 C34.3026099,67.4468969 34.5168956,67.2357955 34.7796016,67.2357955" id="Fill-43" fill="#37363A" mask="url(#mask-2)"></path>
                    <path d="M37.4044986,67.2357955 L38.6706387,67.2357955 C38.9333448,67.2357955 39.1466003,67.4468969 39.1466003,67.7079691 L39.1466003,68.408581 C39.1466003,68.6706731 38.9333448,68.8807547 38.6706387,68.8807547 L37.4044986,68.8807547 C37.1417926,68.8807547 36.9285371,68.6706731 36.9285371,68.408581 L36.9285371,67.7079691 C36.9285371,67.4468969 37.1417926,67.2357955 37.4044986,67.2357955" id="Fill-44" fill="#37363A" mask="url(#mask-2)"></path>
                    <path d="M40.0303228,67.2357955 L41.2964629,67.2357955 C41.559169,67.2357955 41.7713942,67.4468969 41.7713942,67.7079691 L41.7713942,68.408581 C41.7713942,68.6706731 41.559169,68.8807547 41.2964629,68.8807547 L40.0303228,68.8807547 C39.7665865,68.8807547 39.5523008,68.6706731 39.5523008,68.408581 L39.5523008,67.7079691 C39.5523008,67.4468969 39.7665865,67.2357955 40.0303228,67.2357955" id="Fill-45" fill="#37363A" mask="url(#mask-2)"></path>
                    <path d="M42.6552198,67.2357955 L43.9213599,67.2357955 C44.1840659,67.2357955 44.3973214,67.4468969 44.3973214,67.7079691 L44.3973214,68.408581 C44.3973214,68.6706731 44.1840659,68.8807547 43.9213599,68.8807547 L42.6552198,68.8807547 C42.3925137,68.8807547 42.1792582,68.6706731 42.1792582,68.408581 L42.1792582,67.7079691 C42.1792582,67.4468969 42.3925137,67.2357955 42.6552198,67.2357955" id="Fill-46" fill="#37363A" mask="url(#mask-2)"></path>
                    <path d="M45.2800137,67.2357955 L46.5461538,67.2357955 C46.8088599,67.2357955 47.0210852,67.4468969 47.0210852,67.7079691 L47.0210852,68.408581 C47.0210852,68.6706731 46.8088599,68.8807547 46.5461538,68.8807547 L45.2800137,68.8807547 C45.0173077,68.8807547 44.8040522,68.6706731 44.8040522,68.408581 L44.8040522,67.7079691 C44.8040522,67.4468969 45.0173077,67.2357955 45.2800137,67.2357955" id="Fill-47" fill="#37363A" mask="url(#mask-2)"></path>
                    <path d="M47.9059409,67.2357955 L49.172081,67.2357955 C49.4347871,67.2357955 49.6480426,67.4468969 49.6480426,67.7079691 L49.6480426,68.408581 C49.6480426,68.6706731 49.4347871,68.8807547 49.172081,68.8807547 L47.9059409,68.8807547 C47.6432349,68.8807547 47.4299794,68.6706731 47.4299794,68.408581 L47.4299794,67.7079691 C47.4299794,67.4468969 47.6432349,67.2357955 47.9059409,67.2357955" id="Fill-48" fill="#37363A" mask="url(#mask-2)"></path>
                    <path d="M50.5307349,67.2357955 L51.796875,67.2357955 C52.059581,67.2357955 52.2738668,67.4468969 52.2738668,67.7079691 L52.2738668,68.408581 C52.2738668,68.6706731 52.059581,68.8807547 51.796875,68.8807547 L50.5307349,68.8807547 C50.2680288,68.8807547 50.0547734,68.6706731 50.0547734,68.408581 L50.0547734,67.7079691 C50.0547734,67.4468969 50.2680288,67.2357955 50.5307349,67.2357955" id="Fill-49" fill="#37363A" mask="url(#mask-2)"></path>
                    <path d="M21.6523352,69.8112325 L22.9184753,69.8112325 C23.1801511,69.8112325 23.3934066,70.0213141 23.3934066,70.2823864 L23.3934066,70.9829983 C23.3934066,71.2440705 23.1801511,71.4551719 22.9184753,71.4551719 L21.6523352,71.4551719 C21.3885989,71.4551719 21.1753434,71.2440705 21.1753434,70.9829983 L21.1753434,70.2823864 C21.1753434,70.0213141 21.3885989,69.8112325 21.6523352,69.8112325" id="Fill-50" fill="#37363A" mask="url(#mask-2)"></path>
                    <path d="M24.2772321,69.8112325 L25.5433723,69.8112325 C25.8060783,69.8112325 26.0193338,70.0213141 26.0193338,70.2823864 L26.0193338,70.9829983 C26.0193338,71.2440705 25.8060783,71.4551719 25.5433723,71.4551719 L24.2772321,71.4551719 C24.0155563,71.4551719 23.8012706,71.2440705 23.8012706,70.9829983 L23.8012706,70.2823864 C23.8012706,70.0213141 24.0155563,69.8112325 24.2772321,69.8112325" id="Fill-51" fill="#37363A" mask="url(#mask-2)"></path>
                    <path d="M26.9030563,69.8112325 L28.1691964,69.8112325 C28.4308723,69.8112325 28.645158,70.0213141 28.645158,70.2823864 L28.645158,70.9829983 C28.645158,71.2440705 28.4308723,71.4551719 28.1691964,71.4551719 L26.9030563,71.4551719 C26.6403503,71.4551719 26.4260646,71.2440705 26.4260646,70.9829983 L26.4260646,70.2823864 C26.4260646,70.0213141 26.6403503,69.8112325 26.9030563,69.8112325" id="Fill-52" fill="#37363A" mask="url(#mask-2)"></path>
                    <path d="M29.5289835,69.8112325 L30.7951236,69.8112325 C31.0578297,69.8112325 31.2700549,70.0213141 31.2700549,70.2823864 L31.2700549,70.9829983 C31.2700549,71.2440705 31.0578297,71.4551719 30.7951236,71.4551719 L29.5289835,71.4551719 C29.2652473,71.4551719 29.0509615,71.2440705 29.0509615,70.9829983 L29.0509615,70.2823864 C29.0509615,70.0213141 29.2652473,69.8112325 29.5289835,69.8112325" id="Fill-53" fill="#37363A" mask="url(#mask-2)"></path>
                    <path d="M32.1548077,69.8112325 L33.4209478,69.8112325 C33.6826236,69.8112325 33.8958791,70.0213141 33.8958791,70.2823864 L33.8958791,70.9829983 C33.8958791,71.2440705 33.6826236,71.4551719 33.4209478,71.4551719 L32.1548077,71.4551719 C31.8900412,71.4551719 31.6778159,71.2440705 31.6778159,70.9829983 L31.6778159,70.2823864 C31.6778159,70.0213141 31.8900412,69.8112325 32.1548077,69.8112325" id="Fill-54" fill="#37363A" mask="url(#mask-2)"></path>
                    <path d="M34.7796016,69.8112325 L36.0447115,69.8112325 C36.3074176,69.8112325 36.5206731,70.0213141 36.5206731,70.2823864 L36.5206731,70.9829983 C36.5206731,71.2440705 36.3074176,71.4551719 36.0447115,71.4551719 L34.7796016,71.4551719 C34.5168956,71.4551719 34.3026099,71.2440705 34.3026099,70.9829983 L34.3026099,70.2823864 C34.3026099,70.0213141 34.5168956,69.8112325 34.7796016,69.8112325" id="Fill-55" fill="#37363A" mask="url(#mask-2)"></path>
                    <path d="M37.4044986,69.8112325 L38.6706387,69.8112325 C38.9333448,69.8112325 39.1466003,70.0213141 39.1466003,70.2823864 L39.1466003,70.9829983 C39.1466003,71.2440705 38.9333448,71.4551719 38.6706387,71.4551719 L37.4044986,71.4551719 C37.1417926,71.4551719 36.9285371,71.2440705 36.9285371,70.9829983 L36.9285371,70.2823864 C36.9285371,70.0213141 37.1417926,69.8112325 37.4044986,69.8112325" id="Fill-56" fill="#37363A" mask="url(#mask-2)"></path>
                    <path d="M40.0303228,69.8112325 L41.2964629,69.8112325 C41.559169,69.8112325 41.7713942,70.0213141 41.7713942,70.2823864 L41.7713942,70.9829983 C41.7713942,71.2440705 41.559169,71.4551719 41.2964629,71.4551719 L40.0303228,71.4551719 C39.7665865,71.4551719 39.5523008,71.2440705 39.5523008,70.9829983 L39.5523008,70.2823864 C39.5523008,70.0213141 39.7665865,69.8112325 40.0303228,69.8112325" id="Fill-57" fill="#37363A" mask="url(#mask-2)"></path>
                    <path d="M42.6552198,69.8112325 L43.9213599,69.8112325 C44.1840659,69.8112325 44.3973214,70.0213141 44.3973214,70.2823864 L44.3973214,70.9829983 C44.3973214,71.2440705 44.1840659,71.4551719 43.9213599,71.4551719 L42.6552198,71.4551719 C42.3925137,71.4551719 42.1792582,71.2440705 42.1792582,70.9829983 L42.1792582,70.2823864 C42.1792582,70.0213141 42.3925137,69.8112325 42.6552198,69.8112325" id="Fill-58" fill="#37363A" mask="url(#mask-2)"></path>
                    <path d="M45.2800137,69.8112325 L46.5461538,69.8112325 C46.8088599,69.8112325 47.0210852,70.0213141 47.0210852,70.2823864 L47.0210852,70.9829983 C47.0210852,71.2440705 46.8088599,71.4551719 46.5461538,71.4551719 L45.2800137,71.4551719 C45.0173077,71.4551719 44.8040522,71.2440705 44.8040522,70.9829983 L44.8040522,70.2823864 C44.8040522,70.0213141 45.0173077,69.8112325 45.2800137,69.8112325" id="Fill-59" fill="#37363A" mask="url(#mask-2)"></path>
                    <path d="M47.9059409,69.8112325 L49.172081,69.8112325 C49.4347871,69.8112325 49.6480426,70.0213141 49.6480426,70.2823864 L49.6480426,70.9829983 C49.6480426,71.2440705 49.4347871,71.4551719 49.172081,71.4551719 L47.9059409,71.4551719 C47.6432349,71.4551719 47.4299794,71.2440705 47.4299794,70.9829983 L47.4299794,70.2823864 C47.4299794,70.0213141 47.6432349,69.8112325 47.9059409,69.8112325" id="Fill-60" fill="#37363A" mask="url(#mask-2)"></path>
                    <path d="M50.5307349,69.8112325 L51.796875,69.8112325 C52.059581,69.8112325 52.2738668,70.0213141 52.2738668,70.2823864 L52.2738668,70.9829983 C52.2738668,71.2440705 52.059581,71.4551719 51.796875,71.4551719 L50.5307349,71.4551719 C50.2680288,71.4551719 50.0547734,71.2440705 50.0547734,70.9829983 L50.0547734,70.2823864 C50.0547734,70.0213141 50.2680288,69.8112325 50.5307349,69.8112325" id="Fill-61" fill="#37363A" mask="url(#mask-2)"></path>
                    <path d="M21.6523352,72.3856498 L22.9184753,72.3856498 C23.1801511,72.3856498 23.3934066,72.5957314 23.3934066,72.8568036 L23.3934066,73.5584353 C23.3934066,73.8174679 23.1801511,74.0295892 22.9184753,74.0295892 L21.6523352,74.0295892 C21.3885989,74.0295892 21.1753434,73.8174679 21.1753434,73.5584353 L21.1753434,72.8568036 C21.1753434,72.5957314 21.3885989,72.3856498 21.6523352,72.3856498" id="Fill-62" fill="#37363A" mask="url(#mask-2)"></path>
                    <path d="M24.2772321,72.3856498 L25.5433723,72.3856498 C25.8060783,72.3856498 26.0193338,72.5957314 26.0193338,72.8568036 L26.0193338,73.5584353 C26.0193338,73.8174679 25.8060783,74.0295892 25.5433723,74.0295892 L24.2772321,74.0295892 C24.0155563,74.0295892 23.8012706,73.8174679 23.8012706,73.5584353 L23.8012706,72.8568036 C23.8012706,72.5957314 24.0155563,72.3856498 24.2772321,72.3856498" id="Fill-63" fill="#37363A" mask="url(#mask-2)"></path>
                    <path d="M26.9030563,72.3856498 L28.1691964,72.3856498 C28.4308723,72.3856498 28.645158,72.5957314 28.645158,72.8568036 L28.645158,73.5584353 C28.645158,73.8174679 28.4308723,74.0295892 28.1691964,74.0295892 L26.9030563,74.0295892 C26.6403503,74.0295892 26.4260646,73.8174679 26.4260646,73.5584353 L26.4260646,72.8568036 C26.4260646,72.5957314 26.6403503,72.3856498 26.9030563,72.3856498" id="Fill-64" fill="#37363A" mask="url(#mask-2)"></path>
                    <path d="M29.5289835,72.3856498 L30.7951236,72.3856498 C31.0578297,72.3856498 31.2700549,72.5957314 31.2700549,72.8568036 L31.2700549,73.5584353 C31.2700549,73.8174679 31.0578297,74.0295892 30.7951236,74.0295892 L29.5289835,74.0295892 C29.2652473,74.0295892 29.0509615,73.8174679 29.0509615,73.5584353 L29.0509615,72.8568036 C29.0509615,72.5957314 29.2652473,72.3856498 29.5289835,72.3856498" id="Fill-65" fill="#37363A" mask="url(#mask-2)"></path>
                    <path d="M32.1548077,72.3856498 L33.4209478,72.3856498 C33.6826236,72.3856498 33.8958791,72.5957314 33.8958791,72.8568036 L33.8958791,73.5584353 C33.8958791,73.8174679 33.6826236,74.0295892 33.4209478,74.0295892 L32.1548077,74.0295892 C31.8900412,74.0295892 31.6778159,73.8174679 31.6778159,73.5584353 L31.6778159,72.8568036 C31.6778159,72.5957314 31.8900412,72.3856498 32.1548077,72.3856498" id="Fill-66" fill="#37363A" mask="url(#mask-2)"></path>
                    <path d="M34.7796016,72.3856498 L36.0447115,72.3856498 C36.3074176,72.3856498 36.5206731,72.5957314 36.5206731,72.8568036 L36.5206731,73.5584353 C36.5206731,73.8174679 36.3074176,74.0295892 36.0447115,74.0295892 L34.7796016,74.0295892 C34.5168956,74.0295892 34.3026099,73.8174679 34.3026099,73.5584353 L34.3026099,72.8568036 C34.3026099,72.5957314 34.5168956,72.3856498 34.7796016,72.3856498" id="Fill-67" fill="#37363A" mask="url(#mask-2)"></path>
                    <path d="M37.4044986,72.3856498 L38.6706387,72.3856498 C38.9333448,72.3856498 39.1466003,72.5957314 39.1466003,72.8568036 L39.1466003,73.5584353 C39.1466003,73.8174679 38.9333448,74.0295892 38.6706387,74.0295892 L37.4044986,74.0295892 C37.1417926,74.0295892 36.9285371,73.8174679 36.9285371,73.5584353 L36.9285371,72.8568036 C36.9285371,72.5957314 37.1417926,72.3856498 37.4044986,72.3856498" id="Fill-68" fill="#37363A" mask="url(#mask-2)"></path>
                    <path d="M40.0303228,72.3856498 L41.2964629,72.3856498 C41.559169,72.3856498 41.7713942,72.5957314 41.7713942,72.8568036 L41.7713942,73.5584353 C41.7713942,73.8174679 41.559169,74.0295892 41.2964629,74.0295892 L40.0303228,74.0295892 C39.7665865,74.0295892 39.5523008,73.8174679 39.5523008,73.5584353 L39.5523008,72.8568036 C39.5523008,72.5957314 39.7665865,72.3856498 40.0303228,72.3856498" id="Fill-69" fill="#37363A" mask="url(#mask-2)"></path>
                    <path d="M42.6552198,72.3856498 L43.9213599,72.3856498 C44.1840659,72.3856498 44.3973214,72.5957314 44.3973214,72.8568036 L44.3973214,73.5584353 C44.3973214,73.8174679 44.1840659,74.0295892 43.9213599,74.0295892 L42.6552198,74.0295892 C42.3925137,74.0295892 42.1792582,73.8174679 42.1792582,73.5584353 L42.1792582,72.8568036 C42.1792582,72.5957314 42.3925137,72.3856498 42.6552198,72.3856498" id="Fill-70" fill="#37363A" mask="url(#mask-2)"></path>
                    <path d="M45.2800137,72.3856498 L46.5461538,72.3856498 C46.8088599,72.3856498 47.0210852,72.5957314 47.0210852,72.8568036 L47.0210852,73.5584353 C47.0210852,73.8174679 46.8088599,74.0295892 46.5461538,74.0295892 L45.2800137,74.0295892 C45.0173077,74.0295892 44.8040522,73.8174679 44.8040522,73.5584353 L44.8040522,72.8568036 C44.8040522,72.5957314 45.0173077,72.3856498 45.2800137,72.3856498" id="Fill-71" fill="#37363A" mask="url(#mask-2)"></path>
                    <path d="M47.9059409,72.3856498 L49.172081,72.3856498 C49.4347871,72.3856498 49.6480426,72.5957314 49.6480426,72.8568036 L49.6480426,73.5584353 C49.6480426,73.8174679 49.4347871,74.0295892 49.172081,74.0295892 L47.9059409,74.0295892 C47.6432349,74.0295892 47.4299794,73.8174679 47.4299794,73.5584353 L47.4299794,72.8568036 C47.4299794,72.5957314 47.6432349,72.3856498 47.9059409,72.3856498" id="Fill-72" fill="#37363A" mask="url(#mask-2)"></path>
                    <path d="M50.5307349,72.3856498 L51.796875,72.3856498 C52.059581,72.3856498 52.2738668,72.5957314 52.2738668,72.8568036 L52.2738668,73.5584353 C52.2738668,73.8174679 52.059581,74.0295892 51.796875,74.0295892 L50.5307349,74.0295892 C50.2680288,74.0295892 50.0547734,73.8174679 50.0547734,73.5584353 L50.0547734,72.8568036 C50.0547734,72.5957314 50.2680288,72.3856498 50.5307349,72.3856498" id="Fill-73" fill="#37363A" mask="url(#mask-2)"></path>
                    <path d="M21.6523352,74.9591492 L22.9184753,74.9591492 C23.1801511,74.9591492 23.3934066,75.1692308 23.3934066,75.4313228 L23.3934066,76.1319347 C23.3934066,76.3919872 23.1801511,76.6041084 22.9184753,76.6041084 L21.6523352,76.6041084 C21.3885989,76.6041084 21.1753434,76.3919872 21.1753434,76.1319347 L21.1753434,75.4313228 C21.1753434,75.1692308 21.3885989,74.9591492 21.6523352,74.9591492" id="Fill-74" fill="#37363A" mask="url(#mask-2)"></path>
                    <path d="M24.2772321,74.9591492 L25.5433723,74.9591492 C25.8060783,74.9591492 26.0193338,75.1692308 26.0193338,75.4313228 L26.0193338,76.1319347 C26.0193338,76.3919872 25.8060783,76.6041084 25.5433723,76.6041084 L24.2772321,76.6041084 C24.0155563,76.6041084 23.8012706,76.3919872 23.8012706,76.1319347 L23.8012706,75.4313228 C23.8012706,75.1692308 24.0155563,74.9591492 24.2772321,74.9591492" id="Fill-75" fill="#37363A" mask="url(#mask-2)"></path>
                    <path d="M26.9030563,74.9591492 L28.1691964,74.9591492 C28.4308723,74.9591492 28.645158,75.1692308 28.645158,75.4313228 L28.645158,76.1319347 C28.645158,76.3919872 28.4308723,76.6041084 28.1691964,76.6041084 L26.9030563,76.6041084 C26.6403503,76.6041084 26.4260646,76.3919872 26.4260646,76.1319347 L26.4260646,75.4313228 C26.4260646,75.1692308 26.6403503,74.9591492 26.9030563,74.9591492" id="Fill-76" fill="#37363A" mask="url(#mask-2)"></path>
                    <path d="M29.5289835,74.9591492 L30.7951236,74.9591492 C31.0578297,74.9591492 31.2700549,75.1692308 31.2700549,75.4313228 L31.2700549,76.1319347 C31.2700549,76.3919872 31.0578297,76.6041084 30.7951236,76.6041084 L29.5289835,76.6041084 C29.2652473,76.6041084 29.0509615,76.3919872 29.0509615,76.1319347 L29.0509615,75.4313228 C29.0509615,75.1692308 29.2652473,74.9591492 29.5289835,74.9591492" id="Fill-77" fill="#37363A" mask="url(#mask-2)"></path>
                    <path d="M42.6552198,74.9591492 L43.9213599,74.9591492 C44.1840659,74.9591492 44.3973214,75.1692308 44.3973214,75.4313228 L44.3973214,76.1319347 C44.3973214,76.3919872 44.1840659,76.6041084 43.9213599,76.6041084 L42.6552198,76.6041084 C42.3925137,76.6041084 42.1792582,76.3919872 42.1792582,76.1319347 L42.1792582,75.4313228 C42.1792582,75.1692308 42.3925137,74.9591492 42.6552198,74.9591492" id="Fill-78" fill="#37363A" mask="url(#mask-2)"></path>
                    <path d="M45.2800137,74.9591492 L46.5461538,74.9591492 C46.8088599,74.9591492 47.0210852,75.1692308 47.0210852,75.4313228 L47.0210852,76.1319347 C47.0210852,76.3919872 46.8088599,76.6041084 46.5461538,76.6041084 L45.2800137,76.6041084 C45.0173077,76.6041084 44.8040522,76.3919872 44.8040522,76.1319347 L44.8040522,75.4313228 C44.8040522,75.1692308 45.0173077,74.9591492 45.2800137,74.9591492" id="Fill-79" fill="#37363A" mask="url(#mask-2)"></path>
                    <path d="M47.9059409,74.9591492 L49.172081,74.9591492 C49.4347871,74.9591492 49.6480426,75.1692308 49.6480426,75.4313228 L49.6480426,76.1319347 C49.6480426,76.3919872 49.4347871,76.6041084 49.172081,76.6041084 L47.9059409,76.6041084 C47.6432349,76.6041084 47.4299794,76.3919872 47.4299794,76.1319347 L47.4299794,75.4313228 C47.4299794,75.1692308 47.6432349,74.9591492 47.9059409,74.9591492" id="Fill-80" fill="#37363A" mask="url(#mask-2)"></path>
                    <path d="M50.5307349,74.9591492 L51.796875,74.9591492 C52.059581,74.9591492 52.2738668,75.1692308 52.2738668,75.4313228 L52.2738668,76.1319347 C52.2738668,76.3919872 52.059581,76.6041084 51.796875,76.6041084 L50.5307349,76.6041084 C50.2680288,76.6041084 50.0547734,76.3919872 50.0547734,76.1319347 L50.0547734,75.4313228 C50.0547734,75.1692308 50.2680288,74.9591492 50.5307349,74.9591492" id="Fill-81" fill="#37363A" mask="url(#mask-2)"></path>
                    <path d="M32.1548077,74.9591492 L41.2990385,74.9591492 C41.5627747,74.9591492 41.7770604,75.1692308 41.7770604,75.4313228 L41.7770604,76.1319347 C41.7770604,76.3919872 41.5627747,76.6041084 41.2990385,76.6041084 L32.1548077,76.6041084 C31.8900412,76.6041084 31.6778159,76.3919872 31.6778159,76.1319347 L31.6778159,75.4313228 C31.6778159,75.1692308 31.8900412,74.9591492 32.1548077,74.9591492" id="Fill-82" fill="#37363A" mask="url(#mask-2)"></path>
                    <path d="M36.5393201,69.5602564 L36.5393201,69.5602564 C35.9603365,69.5602564 35.4915865,70.0242716 35.4915865,70.5963869 L35.4915865,85.5397145 C35.4915865,86.1118298 35.9603365,86.5768648 36.5393201,86.5768648 C37.1172734,86.5768648 37.5870536,86.1118298 37.5870536,85.5397145 L37.5870536,70.5963869 C37.5870536,70.0242716 37.1172734,69.5602564 36.5393201,69.5602564" id="Fill-83" fill="#FFFFFF" mask="url(#mask-2)"></path>
                    <path d="M38.8371223,68.2735577 L38.8371223,68.2735577 C38.2601992,68.2735577 37.790419,68.736553 37.790419,69.310708 L37.790419,84.2530157 C37.790419,84.8251311 38.2601992,85.2891463 38.8371223,85.2891463 C39.4161058,85.2891463 39.8848558,84.8251311 39.8848558,84.2530157 L39.8848558,69.310708 C39.8848558,68.736553 39.4161058,68.2735577 38.8371223,68.2735577" id="Fill-84" fill="#FFFFFF" mask="url(#mask-2)"></path>
                    <path d="M41.1390453,67.3373689 L41.1390453,67.3373689 C40.5600618,67.3373689 40.0902816,67.801384 40.0902816,68.3734994 L40.0902816,83.3168269 C40.0902816,83.8889423 40.5600618,84.3539773 41.1390453,84.3539773 C41.7159684,84.3539773 42.1857486,83.8889423 42.1857486,83.3168269 L42.1857486,68.3734994 C42.1857486,67.801384 41.7159684,67.3373689 41.1390453,67.3373689" id="Fill-85" fill="#FFFFFF" mask="url(#mask-2)"></path>
                    <path d="M43.4378777,68.5613491 L43.4378777,68.5613491 C42.8599245,68.5613491 42.389114,69.026384 42.389114,69.5995192 L42.389114,80.3942453 C42.389114,80.9663607 42.8599245,81.4293561 43.4378777,81.4293561 C44.0168613,81.4293561 44.4856113,80.9663607 44.4856113,80.3942453 L44.4856113,69.5995192 C44.4856113,69.026384 44.0168613,68.5613491 43.4378777,68.5613491" id="Fill-86" fill="#FFFFFF" mask="url(#mask-2)"></path>
                    <path d="M36.6780907,88.3939685 L36.6780907,87.1059441 C36.6780907,86.7541084 36.0578984,86.4604021 36.0578984,86.4604021 L37.3467033,76.1164336 L43.4383929,76.1164336 L44.4861264,79.5134324 C44.4861264,79.5134324 44.7416209,79.5909382 44.9991758,79.2003497 C45.2546703,78.8107809 46.0232143,76.9751166 46.0232143,76.9751166 C46.0232143,76.9751166 47.048283,74.8110723 47.9950549,75.1996212 C48.9407967,75.58919 48.5081044,77.0148893 48.5081044,77.0148893 C48.5081044,77.0148893 48.0259615,79.2615385 47.7581044,80.3323427 C47.4212225,81.6876748 46.6351648,83.0644231 45.9840659,84.0811772 C45.332967,85.0958916 44.090522,86.5766608 43.6578297,86.5766608 L43.5578984,88.3939685 L36.6780907,88.3939685 Z" id="Fill-87" fill="#FFFFFF" mask="url(#mask-2)"></path>
                    <path d="M78.2852679,72.0928613 C78.2852679,76.4576632 75.9044299,79.9964161 72.9683036,79.9964161 C70.0321772,79.9964161 67.6513393,76.4576632 67.6513393,72.0928613 C67.6513393,67.7270396 70.0321772,64.1882867 72.9683036,64.1882867 C75.9044299,64.1882867 78.2852679,67.7270396 78.2852679,72.0928613" id="Fill-88" fill="#37363A" mask="url(#mask-2)"></path>
                    <polygon id="Fill-89" fill="#585B5C" mask="url(#mask-2)" points="72.8643544 69.1861888 73.0714286 69.1861888 73.0714286 64.2951632 72.8643544 64.2951632"></polygon>
                    <polygon id="Fill-90" fill="#585B5C" mask="url(#mask-2)" points="68.0264423 69.4778555 77.9083104 69.4778555 77.9083104 69.2718531 68.0264423 69.2718531"></polygon>
                    <path d="M80.259272,72.1685315 L80.259272,72.1685315 C80.8392857,72.1685315 81.3070055,72.6325466 81.3070055,73.2056818 L81.3070055,84.2308858 C81.3070055,84.804021 80.8392857,85.2680361 80.259272,85.2680361 C79.6823489,85.2680361 79.2115385,84.804021 79.2115385,84.2308858 L79.2115385,73.2056818 C79.2115385,72.6325466 79.6823489,72.1685315 80.259272,72.1685315" id="Fill-91" fill="#FFFFFF" mask="url(#mask-2)"></path>
                    <path d="M77.9613668,69.4387966 L77.9613668,69.4387966 C78.5393201,69.4387966 79.0091003,69.901792 79.0091003,70.475947 L79.0091003,82.9421474 C79.0091003,83.5163024 78.5393201,83.9803176 77.9613668,83.9803176 C77.3823832,83.9803176 76.912603,83.5163024 76.912603,82.9421474 L76.912603,70.475947 C76.912603,69.901792 77.3823832,69.4387966 77.9613668,69.4387966" id="Fill-92" fill="#FFFFFF" mask="url(#mask-2)"></path>
                    <path d="M75.6604739,66.0278263 L75.6604739,66.0278263 C76.2394574,66.0278263 76.7092376,66.4928613 76.7092376,67.0649767 L76.7092376,82.0072844 C76.7092376,82.5804196 76.2394574,83.0444347 75.6604739,83.0444347 C75.0825206,83.0444347 74.6137706,82.5804196 74.6137706,82.0072844 L74.6137706,67.0649767 C74.6137706,66.4928613 75.0825206,66.0278263 75.6604739,66.0278263" id="Fill-93" fill="#FFFFFF" mask="url(#mask-2)"></path>
                    <path d="M73.3606113,68.0764277 L73.3606113,68.0764277 C73.9395948,68.0764277 74.4083448,68.5414627 74.4083448,69.1145979 L74.4083448,79.0853147 C74.4083448,79.6574301 73.9395948,80.1214452 73.3606113,80.1214452 C72.782658,80.1214452 72.313908,79.6574301 72.313908,79.0853147 L72.313908,69.1145979 C72.313908,68.5414627 72.782658,68.0764277 73.3606113,68.0764277" id="Fill-94" fill="#FFFFFF" mask="url(#mask-2)"></path>
                    <path d="M80.1223558,87.084324 L80.1223558,85.7962995 C80.1223558,85.4444639 80.7404876,85.1507576 80.7404876,85.1507576 L79.4516827,74.8078089 L73.3610234,74.8078089 L72.3143201,78.2048077 C72.3143201,78.2048077 72.0567651,78.2812937 71.8002404,77.8917249 C71.5437157,77.5011364 70.7751717,75.6664918 70.7751717,75.6664918 C70.7751717,75.6664918 69.7511332,73.5014277 68.803331,73.8909965 C67.8575893,74.2805653 68.2913118,75.7052448 68.2913118,75.7052448 C68.2913118,75.7052448 68.7724245,77.9518939 69.0402816,79.0237179 C69.3771635,80.3780303 70.1642514,81.7557984 70.8143201,82.7715326 C71.4643887,83.7862471 72.707864,85.2670163 73.1415865,85.2670163 L73.2394574,87.084324 L80.1223558,87.084324 Z" id="Fill-95" fill="#FFFFFF" mask="url(#mask-2)"></path>
                </g>
                <g id="Group-101" transform="translate(35.027473, 86.863330)">
                    <mask id="mask-4" fill="white">
                        <use xlink:href="#path-3"></use>
                    </mask>
                    <g id="Clip-98"></g>
                    <polygon id="Fill-97" fill="#52818D" mask="url(#mask-4)" points="0.403846154 13.2575758 9.72218407 13.2575758 9.72218407 1.71022727 0.403846154 1.71022727"></polygon>
                    <polygon id="Fill-99" fill="#52818D" mask="url(#mask-4)" points="37.0209478 7.93006993 46.3392857 7.93006993 46.3392857 0.3997669 37.0209478 0.3997669"></polygon>
                    <polygon id="Fill-100" fill="#0D546F" mask="url(#mask-4)" points="37.0209478 3.18385781 46.3392857 3.18385781 46.3392857 0.3997669 37.0209478 0.3997669"></polygon>
                </g>
                <g id="Group-106" transform="translate(35.027473, 87.883144)">
                    <polygon id="Fill-102" fill="#0D546F" points="0.403846154 3.47450466 9.72218407 3.47450466 9.72218407 0.690413753 0.403846154 0.690413753"></polygon>
                    <path d="M1.37596154,2.10224359 C1.37596154,1.77998252 1.64175824,1.51789044 1.96730769,1.51789044 C2.29388736,1.51789044 2.55865385,1.77998252 2.55865385,2.10224359 C2.55865385,2.42552448 2.29388736,2.68863636 1.96730769,2.68863636 C1.64175824,2.68863636 1.37596154,2.42552448 1.37596154,2.10224359" id="Fill-104" fill="#37363A"></path>
                    <path d="M45.3675824,0.793618881 C45.3675824,0.470337995 45.1028159,0.208245921 44.7772665,0.208245921 C44.4506868,0.208245921 44.1848901,0.470337995 44.1848901,0.793618881 C44.1848901,1.11587995 44.4506868,1.37899184 44.7772665,1.37899184 C45.1028159,1.37899184 45.3675824,1.11587995 45.3675824,0.793618881" id="Fill-105" fill="#37363A"></path>
                </g>
            </g>
            <g id="icon/-feedback/-report-problem-circle-Copy-1" transform="translate(38.000000, 11.000000)">
                <path d="M11.6962701,0.996 L11.4912654,0.998000046 C8.41119423,1.05200129 5.51212728,2.29703004 3.32907687,4.50408101 C1.13002609,6.72713235 -0.0510011845,9.63719955 0.00200003948,12.6992703 C0.11200258,19.0364166 5.07711724,24.0005312 11.3052611,24.0005312 L11.5082657,23.9985312 C17.9544146,23.8875286 23.1095336,18.6374074 22.9985311,12.298261 C22.8885285,5.96111466 17.9234139,0.996 11.6962701,0.996 Z" id="Shape" fill="#C30000" fill-rule="nonzero"></path>
                <path d="M11,6.996 C11,6.72 11.224,6.496 11.5,6.496 C11.775,6.496 12,6.72 12,6.996 L12,13.996 C12,14.272 11.775,14.496 11.5,14.496 C11.224,14.496 11,14.272 11,13.996 L11,6.996 Z" id="Path" fill="#FFFFFF"></path>
                <path d="M11.518,18.496 C11.512,18.496 11.506,18.496 11.5,18.496 C10.955,18.496 10.509,18.06 10.5,17.514 C10.49,16.962 10.93,16.506 11.482,16.497 C11.488,16.497 11.494,16.496 11.5,16.496 C12.045,16.496 12.49,16.933 12.5,17.479 C12.51,18.031 12.069,18.486 11.518,18.496 Z" id="Path" fill="#FFFFFF"></path>
            </g>
        </g>
    </g>
</svg>