<?xml version="1.0" encoding="UTF-8" standalone="no"?>
<svg width="23px" height="23px" viewBox="0 0 23 23" version="1.1" xmlns="http://www.w3.org/2000/svg" xmlns:xlink="http://www.w3.org/1999/xlink">
    <!-- Generator: Sketch 46.2 (44496) - http://www.bohemiancoding.com/sketch -->
    <title>infomation circle</title>
    <desc>Created with Sketch.</desc>
    <defs></defs>
    <g id="Versjonering-prototype" stroke="none" stroke-width="1" fill="none" fill-rule="evenodd">
        <g id="Inngang-til-en-oppfølgingsplan-Copy-5" transform="translate(-238.000000, -254.000000)" fill-rule="nonzero" fill="#FF9100">
            <g id="infomation-circle" transform="translate(238.000000, 254.000000)">
                <path d="M11.5,0 C5.159,0 0,5.159 0,11.5 C0,17.841 5.159,23 11.5,23 C17.841,23 23,17.841 23,11.5 C23,5.159 17.841,0 11.5,0 Z M11.5,22 C5.71,22 1,17.29 1,11.5 C1,5.71 5.71,1 11.5,1 C17.29,1 22,5.71 22,11.5 C22,17.29 17.29,22 11.5,22 Z" id="Shape"></path>
                <path d="M14.5,18 L12,18 L12,9.5 C12,9.224 11.776,9 11.5,9 L9.5,9 C9.224,9 9,9.224 9,9.5 C9,9.776 9.224,10 9.5,10 L11,10 L11,18 L8.5,18 C8.224,18 8,18.224 8,18.5 C8,18.776 8.224,19 8.5,19 L14.5,19 C14.776,19 15,18.776 15,18.5 C15,18.224 14.776,18 14.5,18 Z" id="Shape"></path>
                <circle id="Oval" cx="11" cy="5.5" r="1"></circle>
            </g>
        </g>
    </g>
</svg>