<?xml version="1.0" encoding="UTF-8"?>
<svg width="264px" height="125px" viewBox="0 0 264 125" version="1.1" xmlns="http://www.w3.org/2000/svg" xmlns:xlink="http://www.w3.org/1999/xlink">
    <!-- Generator: Sketch 52.1 (67048) - http://www.bohemiancoding.com/sketch -->
    <title>Oppfølging 2</title>
    <desc>Created with Sketch.</desc>
    <defs>
        <rect id="path-1" x="0" y="0" width="320" height="135"></rect>
        <path d="M61.7644973,29.9068637 C63.9430472,39.0158205 61.876515,55.3068902 56.2292811,67.4855997 C46.0820285,62.8638138 16.0870536,64.7167514 7.43851963,67.1358644 C7.43851963,67.1358644 -0.77481936,55.8572285 0.0595188843,34.8889431 C0.0595188843,34.8889431 3.01317928,-0.341946873 31.1321807,0.00250947759 C59.248607,0.348285584 61.7644973,29.9068637 61.7644973,29.9068637" id="path-3"></path>
        <path d="M51.3522144,0.23267852 C59.3122776,4.05410831 71.6909266,14.4062126 71.6909266,24.0054989 L71.6909266,55.7279998 L0,55.7279998 L0,24.0054989 C0,14.7436143 11.3262023,4.78090269 19.1951601,0.659520727 C18.7965731,0.897253016 18.5865365,1.04055434 18.5865365,1.04055434 C19.9424222,3.23210808 23.5866871,12.96 35.0176944,12.96 C46.451176,12.96 51.7767803,2.51617341 51.7767803,0.474652731 C51.6351368,0.392635858 51.4936124,0.311983357 51.3522144,0.23267852 Z" id="path-5"></path>
        <path d="M76.3322597,40.5237933 C77.9664366,41.6925161 79.0390585,43.6559806 79.0390585,45.8812272 C79.0390585,47.3628165 78.5635635,48.7283573 77.7634169,49.8205444 C78.5635635,50.9127315 79.0390585,52.2782723 79.0390585,53.7598616 C79.0390585,56.9885906 76.7809045,59.6661986 73.8257234,60.1646853 C73.1598393,63.3578632 70.7677233,65.8772089 67.7225976,66.6022073 C67.8562632,69.6500146 65.9083808,72.465395 62.9629913,73.2027612 C61.3098456,73.6159687 59.6526872,73.2968469 58.3044878,72.4456285 C57.1953414,73.042205 55.9373409,73.3789743 54.604287,73.3789743 C51.175415,73.3789743 48.2437092,71.1524817 47.062997,68.0078043 C46.2096589,67.8728781 45.3660284,67.4486041 44.6431411,66.6680192 C43.6827652,65.6313063 42.4280984,65.2130157 41.2262187,65.3160034 C41.1975788,65.36942 41.1697513,65.4237649 41.1427647,65.4790369 C40.3735353,67.05533 39.0325598,67.825391 37.6601483,67.9191961 C37.5551527,68.1628748 37.4686232,68.4218695 37.4031523,68.6954544 C36.4035552,72.8664436 31.0914205,73.1893766 29.4240389,69.6642535 C28.4288366,71.8602221 26.2884861,73.3789743 23.8090049,73.3789743 C21.9981425,73.3789743 20.3686061,72.5700654 19.2333283,71.279356 C18.3519035,71.7808985 17.3413813,72.0658686 16.2673499,72.0658686 C12.8371538,72.0658686 10.05554,69.1612787 10.05554,65.5778132 C10.05554,64.9503693 10.1408187,64.3437383 10.2999257,63.769868 C8.16303272,62.9258536 6.58813869,60.8862347 6.32392378,58.4322227 C4.08554066,57.4514297 2.51388501,55.1409672 2.51388501,52.4467559 C2.51388501,49.68909 4.16044431,47.333462 6.4831779,46.3942146 C6.62809023,44.3467876 5.41688098,42.2676651 3.24573978,41.7006269 C-1.08191326,40.5687297 -1.08191326,34.1437034 3.24573978,33.0118063 C6.50876252,32.1582876 7.60355944,27.892007 5.18520206,25.4483173 C1.97874174,22.2075723 5.05448004,16.6439434 9.34442481,17.9242215 C10.050211,18.1348441 10.7443241,18.1507896 11.388657,18.0118816 C11.3385179,17.6799193 11.3124825,17.3395873 11.3124825,16.9929012 C11.3124825,14.5683511 12.5858469,12.454576 14.471911,11.3409472 C14.2558076,7.4496014 18.9563116,4.9795397 21.8138523,8.00873258 C22.7316626,5.62330158 24.9667415,3.93931718 27.5785755,3.93931718 C28.3682404,3.93931718 29.123466,4.09325048 29.8182594,4.37396263 C30.2660472,3.74504778 30.8504026,3.28586556 31.4976114,2.99641598 C32.8795061,0.122225615 37.1362109,-0.527726795 39.014761,2.72702728 C40.7505986,5.73666561 44.9764393,5.57909292 46.5048814,2.44996197 C48.4680003,-1.57283128 54.156085,-0.344629616 54.5837564,3.97415429 C54.7965988,3.95112177 55.0126341,3.93931718 55.2313106,3.93931718 C57.9054867,3.93931718 60.1847074,5.70465139 61.0594913,8.1807324 C61.1162336,8.14583819 61.1726504,8.10938991 61.2287059,8.07136759 C64.9706237,5.53444732 69.4704779,9.91496803 67.3148215,13.9947875 C65.6883379,17.0700811 67.9307233,20.8150587 71.2892737,20.6312239 C75.7451348,20.3896124 77.5450765,26.5336341 73.7252282,28.9392438 C73.6090633,29.0124172 73.4978255,29.0898177 73.391503,29.1710902 C75.9332546,29.9834797 77.782116,32.4542137 77.782116,35.3763814 C77.782116,37.0255539 77.1932368,38.5309406 76.2232708,39.6755924 C76.2856131,39.9547205 76.3216184,40.2389253 76.3322597,40.5237933 Z" id="path-7"></path>
        <path d="M20.2457236,1.31825947 C12.5066154,4.99692955 0,15.758983 0,25.7231905 L0,57.9743998 L61.6232193,57.9743998 C66.6335465,57.9743998 70.6952192,53.912727 70.6952192,48.9023998 L70.6952192,25.7231905 C70.6952192,14.9694553 55.8740413,3.28642802 48.3926712,0.581143727 C43.6795142,6.10439341 27.975345,7.93245758 20.2457236,1.31825947 Z" id="path-9"></path>
        <path d="M27.7117631,11.9649064 C26.7910695,11.9649064 25.9808221,11.5733136 25.5046973,10.9793331 C25.2216211,10.6265118 25.056416,10.2031263 25.056416,9.74639721 C25.056416,9.15862021 25.3339235,8.62900057 25.7803485,8.2319797 C26.2648263,7.80083984 26.9479216,7.52788799 27.7117631,7.52788799 C29.1781904,7.52788799 30.3661821,8.52121561 30.3661821,9.74639721 C30.3661821,10.9715788 29.1781904,11.9649064 27.7117631,11.9649064 M27.4741648,3.65770989 C27.0490865,3.65770989 26.6351456,3.69415517 26.230486,3.75386339 L26.6082302,0 L0,0 L2.58109764,25.7039999 L24.0252763,25.7039999 L25.0666253,15.3341558 C25.8211857,15.5582555 26.6286488,15.6862017 27.4741648,15.6862017 C31.4492965,15.6862017 34.671724,12.9939039 34.671724,9.6719558 C34.671724,6.35078313 31.4492965,3.65770989 27.4741648,3.65770989" id="path-11"></path>
    </defs>
    <g id="FO-1625-og-FO-1669-Infoside" stroke="none" stroke-width="1" fill="none" fill-rule="evenodd">
        <g id="Infoside_2-inngang_size-Copy-3" transform="translate(-229.000000, -812.000000)">
            <g id="Oppfølging-2" transform="translate(212.000000, 802.000000)">
                <g id="Oppfølging-Copy">
                    <g id="Group-2">
                        <mask id="mask-2" fill="white">
                            <use xlink:href="#path-1"></use>
                        </mask>
                        <g id="Rectangle"></g>
                        <g id="Group-6" mask="url(#mask-2)">
                            <g transform="translate(19.692308, 2.454545)">
                                <g id="Group" stroke="none" stroke-width="1" fill="none" fill-rule="evenodd" transform="translate(48.273038, 0.000000)">
                                    <g id="mennesker/NAV-ansatt/kvinne/-Frida" transform="translate(128.108498, 0.000000)">
                                        <g id="mennesker/kvinne/-sideprofil/-A">
                                            <g id="Group" transform="translate(4.313647, 8.326356)">
                                                <g id="mennesker/kvinne/⚙️/-hår/-kort-buet">
                                                    <g id="hårfarge/-brunn" transform="translate(13.044706, 0.000000)">
                                                        <mask id="mask-4" fill="white">
                                                            <use xlink:href="#path-3"></use>
                                                        </mask>
                                                        <use id="Mask" fill="#38383A" xlink:href="#path-3"></use>
                                                        <g id="mennesker/⚙️/hårfarge/-sort" mask="url(#mask-4)" fill="#3E3832">
                                                            <g transform="translate(-14.349176, -1.297800)" id="hårfarge/-sort">
                                                                <rect x="0" y="0" width="90.2838458" height="102.5262"></rect>
                                                            </g>
                                                        </g>
                                                    </g>
                                                </g>
                                                <path d="M66.4091163,47.8668463 C66.2580496,47.5858587 60.0118954,44.6364956 57.3674926,26.8734246 C45.2961416,35.7843763 20.8555024,32.0066531 15.8633064,36.7964523 C15.8451224,37.1411825 12.1305029,55.190738 24.2796817,65.3362143 C26.2511461,66.9825351 29.2210509,67.8058424 29.0224261,68.3873308 C27.3882213,69.1099877 24.9806117,70.7917605 24.9806117,70.7917605 C24.9806117,70.7917605 30.7070107,102.119013 43.8554116,102.119013 C57.048573,102.119013 62.237612,69.5113655 62.237612,69.5113655 C62.237612,69.5113655 58.5732289,67.9704738 58.8697673,66.6214728 C59.1677045,65.2711709 64.5529538,58.4832372 64.5529538,58.4832372 C64.5529538,58.4832372 68.6149704,57.0093527 70.8683825,55.190738 C73.1231933,53.3721234 72.6755882,49.4565081 70.8683825,48.2610096 C69.0485878,47.0577059 66.470662,47.8473333 66.4091163,47.8668463 Z" id="Fill-160-Copy-2" fill="#E7E5E2"></path>
                                                <g id="mennesker/⚙️/kropp/forfra/-fatle" transform="translate(8.353412, 64.496219)">
                                                    <g id="Group" transform="translate(0.000000, 3.888000)">
                                                        <g id="+20/-Blå">
                                                            <mask id="mask-6" fill="white">
                                                                <use xlink:href="#path-5"></use>
                                                            </mask>
                                                            <use id="Mask" fill="#D8A25D" xlink:href="#path-5"></use>
                                                            <g id="⚙️/farge/-interaksjon/-Lime-Grønn" mask="url(#mask-6)" fill="#A2AD00">
                                                                <g transform="translate(-43.811122, -36.288000)" id="Fill-40">
                                                                    <polygon points="0 129.315789 167.45002 129.315789 167.45002 0 0 0"></polygon>
                                                                </g>
                                                            </g>
                                                        </g>
                                                    </g>
                                                    <g id="Group" transform="translate(15.931317, 3.888000)" fill="#FFFFFF">
                                                        <path d="M37.9264366,1.2700323 C25.41149,16.8171939 13.2118811,34.9698497 1.32760975,55.7279998 L42.483512,55.7279998 C42.483512,37.8622455 42.483512,20.7211464 42.483512,4.30470254 C41.0111745,3.23314653 39.8409325,2.26325779 37.9264366,1.2700323 Z" id="Fill-102"></path>
                                                        <polygon id="Fill-103" points="1.44279552 1.59888388 19.9141463 55.7279998 13.6003746 55.7279998 1.15207763 1.7619083"></polygon>
                                                    </g>
                                                </g>
                                                <g id="mennesker/kvinne/⚙️/ansikt-profil/-blid" transform="translate(22.275765, 38.966466)">
                                                    <g id="Group-2-Copy" transform="translate(2.579294, -1.221231)">
                                                        <path d="M16.7361198,17.1300322 C16.7049207,17.210567 16.6253913,17.3752225 16.4908468,17.5956139 C16.2607171,17.9725791 15.9620293,18.3511707 15.5888433,18.7043517 C14.273698,19.9489976 12.4040634,20.5729486 9.81769259,20.2316979 C8.53338799,20.0627851 7.62711981,19.4564719 7.00590494,18.532152 C6.74227195,18.1398864 6.54863781,17.715566 6.41599268,17.2911206 C6.33741877,17.0396954 6.29758021,16.8497903 6.2848962,16.7542294 C6.23990656,16.4152787 5.91326793,16.1750413 5.5553284,16.2176442 C5.19738887,16.2602472 4.94369285,16.5695575 4.98868249,16.9085082 C5.06713027,17.4995316 5.33115285,18.3443661 5.90376509,19.196369 C6.72058284,20.4117309 7.95149087,21.2352353 9.63768928,21.4570054 C12.6369929,21.8527393 14.9126997,21.0932703 16.5123454,19.5793748 C17.3004172,18.8335483 17.7582684,18.0835626 17.962608,17.5560967 C18.0868537,17.2353787 17.913016,16.8800076 17.5743307,16.7623532 C17.2356453,16.6446988 16.8603655,16.8093143 16.7361198,17.1300322 Z" id="Stroke-223" fill="#D19E9C" fill-rule="nonzero"></path>
                                                        <path d="M2.76461639,6.90715908 C4.1600145,7.3443597 5.1685185,4.89090709 5.13885662,3.13966217 C5.13369803,2.8074874 5.00602297,1.2748428 4.17033168,1.09532187 C3.33593003,0.91457972 2.78009215,1.61678741 2.6962651,1.74135295 C1.69291969,3.22514833 1.23896392,6.42721539 2.76461639,6.90715908" id="Fill-224" fill="#635E59"></path>
                                                        <path d="M17.1503713,7.15763351 C18.8746295,7.42874674 19.5890939,4.87026829 19.2176756,3.13489937 C19.146745,2.80516707 18.7018168,1.29694707 17.6855749,1.21634584 C16.6680433,1.13574461 16.1496052,1.89901384 16.0760954,2.03212799 C15.1823699,3.62583414 15.2636177,6.86087444 17.1503713,7.15763351" id="Fill-225" fill="#635E59"></path>
                                                        <path d="M0.858229477,7.52661265 C1.02018554,7.66467138 1.19158698,7.7832069 1.3710893,7.88279665 C2.07015956,8.27064806 2.79579716,8.34247715 3.46257474,8.23774258 C3.55998107,8.22244241 3.63998547,8.20565794 3.61448714,8.20776435 C4.65494876,8.07004814 5.35899069,8.17591436 5.61705831,8.47583163 C6.63019162,9.65393802 6.306099,10.9015068 4.56767147,11.9267115 C3.65398944,12.4648043 2.3960021,12.6542434 1.73001614,12.375145 C1.40435573,12.2386687 1.0235218,12.3780274 0.879399743,12.6864114 C0.735277688,12.9947954 0.882443604,13.3554259 1.20810402,13.4919022 C2.30881098,13.9531816 4.0015198,13.6982782 5.24909142,12.9635483 C7.61132197,11.5704677 8.1519238,9.48946406 6.61695259,7.70454661 C5.9869324,6.97235889 4.88441066,6.80657358 3.43596115,6.99829135 C3.33297383,7.01827187 3.29673961,7.02587361 3.25153752,7.03297376 C2.85663043,7.09500408 2.42535384,7.05231306 2.0230283,6.82909869 C1.91861523,6.77116923 1.81790679,6.70152263 1.72106463,6.61896997 C1.45638465,6.39334469 1.0486669,6.413622 0.810401548,6.6642606 C0.572136199,6.91489921 0.593549492,7.30098737 0.858229477,7.52661265 Z" id="Stroke-65-Copy" fill="#D1BFA3" fill-rule="nonzero" transform="translate(4.063223, 10.092749) scale(-1, 1) translate(-4.063223, -10.092749) "></path>
                                                    </g>
                                                </g>
                                            </g>
                                        </g>
                                    </g>
                                    <g id="mennesker/kvinne/-sideprofil/-A" transform="translate(47.673493, 69.975137) scale(-1, 1) translate(-47.673493, -69.975137) translate(0.000000, 2.495729)">
                                        <g id="Group" transform="translate(4.224706, 8.388493)">
                                            <g id="mennesker/kvinne/⚙️/-hår/-krøllete-kort">
                                                <g id="hårfarge/-brunn" transform="translate(3.824471, 0.000000)">
                                                    <mask id="mask-8" fill="white">
                                                        <use xlink:href="#path-7"></use>
                                                    </mask>
                                                    <use id="Mask" fill="#333333" xlink:href="#path-7"></use>
                                                    <g id="mennesker/⚙️/hårfarge/-brunn" mask="url(#mask-8)" fill="#8B5F26">
                                                        <g transform="translate(-3.824471, -3.931200)" id="hårfarge/-brunn">
                                                            <rect x="0" y="0" width="88.2775381" height="103.5216"></rect>
                                                        </g>
                                                    </g>
                                                </g>
                                            </g>
                                            <path d="M65.0398562,48.2240616 C64.8919042,47.940977 58.7745367,44.9696038 56.1846577,27.0739725 C44.3622005,36.0514239 20.4254921,32.2455087 15.5362279,37.0710527 C15.5184189,37.4183555 11.8803894,55.6026092 23.7790697,65.823798 C25.7098854,67.4824048 28.618555,68.3118562 28.4240256,68.897684 C26.8235157,69.6257339 24.4655475,71.3200572 24.4655475,71.3200572 C24.4655475,71.3200572 30.0738765,102.881096 42.9511763,102.881096 C55.8723137,102.881096 60.9543623,70.030107 60.9543623,70.030107 C60.9543623,70.030107 57.3655335,68.4777161 57.6559577,67.118648 C57.9477518,65.7582692 63.221965,58.9196792 63.221965,58.9196792 C63.221965,58.9196792 67.2002287,57.4347957 69.4071787,55.6026092 C71.6154986,53.7704228 71.1771225,49.8255865 69.4071787,48.6211664 C67.6249056,47.4088828 65.1001329,48.2044029 65.0398562,48.2240616 Z" id="Fill-160-Copy-2" fill="#E7E5E2"></path>
                                            <g id="mennesker/⚙️/kropp/Person/Sideprofil/-vhals" transform="translate(8.181176, 64.977534)">
                                                <g id="kropp/sideprofil/-vhals" transform="translate(0.000000, 2.635200)">
                                                    <g>
                                                        <g id="+20/-Blå">
                                                            <mask id="mask-10" fill="white">
                                                                <use xlink:href="#path-9"></use>
                                                            </mask>
                                                            <use id="Mask" fill="#D8A25D" xlink:href="#path-9"></use>
                                                            <g id="-60/-Dyp-blå" mask="url(#mask-10)">
                                                                <g transform="translate(-43.202634, -35.575200)" id="⚙️/farge/-Dyp-blå/-60">
                                                                    <g>
                                                                        <polygon id="Fill-22" fill="#99BDCD" points="0 130.310526 165.444631 130.310526 165.444631 0 0 0"></polygon>
                                                                    </g>
                                                                </g>
                                                            </g>
                                                        </g>
                                                        <path d="M17.9951467,2.37549691 C19.3604004,4.60357654 25.4945969,15.6934598 34.539829,22.5246754 C43.5237421,15.7977001 51.4147049,3.87570963 51.4147049,1.80016361 C50.4985386,1.26452836 49.5873212,0.786131389 48.6830137,0.360469484 C44.2099253,4.24728024 32.1123923,9.08422455 20.1784796,1.11719572 C18.7738786,1.83904398 17.9951467,2.37549691 17.9951467,2.37549691 Z" id="Fill-418" fill="#FFFFFF"></path>
                                                    </g>
                                                </g>
                                            </g>
                                            <g id="mennesker/kvinne/⚙️/ansikt-profil/-blid" transform="translate(21.816471, 39.257260)">
                                                <g id="Group-2-Copy" transform="translate(2.579294, -1.279385)">
                                                    <path d="M16.7361198,17.9457481 C16.7049207,18.0301178 16.6253913,18.2026141 16.4908468,18.4335002 C16.2607171,18.8284162 15.9620293,19.2250359 15.5888433,19.5950351 C14.273698,20.8989498 12.4040634,21.5526128 9.81769259,21.1951121 C8.53338799,21.0181558 7.62711981,20.3829705 7.00590494,19.4146354 C6.74227195,19.0036905 6.54863781,18.5591644 6.41599268,18.1145073 C6.33741877,17.8511095 6.29758021,17.6521613 6.2848962,17.5520498 C6.23990656,17.1969586 5.91326793,16.9452814 5.5553284,16.989913 C5.19738887,17.0345446 4.94369285,17.358584 4.98868249,17.7136752 C5.06713027,18.3328427 5.33115285,19.2179073 5.90376509,20.1104818 C6.72058284,21.3837181 7.95149087,22.246437 9.63768928,22.4787676 C12.6369929,22.893346 14.9126997,22.0977117 16.5123454,20.511726 C17.3004172,19.7303839 17.7582684,18.9446847 17.962608,18.3921013 C18.0868537,18.056111 17.913016,17.6838175 17.5743307,17.5605605 C17.2356453,17.4373035 16.8603655,17.6097578 16.7361198,17.9457481 Z" id="Stroke-223" fill="#D19E9C" fill-rule="nonzero"></path>
                                                    <path d="M2.76461639,7.23607142 C4.1600145,7.69409111 5.1685185,5.12380743 5.13885662,3.2891699 C5.13369803,2.94117728 5.00602297,1.33554959 4.17033168,1.14748006 C3.33593003,0.958131135 2.78009215,1.69377729 2.6962651,1.82427452 C1.69291969,3.37872682 1.23896392,6.73327327 2.76461639,7.23607142" id="Fill-224" fill="#635E59"></path>
                                                    <path d="M17.1503713,7.4984732 C18.8746295,7.78249659 19.5890939,5.10218583 19.2176756,3.2841803 C19.146745,2.93874645 18.7018168,1.35870646 17.6855749,1.27426707 C16.6680433,1.18982769 16.1496052,1.98944307 16.0760954,2.12889599 C15.1823699,3.79849291 15.2636177,7.18758274 17.1503713,7.4984732" id="Fill-225" fill="#635E59"></path>
                                                    <path d="M0.858229477,7.88502277 C1.02018554,8.02965573 1.19158698,8.1538358 1.3710893,8.25816791 C2.07015956,8.66448845 2.79579716,8.73973797 3.46257474,8.63001604 C3.55998107,8.61398729 3.63998547,8.59640356 3.61448714,8.59861028 C4.65494876,8.45433615 5.35899069,8.56524362 5.61705831,8.87944266 C6.63019162,10.1136494 6.306099,11.4206261 4.56767147,12.4946502 C3.65398944,13.0583664 2.3960021,13.2568265 1.73001614,12.9644376 C1.40435573,12.8214624 1.0235218,12.9674573 0.879399743,13.2905262 C0.735277688,13.6135952 0.882443604,13.9913986 1.20810402,14.1343738 C2.30881098,14.6176189 4.0015198,14.3505772 5.24909142,13.5808602 C7.61132197,12.1214424 8.1519238,9.9413433 6.61695259,8.07142978 C5.9869324,7.30437598 4.88441066,7.13069613 3.43596115,7.33154332 C3.33297383,7.3524753 3.29673961,7.36043902 3.25153752,7.36787727 C2.85663043,7.43286141 2.42535384,7.38813749 2.0230283,7.15429386 C1.91861523,7.09360586 1.81790679,7.02064276 1.72106463,6.93415901 C1.45638465,6.69778967 1.0486669,6.71903257 0.810401548,6.98160635 C0.572136199,7.24418012 0.593549492,7.64865344 0.858229477,7.88502277 Z" id="Stroke-65-Copy" fill="#D1BFA3" fill-rule="nonzero" transform="translate(4.063223, 10.573356) scale(-1, 1) translate(-4.063223, -10.573356) "></path>
                                                </g>
                                            </g>
                                        </g>
                                    </g>
                                    <g id="gjenstander/-kopp" transform="translate(105.846154, 101.863636)">
                                        <g id="g/farger/-kopp/-NAV-rød">
                                            <mask id="mask-12" fill="white">
                                                <use xlink:href="#path-11"></use>
                                            </mask>
                                            <use id="Mask" fill="#50808B" xlink:href="#path-11"></use>
                                            <g id="⚙️/farger/-kopp/-grønn" mask="url(#mask-12)">
                                                <g transform="translate(-13.686207, -22.680000)"></g>
                                            </g>
                                        </g>
                                    </g>
                                </g>
                                <path d="M74.2441358,120.265187 L14.3075856,120.265187 C12.0451685,120.265187 10.2116041,118.339665 10.2116041,115.963874 L10.2116041,80.9605561 C10.2116041,78.5847653 12.0451685,76.6592434 14.3075856,76.6592434 L74.2441358,76.6592434 C76.5065529,76.6592434 78.3401173,78.5847653 78.3401173,80.9605561 L78.3401173,115.963874 C78.3401173,118.339665 76.5065529,120.265187 74.2441358,120.265187" id="Fill-62" stroke="none" fill="#585B5C" fill-rule="evenodd"></path>
                                <path d="M76.841926,126.464711 L13.5642627,126.464711 C12.2251918,126.464711 11.1399317,125.324331 11.1399317,123.919221 L11.1399317,123.880756 C11.1399317,122.475645 12.2251918,121.335265 13.5642627,121.335265 L76.841926,121.335265 C78.1809968,121.335265 79.2662569,122.475645 79.2662569,123.880756 L79.2662569,123.919221 C79.2662569,125.324331 78.1809968,126.464711 76.841926,126.464711" id="Fill-84" stroke="none" fill="#585B5C" fill-rule="evenodd"></path>
                                <path d="M0,129.71202 L197.591244,129.71202" id="Stroke-12-Copy" stroke="#585B5C" stroke-width="4.53599998" fill="none" stroke-linecap="round" stroke-linejoin="round"></path>
                            </g>
                        </g>
                    </g>
                </g>
            </g>
        </g>
    </g>
</svg>