<?xml version="1.0" encoding="utf-8"?>
<!-- Generator: Adobe Illustrator 23.0.1, SVG Export Plug-In . SVG Version: 6.00 Build 0)  -->
<svg version="1.1" id="Layer_1" xmlns="http://www.w3.org/2000/svg" xmlns:xlink="http://www.w3.org/1999/xlink" x="0px" y="0px"
	 viewBox="0 0 385.4 162.7" style="enable-background:new 0 0 385.4 162.7;" xml:space="preserve">
<style type="text/css">
	.st0{filter:url(#Adobe_OpacityMaskFilter);}
	.st1{fill-rule:evenodd;clip-rule:evenodd;fill:#FFFFFF;}
	.st2{mask:url(#mask-8_1_);fill-rule:evenodd;clip-rule:evenodd;fill:#AAB0B8;}
	.st3{filter:url(#Adobe_OpacityMaskFilter_1_);}
	.st4{mask:url(#mask-10_1_);fill-rule:evenodd;clip-rule:evenodd;fill:#4F6571;}
	.st5{filter:url(#Adobe_OpacityMaskFilter_2_);}
	.st6{mask:url(#mask-12_1_);fill-rule:evenodd;clip-rule:evenodd;fill:#617180;}
	.st7{fill-rule:evenodd;clip-rule:evenodd;fill:#AAB0B8;}
	.st8{filter:url(#Adobe_OpacityMaskFilter_3_);}
	.st9{mask:url(#mask-14_1_);fill-rule:evenodd;clip-rule:evenodd;fill:#9498A2;}
	.st10{fill-rule:evenodd;clip-rule:evenodd;fill:#E4E7E6;}
	.st11{filter:url(#Adobe_OpacityMaskFilter_4_);}
	.st12{mask:url(#mask-16_1_);fill-rule:evenodd;clip-rule:evenodd;fill:#C5C1BE;}
	.st13{filter:url(#Adobe_OpacityMaskFilter_5_);}
	.st14{mask:url(#mask-18_1_);fill-rule:evenodd;clip-rule:evenodd;fill:#C5C1BE;}
	.st15{filter:url(#Adobe_OpacityMaskFilter_6_);}
	.st16{mask:url(#mask-20_1_);fill-rule:evenodd;clip-rule:evenodd;fill:#3D3731;}
	.st17{filter:url(#Adobe_OpacityMaskFilter_7_);}
	.st18{mask:url(#mask-22_1_);fill-rule:evenodd;clip-rule:evenodd;fill:#3D3731;}
	.st19{filter:url(#Adobe_OpacityMaskFilter_8_);}
	.st20{mask:url(#mask-24_1_);fill-rule:evenodd;clip-rule:evenodd;fill:#3D3731;}
	.st21{filter:url(#Adobe_OpacityMaskFilter_9_);}
	.st22{mask:url(#mask-26_1_);fill-rule:evenodd;clip-rule:evenodd;fill:#3D3731;}
	.st23{filter:url(#Adobe_OpacityMaskFilter_10_);}
	.st24{mask:url(#mask-28_1_);fill-rule:evenodd;clip-rule:evenodd;fill:#3D3731;}
	.st25{filter:url(#Adobe_OpacityMaskFilter_11_);}
	.st26{mask:url(#mask-30_1_);fill-rule:evenodd;clip-rule:evenodd;fill:#3D3731;}
	.st27{filter:url(#Adobe_OpacityMaskFilter_12_);}
	.st28{mask:url(#mask-32_1_);fill-rule:evenodd;clip-rule:evenodd;fill:#C5C1BE;}
	.st29{filter:url(#Adobe_OpacityMaskFilter_13_);}
	.st30{mask:url(#mask-34_1_);fill-rule:evenodd;clip-rule:evenodd;fill:#C5C1BE;}
	.st31{filter:url(#Adobe_OpacityMaskFilter_14_);}
	.st32{mask:url(#mask-36_1_);fill-rule:evenodd;clip-rule:evenodd;fill:#C5C1BE;}
	.st33{filter:url(#Adobe_OpacityMaskFilter_15_);}
	.st34{mask:url(#mask-38_1_);fill-rule:evenodd;clip-rule:evenodd;fill:#3D3731;}
	.st35{filter:url(#Adobe_OpacityMaskFilter_16_);}
	.st36{mask:url(#mask-40_1_);fill-rule:evenodd;clip-rule:evenodd;fill:#3D3731;}
	.st37{filter:url(#Adobe_OpacityMaskFilter_17_);}
	.st38{mask:url(#mask-42_1_);fill-rule:evenodd;clip-rule:evenodd;fill:#3D3731;}
	.st39{filter:url(#Adobe_OpacityMaskFilter_18_);}
	.st40{mask:url(#mask-44_1_);fill-rule:evenodd;clip-rule:evenodd;fill:#FFFFFF;}
	.st41{filter:url(#Adobe_OpacityMaskFilter_19_);}
	.st42{mask:url(#mask-46_1_);fill-rule:evenodd;clip-rule:evenodd;fill:#D9DC96;}
	.st43{filter:url(#Adobe_OpacityMaskFilter_20_);}
	.st44{mask:url(#mask-48_1_);fill-rule:evenodd;clip-rule:evenodd;fill:#FFFFFF;}
	.st45{filter:url(#Adobe_OpacityMaskFilter_21_);}
	.st46{mask:url(#mask-50_1_);fill-rule:evenodd;clip-rule:evenodd;fill:#D9DC96;}
	.st47{filter:url(#Adobe_OpacityMaskFilter_22_);}
	.st48{mask:url(#mask-52_1_);fill-rule:evenodd;clip-rule:evenodd;fill:#FFFFFF;}
	.st49{filter:url(#Adobe_OpacityMaskFilter_23_);}
	.st50{mask:url(#mask-54_1_);fill-rule:evenodd;clip-rule:evenodd;fill:#D9DC96;}
	.st51{fill-rule:evenodd;clip-rule:evenodd;fill:#3F3631;}
	.st52{fill:none;stroke:#B9B1A9;stroke-linecap:square;}
	.st53{filter:url(#Adobe_OpacityMaskFilter_24_);}
	.st54{mask:url(#mask-56_1_);fill-rule:evenodd;clip-rule:evenodd;fill:#3D3731;}
	.st55{filter:url(#Adobe_OpacityMaskFilter_25_);}
	.st56{mask:url(#mask-58_1_);fill-rule:evenodd;clip-rule:evenodd;fill:#3D3731;}
	.st57{filter:url(#Adobe_OpacityMaskFilter_26_);}
	.st58{mask:url(#mask-60_1_);fill-rule:evenodd;clip-rule:evenodd;fill:#3D3731;}
	.st59{fill-rule:evenodd;clip-rule:evenodd;fill:#0066C7;}
	.st60{filter:url(#Adobe_OpacityMaskFilter_27_);}
	.st61{mask:url(#mask-62_1_);fill-rule:evenodd;clip-rule:evenodd;fill:#0066C7;}
	.st62{filter:url(#Adobe_OpacityMaskFilter_28_);}
	.st63{mask:url(#mask-64_1_);fill-rule:evenodd;clip-rule:evenodd;fill:#FFFFFF;}
	.st64{filter:url(#Adobe_OpacityMaskFilter_29_);}
	.st65{mask:url(#mask-66_1_);fill-rule:evenodd;clip-rule:evenodd;fill:#FFFFFF;}
	.st66{fill-rule:evenodd;clip-rule:evenodd;fill:#00AADF;}
	.st67{filter:url(#Adobe_OpacityMaskFilter_30_);}
	.st68{mask:url(#mask-70_1_);fill-rule:evenodd;clip-rule:evenodd;}
	.st69{fill:none;stroke:#3D3731;stroke-width:0.3;stroke-linecap:round;stroke-linejoin:round;}
	.st70{filter:url(#Adobe_OpacityMaskFilter_31_);}
	.st71{mask:url(#mask-72_1_);fill-rule:evenodd;clip-rule:evenodd;fill:#FFFFFF;}
	.st72{filter:url(#Adobe_OpacityMaskFilter_32_);}
	.st73{mask:url(#mask-74_1_);fill-rule:evenodd;clip-rule:evenodd;fill:#C1E8F5;}
	.st74{filter:url(#Adobe_OpacityMaskFilter_33_);}
	.st75{mask:url(#mask-76_1_);fill-rule:evenodd;clip-rule:evenodd;fill:#3D3731;}
	.st76{filter:url(#Adobe_OpacityMaskFilter_34_);}
	.st77{mask:url(#mask-78_1_);fill-rule:evenodd;clip-rule:evenodd;fill:#0266C3;}
	.st78{filter:url(#Adobe_OpacityMaskFilter_35_);}
	.st79{mask:url(#mask-80_1_);fill-rule:evenodd;clip-rule:evenodd;fill:#FFFFFF;}
	.st80{filter:url(#Adobe_OpacityMaskFilter_36_);}
	.st81{mask:url(#mask-82_1_);fill-rule:evenodd;clip-rule:evenodd;fill:#FFFFFF;}
	.st82{filter:url(#Adobe_OpacityMaskFilter_37_);}
	.st83{mask:url(#mask-84_1_);fill-rule:evenodd;clip-rule:evenodd;fill:#3D3731;}
	.st84{filter:url(#Adobe_OpacityMaskFilter_38_);}
	.st85{mask:url(#mask-86_1_);fill-rule:evenodd;clip-rule:evenodd;fill:#E0CFB3;}
	.st86{filter:url(#Adobe_OpacityMaskFilter_39_);}
	.st87{mask:url(#mask-88_1_);fill-rule:evenodd;clip-rule:evenodd;fill:#E7C161;}
	.st88{filter:url(#Adobe_OpacityMaskFilter_40_);}
	.st89{mask:url(#mask-90_1_);fill-rule:evenodd;clip-rule:evenodd;fill:#D7AF5A;}
	.st90{filter:url(#Adobe_OpacityMaskFilter_41_);}
	.st91{mask:url(#mask-92_1_);fill-rule:evenodd;clip-rule:evenodd;fill:#E7C161;}
	.st92{filter:url(#Adobe_OpacityMaskFilter_42_);}
	.st93{mask:url(#mask-94_1_);fill-rule:evenodd;clip-rule:evenodd;fill:#C12931;}
	.st94{filter:url(#Adobe_OpacityMaskFilter_43_);}
	.st95{mask:url(#mask-96_1_);fill-rule:evenodd;clip-rule:evenodd;fill:#E0CFB3;}
	.st96{filter:url(#Adobe_OpacityMaskFilter_44_);}
	.st97{mask:url(#mask-98_1_);fill-rule:evenodd;clip-rule:evenodd;fill:#AEC7C5;}
	.st98{filter:url(#Adobe_OpacityMaskFilter_45_);}
	.st99{mask:url(#mask-100_1_);fill-rule:evenodd;clip-rule:evenodd;fill:#97B2B2;}
	.st100{filter:url(#Adobe_OpacityMaskFilter_46_);}
	.st101{mask:url(#mask-102_1_);fill-rule:evenodd;clip-rule:evenodd;fill:#AEC7C5;}
	.st102{filter:url(#Adobe_OpacityMaskFilter_47_);}
	.st103{mask:url(#mask-104_1_);fill-rule:evenodd;clip-rule:evenodd;fill:#525756;}
	.st104{filter:url(#Adobe_OpacityMaskFilter_48_);}
	.st105{mask:url(#mask-106_1_);fill-rule:evenodd;clip-rule:evenodd;fill:#E0CFB3;}
	.st106{filter:url(#Adobe_OpacityMaskFilter_49_);}
	.st107{mask:url(#mask-108_1_);fill-rule:evenodd;clip-rule:evenodd;fill:#96A847;}
	.st108{filter:url(#Adobe_OpacityMaskFilter_50_);}
	.st109{mask:url(#mask-110_1_);fill-rule:evenodd;clip-rule:evenodd;fill:#717B2D;}
	.st110{filter:url(#Adobe_OpacityMaskFilter_51_);}
	.st111{mask:url(#mask-112_1_);fill-rule:evenodd;clip-rule:evenodd;fill:#96A847;}
	.st112{filter:url(#Adobe_OpacityMaskFilter_52_);}
	.st113{mask:url(#mask-114_1_);fill-rule:evenodd;clip-rule:evenodd;fill:#4F7F89;}
	.st114{fill-rule:evenodd;clip-rule:evenodd;fill:#373737;}
	.st115{fill-rule:evenodd;clip-rule:evenodd;fill:#7E746B;}
	.st116{fill:none;stroke:#585B5C;stroke-width:4.8;stroke-linecap:round;stroke-linejoin:round;}
	.st117{fill-rule:evenodd;clip-rule:evenodd;fill:#8E9738;}
	.st118{fill-rule:evenodd;clip-rule:evenodd;fill:#E7E5E2;}
	.st119{fill-rule:evenodd;clip-rule:evenodd;fill:#231F20;}
	.st120{fill:none;stroke:#FFFFFF;}
	.st121{fill-rule:evenodd;clip-rule:evenodd;fill:#D8A25D;}
	.st122{filter:url(#Adobe_OpacityMaskFilter_53_);}
	.st123{mask:url(#mask-2_4_);}
	.st124{fill-rule:evenodd;clip-rule:evenodd;fill:#0C5472;}
	.st125{filter:url(#Adobe_OpacityMaskFilter_54_);}
	.st126{mask:url(#mask-2_3_);}
	.st127{fill-rule:evenodd;clip-rule:evenodd;fill:#D2242A;}
	.st128{fill-rule:evenodd;clip-rule:evenodd;fill:#C52D35;}
	.st129{fill-rule:evenodd;clip-rule:evenodd;fill:#5A1F57;}
	.st130{fill-rule:evenodd;clip-rule:evenodd;fill:#C2B5CF;}
	.st131{fill-rule:evenodd;clip-rule:evenodd;fill:#F6B873;}
	.st132{filter:url(#Adobe_OpacityMaskFilter_55_);}
	.st133{mask:url(#mask-4_2_);}
	.st134{fill-rule:evenodd;clip-rule:evenodd;fill:#D2654C;}
	.st135{fill:#593A32;}
	.st136{fill-rule:evenodd;clip-rule:evenodd;fill:#635E59;}
	.st137{fill:#D1BFA3;}
	.st138{fill-rule:evenodd;clip-rule:evenodd;fill:#78706A;}
	.st139{fill-rule:evenodd;clip-rule:evenodd;fill:#ACB3BB;}
	.st140{fill-rule:evenodd;clip-rule:evenodd;fill:#C30000;}
	.st141{filter:url(#Adobe_OpacityMaskFilter_56_);}
	.st142{mask:url(#mask-6_2_);fill-rule:evenodd;clip-rule:evenodd;fill:#C30000;}
	.st143{fill-rule:evenodd;clip-rule:evenodd;fill:#FEFEFE;}
	.st144{fill-rule:evenodd;clip-rule:evenodd;fill:#C42D35;}
</style>
<title>Group 17</title>
<desc>Created with Sketch.</desc>
<g id="Infoside_2-inngang_size-Copy-3" transform="translate(-711.000000, -773.000000)">
	<g id="Group-17" transform="translate(714.000000, 774.000000)">
		<g id="Group-16">
			<g>
				<g transform="translate(154.108461, 55.598062)">
					<g id="Group-5-Copy" transform="translate(9.707516, 0.191939)">
						<g id="Page-1">
							<g id="Group-3" transform="translate(0.000000, 73.129386)">
								<g id="Clip-2">
								</g>
								<defs>
									<filter id="Adobe_OpacityMaskFilter" filterUnits="userSpaceOnUse" x="-9.6" y="-12.3" width="174.9" height="24.6">
										<feColorMatrix  type="matrix" values="1 0 0 0 0  0 1 0 0 0  0 0 1 0 0  0 0 0 1 0"/>
									</filter>
								</defs>
								<mask maskUnits="userSpaceOnUse" x="-9.6" y="-12.3" width="174.9" height="24.6" id="mask-8_1_">
									<g class="st0">
										<path id="path-7_1_" class="st1" d="M-7.4-10.1V4.6c0,3.1,2.5,5.6,5.5,5.6h159.6c3,0,5.5-2.5,5.5-5.6v-14.6H-7.4z"/>
									</g>
								</mask>
								<polygon class="st2" points="-9.6,12.4 165.4,12.4 165.4,-12.3 -9.6,-12.3 								"/>
							</g>
							<g id="Group-6">
								<g id="Clip-5">
								</g>
								<defs>
									<filter id="Adobe_OpacityMaskFilter_1_" filterUnits="userSpaceOnUse" x="-9.6" y="-34.5" width="174.9" height="99.8">
										<feColorMatrix  type="matrix" values="1 0 0 0 0  0 1 0 0 0  0 0 1 0 0  0 0 0 1 0"/>
									</filter>
								</defs>
								<mask maskUnits="userSpaceOnUse" x="-9.6" y="-34.5" width="174.9" height="99.8" id="mask-10_1_">
									<g class="st3">
										<path id="path-9_1_" class="st1" d="M-1.9-32.4c-3,0-5.5,2.5-5.5,5.5v89.9h170.5v-89.9c0-3-2.5-5.5-5.5-5.5H-1.9z"/>
									</g>
								</mask>
								<polygon id="Fill-4" class="st4" points="-9.6,65.3 165.4,65.3 165.4,-34.5 -9.6,-34.5 								"/>
							</g>
							<g transform="translate(4.368382, 3.707020)">
								<defs>
									<filter id="Adobe_OpacityMaskFilter_2_" filterUnits="userSpaceOnUse" x="-8.2" y="-33.4" width="163.5" height="89.3">
										<feColorMatrix  type="matrix" values="1 0 0 0 0  0 1 0 0 0  0 0 1 0 0  0 0 0 1 0"/>
									</filter>
								</defs>
								<mask maskUnits="userSpaceOnUse" x="-8.2" y="-33.4" width="163.5" height="89.3" id="mask-12_1_">
									<g class="st5">
										<path id="path-11_1_" class="st1" d="M-3.3-31.2C-4.8-31.2-6-30-6-28.4v82h159.1v-82c0-1.6-1.3-2.8-2.8-2.8H-3.3z"/>
									</g>
								</mask>
								<polygon class="st6" points="-8.2,55.8 155.3,55.8 155.3,-33.4 -8.2,-33.4 								"/>
							</g>
							<polygon class="st7" points="57.9,98.2 98.3,98.2 98.3,82.8 57.9,82.8 							"/>
							<polygon id="Fill-11" class="st7" points="42.6,100.9 113.6,100.9 113.6,96 42.6,96 							"/>
							<g id="Group-14" transform="translate(64.853675, 80.543425)">
								<g id="Clip-13">
								</g>
								<defs>
									<filter id="Adobe_OpacityMaskFilter_3_" filterUnits="userSpaceOnUse" x="10.2" y="-10" width="7.5" height="7.5">
										<feColorMatrix  type="matrix" values="1 0 0 0 0  0 1 0 0 0  0 0 1 0 0  0 0 0 1 0"/>
									</filter>
								</defs>
								<mask maskUnits="userSpaceOnUse" x="10.2" y="-10" width="7.5" height="7.5" id="mask-14_1_">
									<g class="st8">
										<path id="path-13_1_" class="st1" d="M12.4-6.3c0,0.8,0.7,1.5,1.5,1.5c0.8,0,1.5-0.7,1.5-1.5c0-0.8-0.7-1.5-1.5-1.5
											C13.1-7.8,12.4-7.1,12.4-6.3z"/>
									</g>
								</mask>
								<polygon id="Fill-12" class="st9" points="10.2,-2.5 17.6,-2.5 17.6,-10 10.2,-10 								"/>
							</g>
							<polygon id="Fill-15" class="st10" points="-2.7,56.7 159.5,56.7 159.5,-27.4 -2.7,-27.4 							"/>
							<g id="Group-18" transform="translate(56.452940, 33.026174)">
								<g id="Clip-17">
								</g>
								<defs>
									<filter id="Adobe_OpacityMaskFilter_4_" filterUnits="userSpaceOnUse" x="7.6" y="-24.3" width="28.6" height="8.5">
										<feColorMatrix  type="matrix" values="1 0 0 0 0  0 1 0 0 0  0 0 1 0 0  0 0 0 1 0"/>
									</filter>
								</defs>
								<mask maskUnits="userSpaceOnUse" x="7.6" y="-24.3" width="28.6" height="8.5" id="mask-16_1_">
									<g class="st11">
										<path id="path-15_1_" class="st1" d="M10.6-22.1c-0.5,0-0.9,0.4-0.9,0.9v2.3c0,0.5,0.4,0.9,0.9,0.9h22.5
											c0.5,0,0.9-0.4,0.9-0.9v-2.3c0-0.5-0.4-0.9-0.9-0.9H10.6z"/>
									</g>
								</mask>
								<polygon id="Fill-16" class="st12" points="7.6,-15.8 36.2,-15.8 36.2,-24.3 7.6,-24.3 								"/>
							</g>
							<g id="Group-21" transform="translate(36.627205, 33.026174)">
								<g id="Clip-20">
								</g>
								<defs>
									<filter id="Adobe_OpacityMaskFilter_5_" filterUnits="userSpaceOnUse" x="1.5" y="-24.3" width="28.6" height="8.5">
										<feColorMatrix  type="matrix" values="1 0 0 0 0  0 1 0 0 0  0 0 1 0 0  0 0 0 1 0"/>
									</filter>
								</defs>
								<mask maskUnits="userSpaceOnUse" x="1.5" y="-24.3" width="28.6" height="8.5" id="mask-18_1_">
									<g class="st13">
										<path id="path-17_1_" class="st1" d="M4.6-22.1c-0.5,0-0.9,0.4-0.9,0.9v2.3c0,0.5,0.4,0.9,0.9,0.9h22.5
											c0.5,0,0.9-0.4,0.9-0.9v-2.3c0-0.5-0.4-0.9-0.9-0.9H4.6z"/>
									</g>
								</mask>
								<polygon id="Fill-19" class="st14" points="1.5,-15.8 30.2,-15.8 30.2,-24.3 1.5,-24.3 								"/>
							</g>
							<g id="Group-24" transform="translate(73.254410, 33.700178)">
								<g id="Clip-23">
								</g>
								<defs>
									<filter id="Adobe_OpacityMaskFilter_6_" filterUnits="userSpaceOnUse" x="12.7" y="-24.1" width="6.1" height="6.1">
										<feColorMatrix  type="matrix" values="1 0 0 0 0  0 1 0 0 0  0 0 1 0 0  0 0 0 1 0"/>
									</filter>
								</defs>
								<mask maskUnits="userSpaceOnUse" x="12.7" y="-24.1" width="6.1" height="6.1" id="mask-20_1_">
									<g class="st15">
										<path id="path-19_1_" class="st1" d="M14.9-21c0,0.5,0.4,0.8,0.9,0.8s0.9-0.4,0.9-0.8c0-0.5-0.4-0.8-0.9-0.8
											S14.9-21.5,14.9-21z M14.9-21c0-0.4,0.4-0.8,0.8-0.8c0.4,0,0.8,0.3,0.8,0.8s-0.4,0.8-0.8,0.8C15.3-20.3,14.9-20.6,14.9-21
											z"/>
									</g>
								</mask>
								<polygon id="Fill-22" class="st16" points="12.7,-18 18.8,-18 18.8,-24.1 12.7,-24.1 								"/>
							</g>
							<g id="Group-27" transform="translate(73.590439, 34.037180)">
								<g id="Clip-26">
								</g>
								<defs>
									<filter id="Adobe_OpacityMaskFilter_7_" filterUnits="userSpaceOnUse" x="12.9" y="-24" width="4.9" height="5.1">
										<feColorMatrix  type="matrix" values="1 0 0 0 0  0 1 0 0 0  0 0 1 0 0  0 0 0 1 0"/>
									</filter>
								</defs>
								<mask maskUnits="userSpaceOnUse" x="12.9" y="-24" width="4.9" height="5.1" id="mask-22_1_">
									<g class="st17">
										<path id="path-21_1_" class="st1" d="M15.1-21.5C15.1-21.5,15.1-21.5,15.1-21.5C15.2-21.5,15.2-21.5,15.1-21.5
											c0.1-0.1,0.2-0.2,0.3-0.2c0.1,0,0.2,0.1,0.2,0.2c0,0.1-0.1,0.2-0.2,0.2c0,0,0,0,0,0v0.2c0,0,0,0,0,0s0,0,0,0v-0.2
											c0.1,0,0.2-0.1,0.2-0.3c0-0.1-0.1-0.3-0.3-0.3C15.2-21.8,15.1-21.7,15.1-21.5z"/>
									</g>
								</mask>
								<polygon id="Fill-25" class="st18" points="12.9,-18.9 17.8,-18.9 17.8,-24 12.9,-24 								"/>
							</g>
							<g id="Group-30" transform="translate(73.926469, 34.711183)">
								<g id="Clip-29">
								</g>
								<defs>
									<filter id="Adobe_OpacityMaskFilter_8_" filterUnits="userSpaceOnUse" x="12.8" y="-23.9" width="4.6" height="4.6">
										<feColorMatrix  type="matrix" values="1 0 0 0 0  0 1 0 0 0  0 0 1 0 0  0 0 0 1 0"/>
									</filter>
								</defs>
								<mask maskUnits="userSpaceOnUse" x="12.8" y="-23.9" width="4.6" height="4.6" id="mask-24_1_">
									<g class="st19">
										<path id="path-23_1_" class="st1" d="M15-21.6c0,0.1,0,0.1,0.1,0.1c0.1,0,0.1,0,0.1-0.1c0-0.1,0-0.1-0.1-0.1
											C15-21.7,15-21.6,15-21.6z"/>
									</g>
								</mask>
								<polygon id="Fill-28" class="st20" points="12.8,-19.3 17.4,-19.3 17.4,-23.9 12.8,-23.9 								"/>
							</g>
							<g id="Group-33" transform="translate(53.092646, 33.700178)">
								<g id="Clip-32">
								</g>
								<defs>
									<filter id="Adobe_OpacityMaskFilter_9_" filterUnits="userSpaceOnUse" x="6.5" y="-24.1" width="6.1" height="6.1">
										<feColorMatrix  type="matrix" values="1 0 0 0 0  0 1 0 0 0  0 0 1 0 0  0 0 0 1 0"/>
									</filter>
								</defs>
								<mask maskUnits="userSpaceOnUse" x="6.5" y="-24.1" width="6.1" height="6.1" id="mask-26_1_">
									<g class="st21">
										<path id="path-25_1_" class="st1" d="M8.7-21c0,0.5,0.4,0.8,0.9,0.8c0.5,0,0.9-0.4,0.9-0.8c0-0.5-0.4-0.8-0.9-0.8
											C9.1-21.9,8.7-21.5,8.7-21z M8.8-21c0-0.4,0.4-0.8,0.8-0.8s0.8,0.3,0.8,0.8s-0.4,0.8-0.8,0.8S8.8-20.6,8.8-21z"/>
									</g>
								</mask>
								<polygon id="Fill-31" class="st22" points="6.5,-18 12.6,-18 12.6,-24.1 6.5,-24.1 								"/>
							</g>
							<g id="Group-36" transform="translate(53.428675, 34.037180)">
								<g id="Clip-35">
								</g>
								<defs>
									<filter id="Adobe_OpacityMaskFilter_10_" filterUnits="userSpaceOnUse" x="6.8" y="-24" width="4.9" height="5.1">
										<feColorMatrix  type="matrix" values="1 0 0 0 0  0 1 0 0 0  0 0 1 0 0  0 0 0 1 0"/>
									</filter>
								</defs>
								<mask maskUnits="userSpaceOnUse" x="6.8" y="-24" width="4.9" height="5.1" id="mask-28_1_">
									<g class="st23">
										<path id="path-27_1_" class="st1" d="M9-21.5C9-21.5,9-21.5,9-21.5C9-21.5,9.1-21.5,9-21.5c0.1-0.1,0.2-0.2,0.3-0.2
											c0.1,0,0.2,0.1,0.2,0.2c0,0.1-0.1,0.2-0.2,0.2c0,0,0,0,0,0v0.2c0,0,0,0,0,0s0,0,0,0v-0.2c0.1,0,0.2-0.1,0.2-0.3
											c0-0.1-0.1-0.3-0.3-0.3C9.1-21.8,9-21.7,9-21.5z"/>
									</g>
								</mask>
								<polygon id="Fill-34" class="st24" points="6.8,-18.9 11.7,-18.9 11.7,-24 6.8,-24 								"/>
							</g>
							<g id="Group-39" transform="translate(53.764705, 34.711183)">
								<g id="Clip-38">
								</g>
								<defs>
									<filter id="Adobe_OpacityMaskFilter_11_" filterUnits="userSpaceOnUse" x="6.6" y="-23.9" width="4.6" height="4.6">
										<feColorMatrix  type="matrix" values="1 0 0 0 0  0 1 0 0 0  0 0 1 0 0  0 0 0 1 0"/>
									</filter>
								</defs>
								<mask maskUnits="userSpaceOnUse" x="6.6" y="-23.9" width="4.6" height="4.6" id="mask-30_1_">
									<g class="st25">
										<path id="path-29_1_" class="st1" d="M8.8-21.6c0,0.1,0,0.1,0.1,0.1c0.1,0,0.1,0,0.1-0.1c0-0.1,0-0.1-0.1-0.1
											C8.9-21.7,8.8-21.6,8.8-21.6z"/>
									</g>
								</mask>
								<polygon id="Fill-37" class="st26" points="6.6,-19.3 11.2,-19.3 11.2,-23.9 6.6,-23.9 								"/>
							</g>
							<g id="Group-42" transform="translate(75.942645, 33.026174)">
								<g id="Clip-41">
								</g>
								<defs>
									<filter id="Adobe_OpacityMaskFilter_12_" filterUnits="userSpaceOnUse" x="13.5" y="-24.3" width="28.6" height="8.4">
										<feColorMatrix  type="matrix" values="1 0 0 0 0  0 1 0 0 0  0 0 1 0 0  0 0 0 1 0"/>
									</filter>
								</defs>
								<mask maskUnits="userSpaceOnUse" x="13.5" y="-24.3" width="28.6" height="8.4" id="mask-32_1_">
									<g class="st27">
										<path id="path-31_1_" class="st1" d="M16.6-22.1c-0.5,0-0.9,0.4-0.9,0.9v2.2c0,0.5,0.4,0.9,0.9,0.9h22.5
											c0.5,0,0.9-0.4,0.9-0.9v-2.2c0-0.5-0.4-0.9-0.9-0.9H16.6z"/>
									</g>
								</mask>
								<polygon id="Fill-40" class="st28" points="13.5,-15.9 42.2,-15.9 42.2,-24.3 13.5,-24.3 								"/>
							</g>
							<g id="Group-45" transform="translate(95.432351, 33.026174)">
								<g id="Clip-44">
								</g>
								<defs>
									<filter id="Adobe_OpacityMaskFilter_13_" filterUnits="userSpaceOnUse" x="19.6" y="-24.3" width="28.6" height="8.4">
										<feColorMatrix  type="matrix" values="1 0 0 0 0  0 1 0 0 0  0 0 1 0 0  0 0 0 1 0"/>
									</filter>
								</defs>
								<mask maskUnits="userSpaceOnUse" x="19.6" y="-24.3" width="28.6" height="8.4" id="mask-34_1_">
									<g class="st29">
										<path id="path-33_1_" class="st1" d="M22.6-22.1c-0.5,0-0.9,0.4-0.9,0.9v2.2c0,0.5,0.4,0.9,0.9,0.9h22.5
											c0.5,0,0.9-0.4,0.9-0.9v-2.2c0-0.5-0.4-0.9-0.9-0.9H22.6z"/>
									</g>
								</mask>
								<polygon id="Fill-43" class="st30" points="19.6,-15.9 48.2,-15.9 48.2,-24.3 19.6,-24.3 								"/>
							</g>
							<g id="Group-48" transform="translate(17.137500, 33.026174)">
								<g id="Clip-47">
								</g>
								<defs>
									<filter id="Adobe_OpacityMaskFilter_14_" filterUnits="userSpaceOnUse" x="-4.2" y="-24.3" width="28.6" height="46">
										<feColorMatrix  type="matrix" values="1 0 0 0 0  0 1 0 0 0  0 0 1 0 0  0 0 0 1 0"/>
									</filter>
								</defs>
								<mask maskUnits="userSpaceOnUse" x="-4.2" y="-24.3" width="28.6" height="46" id="mask-36_1_">
									<g class="st31">
										<path id="path-35_1_" class="st1" d="M-1.1-22.1c-0.5,0-0.9,0.4-0.9,0.9v39.8c0,0.5,0.4,0.9,0.9,0.9h22.5
											c0.5,0,0.9-0.4,0.9-0.9v-39.8c0-0.5-0.4-0.9-0.9-0.9H-1.1z"/>
									</g>
								</mask>
								<polygon id="Fill-46" class="st32" points="-4.2,21.7 24.4,21.7 24.4,-24.3 -4.2,-24.3 								"/>
							</g>
							<g id="Group-51" transform="translate(33.938970, 33.700178)">
								<g id="Clip-50">
								</g>
								<defs>
									<filter id="Adobe_OpacityMaskFilter_15_" filterUnits="userSpaceOnUse" x="0.9" y="-23.9" width="6.1" height="6.1">
										<feColorMatrix  type="matrix" values="1 0 0 0 0  0 1 0 0 0  0 0 1 0 0  0 0 0 1 0"/>
									</filter>
								</defs>
								<mask maskUnits="userSpaceOnUse" x="0.9" y="-23.9" width="6.1" height="6.1" id="mask-38_1_">
									<g class="st33">
										<path id="path-37_1_" class="st1" d="M3.1-20.9c0,0.5,0.4,0.8,0.9,0.8c0.5,0,0.9-0.4,0.9-0.8c0-0.5-0.4-0.8-0.9-0.8
											C3.4-21.7,3.1-21.3,3.1-20.9z M3.1-20.9c0-0.4,0.4-0.8,0.8-0.8c0.4,0,0.8,0.3,0.8,0.8c0,0.4-0.4,0.8-0.8,0.8
											C3.5-20.1,3.1-20.4,3.1-20.9z"/>
									</g>
								</mask>
								<polygon id="Fill-49" class="st34" points="0.9,-17.8 7,-17.8 7,-23.9 0.9,-23.9 								"/>
							</g>
							<g id="Group-54" transform="translate(34.611029, 34.037180)">
								<g id="Clip-53">
								</g>
								<defs>
									<filter id="Adobe_OpacityMaskFilter_16_" filterUnits="userSpaceOnUse" x="0.8" y="-23.8" width="4.9" height="5.1">
										<feColorMatrix  type="matrix" values="1 0 0 0 0  0 1 0 0 0  0 0 1 0 0  0 0 0 1 0"/>
									</filter>
								</defs>
								<mask maskUnits="userSpaceOnUse" x="0.8" y="-23.8" width="4.9" height="5.1" id="mask-40_1_">
									<g class="st35">
										<path id="path-39_1_" class="st1" d="M3-21.4C3-21.4,3-21.3,3-21.4C3-21.3,3.1-21.4,3-21.4c0.1-0.1,0.2-0.2,0.3-0.2
											c0.1,0,0.2,0.1,0.2,0.2c0,0.1-0.1,0.2-0.2,0.2c0,0,0,0,0,0v0.2c0,0,0,0,0,0c0,0,0,0,0,0v-0.2c0.1,0,0.2-0.1,0.2-0.3
											c0-0.1-0.1-0.3-0.3-0.3C3.1-21.6,3-21.5,3-21.4z"/>
									</g>
								</mask>
								<polygon id="Fill-52" class="st36" points="0.8,-18.7 5.7,-18.7 5.7,-23.8 0.8,-23.8 								"/>
							</g>
							<g id="Group-57" transform="translate(34.611029, 34.711183)">
								<g id="Clip-56">
								</g>
								<defs>
									<filter id="Adobe_OpacityMaskFilter_17_" filterUnits="userSpaceOnUse" x="1" y="-23.7" width="4.6" height="4.6">
										<feColorMatrix  type="matrix" values="1 0 0 0 0  0 1 0 0 0  0 0 1 0 0  0 0 0 1 0"/>
									</filter>
								</defs>
								<mask maskUnits="userSpaceOnUse" x="1" y="-23.7" width="4.6" height="4.6" id="mask-42_1_">
									<g class="st37">
										<path id="path-41_1_" class="st1" d="M3.2-21.4c0,0.1,0,0.1,0.1,0.1c0.1,0,0.1,0,0.1-0.1c0-0.1,0-0.1-0.1-0.1
											C3.2-21.5,3.2-21.5,3.2-21.4z"/>
									</g>
								</mask>
								<polygon id="Fill-55" class="st38" points="1,-19.1 5.6,-19.1 5.6,-23.7 1,-23.7 								"/>
							</g>
							<g id="Group-60" transform="translate(17.809558, 36.059190)">
								<g id="Clip-59">
								</g>
								<defs>
									<filter id="Adobe_OpacityMaskFilter_18_" filterUnits="userSpaceOnUse" x="-4.2" y="-23.2" width="27.4" height="14.6">
										<feColorMatrix  type="matrix" values="1 0 0 0 0  0 1 0 0 0  0 0 1 0 0  0 0 0 1 0"/>
									</filter>
								</defs>
								<mask maskUnits="userSpaceOnUse" x="-4.2" y="-23.2" width="27.4" height="14.6" id="mask-44_1_">
									<g class="st39">
										<path id="path-43_1_" class="st1" d="M-1.2-21C-1.6-21-2-20.6-2-20.1v8.5c0,0.5,0.4,0.9,0.9,0.9h21.2
											c0.5,0,0.9-0.4,0.9-0.9v-8.5c0-0.5-0.4-0.9-0.9-0.9H-1.2z"/>
									</g>
								</mask>
								<polygon id="Fill-58" class="st40" points="-4.2,-8.6 23.1,-8.6 23.1,-23.2 -4.2,-23.2 								"/>
							</g>
							<g id="Group-63" transform="translate(18.817647, 41.451219)">
								<g id="Clip-62">
								</g>
								<defs>
									<filter id="Adobe_OpacityMaskFilter_19_" filterUnits="userSpaceOnUse" x="-3.9" y="-21.7" width="13.9" height="6.4">
										<feColorMatrix  type="matrix" values="1 0 0 0 0  0 1 0 0 0  0 0 1 0 0  0 0 0 1 0"/>
									</filter>
								</defs>
								<mask maskUnits="userSpaceOnUse" x="-3.9" y="-21.7" width="13.9" height="6.4" id="mask-46_1_">
									<g class="st41">
										<path id="path-45_1_" class="st1" d="M-0.7-19.5c-0.6,0-1,0.4-1,1c0,0.6,0.4,1,1,1h7.5c0.6,0,1-0.4,1-1c0-0.6-0.4-1-1-1
											H-0.7z"/>
									</g>
								</mask>
								<polygon id="Fill-61" class="st42" points="-3.9,-15.3 10,-15.3 10,-21.7 -3.9,-21.7 								"/>
							</g>
							<g id="Group-66" transform="translate(17.809558, 44.484235)">
								<g id="Clip-65">
								</g>
								<defs>
									<filter id="Adobe_OpacityMaskFilter_20_" filterUnits="userSpaceOnUse" x="-4.2" y="-20.7" width="27.4" height="14.6">
										<feColorMatrix  type="matrix" values="1 0 0 0 0  0 1 0 0 0  0 0 1 0 0  0 0 0 1 0"/>
									</filter>
								</defs>
								<mask maskUnits="userSpaceOnUse" x="-4.2" y="-20.7" width="27.4" height="14.6" id="mask-48_1_">
									<g class="st43">
										<path id="path-47_1_" class="st1" d="M-1.2-18.5c-0.5,0-0.9,0.4-0.9,0.9v8.5c0,0.5,0.4,0.9,0.9,0.9h21.2
											c0.5,0,0.9-0.4,0.9-0.9v-8.5c0-0.5-0.4-0.9-0.9-0.9H-1.2z"/>
									</g>
								</mask>
								<polygon id="Fill-64" class="st44" points="-4.2,-6.1 23.1,-6.1 23.1,-20.7 -4.2,-20.7 								"/>
							</g>
							<g id="Group-69" transform="translate(18.817647, 49.876263)">
								<g id="Clip-68">
								</g>
								<defs>
									<filter id="Adobe_OpacityMaskFilter_21_" filterUnits="userSpaceOnUse" x="-3.9" y="-19.1" width="13.9" height="6.4">
										<feColorMatrix  type="matrix" values="1 0 0 0 0  0 1 0 0 0  0 0 1 0 0  0 0 0 1 0"/>
									</filter>
								</defs>
								<mask maskUnits="userSpaceOnUse" x="-3.9" y="-19.1" width="13.9" height="6.4" id="mask-50_1_">
									<g class="st45">
										<path id="path-49_1_" class="st1" d="M-0.7-16.9c-0.6,0-1,0.4-1,1c0,0.6,0.4,1,1,1h7.5c0.6,0,1-0.4,1-1c0-0.6-0.4-1-1-1
											H-0.7z"/>
									</g>
								</mask>
								<polygon id="Fill-67" class="st46" points="-3.9,-12.7 10,-12.7 10,-19.1 -3.9,-19.1 								"/>
							</g>
							<g id="Group-72" transform="translate(17.809558, 52.909279)">
								<g id="Clip-71">
								</g>
								<defs>
									<filter id="Adobe_OpacityMaskFilter_22_" filterUnits="userSpaceOnUse" x="-4.2" y="-18.3" width="27.4" height="16.2">
										<feColorMatrix  type="matrix" values="1 0 0 0 0  0 1 0 0 0  0 0 1 0 0  0 0 0 1 0"/>
									</filter>
								</defs>
								<mask maskUnits="userSpaceOnUse" x="-4.2" y="-18.3" width="27.4" height="16.2" id="mask-52_1_">
									<g class="st47">
										<path id="path-51_1_" class="st1" d="M-1.2-16.1c-0.5,0-0.9,0.4-0.9,0.9v10.1c0,0.5,0.4,0.9,0.9,0.9h21.2
											c0.5,0,0.9-0.4,0.9-0.9v-10.1c0-0.5-0.4-0.9-0.9-0.9H-1.2z"/>
									</g>
								</mask>
								<polygon id="Fill-70" class="st48" points="-4.2,-2 23.1,-2 23.1,-18.3 -4.2,-18.3 								"/>
							</g>
							<g id="Group-75" transform="translate(18.817647, 59.649315)">
								<g id="Clip-74">
								</g>
								<defs>
									<filter id="Adobe_OpacityMaskFilter_23_" filterUnits="userSpaceOnUse" x="-3.9" y="-16.4" width="13.9" height="6.4">
										<feColorMatrix  type="matrix" values="1 0 0 0 0  0 1 0 0 0  0 0 1 0 0  0 0 0 1 0"/>
									</filter>
								</defs>
								<mask maskUnits="userSpaceOnUse" x="-3.9" y="-16.4" width="13.9" height="6.4" id="mask-54_1_">
									<g class="st49">
										<path id="path-53_1_" class="st1" d="M-0.7-14.2c-0.6,0-1,0.4-1,1c0,0.6,0.4,1,1,1h7.5c0.6,0,1-0.4,1-1c0-0.6-0.4-1-1-1
											H-0.7z"/>
									</g>
								</mask>
								<polygon id="Fill-73" class="st50" points="-3.9,-10 10,-10 10,-16.4 -3.9,-16.4 								"/>
							</g>
							<polygon id="Fill-76" class="st51" points="-2.9,-24.1 159.6,-24.1 159.6,-27.4 -2.9,-27.4 							"/>
							<polygon id="Fill-77" class="st1" points="-2.8,-12.5 159.5,-12.5 159.5,-24.1 -2.8,-24.1 							"/>
							<path id="Stroke-78" class="st52" d="M-2.8-12.5h162.1 M-2.5-16h162"/>
							<g id="Group-81" transform="translate(40.659558, 13.480071)">
								<g id="Clip-80">
								</g>
								<defs>
									<filter id="Adobe_OpacityMaskFilter_24_" filterUnits="userSpaceOnUse" x="2.8" y="-30.4" width="9.2" height="5.3">
										<feColorMatrix  type="matrix" values="1 0 0 0 0  0 1 0 0 0  0 0 1 0 0  0 0 0 1 0"/>
									</filter>
								</defs>
								<mask maskUnits="userSpaceOnUse" x="2.8" y="-30.4" width="9.2" height="5.3" id="mask-56_1_">
									<g class="st53">
										<path id="path-55_1_" class="st1" d="M8.2-27.8c0,0.3,0.1,0.5,0.4,0.5c0.2,0,0.4-0.2,0.4-0.5c0-0.3-0.1-0.4-0.4-0.4
											C8.3-28.2,8.2-28.1,8.2-27.8z M8.3-27.8c0-0.3,0.1-0.3,0.2-0.3c0.1,0,0.2,0,0.2,0.3c0,0.3-0.1,0.3-0.2,0.3
											C8.4-27.4,8.3-27.5,8.3-27.8z M7.4-27.9c0,0.2,0.2,0.2,0.3,0.3c0.1,0,0.2,0.1,0.2,0.1c0,0.1-0.1,0.1-0.2,0.1
											c-0.1,0-0.1,0-0.2-0.1l-0.1,0.1c0.1,0.1,0.2,0.1,0.3,0.1c0.2,0,0.3-0.1,0.3-0.3c0-0.2-0.2-0.2-0.3-0.3
											c-0.1,0-0.2-0.1-0.2-0.1c0-0.1,0.1-0.1,0.2-0.1c0.1,0,0.1,0,0.2,0.1l0.1-0.1c-0.1-0.1-0.2-0.1-0.3-0.1
											C7.5-28.2,7.4-28.1,7.4-27.9z M9.6-28.2v0.4l0,0.2l-0.1-0.2l-0.3-0.5H9.1v0.9h0.1v-0.4l0-0.2l0.1,0.2l0.3,0.5h0.1v-0.9
											H9.6z M6.5-28.2v0.9h0.1v-0.4h0.2L7-27.3h0.2L7-27.7c0.1,0,0.1-0.1,0.1-0.3c0-0.1-0.1-0.2-0.3-0.2H6.5z M6.7-28.1h0.2
											C7-28.1,7-28,7-27.9c0,0.1,0,0.2-0.1,0.2H6.7V-28.1z M5-28.2v0.9h0.1v-0.3h0.2c0.2,0,0.3-0.1,0.3-0.3
											c0-0.2-0.1-0.2-0.3-0.2H5z M5.1-28.1h0.2c0.1,0,0.1,0,0.1,0.1c0,0.1,0,0.2-0.1,0.2H5.1V-28.1z M5.8-28.2v0.9h0.5v-0.1H5.9
											v-0.3h0.3v-0.1H5.9v-0.2h0.4v-0.1H5.8z"/>
									</g>
								</mask>
								<polygon id="Fill-79" class="st54" points="2.8,-25.1 11.9,-25.1 11.9,-30.4 2.8,-30.4 								"/>
							</g>
							<polygon id="Fill-82" class="st51" points="51,-14.5 51.5,-14.1 52,-14.5 							"/>
							<g id="Group-85" transform="translate(47.380146, 13.480071)">
								<g id="Clip-84">
								</g>
								<defs>
									<filter id="Adobe_OpacityMaskFilter_25_" filterUnits="userSpaceOnUse" x="4.9" y="-30.4" width="9.4" height="5.3">
										<feColorMatrix  type="matrix" values="1 0 0 0 0  0 1 0 0 0  0 0 1 0 0  0 0 0 1 0"/>
									</filter>
								</defs>
								<mask maskUnits="userSpaceOnUse" x="4.9" y="-30.4" width="9.4" height="5.3" id="mask-58_1_">
									<g class="st55">
										<path id="path-57_1_" class="st1" d="M11.5-28.2v0.1h0.2v0.8h0.1v-0.8h0.2v-0.1H11.5z M10.5-27.3h0.1v-0.9h-0.1V-27.3z
											 M9.6-28.2v0.9h0.1v-0.4h0.2l0.2,0.4h0.2l-0.2-0.4c0.1,0,0.1-0.1,0.1-0.3c0-0.1-0.1-0.2-0.3-0.2H9.6z M9.8-28.1h0.2
											c0.1,0,0.1,0,0.1,0.1c0,0.1,0,0.2-0.1,0.2H9.8V-28.1z M8.7-28.2v0.9H9c0.2,0,0.4-0.2,0.4-0.5c0-0.3-0.1-0.4-0.4-0.4H8.7z
											 M8.9-28.1H9c0.1,0,0.2,0,0.2,0.3c0,0.3-0.1,0.3-0.2,0.3H8.9V-28.1z M7.1-28.2v0.9h0.4c0.2,0,0.3-0.1,0.3-0.3
											c0-0.1-0.1-0.2-0.1-0.2c0.1,0,0.1-0.1,0.1-0.2c0-0.2-0.1-0.2-0.3-0.2H7.1z M7.2-28.1h0.2c0.1,0,0.1,0,0.1,0.1
											c0,0.1,0,0.1-0.1,0.1H7.2V-28.1z M7.2-27.7h0.2c0.1,0,0.2,0.1,0.2,0.2c0,0.1,0,0.1-0.1,0.1H7.2V-27.7z M10.8-28.2v0.9H11
											v-0.4h0.3v-0.1H11v-0.2h0.4v-0.1H10.8z M8-28.2v0.9h0.5v-0.1H8.1v-0.3h0.3v-0.1H8.1v-0.2h0.4v-0.1H8z"/>
									</g>
								</mask>
								<polygon id="Fill-83" class="st56" points="4.9,-25.1 14.3,-25.1 14.3,-30.4 4.9,-30.4 								"/>
							</g>
							<polygon id="Fill-86" class="st51" points="60,-14.5 60.5,-14.1 61,-14.5 							"/>
							<g id="Group-89" transform="translate(54.100734, 13.480071)">
								<g id="Clip-88">
								</g>
								<defs>
									<filter id="Adobe_OpacityMaskFilter_26_" filterUnits="userSpaceOnUse" x="7" y="-30.4" width="15.3" height="5.3">
										<feColorMatrix  type="matrix" values="1 0 0 0 0  0 1 0 0 0  0 0 1 0 0  0 0 0 1 0"/>
									</filter>
								</defs>
								<mask maskUnits="userSpaceOnUse" x="7" y="-30.4" width="15.3" height="5.3" id="mask-60_1_">
									<g class="st57">
										<path id="path-59_1_" class="st1" d="M13-27.8c0,0.3,0.1,0.5,0.4,0.5c0.3,0,0.3-0.2,0.3-0.5h-0.3v0.1h0.2c0,0,0,0,0,0
											c0,0.2-0.1,0.2-0.2,0.2c-0.1,0-0.2-0.1-0.2-0.3c0-0.3,0.1-0.3,0.2-0.3c0.1,0,0.1,0,0.2,0.1l0.1-0.1
											c-0.1-0.1-0.1-0.2-0.3-0.2C13.2-28.2,13-28.1,13-27.8z M12.1-27.8c0,0.3,0.1,0.5,0.4,0.5c0.2,0,0.4-0.2,0.4-0.5
											c0-0.3-0.1-0.4-0.4-0.4C12.2-28.2,12.1-28.1,12.1-27.8z M12.3-27.8c0-0.3,0.1-0.3,0.2-0.3c0.1,0,0.2,0,0.2,0.3
											c0,0.3-0.1,0.3-0.2,0.3C12.4-27.4,12.3-27.5,12.3-27.8z M14.3-27.9c0,0.2,0.2,0.2,0.3,0.3c0.1,0,0.2,0.1,0.2,0.1
											c0,0.1-0.1,0.1-0.2,0.1c-0.1,0-0.1,0-0.2-0.1l-0.1,0.1c0.1,0.1,0.2,0.1,0.3,0.1c0.2,0,0.3-0.1,0.3-0.3
											c0-0.2-0.2-0.2-0.3-0.3c-0.1,0-0.2-0.1-0.2-0.1c0-0.1,0-0.1,0.2-0.1c0.1,0,0.1,0,0.2,0.1l0.1-0.1
											c-0.1-0.1-0.2-0.1-0.3-0.1C14.5-28.2,14.3-28.1,14.3-27.9z M20-28.2v0.4l0,0.2l-0.1-0.2l-0.3-0.5h-0.1v0.9h0.1v-0.4l0-0.2
											l0.1,0.2l0.3,0.5h0.1v-0.9H20z M19.1-28.2v0.4l0,0.2L19-27.7l-0.3-0.5h-0.1v0.9h0.1v-0.4l0-0.2l0.1,0.2l0.3,0.5h0.1v-0.9
											H19.1z M18.2-28.2v0.6c0,0.1-0.1,0.2-0.2,0.2c-0.1,0-0.2-0.1-0.2-0.2v-0.6h-0.1v0.6c0,0.2,0.1,0.3,0.3,0.3
											c0.2,0,0.3-0.1,0.3-0.3v-0.6H18.2z M16.6-28.2l-0.2,0.5l-0.2-0.5h-0.1l0,0.9h0.1l0-0.4l0-0.2l0.1,0.2l0.1,0.2h0.1l0.1-0.2
											l0.1-0.2l0,0.2l0,0.4h0.1l0-0.9H16.6z M15.4-28.2l-0.3,0.9h0.2l0.1-0.2h0.3l0.1,0.2h0.1l-0.3-0.9H15.4z M15.4-27.8
											l0.1-0.2l0.1,0.2l0.1,0.2h-0.2L15.4-27.8z M11.4-28.2l-0.2,0.5l-0.1,0.2l-0.1-0.2L11-28.2h-0.2l0.3,0.9h0.1l0.3-0.9H11.4z
											 M10.3-28.2L10-27.3h0.2l0.1-0.2h0.3l0.1,0.2h0.1l-0.3-0.9H10.3z M10.3-27.8l0.1-0.2l0.1,0.2l0.1,0.2h-0.2L10.3-27.8z
											 M9.6-28.2v0.4l0,0.2l-0.1-0.2l-0.3-0.5H9.2v0.9h0.1v-0.4l0-0.2l0.1,0.2l0.3,0.5h0.1v-0.9H9.6z M17.1-28.2v0.9h0.1v-0.4
											h0.3v-0.1h-0.3v-0.2h0.4v-0.1H17.1z"/>
									</g>
								</mask>
								<polygon id="Fill-87" class="st58" points="7,-25.1 22.3,-25.1 22.3,-30.4 7,-30.4 								"/>
							</g>
							<polygon id="Fill-90" class="st51" points="75,-14.5 75.5,-14.1 76,-14.5 							"/>
							<polygon id="Fill-91" class="st59" points="83.8,-14.5 84.3,-14.1 84.8,-14.5 							"/>
							<g id="Group-94" transform="translate(65.189704, 13.480071)">
								<g id="Clip-93">
								</g>
								<defs>
									<filter id="Adobe_OpacityMaskFilter_27_" filterUnits="userSpaceOnUse" x="10.4" y="-30.4" width="10" height="5.3">
										<feColorMatrix  type="matrix" values="1 0 0 0 0  0 1 0 0 0  0 0 1 0 0  0 0 0 1 0"/>
									</filter>
								</defs>
								<mask maskUnits="userSpaceOnUse" x="10.4" y="-30.4" width="10" height="5.3" id="mask-62_1_">
									<g class="st60">
										<path id="path-61_1_" class="st1" d="M18-28.2l-0.2,0.5l-0.1,0.2l-0.1-0.2l-0.2-0.5h-0.2l0.3,0.9h0.1l0.3-0.9H18z
											 M16.9-28.2l-0.3,0.9h0.2l0.1-0.2h0.3l0.1,0.2h0.1L17-28.2H16.9z M16.9-27.8l0.1-0.2l0.1,0.2l0.1,0.2h-0.2L16.9-27.8z
											 M16.3-28.2v0.4l0,0.2l-0.1-0.2l-0.3-0.5h-0.1v0.9h0.1v-0.4l0-0.2l0.1,0.2l0.3,0.5h0.1v-0.9H16.3z M14.6-28.2v0.1h0.2v0.8
											h0.1v-0.8h0.2v-0.1H14.6z M13.8-28.2v0.1H14v0.8h0.1v-0.8h0.2v-0.1H13.8z M13.5-27.3h0.1v-0.9h-0.1V-27.3z M12.6-28.2v0.9
											h0.3c0.2,0,0.4-0.2,0.4-0.5c0-0.3-0.1-0.4-0.4-0.4H12.6z M12.7-28.1h0.2c0.1,0,0.2,0,0.2,0.3c0,0.3-0.1,0.3-0.2,0.3h-0.2
											V-28.1z"/>
									</g>
								</mask>
								<polygon id="Fill-92" class="st61" points="10.4,-25.1 20.4,-25.1 20.4,-30.4 10.4,-30.4 								"/>
							</g>
							<polygon id="Fill-95" class="st51" points="32.6,-24.1 119.5,-24.1 119.5,-27.4 32.6,-27.4 							"/>
							<g id="Group-98" transform="translate(57.797057, 4.718025)">
								<g id="Clip-97">
								</g>
								<defs>
									<filter id="Adobe_OpacityMaskFilter_28_" filterUnits="userSpaceOnUse" x="8.1" y="-32.9" width="9.6" height="5.3">
										<feColorMatrix  type="matrix" values="1 0 0 0 0  0 1 0 0 0  0 0 1 0 0  0 0 0 1 0"/>
									</filter>
								</defs>
								<mask maskUnits="userSpaceOnUse" x="8.1" y="-32.9" width="9.6" height="5.3" id="mask-64_1_">
									<g class="st62">
										<path id="path-63_1_" class="st1" d="M12.1-30.7v0.7h0.1v-0.2l0.1-0.1l0.2,0.3h0.1l-0.2-0.3l0.2-0.2h-0.1l-0.2,0.2
											L12.1-30.7L12.1-30.7z M10.8-30.7v0.3h-0.4v-0.3h-0.1v0.7h0.1v-0.3h0.4v0.3h0.1L10.8-30.7L10.8-30.7z M15.4-30.6v0.1h-0.1
											v0.1h0.1v0.3c0,0,0,0.1,0,0.1c0,0,0,0,0.1,0c0,0,0,0,0,0c0,0,0,0,0,0V-30c0,0,0,0,0,0c0,0,0,0,0,0c0,0,0,0,0,0
											c0,0,0,0,0,0v-0.3h0.1v-0.1h-0.1L15.4-30.6L15.4-30.6z M13.7-30.6v0.1h-0.1v0.1h0.1v0.3c0,0,0,0.1,0,0.1c0,0,0,0,0.1,0
											c0,0,0,0,0,0c0,0,0,0,0,0V-30c0,0,0,0,0,0c0,0,0,0,0,0c0,0,0,0,0,0c0,0,0,0,0,0v-0.3h0.1v-0.1h-0.1L13.7-30.6L13.7-30.6z
											 M11.4-30.4C11.4-30.4,11.4-30.5,11.4-30.4c-0.1-0.1-0.1-0.1-0.2-0.1c-0.1,0-0.1,0-0.2,0.1c0,0.1-0.1,0.1-0.1,0.2
											c0,0,0,0.1,0,0.1c0,0,0,0.1,0,0.1L11-30l0,0l0.1-0.1c0,0,0,0,0.1,0c0,0,0.1,0,0.1,0c0.1,0,0.1,0,0.2-0.1
											c0-0.1,0.1-0.1,0.1-0.2c0,0,0,0,0-0.1C11.5-30.3,11.5-30.4,11.4-30.4L11.4-30.4L11.4-30.4L11.4-30.4z M11.1-30.1
											C11.1-30.2,11.1-30.2,11.1-30.1c0-0.1,0-0.2,0-0.2c0,0,0.1-0.1,0.1-0.1c0,0,0,0,0.1,0c0,0,0,0,0,0L11.1-30.1
											C11.1-30.1,11.1-30.1,11.1-30.1z M11.2-30C11.2-30,11.2-30.1,11.2-30l0.2-0.3c0,0,0,0,0,0c0,0,0,0,0,0.1c0,0,0,0.1,0,0.1
											C11.3-30.1,11.3-30,11.2-30C11.2-30,11.2-30,11.2-30z M12.6-30.4c0,0.1-0.1,0.1-0.1,0.2c0,0.1,0,0.1,0.1,0.2
											c0,0,0.1,0.1,0.2,0.1c0.1,0,0.1,0,0.2-0.1c0-0.1,0.1-0.1,0.1-0.2c0-0.1,0-0.1-0.1-0.2c0,0-0.1-0.1-0.2-0.1
											C12.7-30.5,12.7-30.5,12.6-30.4z M12.7-30.1c0,0,0-0.1,0-0.1c0-0.1,0-0.1,0-0.1c0,0,0.1-0.1,0.1-0.1c0.1,0,0.1,0,0.1,0.1
											c0,0,0,0.1,0,0.1c0,0.1,0,0.1,0,0.1c0,0-0.1,0.1-0.1,0.1C12.8-30,12.7-30,12.7-30.1z M14.9-30.4c0,0-0.1,0.1-0.1,0.1
											c0,0,0,0.1,0.1,0.1c0,0,0.1,0,0.1,0l0.1,0c0,0,0.1,0,0.1,0c0,0,0,0,0,0c0,0,0,0,0,0.1c0,0-0.1,0-0.1,0c-0.1,0-0.1,0-0.1,0
											c0,0,0,0,0-0.1h-0.1c0,0,0,0.1,0.1,0.1c0,0,0.1,0.1,0.2,0.1c0.1,0,0.1,0,0.2,0s0.1-0.1,0.1-0.1c0,0,0-0.1-0.1-0.1
											c0,0-0.1,0-0.1,0l-0.1,0c0,0,0,0-0.1,0C14.9-30.3,14.9-30.3,14.9-30.4C14.9-30.4,14.9-30.4,14.9-30.4c0.1,0,0.1,0,0.1,0
											c0,0,0.1,0,0.1,0c0,0,0,0,0,0.1h0.1c0,0,0-0.1,0-0.1c0,0-0.1-0.1-0.2-0.1C15-30.5,14.9-30.5,14.9-30.4z M14.4-30.4
											c0,0-0.1,0.1-0.1,0.1h0.1C14.4-30.3,14.4-30.4,14.4-30.4c0.1,0,0.1,0,0.1,0c0,0,0.1,0,0.1,0c0,0,0,0,0,0.1c0,0,0,0,0,0
											c0,0,0,0,0,0l-0.1,0c0,0-0.1,0-0.1,0c0,0,0,0.1,0,0.1c0,0,0,0.1,0,0.1s0.1,0,0.1,0c0,0,0.1,0,0.1,0c0,0,0.1,0,0.1-0.1
											c0,0,0,0,0,0c0,0,0,0,0.1,0c0,0,0,0,0,0c0,0,0,0,0,0V-30c0,0,0,0,0,0c0,0,0,0,0,0c0,0,0,0,0,0c0,0,0,0,0,0v-0.3
											c0,0,0-0.1-0.1-0.1c0,0-0.1,0-0.1,0C14.5-30.5,14.4-30.5,14.4-30.4z M14.4-30C14.4-30.1,14.4-30.1,14.4-30
											c0-0.1,0-0.1,0-0.1c0,0,0,0,0.1,0l0.1,0c0,0,0,0,0,0c0,0,0,0,0,0v0.1c0,0.1,0,0.1-0.1,0.1C14.5-30,14.5-30,14.4-30
											C14.4-30,14.4-30,14.4-30z M14.1-30.4C14.1-30.4,14.1-30.4,14.1-30.4L14.1-30.4l-0.1,0v0.5h0.1v-0.3
											C14.1-30.3,14.1-30.3,14.1-30.4C14.1-30.4,14.2-30.4,14.1-30.4c0.1,0.1,0.1,0.1,0.1,0.1c0,0,0,0,0,0v-0.1
											C14.2-30.5,14.2-30.5,14.1-30.4C14.2-30.5,14.2-30.5,14.1-30.4C14.2-30.5,14.1-30.5,14.1-30.4z M13.3-30.5
											C13.3-30.5,13.3-30.4,13.3-30.5L13.3-30.5l-0.2,0v0.5h0.1v-0.3c0,0,0-0.1,0-0.1c0,0,0,0,0-0.1
											C13.3-30.4,13.3-30.4,13.3-30.5C13.4-30.4,13.4-30.4,13.3-30.5c0.1,0.1,0.1,0.1,0.2,0.1c0,0,0,0,0,0.1v0.3h0.1v-0.3
											c0-0.1,0-0.1,0-0.1C13.5-30.5,13.5-30.5,13.3-30.5C13.4-30.5,13.3-30.5,13.3-30.5z M11.9-30.5l-0.1,0.4l-0.1-0.4h-0.1
											l0.2,0.5c0,0,0,0,0,0.1c0,0,0,0,0,0c0,0,0,0,0,0c0,0,0,0,0,0c0,0,0,0,0,0c0,0,0,0,0,0v0.1c0,0,0,0,0,0c0,0,0,0,0,0
											c0.1,0,0.1,0,0.1,0c0,0,0.1-0.1,0.1-0.2c0-0.1,0-0.1,0.1-0.2C12-30.4,12-30.4,11.9-30.5L11.9-30.5z"/>
									</g>
								</mask>
								<polygon id="Fill-96" class="st63" points="8.1,-27.6 17.7,-27.6 17.7,-32.9 8.1,-32.9 								"/>
							</g>
							<g id="Group-101" transform="translate(65.189704, 4.718025)">
								<g id="Clip-100">
								</g>
								<defs>
									<filter id="Adobe_OpacityMaskFilter_29_" filterUnits="userSpaceOnUse" x="10.5" y="-32.9" width="10.4" height="5.1">
										<feColorMatrix  type="matrix" values="1 0 0 0 0  0 1 0 0 0  0 0 1 0 0  0 0 0 1 0"/>
									</filter>
								</defs>
								<mask maskUnits="userSpaceOnUse" x="10.5" y="-32.9" width="10.4" height="5.1" id="mask-66_1_">
									<g class="st64">
										<path id="path-65_1_" class="st1" d="M12.7-30.6c0,0-0.1,0.1-0.1,0.2c0,0.1,0,0.1,0.1,0.1c0,0,0.1,0,0.1,0l0.1,0
											c0.1,0,0.1,0,0.1,0c0,0,0,0,0,0.1c0,0,0,0.1-0.1,0.1c0,0-0.1,0-0.1,0c-0.1,0-0.1,0-0.2-0.1c0,0,0-0.1,0-0.1h-0.1
											c0,0.1,0,0.1,0.1,0.2c0.1,0,0.1,0.1,0.2,0.1c0.1,0,0.1,0,0.2,0c0.1,0,0.1-0.1,0.1-0.2c0-0.1,0-0.1-0.1-0.1
											c0,0-0.1,0-0.1,0l-0.1,0c-0.1,0-0.1,0-0.1,0c0,0,0,0,0-0.1C12.8-30.5,12.8-30.5,12.7-30.6c0.1,0,0.1,0,0.2,0
											c0.1,0,0.1,0,0.1,0.1c0,0,0,0,0,0.1h0.1c0-0.1,0-0.1-0.1-0.2c-0.1,0-0.1-0.1-0.2-0.1C12.8-30.7,12.8-30.7,12.7-30.6z
											 M14.4-30.6C14.4-30.6,14.4-30.6,14.4-30.6l0,0.2h-0.1v0.1h0.1v0.4h0.1v-0.4h0.1v-0.1h-0.1C14.5-30.5,14.5-30.6,14.4-30.6
											c0.1,0,0.1,0,0.1,0c0,0,0,0,0,0c0,0,0,0,0,0v-0.1c0,0,0,0,0,0c0,0,0,0,0,0C14.5-30.7,14.4-30.7,14.4-30.6z M17.5-30
											L17.5-30l0.1-0.7h-0.1V-30z M14.1-30.6L14.1-30.6L14.1-30.6L14.1-30.6L14.1-30.6z M13.3-30.7v0.7h0.1v-0.2l0.1-0.1
											l0.2,0.3h0.1l-0.2-0.3l0.2-0.2h-0.1l-0.2,0.2L13.3-30.7L13.3-30.7z M15.4-30.6v0.1h-0.1v0.1h0.1v0.3c0,0,0,0.1,0,0.1
											c0,0,0,0,0.1,0c0,0,0,0,0,0c0,0,0,0,0,0V-30c0,0,0,0,0,0c0,0,0,0,0,0c0,0,0,0,0,0c0,0,0,0,0,0v-0.3h0.1v-0.1h-0.1
											L15.4-30.6L15.4-30.6z M14.7-30.6v0.1h-0.1v0.1h0.1v0.3c0,0,0,0.1,0,0.1c0,0,0,0,0.1,0c0,0,0,0,0,0c0,0,0,0,0,0V-30
											c0,0,0,0,0,0c0,0,0,0,0,0c0,0,0,0,0,0c0,0,0,0,0,0v-0.3h0.1v-0.1h-0.1L14.7-30.6L14.7-30.6z M16.1-30.4
											C16.1-30.4,16-30.5,16.1-30.4c-0.1-0.1-0.1-0.1-0.2-0.1c-0.1,0-0.1,0-0.2,0.1c0,0.1-0.1,0.1-0.1,0.2c0,0,0,0.1,0,0.1
											c0,0,0,0.1,0,0.1L15.7-30l0,0l0.1-0.1c0,0,0,0,0.1,0c0,0,0.1,0,0.1,0c0.1,0,0.1,0,0.2-0.1c0-0.1,0.1-0.1,0.1-0.2
											c0,0,0,0,0-0.1C16.1-30.3,16.1-30.4,16.1-30.4L16.1-30.4L16.1-30.4L16.1-30.4z M15.8-30.1C15.8-30.2,15.8-30.2,15.8-30.1
											c0-0.1,0-0.2,0-0.2c0,0,0.1-0.1,0.1-0.1c0,0,0,0,0.1,0c0,0,0,0,0,0L15.8-30.1C15.8-30.1,15.8-30.1,15.8-30.1z M15.9-30
											C15.8-30,15.8-30.1,15.9-30l0.2-0.3c0,0,0,0,0,0c0,0,0,0,0,0.1c0,0,0,0.1,0,0.1C16-30.1,16-30,15.9-30
											C15.9-30,15.9-30,15.9-30z M17.8-30.4c0,0-0.1,0.1-0.1,0.1c0,0,0,0.1,0.1,0.1c0,0,0.1,0,0.1,0l0.1,0c0,0,0.1,0,0.1,0
											c0,0,0,0,0,0c0,0,0,0,0,0.1c0,0-0.1,0-0.1,0c-0.1,0-0.1,0-0.1,0c0,0,0,0,0-0.1h-0.1c0,0,0,0.1,0.1,0.1
											c0,0,0.1,0.1,0.2,0.1c0.1,0,0.1,0,0.2,0c0,0,0.1-0.1,0.1-0.1c0,0,0-0.1-0.1-0.1c0,0-0.1,0-0.1,0l-0.1,0c0,0,0,0-0.1,0
											C17.8-30.3,17.8-30.3,17.8-30.4C17.8-30.4,17.8-30.4,17.8-30.4c0.1,0,0.1,0,0.1,0c0,0,0.1,0,0.1,0c0,0,0,0,0,0.1h0.1
											c0,0,0-0.1,0-0.1c0,0-0.1-0.1-0.2-0.1C17.8-30.5,17.8-30.5,17.8-30.4z M15-30.4c0,0-0.1,0.1-0.1,0.1c0,0,0,0.1,0.1,0.1
											c0,0,0.1,0,0.1,0l0.1,0c0,0,0.1,0,0.1,0c0,0,0,0,0,0c0,0,0,0,0,0.1c0,0-0.1,0-0.1,0c-0.1,0-0.1,0-0.1,0c0,0,0,0,0-0.1
											h-0.1c0,0,0,0.1,0.1,0.1c0,0,0.1,0.1,0.2,0.1c0.1,0,0.1,0,0.2,0c0,0,0.1-0.1,0.1-0.1c0,0,0-0.1-0.1-0.1c0,0-0.1,0-0.1,0
											l-0.1,0c0,0,0,0-0.1,0C15-30.3,15-30.3,15-30.4C15-30.4,15-30.4,15-30.4c0.1,0,0.1,0,0.1,0c0,0,0.1,0,0.1,0c0,0,0,0,0,0.1
											h0.1c0,0,0-0.1,0-0.1c0,0-0.1-0.1-0.2-0.1C15-30.5,15-30.5,15-30.4z M18.2-30.4c0,0.1-0.1,0.1-0.1,0.2
											c0,0.1,0,0.1,0.1,0.2c0,0,0.1,0.1,0.2,0.1c0,0,0.1,0,0.1,0c0,0,0.1,0,0.1-0.1c0,0,0,0,0-0.1c0,0,0,0,0-0.1h-0.1
											c0,0,0,0,0,0.1c0,0-0.1,0-0.1,0c0,0-0.1,0-0.1,0c0,0,0-0.1,0-0.1h0.4c0-0.1,0-0.1,0-0.1c0,0,0-0.1,0-0.1c0,0,0,0-0.1-0.1
											c0,0-0.1,0-0.1,0C18.4-30.5,18.3-30.5,18.2-30.4z M18.3-30.4C18.3-30.4,18.4-30.4,18.3-30.4c0.2,0,0.2,0,0.2,0
											c0,0,0,0.1,0,0.1h-0.3C18.3-30.3,18.3-30.3,18.3-30.4z M17-30.4c0,0.1-0.1,0.1-0.1,0.2c0,0.1,0,0.1,0.1,0.2
											c0,0,0.1,0.1,0.2,0.1c0,0,0,0,0.1,0c0,0,0.1,0,0.1-0.1c0,0,0,0,0-0.1c0,0,0,0,0-0.1h-0.1c0,0,0,0,0,0.1c0,0-0.1,0-0.1,0
											c0,0-0.1,0-0.1,0c0,0,0-0.1,0-0.1h0.4c0-0.1,0-0.1,0-0.1c0,0,0-0.1,0-0.1c0,0,0,0-0.1-0.1c0,0-0.1,0-0.1,0
											C17.1-30.5,17-30.5,17-30.4z M17.1-30.4C17.1-30.4,17.1-30.4,17.1-30.4c0.2,0,0.2,0,0.2,0c0,0,0,0.1,0,0.1H17
											C17-30.3,17-30.3,17.1-30.4z M16.8-30.4C16.7-30.4,16.7-30.4,16.8-30.4L16.8-30.4l-0.1,0v0.5h0.1v-0.3
											C16.7-30.3,16.7-30.3,16.8-30.4C16.8-30.4,16.8-30.4,16.8-30.4c0.1,0.1,0.1,0.1,0.1,0.1c0,0,0,0,0,0v-0.1
											C16.9-30.5,16.9-30.5,16.8-30.4C16.8-30.5,16.8-30.5,16.8-30.4C16.8-30.5,16.8-30.5,16.8-30.4z M16.4-30.4
											C16.4-30.4,16.4-30.4,16.4-30.4L16.4-30.4l-0.1,0v0.5h0.1v-0.3C16.4-30.3,16.4-30.3,16.4-30.4
											C16.4-30.4,16.5-30.4,16.4-30.4c0.1,0.1,0.1,0.1,0.1,0.1c0,0,0,0,0,0v-0.1C16.5-30.5,16.5-30.5,16.4-30.4
											C16.5-30.5,16.5-30.5,16.4-30.4C16.5-30.5,16.4-30.5,16.4-30.4z M14-30.4C13.9-30.4,13.9-30.4,14-30.4L14-30.4l-0.1,0v0.5
											h0.1v-0.3C13.9-30.3,13.9-30.3,14-30.4C14-30.4,14-30.4,14-30.4c0.1,0.1,0.1,0.1,0.1,0.1c0,0,0,0,0,0v-0.1
											C14.1-30.5,14.1-30.5,14-30.4C14.1-30.5,14-30.5,14-30.4C14-30.5,14-30.5,14-30.4z M14.1-30L14.1-30l0.1-0.5h-0.1V-30z"/>
									</g>
								</mask>
								<polygon class="st65" points="10.5,-27.8 20.8,-27.8 20.8,-32.9 10.5,-32.9 								"/>
							</g>
							<polygon class="st66" points="110.4,-24.7 117.1,-24.7 117.1,-26.6 110.4,-26.6 							"/>
							<g id="Group-108" transform="translate(91.063968, 4.718025)">
								<g id="Clip-107">
								</g>
								<defs>
									<filter id="Adobe_OpacityMaskFilter_30_" filterUnits="userSpaceOnUse" x="18.2" y="-32.9" width="8.7" height="5.1">
										<feColorMatrix  type="matrix" values="1 0 0 0 0  0 1 0 0 0  0 0 1 0 0  0 0 0 1 0"/>
									</filter>
								</defs>
								<mask maskUnits="userSpaceOnUse" x="18.2" y="-32.9" width="8.7" height="5.1" id="mask-70_1_">
									<g class="st67">
										<path id="path-69_1_" class="st1" d="M21-30.6c0,0.1-0.1,0.1-0.1,0.2c0,0.1,0,0.2,0.1,0.3c0.1,0.1,0.1,0.1,0.3,0.1
											c0.1,0,0.2,0,0.3-0.1c0.1-0.1,0.1-0.2,0.1-0.3c0-0.1,0-0.2-0.1-0.2c-0.1-0.1-0.2-0.1-0.3-0.1C21.1-30.7,21.1-30.6,21-30.6
											z M21.1-30.1c0-0.1-0.1-0.1-0.1-0.2c0-0.1,0-0.2,0.1-0.2c0,0,0.1-0.1,0.2-0.1c0.1,0,0.1,0,0.2,0.1c0,0,0.1,0.1,0.1,0.2
											c0,0.1,0,0.1-0.1,0.2c0,0.1-0.1,0.1-0.2,0.1C21.2-30,21.1-30.1,21.1-30.1z M22.6-30.6c-0.1,0.1-0.1,0.2-0.1,0.3
											c0,0.1,0,0.2,0.1,0.3c0.1,0.1,0.1,0.1,0.2,0.1c0.1,0,0.1,0,0.2,0c0,0,0.1,0,0.1-0.1l0,0.1h0.1v-0.4h-0.3v0.1H23
											c0,0.1,0,0.1-0.1,0.2c0,0-0.1,0.1-0.2,0.1c-0.1,0-0.1,0-0.2-0.1c0-0.1-0.1-0.1-0.1-0.2C22.6-30.4,22.6-30.5,22.6-30.6
											c0.1,0,0.2,0,0.2,0c0.1,0,0.1,0,0.1,0c0,0,0.1,0.1,0.1,0.1h0.1c0-0.1-0.1-0.2-0.1-0.2c0,0-0.1,0-0.2,0
											C22.7-30.7,22.6-30.6,22.6-30.6z M21.8-30.6c-0.1,0.1-0.1,0.2-0.1,0.3c0,0.1,0,0.2,0.1,0.3C21.9-30,21.9-30,22-30
											c0.1,0,0.1,0,0.2,0c0,0,0.1,0,0.1-0.1l0,0.1h0.1v-0.4H22v0.1h0.2c0,0.1,0,0.1-0.1,0.2c0,0-0.1,0.1-0.2,0.1
											c-0.1,0-0.1,0-0.2-0.1c0-0.1-0.1-0.1-0.1-0.2C21.8-30.4,21.8-30.5,21.8-30.6c0.1,0,0.2,0,0.2,0c0.1,0,0.1,0,0.1,0
											c0,0,0.1,0.1,0.1,0.1h0.1c0-0.1-0.1-0.2-0.1-0.2c0,0-0.1,0-0.2,0C21.9-30.7,21.9-30.6,21.8-30.6z M24.2-30.7L24.2-30.7
											l0.2,0.1v0.6h0.1v-0.6h0.2v-0.1H24.2z M24-30.7v0.4c0,0,0,0.1,0,0.1c0,0.1-0.1,0.1-0.2,0.1c-0.1,0-0.1,0-0.1-0.1
											c0,0,0-0.1,0-0.1v-0.4h-0.1v0.4c0,0.1,0,0.1,0,0.2c0,0.1,0.1,0.1,0.2,0.1s0.2,0,0.2-0.1c0,0,0-0.1,0-0.2L24-30.7L24-30.7z
											 M20.4-30.7v0.7h0.5v-0.1h-0.4L20.4-30.7L20.4-30.7z"/>
									</g>
								</mask>
								<polygon class="st68" points="18.2,-27.8 27,-27.8 27,-32.9 18.2,-32.9 								"/>
							</g>
							<polygon class="st1" points="71.6,-17 81.4,-17 81.4,-22.9 71.6,-22.9 							"/>
							
								<image style="overflow:visible;enable-background:new    ;" width="18" height="18" id="Image-110" xlink:href="A5665C046A68EB0F.png"  transform="matrix(0.1461 0 0 0.1461 99.5962 -27.0713)">
							</image>
							
								<image style="overflow:visible;enable-background:new    ;" width="66" height="45" id="Image-111" xlink:href="A5665C046A68EB0D.png"  transform="matrix(0.1461 0 0 0.1461 71.0999 -23.1086)">
							</image>
							
								<image style="overflow:visible;enable-background:new    ;" width="111" height="21" id="Image-112" xlink:href="A5665C046A68EB13.png"  transform="matrix(0.1461 0 0 0.1461 87.3208 -15.6392)">
							</image>
							<path id="Stroke-113" class="st69" d="M106.5-13.6c0,0.2-0.1,0.3-0.2,0.3c-0.1,0-0.2-0.1-0.2-0.3H106.5z M106.9-13.9v-0.4
								c0-0.3-0.2-0.5-0.4-0.6c0-0.1-0.1-0.2-0.2-0.2c-0.1,0-0.2,0.1-0.2,0.2c-0.3,0.1-0.4,0.3-0.4,0.6v0.4c0,0.1-0.1,0.2-0.2,0.2
								h1.8C107-13.7,106.9-13.8,106.9-13.9z"/>
							<g id="Group-117" transform="translate(36.627205, 24.938132)">
								<g id="Clip-116">
								</g>
								<defs>
									<filter id="Adobe_OpacityMaskFilter_31_" filterUnits="userSpaceOnUse" x="1.8" y="-26.8" width="79.7" height="7.9">
										<feColorMatrix  type="matrix" values="1 0 0 0 0  0 1 0 0 0  0 0 1 0 0  0 0 0 1 0"/>
									</filter>
								</defs>
								<mask maskUnits="userSpaceOnUse" x="1.8" y="-26.8" width="79.7" height="7.9" id="mask-72_1_">
									<g class="st70">
										<path id="path-71_1_" class="st1" d="M4.8-24.6c-0.5,0-0.9,0.4-0.9,0.9v1.8c0,0.5,0.4,0.9,0.9,0.9h73.6
											c0.5,0,0.9-0.4,0.9-0.9v-1.8c0-0.5-0.4-0.9-0.9-0.9H4.8z"/>
									</g>
								</mask>
								<polygon id="Fill-115" class="st71" points="1.8,-18.9 81.5,-18.9 81.5,-26.8 1.8,-26.8 								"/>
							</g>
							<g id="Group-120" transform="translate(3.696323, 15.165080)">
								<g id="Clip-119">
								</g>
								<defs>
									<filter id="Adobe_OpacityMaskFilter_32_" filterUnits="userSpaceOnUse" x="-8.6" y="-29.8" width="166.5" height="14.9">
										<feColorMatrix  type="matrix" values="1 0 0 0 0  0 1 0 0 0  0 0 1 0 0  0 0 0 1 0"/>
									</filter>
								</defs>
								<mask maskUnits="userSpaceOnUse" x="-8.6" y="-29.8" width="166.5" height="14.9" id="mask-74_1_">
									<g class="st72">
										<polygon id="path-73_1_" class="st1" points="-6.4,-27.6 -6.4,-17.2 -1,-17.2 40.8,-17.2 155.7,-17.2 155.7,-27.6 
																					"/>
									</g>
								</mask>
								<polygon id="Fill-118" class="st73" points="-8.6,-15 157.9,-15 157.9,-29.8 -8.6,-29.8 								"/>
							</g>
							<g id="Group-123" transform="translate(36.627205, 28.645151)">
								<g id="Clip-122">
								</g>
								<defs>
									<filter id="Adobe_OpacityMaskFilter_33_" filterUnits="userSpaceOnUse" x="1.8" y="-25.7" width="16.5" height="7.4">
										<feColorMatrix  type="matrix" values="1 0 0 0 0  0 1 0 0 0  0 0 1 0 0  0 0 0 1 0"/>
									</filter>
								</defs>
								<mask maskUnits="userSpaceOnUse" x="1.8" y="-25.7" width="16.5" height="7.4" id="mask-76_1_">
									<g class="st74">
										<path id="path-75_1_" class="st1" d="M4.2-23.5c-0.1,0-0.2,0.1-0.2,0.2v2.6c0,0.1,0.1,0.2,0.2,0.2H16
											c0.1,0,0.2-0.1,0.2-0.2v-2.6c0-0.1-0.1-0.2-0.2-0.2H4.2z"/>
									</g>
								</mask>
								<polygon id="Fill-121" class="st75" points="1.8,-18.4 18.3,-18.4 18.3,-25.7 1.8,-25.7 								"/>
							</g>
							<g id="Group-126" transform="translate(36.627205, 28.645151)">
								<g id="Clip-125">
								</g>
								<defs>
									<filter id="Adobe_OpacityMaskFilter_34_" filterUnits="userSpaceOnUse" x="1.8" y="-25.7" width="16.5" height="7.2">
										<feColorMatrix  type="matrix" values="1 0 0 0 0  0 1 0 0 0  0 0 1 0 0  0 0 0 1 0"/>
									</filter>
								</defs>
								<mask maskUnits="userSpaceOnUse" x="1.8" y="-25.7" width="16.5" height="7.2" id="mask-78_1_">
									<g class="st76">
										<path id="path-77_1_" class="st1" d="M4.2-23.5c-0.1,0-0.2,0.1-0.2,0.2v2.5c0,0.1,0.1,0.2,0.2,0.2H16
											c0.1,0,0.2-0.1,0.2-0.2v-2.5c0-0.1-0.1-0.2-0.2-0.2H4.2z"/>
									</g>
								</mask>
								<polygon id="Fill-124" class="st77" points="1.8,-18.5 18.3,-18.5 18.3,-25.7 1.8,-25.7 								"/>
							</g>
							<g id="Group-129" transform="translate(75.942645, 28.308149)">
								<g id="Clip-128">
								</g>
								<defs>
									<filter id="Adobe_OpacityMaskFilter_35_" filterUnits="userSpaceOnUse" x="13.5" y="-25.5" width="28.6" height="8.8">
										<feColorMatrix  type="matrix" values="1 0 0 0 0  0 1 0 0 0  0 0 1 0 0  0 0 0 1 0"/>
									</filter>
								</defs>
								<mask maskUnits="userSpaceOnUse" x="13.5" y="-25.5" width="28.6" height="8.8" id="mask-80_1_">
									<g class="st78">
										<path id="path-79_1_" class="st1" d="M16.6-23.3c-0.5,0-0.9,0.4-0.9,0.9v2.6c0,0.5,0.4,0.9,0.9,0.9h22.5
											c0.5,0,0.9-0.4,0.9-0.9v-2.6c0-0.5-0.4-0.9-0.9-0.9H16.6z"/>
									</g>
								</mask>
								<polygon id="Fill-127" class="st79" points="13.5,-16.8 42.2,-16.8 42.2,-25.5 13.5,-25.5 								"/>
							</g>
							<g id="Group-132" transform="translate(56.452940, 28.308149)">
								<g id="Clip-131">
								</g>
								<defs>
									<filter id="Adobe_OpacityMaskFilter_36_" filterUnits="userSpaceOnUse" x="7.5" y="-25.5" width="28.6" height="8.8">
										<feColorMatrix  type="matrix" values="1 0 0 0 0  0 1 0 0 0  0 0 1 0 0  0 0 0 1 0"/>
									</filter>
								</defs>
								<mask maskUnits="userSpaceOnUse" x="7.5" y="-25.5" width="28.6" height="8.8" id="mask-82_1_">
									<g class="st80">
										<path id="path-81_1_" class="st1" d="M10.5-23.3c-0.5,0-0.9,0.4-0.9,0.9v2.6c0,0.5,0.4,0.9,0.9,0.9H33
											c0.5,0,0.9-0.4,0.9-0.9v-2.6c0-0.5-0.4-0.9-0.9-0.9H10.5z"/>
									</g>
								</mask>
								<polygon id="Fill-130" class="st81" points="7.5,-16.8 36.1,-16.8 36.1,-25.5 7.5,-25.5 								"/>
							</g>
							<path id="Stroke-133" class="st69" d="M113.2,6.8l0.7,0.7l0.7-0.7 M87.8,6.8l0.7,0.7l0.7-0.7"/>
							<g id="Group-137" transform="translate(58.469116, 20.220107)">
								<g id="Clip-136">
								</g>
								<defs>
									<filter id="Adobe_OpacityMaskFilter_37_" filterUnits="userSpaceOnUse" x="8.2" y="-28.2" width="23.6" height="7.1">
										<feColorMatrix  type="matrix" values="1 0 0 0 0  0 1 0 0 0  0 0 1 0 0  0 0 0 1 0"/>
									</filter>
								</defs>
								<mask maskUnits="userSpaceOnUse" x="8.2" y="-28.2" width="23.6" height="7.1" id="mask-84_1_">
									<g class="st82">
										<path id="path-83_1_" class="st1" d="M17.7-25.8c0,0.1,0.1,0.2,0.3,0.2c0.2,0,0.3-0.1,0.3-0.2c0-0.1-0.1-0.2-0.3-0.2
											C17.8-26,17.7-25.9,17.7-25.8z M15.2-25.8c0,0.1,0.1,0.2,0.3,0.2c0.2,0,0.3-0.1,0.3-0.2c0-0.1-0.1-0.2-0.3-0.2
											C15.3-26,15.2-25.9,15.2-25.8z M25.7-26v1.6c0,0.3,0.1,0.5,0.4,0.5c0.1,0,0.2,0,0.2,0l-0.1-0.3c0,0,0,0-0.1,0
											c0,0-0.1,0-0.1-0.1V-26H25.7z M12.5-26v2.1h0.4v-0.4l0.2-0.2l0.4,0.6h0.5l-0.6-0.9l0.5-0.6h-0.5l-0.5,0.6h0V-26H12.5z
											 M11.1-25.8l-0.6,1.9h0.5l0.1-0.5h0.6l0.1,0.5h0.5l-0.6-1.9H11.1z M11.2-24.8c0.1-0.2,0.1-0.4,0.2-0.6h0
											c0.1,0.2,0.1,0.4,0.2,0.6l0,0.2h-0.4L11.2-24.8z M21.5-25.7l-0.1,0.4l-0.2,0v0.3h0.2v0.6c0,0.3,0.2,0.6,0.5,0.6
											c0.1,0,0.3,0,0.3-0.1l-0.1-0.3c0,0-0.1,0-0.1,0c-0.1,0-0.2-0.1-0.2-0.2V-25h0.4v-0.3h-0.4v-0.4H21.5z M18.8-25.7l-0.1,0.4
											l-0.2,0v0.3h0.2v0.6c0,0.3,0.2,0.6,0.5,0.6c0.2,0,0.3,0,0.3-0.1l-0.1-0.3c0,0-0.1,0-0.1,0c-0.1,0-0.2-0.1-0.2-0.2V-25h0.4
											v-0.3h-0.4v-0.4H18.8z M14.2-25.7l-0.1,0.4l-0.2,0v0.3h0.2v0.6c0,0.3,0.2,0.6,0.5,0.6c0.2,0,0.3,0,0.3-0.1l-0.1-0.3
											c0,0-0.1,0-0.1,0c-0.1,0-0.2-0.1-0.2-0.2V-25H15v-0.3h-0.4v-0.4H14.2z M28.7-25.2L28.7-25.2l0-0.2h-0.4v1.5h0.5v-1
											C28.8-25,28.9-25,29-25c0.1,0,0.2,0.1,0.2,0.3v0.9h0.5v-0.9c0-0.4-0.1-0.6-0.5-0.6C29-25.4,28.8-25.3,28.7-25.2z
											 M26.6-25.2l0.2,0.3C26.9-25,27-25,27.2-25c0.2,0,0.2,0.1,0.2,0.2c-0.6,0.1-0.9,0.2-0.9,0.5c0,0.3,0.2,0.4,0.5,0.4
											c0.2,0,0.3-0.1,0.5-0.2h0l0,0.2h0.4v-0.8c0-0.5-0.2-0.7-0.6-0.7C27-25.4,26.8-25.3,26.6-25.2z M27-24.3
											c0-0.1,0.1-0.2,0.4-0.2v0.3c-0.1,0.1-0.1,0.1-0.3,0.1C27-24.2,27-24.2,27-24.3z M24.3-25.2L24.3-25.2l0-0.1h-0.4v2h0.5
											v-0.4l0-0.2c0.1,0.1,0.2,0.2,0.4,0.2c0.3,0,0.7-0.3,0.7-0.8c0-0.5-0.2-0.8-0.6-0.8C24.6-25.4,24.5-25.3,24.3-25.2z
											 M24.4-24.3v-0.6c0.1-0.1,0.2-0.1,0.3-0.1c0.2,0,0.3,0.1,0.3,0.4c0,0.3-0.1,0.4-0.3,0.4C24.5-24.2,24.5-24.2,24.4-24.3z
											 M22.5-24.9c0,0.2,0.2,0.4,0.4,0.4c0.2,0.1,0.3,0.1,0.3,0.2c0,0.1-0.1,0.1-0.2,0.1c-0.1,0-0.3-0.1-0.4-0.2L22.4-24
											c0.2,0.1,0.4,0.2,0.6,0.2c0.4,0,0.6-0.2,0.6-0.5c0-0.3-0.2-0.4-0.4-0.4c-0.2-0.1-0.3-0.1-0.3-0.2c0-0.1,0.1-0.1,0.2-0.1
											c0.1,0,0.2,0,0.3,0.1l0.2-0.3c-0.1-0.1-0.3-0.2-0.5-0.2C22.7-25.4,22.5-25.2,22.5-24.9z M19.7-24.6c0,0.5,0.3,0.8,0.8,0.8
											c0.2,0,0.4-0.1,0.6-0.2l-0.2-0.3c-0.1,0.1-0.2,0.1-0.3,0.1c-0.2,0-0.4-0.1-0.4-0.3H21c0,0,0-0.1,0-0.2
											c0-0.4-0.2-0.7-0.7-0.7C20-25.4,19.7-25.1,19.7-24.6z M20.4-25c0.2,0,0.3,0.1,0.3,0.3h-0.6C20.1-24.9,20.3-25,20.4-25z
											 M17.8-23.9h0.5v-1.5h-0.5V-23.9z M17.1-25.3l-0.2,0.7c0,0.1-0.1,0.3-0.1,0.5h0c0-0.2-0.1-0.3-0.1-0.5l-0.2-0.7H16
											l0.5,1.5H17l0.5-1.5H17.1z M15.3-23.9h0.5v-1.5h-0.5V-23.9z"/>
									</g>
								</mask>
								<polygon id="Fill-135" class="st83" points="8.2,-21.1 31.8,-21.1 31.8,-28.2 8.2,-28.2 								"/>
							</g>
							<g id="Group-140" transform="translate(55.780881, 18.535098)">
								<g id="Clip-139">
								</g>
								<defs>
									<filter id="Adobe_OpacityMaskFilter_38_" filterUnits="userSpaceOnUse" x="7.6" y="-28.6" width="4.9" height="5">
										<feColorMatrix  type="matrix" values="1 0 0 0 0  0 1 0 0 0  0 0 1 0 0  0 0 0 1 0"/>
									</filter>
								</defs>
								<mask maskUnits="userSpaceOnUse" x="7.6" y="-28.6" width="4.9" height="5" id="mask-86_1_">
									<g class="st84">
										<polygon id="path-85_1_" class="st1" points="9.8,-25.8 10,-25.8 10.3,-25.9 9.9,-26.4 										"/>
									</g>
								</mask>
								<polygon id="Fill-138" class="st85" points="7.6,-23.6 12.5,-23.6 12.5,-28.6 7.6,-28.6 								"/>
							</g>
							<g id="Group-143" transform="translate(56.116910, 19.209101)">
								<g id="Clip-142">
								</g>
								<defs>
									<filter id="Adobe_OpacityMaskFilter_39_" filterUnits="userSpaceOnUse" x="7.6" y="-28.7" width="5" height="7.4">
										<feColorMatrix  type="matrix" values="1 0 0 0 0  0 1 0 0 0  0 0 1 0 0  0 0 0 1 0"/>
									</filter>
								</defs>
								<mask maskUnits="userSpaceOnUse" x="7.6" y="-28.7" width="5" height="7.4" id="mask-88_1_">
									<g class="st86">
										<polygon id="path-87_1_" class="st1" points="9.8,-26.5 10.2,-23.5 10.4,-23.5 9.9,-26.5 										"/>
									</g>
								</mask>
								<polygon id="Fill-141" class="st87" points="7.6,-21.3 12.6,-21.3 12.6,-28.7 7.6,-28.7 								"/>
							</g>
							<g id="Group-146" transform="translate(56.116910, 19.209101)">
								<g id="Clip-145">
								</g>
								<defs>
									<filter id="Adobe_OpacityMaskFilter_40_" filterUnits="userSpaceOnUse" x="7.4" y="-28.7" width="5" height="7.4">
										<feColorMatrix  type="matrix" values="1 0 0 0 0  0 1 0 0 0  0 0 1 0 0  0 0 0 1 0"/>
									</filter>
								</defs>
								<mask maskUnits="userSpaceOnUse" x="7.4" y="-28.7" width="5" height="7.4" id="mask-90_1_">
									<g class="st88">
										<polygon id="path-89_1_" class="st1" points="9.6,-26.4 10.1,-23.5 10.2,-23.5 9.8,-26.5 										"/>
									</g>
								</mask>
								<polygon id="Fill-144" class="st89" points="7.4,-21.3 12.4,-21.3 12.4,-28.7 7.4,-28.7 								"/>
							</g>
							<g id="Group-149" transform="translate(55.780881, 19.209101)">
								<g id="Clip-148">
								</g>
								<defs>
									<filter id="Adobe_OpacityMaskFilter_41_" filterUnits="userSpaceOnUse" x="7.6" y="-28.6" width="5" height="7.4">
										<feColorMatrix  type="matrix" values="1 0 0 0 0  0 1 0 0 0  0 0 1 0 0  0 0 0 1 0"/>
									</filter>
								</defs>
								<mask maskUnits="userSpaceOnUse" x="7.6" y="-28.6" width="5" height="7.4" id="mask-92_1_">
									<g class="st90">
										<polygon id="path-91_1_" class="st1" points="9.8,-26.4 10.2,-23.5 10.4,-23.5 9.9,-26.4 										"/>
									</g>
								</mask>
								<polygon id="Fill-147" class="st91" points="7.6,-21.3 12.6,-21.3 12.6,-28.6 7.6,-28.6 								"/>
							</g>
							<g id="Group-152" transform="translate(56.788969, 20.557109)">
								<g id="Clip-151">
								</g>
								<defs>
									<filter id="Adobe_OpacityMaskFilter_42_" filterUnits="userSpaceOnUse" x="7.8" y="-28.2" width="5.1" height="5">
										<feColorMatrix  type="matrix" values="1 0 0 0 0  0 1 0 0 0  0 0 1 0 0  0 0 0 1 0"/>
									</filter>
								</defs>
								<mask maskUnits="userSpaceOnUse" x="7.8" y="-28.2" width="5.1" height="5" id="mask-94_1_">
									<g class="st92">
										<path id="path-93_1_" class="st1" d="M10.1-25.9L10-25.6c0,0,0,0.1,0.1,0.1l0.5,0.1c0,0,0.1,0,0.1-0.1l0.1-0.3
											c0,0,0-0.1-0.1-0.1L10.1-25.9C10.2-26,10.2-26,10.1-25.9C10.1-26,10.1-26,10.1-25.9z"/>
									</g>
								</mask>
								<polygon id="Fill-150" class="st93" points="7.8,-23.2 12.9,-23.2 12.9,-28.2 7.8,-28.2 								"/>
							</g>
							<g id="Group-155" transform="translate(57.461028, 17.861094)">
								<g id="Clip-154">
								</g>
								<defs>
									<filter id="Adobe_OpacityMaskFilter_43_" filterUnits="userSpaceOnUse" x="7.8" y="-29" width="4.9" height="5.1">
										<feColorMatrix  type="matrix" values="1 0 0 0 0  0 1 0 0 0  0 0 1 0 0  0 0 0 1 0"/>
									</filter>
								</defs>
								<mask maskUnits="userSpaceOnUse" x="7.8" y="-29" width="4.9" height="5.1" id="mask-96_1_">
									<g class="st94">
										<polygon id="path-95_1_" class="st1" points="10,-26.3 10.3,-26.2 10.5,-26.2 10.3,-26.8 										"/>
									</g>
								</mask>
								<polygon id="Fill-153" class="st95" points="7.8,-24 12.7,-24 12.7,-29 7.8,-29 								"/>
							</g>
							<g id="Group-158" transform="translate(57.124999, 18.198096)">
								<g id="Clip-157">
								</g>
								<defs>
									<filter id="Adobe_OpacityMaskFilter_44_" filterUnits="userSpaceOnUse" x="8" y="-28.7" width="5" height="7.5">
										<feColorMatrix  type="matrix" values="1 0 0 0 0  0 1 0 0 0  0 0 1 0 0  0 0 0 1 0"/>
									</filter>
								</defs>
								<mask maskUnits="userSpaceOnUse" x="8" y="-28.7" width="5" height="7.5" id="mask-98_1_">
									<g class="st96">
										<polygon id="path-97_1_" class="st1" points="10.2,-23.5 10.4,-23.4 10.8,-26.5 10.7,-26.5 										"/>
									</g>
								</mask>
								<polygon id="Fill-156" class="st97" points="8,-21.2 13,-21.2 13,-28.7 8,-28.7 								"/>
							</g>
							<g id="Group-161" transform="translate(57.124999, 18.198096)">
								<g id="Clip-160">
								</g>
								<defs>
									<filter id="Adobe_OpacityMaskFilter_45_" filterUnits="userSpaceOnUse" x="7.9" y="-28.7" width="5" height="7.5">
										<feColorMatrix  type="matrix" values="1 0 0 0 0  0 1 0 0 0  0 0 1 0 0  0 0 0 1 0"/>
									</filter>
								</defs>
								<mask maskUnits="userSpaceOnUse" x="7.9" y="-28.7" width="5" height="7.5" id="mask-100_1_">
									<g class="st98">
										<polygon id="path-99_1_" class="st1" points="10.1,-23.5 10.2,-23.5 10.7,-26.5 10.5,-26.5 										"/>
									</g>
								</mask>
								<polygon id="Fill-159" class="st99" points="7.9,-21.3 12.9,-21.3 12.9,-28.7 7.9,-28.7 								"/>
							</g>
							<g id="Group-164" transform="translate(57.124999, 18.198096)">
								<g id="Clip-163">
								</g>
								<defs>
									<filter id="Adobe_OpacityMaskFilter_46_" filterUnits="userSpaceOnUse" x="7.7" y="-28.7" width="5" height="7.5">
										<feColorMatrix  type="matrix" values="1 0 0 0 0  0 1 0 0 0  0 0 1 0 0  0 0 0 1 0"/>
									</filter>
								</defs>
								<mask maskUnits="userSpaceOnUse" x="7.7" y="-28.7" width="5" height="7.5" id="mask-102_1_">
									<g class="st100">
										<polygon id="path-101_1_" class="st1" points="9.9,-23.5 10.1,-23.5 10.5,-26.5 10.3,-26.6 										"/>
									</g>
								</mask>
								<polygon id="Fill-162" class="st101" points="7.7,-21.3 12.7,-21.3 12.7,-28.7 7.7,-28.7 								"/>
							</g>
							<g id="Group-167" transform="translate(56.788969, 20.557109)">
								<g id="Clip-166">
								</g>
								<defs>
									<filter id="Adobe_OpacityMaskFilter_47_" filterUnits="userSpaceOnUse" x="7.9" y="-28.1" width="5.1" height="4.6">
										<feColorMatrix  type="matrix" values="1 0 0 0 0  0 1 0 0 0  0 0 1 0 0  0 0 0 1 0"/>
									</filter>
								</defs>
								<mask maskUnits="userSpaceOnUse" x="7.9" y="-28.1" width="5.1" height="4.6" id="mask-104_1_">
									<g class="st102">
										<polygon id="path-103_1_" class="st1" points="10.1,-25.8 10.7,-25.7 10.7,-25.8 10.1,-25.9 										"/>
									</g>
								</mask>
								<polygon id="Fill-165" class="st103" points="7.9,-23.5 12.9,-23.5 12.9,-28.1 7.9,-28.1 								"/>
							</g>
							<g id="Group-170" transform="translate(56.788969, 18.872100)">
								<g id="Clip-169">
								</g>
								<defs>
									<filter id="Adobe_OpacityMaskFilter_48_" filterUnits="userSpaceOnUse" x="7.7" y="-28.4" width="4.9" height="5.1">
										<feColorMatrix  type="matrix" values="1 0 0 0 0  0 1 0 0 0  0 0 1 0 0  0 0 0 1 0"/>
									</filter>
								</defs>
								<mask maskUnits="userSpaceOnUse" x="7.7" y="-28.4" width="4.9" height="5.1" id="mask-106_1_">
									<g class="st104">
										<polygon id="path-105_1_" class="st1" points="9.9,-25.6 10.1,-25.5 10.4,-25.5 10.1,-26.2 										"/>
									</g>
								</mask>
								<polygon id="Fill-168" class="st105" points="7.7,-23.3 12.5,-23.3 12.5,-28.4 7.7,-28.4 								"/>
							</g>
							<g id="Group-173" transform="translate(56.788969, 19.546103)">
								<g id="Clip-172">
								</g>
								<defs>
									<filter id="Adobe_OpacityMaskFilter_49_" filterUnits="userSpaceOnUse" x="7.9" y="-28.4" width="4.6" height="6">
										<feColorMatrix  type="matrix" values="1 0 0 0 0  0 1 0 0 0  0 0 1 0 0  0 0 0 1 0"/>
									</filter>
								</defs>
								<mask maskUnits="userSpaceOnUse" x="7.9" y="-28.4" width="4.6" height="6" id="mask-108_1_">
									<g class="st106">
										<polygon id="path-107_1_" class="st1" points="10.1,-24.6 10.3,-24.6 10.4,-26.2 10.2,-26.2 										"/>
									</g>
								</mask>
								<polygon id="Fill-171" class="st107" points="7.9,-22.4 12.5,-22.4 12.5,-28.4 7.9,-28.4 								"/>
							</g>
							<g id="Group-176" transform="translate(56.788969, 19.546103)">
								<g id="Clip-175">
								</g>
								<defs>
									<filter id="Adobe_OpacityMaskFilter_50_" filterUnits="userSpaceOnUse" x="7.8" y="-28.4" width="4.6" height="6">
										<feColorMatrix  type="matrix" values="1 0 0 0 0  0 1 0 0 0  0 0 1 0 0  0 0 0 1 0"/>
									</filter>
								</defs>
								<mask maskUnits="userSpaceOnUse" x="7.8" y="-28.4" width="4.6" height="6" id="mask-110_1_">
									<g class="st108">
										<polygon id="path-109_1_" class="st1" points="10,-24.6 10.1,-24.6 10.2,-26.2 10,-26.2 										"/>
									</g>
								</mask>
								<polygon id="Fill-174" class="st109" points="7.8,-22.4 12.4,-22.4 12.4,-28.4 7.8,-28.4 								"/>
							</g>
							<g id="Group-179" transform="translate(56.788969, 19.546103)">
								<g id="Clip-178">
								</g>
								<defs>
									<filter id="Adobe_OpacityMaskFilter_51_" filterUnits="userSpaceOnUse" x="7.6" y="-28.4" width="4.6" height="6">
										<feColorMatrix  type="matrix" values="1 0 0 0 0  0 1 0 0 0  0 0 1 0 0  0 0 0 1 0"/>
									</filter>
								</defs>
								<mask maskUnits="userSpaceOnUse" x="7.6" y="-28.4" width="4.6" height="6" id="mask-112_1_">
									<g class="st110">
										<polygon id="path-111_1_" class="st1" points="9.8,-24.6 10,-24.6 10,-26.2 9.9,-26.2 										"/>
									</g>
								</mask>
								<polygon id="Fill-177" class="st111" points="7.6,-22.4 12.2,-22.4 12.2,-28.4 7.6,-28.4 								"/>
							</g>
							<g id="Group-182" transform="translate(55.780881, 20.220107)">
								<g id="Clip-181">
								</g>
								<defs>
									<filter id="Adobe_OpacityMaskFilter_52_" filterUnits="userSpaceOnUse" x="7.4" y="-28.2" width="6.7" height="6.8">
										<feColorMatrix  type="matrix" values="1 0 0 0 0  0 1 0 0 0  0 0 1 0 0  0 0 0 1 0"/>
									</filter>
								</defs>
								<mask maskUnits="userSpaceOnUse" x="7.4" y="-28.2" width="6.7" height="6.8" id="mask-114_1_">
									<g class="st112">
										<polygon id="path-113_1_" class="st1" points="9.6,-26 9.9,-23.8 11.6,-23.8 11.9,-26 										"/>
									</g>
								</mask>
								<polygon id="Fill-180" class="st113" points="7.4,-21.4 14.1,-21.4 14.1,-28.2 7.4,-28.2 								"/>
							</g>
							<g id="Group-209" transform="translate(18.145588, 25.949137)">
								<polygon id="Fill-183" class="st114" points="-1.7,-12.5 4.5,-12.5 4.5,-13.3 -1.7,-13.3 								"/>
								<polygon id="Fill-185" class="st114" points="23.5,-12.5 29.6,-12.5 29.6,-13.3 23.5,-13.3 								"/>
								<polygon id="Fill-186" class="st114" points="49.4,-12.5 59.2,-12.5 59.2,-13.3 49.4,-13.3 								"/>
								<polygon id="Fill-187" class="st114" points="49.4,-18.2 59.2,-18.2 59.2,-19 49.4,-19 								"/>
								<polygon id="Fill-188" class="st114" points="74.8,-12.5 80.9,-12.5 80.9,-13.3 74.8,-13.3 								"/>
								<polygon id="Fill-189" class="st114" points="100.3,-12.5 106.4,-12.5 106.4,-13.3 100.3,-13.3 								"/>
								<polygon id="Fill-190" class="st114" points="74.8,-18.2 78.1,-18.2 78.1,-19 74.8,-19 								"/>
								<polygon id="Fill-191" class="st115" points="-0.6,-8.6 12,-8.6 12,-9.1 -0.6,-9.1 								"/>
								<polygon id="Fill-192" class="st114" points="-0.6,-6.8 12,-6.8 12,-7.5 -0.6,-7.5 								"/>
								<polygon id="Fill-193" class="st114" points="-0.6,-5.6 13.4,-5.6 13.4,-6 -0.6,-6 								"/>
								<polygon id="Fill-194" class="st114" points="23.6,-23.5 27.2,-23.5 27.2,-24 23.6,-24 								"/>
								<polygon id="Fill-195" class="st1" points="24.1,-19.2 33,-19.2 33,-19.7 24.1,-19.7 								"/>
								<polygon id="Fill-196" class="st114" points="28.7,-23.5 30.7,-23.5 30.7,-24 28.7,-24 								"/>
								<polygon id="Fill-197" class="st114" points="32.2,-23.5 38.2,-23.5 38.2,-24 32.2,-24 								"/>
								<polygon id="Fill-198" class="st114" points="39.7,-23.5 43.2,-23.5 43.2,-24 39.7,-24 								"/>
								<polygon id="Fill-199" class="st114" points="1.5,-2.7 6,-2.7 6,-3.1 1.5,-3.1 								"/>
								<polygon id="Fill-200" class="st114" points="1.5,8.2 6,8.2 6,7.9 1.5,7.9 								"/>
								<polygon id="Fill-201" class="st114" points="1.5,20.7 6,20.7 6,20.4 1.5,20.4 								"/>
								<polygon id="Fill-202" class="st115" points="-0.6,2.2 12,2.2 12,1.7 -0.6,1.7 								"/>
								<polygon id="Fill-203" class="st114" points="-0.6,4 12,4 12,3.3 -0.6,3.3 								"/>
								<polygon id="Fill-204" class="st114" points="-0.6,5.2 13.4,5.2 13.4,4.8 -0.6,4.8 								"/>
								<polygon id="Fill-205" class="st115" points="-1,12.9 11.6,12.9 11.6,12.4 -1,12.4 								"/>
								<polygon id="Fill-206" class="st114" points="-1,16.3 11.6,16.3 11.6,15.6 -1,15.6 								"/>
								<polygon id="Fill-207" class="st114" points="-1,14.6 5.8,14.6 5.8,13.9 -1,13.9 								"/>
								<polygon id="Fill-208" class="st114" points="-1,17.8 13,17.8 13,17.5 -1,17.5 								"/>
							</g>
						</g>
					</g>
					<path class="st116" d="M-10.5,103.9h233"/>
				</g>
			</g>
			<g id="Group-7" transform="translate(251.000000, 37.000000)">
			</g>
		</g>
	</g>
</g>
<path class="st117" d="M291.2,102.3c-7.7,0-14.3,0-14.3,0s-6.6,0-14.3,0c-7.7,0-33,13.7-32.9,28.7s0.1,32.3,0.1,32.3l94.6-0.3
	c0,0-0.1-17.3-0.1-32.3C324.3,115.8,298.9,102.2,291.2,102.3"/>
<path class="st118" d="M314.7,45.9c-0.4,0-0.8,0.1-1.1,0.2c-0.2,0-0.4,0-0.6,0.1c-3.3-20.3-18.4-35.6-36.5-35.5
	c-17.9,0.1-32.7,15-36.2,34.9c-0.1,0.2-0.2,0.4-0.3,0.6c0,0-0.2,0.4-0.4,0.2c-0.3-0.1-0.7-0.2-1.1-0.2c-1.7,0-3.1,1.4-3.1,3.1
	l0,12.5c0,1.7,1.4,3.1,3.1,3.1c0.7,0,1.3-0.2,1.8-0.6c2.5,11.5,8.9,21.2,17.5,27.1c0.8,3.5,1.1,8.5-1.8,12.5c0,0,19.6,14.4,40.6-0.1
	c0,0-3.9-4.1-2.3-11.7c9.2-5.8,16.1-15.9,18.7-28.1c0.5,0.4,1.1,0.6,1.8,0.6c1.7,0,3.1-1.4,3.1-3.1l0-12.5
	C317.8,47.3,316.4,45.9,314.7,45.9"/>
<path class="st119" d="M313.4,36.9C310.9,14.8,296.7,0.6,278,0.6c-19.3,0.1-37.6,16.8-38.8,39.2c-0.5,3.4-0.7,6.9-0.4,10.5
	c2,25.6,11.9,25,20.4,40.4c6.1-1.5,10.3-3.1,17.5-3.1c7.2,0,9.6,0.8,15.7,3c7-14.7,19.7-10.3,21.9-40.5
	C314.6,45.5,314.3,41.1,313.4,36.9"/>
<path class="st1" d="M239.9,114c1.1,1.7,3.3,3.4,5.8,4.6c2.5,1.2,5.3,2.1,8.2,2.7c5.8,1.2,11.9,1.4,17.9,0.8c6-0.6,12-2.1,17.7-4.5
	c5.7-2.3,11-5.7,15.7-9.8c-4.3,4.5-9.4,8.4-15,11.4c-5.6,3-11.7,5.1-17.9,6.4c-6.3,1.2-12.8,1.7-19.3,1c-3.3-0.4-6.5-1-9.8-2.2
	c-3.2-1.2-6.5-2.9-9.2-6.2L239.9,114z"/>
<path id="Stroke-104" class="st120" d="M276.5,122.8C259.8,114.9,274.1,103.8,276.5,122.8"/>
<path id="Stroke-105" class="st120" d="M277.4,122.8C294,114.8,279.7,103.8,277.4,122.8"/>
<path id="Stroke-106" class="st120" d="M276.9,122.4c-0.3,3.7-2.6,9.5-4,11.5"/>
<path id="Stroke-107" class="st120" d="M277.4,122.4c0.4,3.7,2.6,9.5,4,11.5"/>
<g id="Group-10" transform="translate(0.000000, 23.053333)">
	<g transform="translate(39.283834, 51.439648) scale(-1, 1) translate(-39.283834, -51.439648) translate(2.909914, 0.000000)">
		<g id="Group" transform="translate(15.029412, 7.510417)">
			<path id="Fill-1-Copy" class="st118" d="M32.7,16.1c-0.3-0.1-0.5-0.5-0.4-0.8l2.2-8.1c0.3-1,1.2-1.6,2-1.3
				C37.4,6.1,37.9,7,37.6,8l-1.9,7c-0.3,1-1.2,1.6-2,1.3L32.7,16.1z"/>
			<path id="Fill-5-Copy" class="st118" d="M29.2,26.4c1.1,0.8-2,18.8-14.7,18.8C2.3,45.1,1.8,27.6,1.9,26.8
				c0.6-0.3,1.3-0.6,2.1-0.8c-0.9-0.2-2.6-0.3-3.8-1.7C-3.8,20-6.5,8.5-6.5,1.8c0-14,8-25.3,20.4-25.3c12.4,0,22.5,11.4,22.5,25.3
				c0,7.2-2.1,12.4-6,16.2c-1.2,1.2-3.2,4.1-3.2,7.2C28,25.7,28.6,26,29.2,26.4z"/>
		</g>
		<g transform="translate(8.588235, 53.645833)">
			<g id="Mask">
				<path class="st121" d="M35.7-20.3c6.4,3.4,15.8,11.7,15.8,19.4v14.4c0,6.6-5.4,12-12,12h-46V-0.9c0-7.4,8.5-15.4,14.8-19
					c1.2,2,4.2,9.8,13.5,9.8C31.1-10.1,35.5-18.4,35.7-20.3z"/>
			</g>
			<defs>
				<filter id="Adobe_OpacityMaskFilter_53_" filterUnits="userSpaceOnUse">
					<feColorMatrix  type="matrix" values="1 0 0 0 0  0 1 0 0 0  0 0 1 0 0  0 0 0 1 0"/>
				</filter>
			</defs>
			<mask maskUnits="userSpaceOnUse" id="mask-2_4_">
				<g class="st122">
					<path id="path-1_4_" class="st1" d="M35.7-20.3c6.4,3.4,15.8,11.7,15.8,19.4v14.4c0,6.6-5.4,12-12,12h-46V-0.9
						c0-7.4,8.5-15.4,14.8-19c1.2,2,4.2,9.8,13.5,9.8C31.1-10.1,35.5-18.4,35.7-20.3z"/>
				</g>
			</mask>
			<g class="st123">
				<g id="Fill-62" transform="translate(-35.444444, -21.489603)">
					<polygon class="st124" points="-6.5,76.5 128.5,76.5 128.5,-23.5 -6.5,-23.5 					"/>
				</g>
			</g>
			<defs>
				<filter id="Adobe_OpacityMaskFilter_54_" filterUnits="userSpaceOnUse">
					<feColorMatrix  type="matrix" values="1 0 0 0 0  0 1 0 0 0  0 0 1 0 0  0 0 0 1 0"/>
				</filter>
			</defs>
			<mask maskUnits="userSpaceOnUse" id="mask-2_3_">
				<g class="st125">
					<path id="path-1_3_" class="st1" d="M35.7-20.3c6.4,3.4,15.8,11.7,15.8,19.4v14.4c0,6.6-5.4,12-12,12h-46V-0.9
						c0-7.4,8.5-15.4,14.8-19c1.2,2,4.2,9.8,13.5,9.8C31.1-10.1,35.5-18.4,35.7-20.3z"/>
				</g>
			</mask>
			<g class="st126">
				<g id="NAV-Copy-2" transform="translate(33.296296, 19.173913)">
					<g transform="translate(0.000000, -1.083333)">
						<g id="Group-11">
							<g id="Navansatt-dame">
								<g transform="translate(0.000000, 0.812500)">
									<path id="Fill-97" class="st127" d="M11.2-10.3H-5.2c-0.7,0-1.3-0.6-1.3-1.4v-9.2c0-0.8,0.6-1.4,1.3-1.4h16.4
										c0.7,0,1.3,0.6,1.3,1.4v9.2C12.5-10.9,11.9-10.3,11.2-10.3"/>
									<path id="Fill-98" class="st1" d="M7.1-15.7c0,2.3-1.8,4.1-4,4.1c-2.2,0-4-1.8-4-4.1s1.8-4.1,4-4.1
										C5.3-19.7,7.1-17.9,7.1-15.7"/>
									<polygon id="Fill-99" class="st1" points="-2.1,-13.9 -2.9,-13.9 -2,-16 -1.2,-16 									"/>
									<polygon id="Fill-100" class="st1" points="7.7,-13.9 7.2,-13.9 8.1,-16 8.6,-16 									"/>
									<polygon id="Fill-101" class="st1" points="9.1,-13.9 8.9,-13.9 9.7,-16 9.9,-16 									"/>
									<path id="Fill-103_2_" class="st128" d="M1.3-13.9C1.3-13.9,1.4-13.9,1.3-13.9"/>
									<path id="Fill-109" class="st129" d="M4-20.3H2.3c-0.1,0-0.2-0.1-0.2-0.2v-0.3c0-0.1,0.1-0.2,0.2-0.2H4
										c0.1,0,0.2,0.1,0.2,0.2v0.3C4.2-20.4,4.1-20.3,4-20.3"/>
									<polygon id="Fill-110" class="st130" points="2.6,-20.6 3.6,-20.6 3.6,-23.3 2.6,-23.3 									"/>
								</g>
							</g>
						</g>
					</g>
				</g>
			</g>
		</g>
		<g transform="translate(12.882353, 2.145833)">
			<g transform="translate(2.136364, 2.117647)">
				<g>
					<path class="st131" d="M-6.4,7.3c0-5.1,1.4-9,4.2-11.6c0,0-1,4.5-0.3,3.6c3.9-5.3,14-0.6,17.8-7.4C15.8-4.4,11-3.3,11-3.3
						c3.8,0.7,7.1-0.8,8-2.7c0.3,1.5,0.4,2.5-0.9,3.5c4.7-0.9,3.7-4.2,3.7-4.2c0.7,4.3,7.6,2.8,7.6,9.9l0.2,6.2
						c0,0.2,2.3,1.1,4.7,0.7c-0.1-0.5,0.7-1,2.4-1.5c0.2,0.2,0.4-1.5,0.5-5c0.3-16.3-8.8-27.3-21.4-27.3c-12,0-22.2,8.4-22.2,22.8
						C-6.6,0.6-6.4,7.4-6.4,7.3z"/>
				</g>
				<defs>
					<filter id="Adobe_OpacityMaskFilter_55_" filterUnits="userSpaceOnUse">
						<feColorMatrix  type="matrix" values="1 0 0 0 0  0 1 0 0 0  0 0 1 0 0  0 0 0 1 0"/>
					</filter>
				</defs>
				<mask maskUnits="userSpaceOnUse" id="mask-4_2_">
					<g class="st132">
						<path id="path-3_2_" class="st1" d="M-6.4,7.3c0-5.1,1.4-9,4.2-11.6c0,0-1,4.5-0.3,3.6c3.9-5.3,14-0.6,17.8-7.4
							C15.8-4.4,11-3.3,11-3.3c3.8,0.7,7.1-0.8,8-2.7c0.3,1.5,0.4,2.5-0.9,3.5c4.7-0.9,3.7-4.2,3.7-4.2c0.7,4.3,7.6,2.8,7.6,9.9
							l0.2,6.2c0,0.2,2.3,1.1,4.7,0.7c-0.1-0.5,0.7-1,2.4-1.5c0.2,0.2,0.4-1.5,0.5-5c0.3-16.3-8.8-27.3-21.4-27.3
							c-12,0-22.2,8.4-22.2,22.8C-6.6,0.6-6.4,7.4-6.4,7.3z"/>
					</g>
				</mask>
				<g class="st133">
					<g transform="translate(-14.954545, -30.705882)">
						<rect x="-6.5" y="60.5" class="st134" width="74" height="-84"/>
					</g>
				</g>
			</g>
		</g>
		<g transform="translate(8.588235, 27.895833)">
			<g id="Group-2-Copy" transform="translate(9.794118, 1.050000)">
				<path id="Stroke-223" class="st135" d="M7.6-7.8c0,0.1-0.1,0.2-0.2,0.4C7.2-7,7-6.7,6.7-6.4C5.5-5.3,4-4.8,1.8-5.1
					C0.7-5.2-0.1-5.8-0.6-6.6C-0.8-6.9-1-7.3-1.1-7.6C-1.2-7.8-1.2-8-1.2-8.1c0-0.3-0.3-0.5-0.6-0.5c-0.3,0-0.5,0.3-0.5,0.6
					C-2.2-7.4-2-6.7-1.5-6c0.7,1,1.7,1.8,3.2,1.9c2.5,0.3,4.5-0.3,5.8-1.6c0.7-0.6,1.1-1.3,1.2-1.7c0.1-0.3,0-0.6-0.3-0.7
					S7.7-8,7.6-7.8z"/>
				<path id="Fill-224" class="st136" d="M-2-17.6c1.2,0.4,2-1.7,2-3.2c0-0.3-0.1-1.6-0.8-1.8C-1.5-22.7-2-22.1-2-22
					C-2.9-20.8-3.3-18-2-17.6"/>
				<path id="Fill-225" class="st136" d="M8-17.4c1.5,0.2,2.1-2,1.7-3.5c-0.1-0.3-0.4-1.6-1.3-1.6c-0.9-0.1-1.3,0.6-1.4,0.7
					C6.3-20.4,6.4-17.6,8-17.4"/>
				<path id="Stroke-65-Copy" class="st137" d="M-0.4-17.1c-0.1,0.1-0.3,0.2-0.4,0.3c-0.6,0.3-1.2,0.4-1.8,0.3c-0.1,0-0.1,0-0.1,0
					c-0.9-0.1-1.5,0-1.7,0.2c-0.9,1-0.6,2.1,0.9,3c0.8,0.5,1.8,0.6,2.4,0.4c0.3-0.1,0.6,0,0.7,0.3c0.1,0.3,0,0.6-0.3,0.7
					c-0.9,0.4-2.4,0.2-3.4-0.5c-2-1.2-2.4-3-1.2-4.5c0.5-0.6,1.5-0.8,2.7-0.6c0.1,0,0.1,0,0.2,0c0.3,0.1,0.7,0,1-0.2
					c0.1,0,0.2-0.1,0.3-0.2c0.2-0.2,0.6-0.2,0.8,0S-0.1-17.3-0.4-17.1z"/>
			</g>
		</g>
	</g>
	<g transform="translate(49.468532, 51.439648)">
		<rect id="Rectangle" x="8.2" y="19.8" class="st138" width="71.7" height="1.7"/>
		<path id="Rectangle-4" class="st139" d="M7.5,20.6h73c0.6,0,1,0.4,1,1v1.9c0,1.6-1.3,2.9-2.9,2.9H9.4c-1.6,0-2.9-1.3-2.9-2.9v-1.9
			C6.5,21.1,6.9,20.6,7.5,20.6z"/>
		<path id="Rectangle-5" class="st139" d="M9.5-23.5h69c1.7,0,3,1.3,3,3v37.3c0,1.7-1.3,3-3,3h-69c-1.7,0-3-1.3-3-3v-37.3
			C6.5-22.2,7.8-23.5,9.5-23.5z"/>
		<polygon id="Rectangle-6" class="st138" points="8.2,23.2 9.9,23.2 9.9,24 8.2,24 		"/>
		<polygon id="Rectangle-6-Copy" class="st138" points="10.7,23.2 12.4,23.2 12.4,24 10.7,24 		"/>
		<g transform="translate(25.280899, 14.516129)">
			<g id="Page-1-Copy">
				<path id="Fill-1" class="st140" d="M18.1-8.5c-4.3,0-7.8-3.4-7.8-7.5c0-4.1,3.5-7.5,7.8-7.5c4.3,0,7.9,3.4,7.9,7.5
					C26-11.9,22.5-8.5,18.1-8.5z"/>
				<polygon id="Fill-3" class="st140" points="6.5,-12.8 8.1,-16.6 9.6,-16.6 8,-12.8 				"/>
				<polygon id="Fill-5" class="st140" points="26.3,-12.8 27.9,-16.6 28.7,-16.6 27.1,-12.8 				"/>
				<g id="Group-9" transform="translate(22.862454, 6.917929)">
					<g id="Clip-8">
					</g>
					<defs>
						<filter id="Adobe_OpacityMaskFilter_56_" filterUnits="userSpaceOnUse" x="6.6" y="-23.5" width="2" height="3.8">
							<feColorMatrix  type="matrix" values="1 0 0 0 0  0 1 0 0 0  0 0 1 0 0  0 0 0 1 0"/>
						</filter>
					</defs>
					<mask maskUnits="userSpaceOnUse" x="6.6" y="-23.5" width="2" height="3.8" id="mask-6_2_">
						<g class="st141">
							<polygon id="path-5_2_" class="st1" points="8.6,-19.7 8.6,-23.5 6.6,-23.5 6.6,-19.7 							"/>
						</g>
					</mask>
					<polygon id="Fill-7" class="st142" points="6.6,-19.7 8.1,-23.5 8.6,-23.5 7,-19.7 					"/>
				</g>
				<path id="Fill-10" class="st143" d="M24.8-16.6h-1.4c0,0-0.1,0-0.1,0.1l-0.8,2.3l-0.8-2.3c0-0.1-0.1-0.1-0.1-0.1H19
					c-0.1,0-0.1,0-0.1,0.1v0.8c0-0.6-0.7-0.9-1.1-0.9c-0.9,0-1.5,0.6-1.7,1.4c0-0.6-0.1-0.8-0.2-1c-0.1-0.1-0.2-0.2-0.3-0.3
					c-0.2-0.1-0.4-0.2-0.9-0.2h-0.5c0,0-0.1,0-0.1,0.1l-0.5,1.2v-1.1c0-0.1,0-0.1-0.1-0.1h-1.2c0,0-0.1,0-0.1,0.1l-0.5,1.2
					c0,0-0.1,0.1,0.1,0.1h0.5v2.3c0,0.1,0,0.1,0.1,0.1h1.2c0.1,0,0.1,0,0.1-0.1v-2.3H14c0.3,0,0.3,0,0.4,0.1c0.1,0,0.1,0.1,0.2,0.1
					c0.1,0.1,0.1,0.3,0.1,0.7v1.4c0,0.1,0,0.1,0.1,0.1H16c0,0,0.1,0,0.2-0.1l0.3-0.6c0.3,0.5,0.9,0.7,1.6,0.7h0.2c0,0,0.1,0,0.2-0.1
					l0.5-1.1v1.1c0,0.1,0,0.1,0.1,0.1h1.2c0,0,0.1,0,0.2-0.1c0,0,0.5-1.1,0.5-1.2h0c0-0.1-0.1-0.1-0.1-0.1h-0.4v-2l1.4,3.2
					c0.1,0.1,0.2,0.1,0.2,0.1h1.4c0,0,0.1,0,0.2-0.1l1.5-3.5C25-16.6,24.8-16.6,24.8-16.6L24.8-16.6z M18.9-14.1H18
					c-0.3,0-0.6-0.2-0.6-0.6c0-0.3,0.3-0.6,0.6-0.6h0.2c0.3,0,0.6,0.3,0.6,0.6V-14.1z"/>
			</g>
		</g>
	</g>
	<path id="Stroke-12-Copy-3" class="st116" d="M6.5,77.6h137.7"/>
</g>
<path id="Fill-102" class="st144" d="M27.6,81.2C27.5,81.2,27.5,81.2,27.6,81.2L27.5,80c0,0,0,0,0,0l-0.2,0c0,0-0.1,0,0-0.1l0.2-0.6
	c0,0,0-0.1,0.1-0.1l0.6,0c0,0,0.1,0,0.1,0.1l0,1.9c0,0,0,0.1-0.1,0.1L27.6,81.2"/>
<path id="Fill-103" class="st144" d="M28.9,81.2C28.9,81.2,28.8,81.2,28.9,81.2l-0.1-1.1c0-0.1-0.1-0.2-0.2-0.2l-0.5,0l0.1-0.1
	l0.2-0.6c0,0,0-0.1,0.1-0.1l1,0c0,0,0.1,0,0.1,0.1l0,1.9c0,0,0,0.1-0.1,0.1L28.9,81.2"/>
<path id="Fill-104" class="st144" d="M31.6,79.1C31.7,79.1,31.7,79.1,31.6,79.1l0.1,1.3c0,0,0,0,0,0l0.2,0c0,0,0.1,0,0,0.1l-0.2,0.6
	c0,0,0,0.1-0.1,0.1l-0.6,0c0,0-0.1,0-0.1-0.1l0-1.9c0,0,0-0.1,0.1-0.1L31.6,79.1"/>
<path id="Fill-105" class="st144" d="M29.6,80.4l0.2,0c0,0,0.1,0,0,0.1l-0.2,0.6c0,0,0,0.1-0.1,0.1l-0.4,0L29.6,80.4"/>
<path id="Fill-106" class="st144" d="M33.3,79.1C33.2,79.1,33.2,79.1,33.3,79.1l-0.7,2.1l0.7,0c0,0,0,0,0,0l0.8-2c0,0,0-0.1,0-0.1
	L33.3,79.1"/>
<path id="Fill-107" class="st144" d="M32.4,79.1C32.4,79.1,32.4,79.1,32.4,79.1l0.8,2.1l-0.6,0c0,0-0.1,0-0.1-0.1l-0.7-1.8
	c0-0.1-0.4-0.1-0.3-0.1L32.4,79.1"/>
<path id="Fill-108" class="st144" d="M30.4,79.1c-0.4,0-0.9,0.4-0.9,1.1c0,0.7,0.7,1,0.9,1l0.2,0c0,0,0,0,0.1,0l0.3-0.7l-0.5,0
	c-0.1,0-0.2-0.1-0.2-0.3c0-0.1,0.1-0.3,0.4-0.3c0.3,0,0.4,0.4,0.4,0.4s0.1,0,0-0.4C31,79.4,30.7,79.1,30.4,79.1z"/>
</svg>
