<?xml version="1.0" encoding="UTF-8"?>
<svg width="311px" height="182px" viewBox="0 0 311 182" version="1.1" xmlns="http://www.w3.org/2000/svg" xmlns:xlink="http://www.w3.org/1999/xlink">
    <!-- Generator: Sketch 46.2 (44496) - http://www.bohemiancoding.com/sketch -->
    <title>Group 107</title>
    <desc>Created with Sketch.</desc>
    <defs>
        <polygon id="path-1" points="0 181.512195 310.729714 181.512195 310.729714 0.60702439 0 0.60702439"></polygon>
    </defs>
    <g id="Illustrasjoner" stroke="none" stroke-width="1" fill="none" fill-rule="evenodd">
        <g id="Group-107" transform="translate(0.000000, -1.000000)">
            <g id="Group-106">
                <g id="Navkopp" transform="translate(30.000000, 149.000000)">
                    <path d="M29.858,15.43 C31.438,15.43 32.718,14.149 32.718,12.569 C32.718,10.989 31.438,9.708 29.858,9.708 C29.035,9.708 28.299,10.06 27.777,10.616 C27.296,11.128 26.997,11.811 26.997,12.569 C26.997,13.158 27.175,13.704 27.48,14.159 C27.993,14.925 28.866,15.43 29.858,15.43 Z M29.602,4.717 C33.885,4.717 37.357,8.19 37.357,12.473 C37.357,16.757 33.885,20.229 29.602,20.229 C28.691,20.229 27.821,20.064 27.008,19.775 L25.886,33.148 L2.781,33.148 L0,7.10542736e-15 L28.669,7.10542736e-15 L28.262,4.841 C28.698,4.764 29.144,4.717 29.602,4.717 Z" id="Fill-388" fill="#C52C35"></path>
                    <path d="M19.216,14.108 C19.216,17.481 16.482,20.215 13.109,20.215 C9.736,20.215 7,17.481 7,14.108 C7,10.735 9.736,8 13.109,8 C16.482,8 19.216,10.735 19.216,14.108" id="Fill-390" fill="#FFFFFF"></path>
                    <polygon id="Fill-392" fill="#FFFFFF" points="5.191 17.12 4 17.12 5.272 14 6.462 14"></polygon>
                    <polygon id="Fill-394" fill="#FFFFFF" points="20.738 17.12 20 17.12 21.272 14 22.009 14"></polygon>
                    <polygon id="Fill-396" fill="#FFFFFF" points="22.312 17.12 22 17.12 23.273 14 23.584 14"></polygon>
                    <path d="M8.50007288,17.092 L9.43907288,17.092 C9.48707288,17.092 9.52507288,17.053 9.52507288,17.006 L9.52507288,14.087 C9.52507288,14.039 9.48707288,14 9.43907288,14 L8.48907288,14 C8.42807288,14 8.37907288,14.05 8.37907288,14.111 L8.00607288,15.031 C7.98507288,15.081 8.02107288,15.134 8.07507288,15.134 L8.33907288,15.134 C8.38007288,15.134 8.41307288,15.168 8.41307288,15.209 L8.41307288,17.006 C8.41307288,17.053 8.45207288,17.092 8.50007288,17.092" id="Fill-398" fill="#C52C35"></path>
                    <path d="M10.137,17.092 L11.076,17.092 C11.124,17.092 11.163,17.053 11.163,17.006 L11.163,14.087 C11.163,14.039 11.124,14 11.076,14 L9.614,14 C9.553,14 9.503,14.05 9.503,14.111 L9.13,15.031 L9,15.134 L9.747,15.134 C9.914,15.134 10.051,15.27 10.051,15.438 L10.051,17.006 C10.051,17.053 10.089,17.092 10.137,17.092" id="Fill-400" fill="#C52C35"></path>
                    <path d="M15.026,14 L14.087,14 C14.039,14 14,14.039 14,14.086 L14,17.005 C14,17.053 14.039,17.092 14.087,17.092 L15.036,17.092 C15.097,17.092 15.147,17.042 15.147,16.981 L15.52,16.061 C15.54,16.011 15.504,15.958 15.451,15.958 L15.187,15.958 C15.146,15.958 15.112,15.924 15.112,15.883 L15.112,14.086 C15.112,14.039 15.074,14 15.026,14" id="Fill-402" fill="#C52C35"></path>
                    <path d="M11,17.134 L11.616,17.134 C11.678,17.134 11.728,17.084 11.728,17.023 L12.101,16.103 C12.12,16.053 12.084,16 12.031,16 L11.768,16 L11,17.134 Z" id="Fill-404" fill="#C52C35"></path>
                    <path d="M17.077,14 L18.196,14 C18.249,14 18.286,14.054 18.265,14.104 L17.083,17.044 C17.071,17.073 17.044,17.092 17.013,17.092 L16,17.092 L17.005,14.052 C17.015,14.021 17.044,14 17.077,14" id="Fill-406" fill="#C52C35"></path>
                    <path d="M15.5969778,14 L14.0139778,14 C13.9049778,14 14.4679778,14.11 14.5089778,14.212 L15.6279778,16.995 C15.6519778,17.053 15.7079778,17.092 15.7719778,17.092 L16.7319778,17.092 L15.7429778,14.106 C15.7229778,14.043 15.6639778,14 15.5969778,14" id="Fill-408" fill="#C52C35"></path>
                    <path d="M12.396,14 C12.92,14 13.365,14.36 13.365,14.989 C13.365,15.618 13.289,15.652 13.289,15.652 C13.289,15.652 13.197,15.058 12.741,15.058 C12.285,15.058 12.181,15.321 12.181,15.514 C12.181,15.742 12.41,15.958 12.541,15.958 L13.365,15.958 L12.877,17.035 C12.862,17.069 12.828,17.092 12.79,17.092 L12.417,17.092 C12.023,17.092 11,16.578 11,15.583 C11,14.588 11.76,14 12.396,14" id="Fill-410" fill="#C52C35"></path>
                </g>
                <g id="Group-2">
                    <g id="Group-5">
                        <g id="Group-4">
                            <g id="Page-1">
                                <polygon id="Fill-1" fill="#2F3237" points="4.01291429 84.1145366 119.442514 84.1145366 119.442514 2.82236585 4.01291429 2.82236585"></polygon>
                                <polygon id="Fill-2" fill="#DEDEDA" points="9.24708571 81.1493415 114.208343 81.1493415 114.208343 13.466122 9.24708571 13.466122"></polygon>
                                <polygon id="Fill-3" fill="#2F3237" points="0 86.390878 123.455429 86.390878 123.455429 83.2352439 0 83.2352439"></polygon>
                                <polygon id="Fill-4" fill="#2F3237" points="0 8.80631707 123.455429 8.80631707 123.455429 1.48780488 0 1.48780488"></polygon>
                                <polygon id="Fill-5" fill="#DEDEDA" points="9.24708571 5.94080488 114.208343 5.94080488 114.208343 3.61685366 9.24708571 3.61685366"></polygon>
                                <polygon id="Fill-6" fill="#2F3237" points="60.4061714 94.2940976 63.0507429 94.2940976 63.0507429 84.8123171 60.4061714 84.8123171"></polygon>
                                <g id="Group-48" transform="translate(0.000000, 0.880780)">
                                    <path d="M61.7274171,95.5085927 C61.0425029,95.5085927 60.4348457,95.7897878 60.1035314,96.261422 L54.2290171,104.587178 C53.7966743,105.197178 53.7417029,105.98869 54.0849029,106.652251 C54.4295886,107.3173 55.1055886,107.73091 55.8529029,107.73091 L67.6019314,107.73091 C68.3492457,107.73091 69.0267314,107.3173 69.3699314,106.652251 C69.7131314,105.98869 69.65816,105.197178 69.2273029,104.588666 L63.3527886,96.2629098 C63.0199886,95.7897878 62.4123314,95.5085927 61.7274171,95.5085927 Z M67.6019314,110.830007 L55.8529029,110.830007 C53.9452457,110.830007 52.2143886,109.775154 51.3363314,108.077568 C50.4582743,106.379983 50.5979314,104.353593 51.7018171,102.794373 L57.5748457,94.4730805 C58.4841029,93.180178 60.0366743,92.4080073 61.7274171,92.4080073 C63.41816,92.4080073 64.9722171,93.180178 65.8814743,94.4745683 L71.7545029,102.795861 C72.8569029,104.353593 72.99656,106.378495 72.1185029,108.077568 C71.2404457,109.775154 69.5095886,110.830007 67.6019314,110.830007 Z" id="Fill-7" fill="#2F3237"></path>
                                    <path d="M274.17936,119.636027 C274.17936,120.451344 274.839017,121.110441 275.653189,121.110441 C276.465874,121.110441 277.125531,120.451344 277.125531,119.636027 C277.125531,119.390539 277.052731,119.170344 276.947246,118.968002 L274.359131,118.968002 C274.253646,119.170344 274.17936,119.390539 274.17936,119.636027" id="Fill-9" fill="#838688"></path>
                                    <path d="M289.666297,123.201402 L301.256354,123.201402 C303.36904,123.201402 305.080583,124.915354 305.080583,127.031012 L305.080583,181.511451 L310.729269,181.511451 L310.729269,123.531695 C310.729269,121.009866 308.689383,118.96711 306.171097,118.96711 L289.55784,118.96711 C289.627669,119.294427 289.666297,119.635134 289.666297,119.981793 L289.666297,123.201402 Z" id="Fill-11" fill="#838688"></path>
                                    <path d="M246.224309,181.512046 L246.224309,135.818583 L259.533337,123.201998 L261.638594,123.201998 L261.638594,119.982388 C261.638594,119.634241 261.677223,119.295022 261.747051,118.967705 L245.133794,118.967705 C242.616994,118.967705 240.575623,121.010461 240.575623,123.530802 L240.575623,181.512046 L246.224309,181.512046 Z" id="Fill-13" fill="#838688"></path>
                                    <mask id="mask-2" fill="white">
                                        <use xlink:href="#path-1"></use>
                                    </mask>
                                    <g id="Clip-16"></g>
                                    <path d="M265.746743,155.65861 L294.166971,155.65861 L294.166971,152.480659 L265.746743,152.480659 L265.746743,155.65861 Z M265.746743,162.850659 L294.166971,162.850659 L294.166971,159.672707 L265.746743,159.672707 L265.746743,162.850659 Z M265.746743,170.042707 L294.166971,170.042707 L294.166971,166.864756 L265.746743,166.864756 L265.746743,170.042707 Z M265.746743,177.234756 L294.166971,177.234756 L294.166971,174.056805 L265.746743,174.056805 L265.746743,177.234756 Z M261.332686,152.480659 L261.332686,155.65861 L257.979429,155.65861 L257.979429,152.480659 L258.272114,152.480659 L257.553029,151.657902 L258.272114,152.480659 L260.982057,152.480659 L262.747086,150.199854 L260.982057,152.480659 L261.332686,152.480659 Z M257.979429,162.850659 L261.332686,162.850659 L261.332686,159.672707 L257.979429,159.672707 L257.979429,162.850659 Z M257.979429,170.042707 L261.332686,170.042707 L261.332686,166.864756 L257.979429,166.864756 L257.979429,170.042707 Z M257.979429,177.234756 L261.332686,177.234756 L261.332686,174.056805 L257.979429,174.056805 L257.979429,177.234756 Z M305.081029,127.031756 C305.081029,124.916098 303.368,123.202146 301.255314,123.202146 L289.666743,123.202146 L289.666743,125.886146 L261.638743,125.886146 L261.638743,123.202146 L259.533486,123.202146 L259.533486,131.99061 C259.533486,134.10478 257.821943,135.818732 255.710743,135.818732 L246.224457,135.818732 L246.224457,181.512195 L305.081029,181.512195 L305.081029,127.031756 Z" id="Fill-15" fill="#FFFFFF" mask="url(#mask-2)"></path>
                                    <path d="M259.53408,131.990312 L259.53408,123.201849 L246.225051,135.818434 L255.709851,135.818434 C257.822537,135.818434 259.53408,134.104483 259.53408,131.990312" id="Fill-17" fill="#BBBCBC" mask="url(#mask-2)"></path>
                                    <polygon id="Fill-18" fill="#C0C0BE" mask="url(#mask-2)" points="265.748229 155.65861 294.168457 155.65861 294.168457 152.480659 265.748229 152.480659"></polygon>
                                    <polygon id="Fill-19" fill="#C0C0BE" mask="url(#mask-2)" points="265.748229 162.850659 294.168457 162.850659 294.168457 159.672707 265.748229 159.672707"></polygon>
                                    <polygon id="Fill-20" fill="#C0C0BE" mask="url(#mask-2)" points="265.748229 170.042707 294.168457 170.042707 294.168457 166.864756 265.748229 166.864756"></polygon>
                                    <polygon id="Fill-21" fill="#C0C0BE" mask="url(#mask-2)" points="265.748229 177.234756 294.168457 177.234756 294.168457 174.056805 265.748229 174.056805"></polygon>
                                    <polygon id="Fill-22" fill="#C0C0BE" mask="url(#mask-2)" points="259.708206 154.124237 260.981463 152.4817 258.273006 152.4817"></polygon>
                                    <polygon id="Fill-23" fill="#C0C0BE" mask="url(#mask-2)" points="258.27256 152.480956 257.979874 152.480956 257.979874 155.658907 261.333131 155.658907 261.333131 152.480956 260.981017 152.480956 259.70776 154.123493"></polygon>
                                    <polygon id="Fill-24" fill="#C0C0BE" mask="url(#mask-2)" points="257.979429 162.850659 261.332686 162.850659 261.332686 159.672707 257.979429 159.672707"></polygon>
                                    <polygon id="Fill-25" fill="#C0C0BE" mask="url(#mask-2)" points="257.979429 170.042707 261.332686 170.042707 261.332686 166.864756 257.979429 166.864756"></polygon>
                                    <polygon id="Fill-26" fill="#C0C0BE" mask="url(#mask-2)" points="257.979429 177.234756 261.332686 177.234756 261.332686 174.056805 257.979429 174.056805"></polygon>
                                    <path d="M275.652743,118.159827 C276.221771,118.159827 276.701657,118.494583 276.9468,118.967705 L289.557543,118.967705 C289.091029,116.744924 287.123943,115.07412 284.764629,115.07412 L279.274914,115.07412 L279.274914,114.060924 C279.274914,112.056851 277.652514,110.433656 275.652743,110.433656 C273.652971,110.433656 272.030571,112.056851 272.030571,114.060924 L272.030571,115.07412 L266.540857,115.07412 C264.181543,115.07412 262.214457,116.744924 261.746457,118.967705 L274.358686,118.967705 C274.603829,118.494583 275.083714,118.159827 275.652743,118.159827" id="Fill-27" fill="#4C4F50" mask="url(#mask-2)"></path>
                                    <path d="M261.639337,123.201402 L289.665851,123.201402 L289.665851,119.981793 C289.665851,119.635134 289.627223,119.294427 289.55888,118.96711 L276.946651,118.96711 C277.052137,119.169451 277.126423,119.389646 277.126423,119.636622 C277.126423,120.450451 276.46528,121.111037 275.652594,121.111037 C274.838423,121.111037 274.178766,120.450451 274.178766,119.636622 C274.178766,119.389646 274.253051,119.169451 274.358537,118.96711 L261.746309,118.96711 C261.677966,119.294427 261.639337,119.635134 261.639337,119.981793 L261.639337,123.201402 Z" id="Fill-28" fill="#4C4F50" mask="url(#mask-2)"></path>
                                    <polygon id="Fill-29" fill="#4C4F50" mask="url(#mask-2)" points="261.640229 125.887634 289.666743 125.887634 289.666743 123.202146 261.640229 123.202146"></polygon>
                                    <polygon id="Fill-30" fill="#85C556" mask="url(#mask-2)" points="259.625451 156.175771 256.529223 152.628844 258.304651 151.074088 259.514023 152.46221 261.677223 149.6696 263.54328 151.118722"></polygon>
                                    <path d="M86.4629257,107.065117 L86.4629257,156.488507 C86.4629257,156.488507 86.3500114,143.438971 117.63024,143.438971 C148.908983,143.438971 116.73584,107.065117 116.73584,107.065117 L86.4629257,107.065117 Z" id="Fill-31" fill="#2F3237" mask="url(#mask-2)"></path>
                                    <path d="M148.856389,107.065117 L148.856389,156.488507 C148.856389,156.488507 148.969303,143.438971 117.69056,143.438971 C86.4103314,143.438971 118.583474,107.065117 118.583474,107.065117 L148.856389,107.065117 Z" id="Fill-32" fill="#2F3237" mask="url(#mask-2)"></path>
                                    <path d="M148.795474,107.065117 C148.795474,126.446751 134.841646,142.159459 117.629646,142.159459 C100.41616,142.159459 86.4623314,126.446751 86.4623314,107.065117 C86.4623314,87.6849707 100.41616,71.9722634 117.629646,71.9722634 C134.841646,71.9722634 148.795474,87.6849707 148.795474,107.065117" id="Fill-33" fill="#2F3237" mask="url(#mask-2)"></path>
                                    <path d="M127.930103,131.464373 L117.715817,131.464373 L107.501531,131.464373 C101.992503,131.464373 83.8816457,142.889227 83.8816457,153.525544 L83.8816457,181.512641 L151.548503,181.512641 L151.548503,153.525544 C151.548503,142.889227 133.437646,131.464373 127.930103,131.464373" id="Fill-34" fill="#8E9738" mask="url(#mask-2)"></path>
                                    <path d="M127.326606,130.391963 C126.146949,130.391963 117.71552,134.002866 117.71552,134.002866 C117.71552,134.002866 107.790949,131.173061 107.02432,131.022793 C106.257691,130.872524 100.733806,133.804988 100.733806,133.804988 C102.118491,135.840305 106.052663,145.316134 117.71552,145.316134 C129.378377,145.316134 133.322949,135.841793 134.70912,133.804988 C134.70912,133.804988 128.507749,130.391963 127.326606,130.391963" id="Fill-35" fill="#E7E6E2" mask="url(#mask-2)"></path>
                                    <path d="M92.02128,100.930898 C92.02128,100.930898 91.88608,101.203166 91.7122514,101.081166 C91.4685943,100.987434 91.2085943,100.930898 90.9322514,100.930898 C89.7377371,100.930898 88.7705371,101.899459 88.7705371,103.095654 L88.7705371,111.840971 C88.7705371,113.037166 89.7377371,114.007215 90.9322514,114.007215 C91.4106514,114.007215 91.8489371,113.846532 92.2069943,113.581702 C95.1160229,126.903507 105.432823,136.752776 117.715223,136.752776 C129.997623,136.752776 140.312937,126.903507 143.223451,113.581702 C143.581509,113.846532 144.019794,114.007215 144.498194,114.007215 C145.692709,114.007215 146.661394,113.037166 146.661394,111.840971 L146.661394,103.095654 C146.661394,101.899459 145.692709,100.930898 144.498194,100.930898 C144.223337,100.930898 143.960366,100.987434 143.718194,101.081166 C116.02448,104.299288 92.02128,100.930898 92.02128,100.930898" id="Fill-36" fill="#E7E6E2" mask="url(#mask-2)"></path>
                                    <polyline id="Fill-37" fill="#FFFFFF" mask="url(#mask-2)" points="134.709417 132.662949 105.944503 180.369412 138.508389 180.369412 138.508389 134.948217"></polyline>
                                    <polyline id="Fill-38" fill="#FFFFFF" mask="url(#mask-2)" points="100.733211 132.583054 115.156526 179.450395 110.524069 179.450395"></polyline>
                                </g>
                            </g>
                            <g id="Page-1" transform="translate(107.000000, 108.000000)">
                                <path d="M2.00930139,5.99506546 C0.171671854,6.12891678 -0.342661223,3.50960612 0.211040558,1.79901084 C0.315177132,1.47482049 0.923487117,0 2.00041168,0 C3.07606629,0 3.55103066,0.805563897 3.61706849,0.94432719 C4.40825246,2.6119427 4.0209152,5.84770621 2.00930139,5.99506546" id="Fill-1" fill="#635E59"></path>
                                <path d="M20.9906986,5.99506546 C22.8283281,6.12891678 23.3426612,3.50960612 22.7889594,1.79901084 C22.6848229,1.47482049 22.0765129,0 20.9995883,0 C19.9239337,0 19.4489693,0.805563897 19.3829315,0.94432719 C18.5917475,2.6119427 18.9790848,5.84770621 20.9906986,5.99506546" id="Fill-3" fill="#635E59"></path>
                                <path d="M11.802744,8.0739575 C12.8423263,7.9283117 13.8566703,7.9633543 14.3313929,8.49556379 C15.4911582,9.79433016 15.1582514,11.2934964 13.2064806,12.4006235 C12.2293934,12.9536396 10.8472897,13.1803214 10,12.838656" id="Stroke-5" stroke="#D1BFA3" stroke-width="0.506" stroke-linecap="round"></path>
                                <path d="M19,17 C19,17 16.8968865,22.1880261 11.0454447,21.9947297 C5.19400302,21.8014333 3,17 3,17" id="Stroke-7" stroke="#D19E9C" stroke-width="1.013" stroke-linecap="round"></path>
                            </g>
                        </g>
                    </g>
                </g>
                <g id="Navansatt-dame" transform="translate(158.000000, 74.500000)">
                    <path d="M72.1778087,35.6797957 L72.1155913,35.6797957 C72.1155913,16.2351 58.0967217,0.471795652 40.8026348,0.471795652 C23.5097217,0.471795652 9.49085217,16.2351 9.49085217,35.6797957 L9.49085217,35.6974043 C9.48498261,52.3035783 0.927156522,61.797013 0.927156522,61.797013 C0.927156522,61.797013 9.37815652,72.1708826 40.8038087,72.1708826 C40.8143739,72.1708826 40.8249391,72.1697087 40.8343304,72.1697087 C40.8460696,72.1697087 40.854287,72.1708826 40.8648522,72.1708826 C72.2916783,72.1708826 80.7426783,61.797013 80.7426783,61.797013 C80.7426783,61.797013 72.1778087,52.2965348 72.1778087,35.6797957" id="Fill-94" fill="#E57F68"></path>
                    <path d="M50.4001957,60.9822 L40.8351522,60.9822 L31.2701087,60.9822 C26.1131087,60.9822 9.15358696,71.6648087 9.15358696,81.6113739 L9.15358696,107.780243 L72.5155435,107.780243 L72.5155435,81.6113739 C72.5155435,71.6648087 55.5571957,60.9822 50.4001957,60.9822" id="Fill-95" fill="#624B7F"></path>
                    <path d="M68.4284478,31.5768522 C68.2605783,30.6036783 67.4200565,29.8629391 66.3999261,29.8629391 C66.1369696,29.8629391 65.8869261,29.9169391 65.6568391,30.0061565 C65.6263174,30.0096783 65.5993174,30.0120261 65.5687957,30.0143739 C57.9184043,19.5970696 42.9991435,29.2078957 31.6133609,19.2601565 C30.154187,17.7035478 29.3934913,16.6200261 29.1939261,16.6200261 C29.1939261,16.6200261 18.1497522,26.1944609 16.3114043,29.8629391 C16.3114043,29.8629391 16.1811,30.1247217 16.0144043,30.0061565 C15.7831435,29.9169391 15.5342739,29.8629391 15.2713174,29.8629391 C14.250013,29.8629391 13.4071435,30.6048522 13.2404478,31.5768522 C13.198187,31.7412 13.1688391,31.9114174 13.1688391,32.0886783 L13.1688391,40.4352 C13.1688391,41.5762435 14.0938826,42.5024609 15.2361,42.5024609 C15.6939261,42.5024609 16.113013,42.3486783 16.4557957,42.096287 C18.2612739,50.3559391 23.0649261,57.1963304 29.4193174,60.9904174 C27.6514043,61.7276348 24.9267522,63.1703739 24.9267522,63.1703739 C26.2239261,65.0744609 29.9076652,73.9351565 40.8285783,73.9351565 C51.7494913,73.9351565 55.4437957,65.0756348 56.7421435,63.1703739 C56.7421435,63.1703739 54.3649696,61.8661565 52.3599261,60.9258522 C58.6603174,57.1176783 63.418187,50.3078087 65.2142739,42.096287 C65.5570565,42.3486783 65.9761435,42.5024609 66.4327957,42.5024609 C67.575013,42.5024609 68.5000565,41.5762435 68.5000565,40.4352 L68.5000565,32.0886783 C68.5000565,31.9114174 68.4707087,31.7412 68.4284478,31.5768522" id="Fill-96" fill="#E7E5E2"></path>
                    <path d="M65.2953913,98.685587 L45.6722609,98.685587 C44.7965217,98.685587 44.0874783,97.9765435 44.0874783,97.1008043 L44.0874783,86.5508478 C44.0874783,85.6751087 44.7965217,84.9648913 45.6722609,84.9648913 L65.2953913,84.9648913 C66.1711304,84.9648913 66.8813478,85.6751087 66.8813478,86.5508478 L66.8813478,97.1008043 C66.8813478,97.9765435 66.1711304,98.685587 65.2953913,98.685587" id="Fill-97" fill="#D2242A"></path>
                    <path d="M60.6524478,92.0602565 C60.6524478,94.8213 58.4149696,97.0623 55.6539261,97.0623 C52.888187,97.0623 50.6495348,94.8213 50.6495348,92.0602565 C50.6495348,89.299213 52.888187,87.058213 55.6539261,87.058213 C58.4149696,87.058213 60.6524478,89.299213 60.6524478,92.0602565" id="Fill-98" fill="#FFFFFF"></path>
                    <polygon id="Fill-99" fill="#FFFFFF" points="49.1741609 94.2651 48.1986391 94.2651 49.2410739 91.7094913 50.2189435 91.7094913"></polygon>
                    <polygon id="Fill-100" fill="#FFFFFF" points="61.4686696 94.2651 60.8641043 94.2651 61.9065391 91.7094913 62.5111043 91.7094913"></polygon>
                    <polygon id="Fill-101" fill="#FFFFFF" points="63.1372696 94.2651 62.8813565 94.2651 63.9214435 91.7094913 64.1773565 91.7094913"></polygon>
                    <path d="M51.8544391,94.2527739 L52.6221783,94.2527739 C52.6620913,94.2527739 52.692613,94.2222522 52.692613,94.183513 L52.692613,91.7922522 C52.692613,91.753513 52.6620913,91.7229913 52.6221783,91.7229913 L51.8462217,91.7229913 C51.7945696,91.7229913 51.7570043,91.7629043 51.7570043,91.8133826 L51.451787,92.5658609 C51.4330043,92.6046 51.4635261,92.6515565 51.504613,92.6515565 L51.7241348,92.6515565 C51.7570043,92.6515565 51.7851783,92.6762087 51.7851783,92.7126 L51.7851783,94.183513 C51.7851783,94.2222522 51.8157,94.2527739 51.8544391,94.2527739" id="Fill-102" fill="#C52D35"></path>
                    <path d="M53.5224522,94.2527739 L54.2925391,94.2527739 C54.3324522,94.2527739 54.3664957,94.2222522 54.3664957,94.183513 L54.3664957,91.7922522 C54.3664957,91.753513 54.3324522,91.7229913 54.2925391,91.7229913 L53.0951478,91.7229913 C53.0446696,91.7229913 53.0047565,91.7629043 53.0047565,91.8133826 L52.6983652,92.5658609 L52.592713,92.6515565 L53.2054957,92.6515565 C53.3416696,92.6515565 53.4531913,92.7595565 53.4531913,92.8980783 L53.4531913,94.183513 C53.4531913,94.2222522 53.483713,94.2527739 53.5224522,94.2527739" id="Fill-103" fill="#C52D35"></path>
                    <path d="M56.9661261,91.7232261 L56.1960391,91.7232261 C56.1573,91.7232261 56.1256043,91.7537478 56.1256043,91.792487 L56.1256043,94.1837478 C56.1256043,94.222487 56.1573,94.2530087 56.1960391,94.2530087 L56.9743435,94.2530087 C57.0259957,94.2530087 57.0635609,94.2130957 57.0635609,94.1626174 L57.3687783,93.4101391 C57.3875609,93.3690522 57.358213,93.3244435 57.3112565,93.3244435 L57.0987783,93.3244435 C57.0635609,93.3244435 57.0389087,93.2962696 57.0389087,93.2645739 L57.0389087,91.792487 C57.0389087,91.7537478 57.0036913,91.7232261 56.9661261,91.7232261" id="Fill-104" fill="#C52D35"></path>
                    <path d="M53.7986739,94.2527739 L54.3046304,94.2527739 C54.3539348,94.2527739 54.3938478,94.211687 54.3938478,94.1635565 L54.6990652,93.4087304 C54.7166739,93.3688174 54.6873261,93.3230348 54.6427174,93.3230348 L54.4290652,93.3230348 L53.7986739,94.2527739 Z" id="Fill-105" fill="#C52D35"></path>
                    <path d="M59.026813,91.7232261 L59.9424652,91.7232261 C59.9870739,91.7232261 60.0187696,91.765487 59.999987,91.8065739 L59.0303348,94.2142696 C59.0232913,94.2389217 59.000987,94.2530087 58.973987,94.2530087 L58.1452043,94.2530087 L58.9669435,91.764313 C58.9763348,91.7396609 59.000987,91.7232261 59.026813,91.7232261" id="Fill-106" fill="#C52D35"></path>
                    <path d="M57.8787261,91.7232261 L56.5839,91.7232261 C56.4923348,91.7232261 56.9560304,91.8124435 56.9889,91.8957913 L57.9045522,94.1731826 C57.9233348,94.2236609 57.9702913,94.2530087 58.0219435,94.2530087 L58.8072913,94.2530087 L57.9996391,91.8089217 C57.9820304,91.7549217 57.9327261,91.7232261 57.8787261,91.7232261" id="Fill-107" fill="#C52D35"></path>
                    <path d="M55.3933174,91.7232261 C55.8217957,91.7232261 56.1880565,92.0178783 56.1880565,92.5344 C56.1880565,93.0438783 56.1234913,93.0744 56.1234913,93.0744 C56.1234913,93.0744 56.0507087,92.5860522 55.6738826,92.5860522 C55.3041,92.5860522 55.2195783,92.8020522 55.2195783,92.9628783 C55.2195783,93.1495304 55.4085783,93.3244435 55.5142304,93.3244435 L56.1880565,93.3244435 L55.7901,94.2060522 C55.776013,94.2354 55.7478391,94.2530087 55.7161435,94.2530087 L55.4097522,94.2530087 C55.0892739,94.2530087 54.2522739,93.8327478 54.2522739,93.0192261 C54.2522739,92.2045304 54.8744478,91.7232261 55.3933174,91.7232261" id="Fill-108" fill="#C52D35"></path>
                    <path d="M56.7741913,86.3947174 L54.6505826,86.3947174 C54.4932783,86.3947174 54.3664957,86.2679348 54.3664957,86.1106304 L54.3664957,85.752587 C54.3664957,85.5964565 54.4932783,85.4685 54.6505826,85.4685 L56.7741913,85.4685 C56.9314957,85.4685 57.0582783,85.5964565 57.0582783,85.752587 L57.0582783,86.1106304 C57.0582783,86.2679348 56.9314957,86.3947174 56.7741913,86.3947174" id="Fill-109" fill="#5A1F57"></path>
                    <polygon id="Fill-110" fill="#835184" points="55.0976087 86.0208261 56.3278696 86.0208261 56.3278696 82.3394348 55.0976087 82.3394348"></polygon>
                </g>
                <g id="Page-1" transform="translate(188.000000, 108.000000)">
                    <path d="M2.00930139,5.99506546 C0.171671854,6.12891678 -0.342661223,3.50960612 0.211040558,1.79901084 C0.315177132,1.47482049 0.923487117,0 2.00041168,0 C3.07606629,0 3.55103066,0.805563897 3.61706849,0.94432719 C4.40825246,2.6119427 4.0209152,5.84770621 2.00930139,5.99506546" id="Fill-1" fill="#635E59"></path>
                    <path d="M20.9906986,5.99506546 C22.8283281,6.12891678 23.3426612,3.50960612 22.7889594,1.79901084 C22.6848229,1.47482049 22.0765129,0 20.9995883,0 C19.9239337,0 19.4489693,0.805563897 19.3829315,0.94432719 C18.5917475,2.6119427 18.9790848,5.84770621 20.9906986,5.99506546" id="Fill-3" fill="#635E59"></path>
                    <path d="M11.802744,8.0739575 C12.8423263,7.9283117 13.8566703,7.9633543 14.3313929,8.49556379 C15.4911582,9.79433016 15.1582514,11.2934964 13.2064806,12.4006235 C12.2293934,12.9536396 10.8472897,13.1803214 10,12.838656" id="Stroke-5" stroke="#D1BFA3" stroke-width="0.506" stroke-linecap="round"></path>
                    <path d="M19,17 C19,17 16.8968865,22.1880261 11.0454447,21.9947297 C5.19400302,21.8014333 3,17 3,17" id="Stroke-7" stroke="#D19E9C" stroke-width="1.013" stroke-linecap="round"></path>
                </g>
            </g>
        </g>
    </g>
</svg>