<?xml version="1.0" encoding="utf-8"?>
<!-- Generator: Adobe Illustrator 24.1.0, SVG Export Plug-In . SVG Version: 6.00 Build 0)  -->
<svg version="1.1" id="Layer_1" xmlns="http://www.w3.org/2000/svg" xmlns:xlink="http://www.w3.org/1999/xlink" x="0px" y="0px"
	 viewBox="0 0 36 48" style="enable-background:new 0 0 36 48;" xml:space="preserve">
<style type="text/css">
	.st0{clip-path:url(#SVGID_2_);fill:#1C6937;}
	.st1{clip-path:url(#SVGID_4_);fill:#FFFFFF;}
	.st2{clip-path:url(#SVGID_6_);fill:#669DB4;}
	.st3{clip-path:url(#SVGID_8_);fill:#FFFFFF;}
	.st4{clip-path:url(#SVGID_10_);fill:#A13A28;}
	.st5{clip-path:url(#SVGID_12_);fill:#FFFFFF;}
	.st6{clip-path:url(#SVGID_14_);fill:#E4E4DB;}
	.st7{clip-path:url(#SVGID_16_);fill:#B7B1A9;}
	.st8{clip-path:url(#SVGID_18_);fill:#3E3832;}
	.st9{clip-path:url(#SVGID_20_);fill:#3E3832;}
	.st10{clip-path:url(#SVGID_22_);fill:#3E3832;}
	.st11{clip-path:url(#SVGID_24_);fill:#3E3832;}
	.st12{clip-path:url(#SVGID_26_);fill:#3E3832;}
	.st13{clip-path:url(#SVGID_28_);fill:#3E3832;}
	.st14{clip-path:url(#SVGID_30_);fill:#FFA733;}
	.st15{clip-path:url(#SVGID_32_);fill:#3E3832;}
	.st16{clip-path:url(#SVGID_34_);fill:#3E3832;}
</style>
<g>
	<g>
		<defs>
			<path id="SVGID_1_" d="M-145,3.7c-11,0-20,9.1-20,20.3c0,11.2,9,20.3,20,20.3c11,0,20-9.1,20-20.3C-125,12.8-134,3.7-145,3.7z"/>
		</defs>
		<clipPath id="SVGID_2_">
			<use xlink:href="#SVGID_1_"  style="overflow:visible;"/>
		</clipPath>
		<rect x="-170" y="-1.3" class="st0" width="50" height="50.6"/>
	</g>
	<g>
		<defs>
			<path id="SVGID_3_" d="M-148.9,28.1l10.8-9.9c0.7-0.6,1.7-0.6,2.3,0.1c0.6,0.6,0.6,1.7-0.1,2.3l-11.9,10.9
				c-0.3,0.3-0.7,0.4-1.1,0.4c-0.4,0-0.8-0.2-1.1-0.5l-4-3.9c-0.6-0.6-0.6-1.6,0-2.3c0.6-0.6,1.7-0.6,2.3,0L-148.9,28.1z"/>
		</defs>
		<clipPath id="SVGID_4_">
			<use xlink:href="#SVGID_3_"  style="overflow:visible;"/>
		</clipPath>
		<rect x="-159.6" y="12.8" class="st1" width="29.1" height="24.1"/>
	</g>
</g>
<g>
	<g>
		<defs>
			<ellipse id="SVGID_5_" cx="-37" cy="24" rx="19.6" ry="19.7"/>
		</defs>
		<clipPath id="SVGID_6_">
			<use xlink:href="#SVGID_5_"  style="overflow:visible;"/>
		</clipPath>
		<rect x="-61.6" y="-0.7" class="st2" width="49.1" height="49.5"/>
	</g>
	<g>
		<defs>
			<path id="SVGID_7_" d="M-37,10c1.3,0,2.4,1.1,2.4,2.5c0,1.4-1.1,2.5-2.4,2.5c-1.4,0-2.4-1.1-2.4-2.5C-39.4,11.1-38.4,10-37,10z
				 M-42.7,36.3c-0.9,0-1.6-0.7-1.6-1.6c0-0.9,0.7-1.6,1.6-1.6l4.1,0V21.5l-2.4,0c-0.9,0-1.6-0.7-1.6-1.6c0-0.9,0.7-1.6,1.6-1.6h4.1
				c0.9,0,1.6,0.7,1.6,1.6l0,13.1l4.1,0c0.9,0,1.6,0.7,1.6,1.6c0,0.9-0.7,1.6-1.6,1.6H-42.7z"/>
		</defs>
		<clipPath id="SVGID_8_">
			<use xlink:href="#SVGID_7_"  style="overflow:visible;"/>
		</clipPath>
		<rect x="-49.3" y="5" class="st3" width="24.7" height="36.3"/>
	</g>
</g>
<g>
	<g>
		<defs>
			<path id="SVGID_9_" d="M-92,2.8c-11.6,0-21,9.5-21,21.2c0,5.7,2.2,11,6.1,15c4,4,9.2,6.2,14.8,6.2h0c11.6,0,21-9.5,21-21.2
				C-71,12.3-80.4,2.8-92,2.8z"/>
		</defs>
		<clipPath id="SVGID_10_">
			<use xlink:href="#SVGID_9_"  style="overflow:visible;"/>
		</clipPath>
		<rect x="-118" y="-2.2" class="st4" width="52" height="52.5"/>
	</g>
	<g>
		<defs>
			<path id="SVGID_11_" d="M-92,21.6l5.9-6c0.7-0.7,1.7-0.7,2.4,0c0.7,0.7,0.7,1.7,0,2.4l-5.9,6l5.9,6c0.7,0.7,0.7,1.7,0,2.4
				c-0.7,0.7-1.7,0.7-2.4,0l-5.9-6l-5.9,6c-0.7,0.7-1.7,0.7-2.4,0c-0.7-0.7-0.7-1.7,0-2.4l5.9-6l-5.9-6c-0.7-0.7-0.7-1.7,0-2.4
				c0.7-0.7,1.7-0.7,2.4,0L-92,21.6z"/>
		</defs>
		<clipPath id="SVGID_12_">
			<use xlink:href="#SVGID_11_"  style="overflow:visible;"/>
		</clipPath>
		<rect x="-105.8" y="10.2" class="st5" width="27.5" height="27.7"/>
	</g>
</g>
<g>
	<g>
		<defs>
			<path id="SVGID_13_" d="M1.7,1.1H21l10.4,10.7v27.6c0,0.8-0.7,1.5-1.5,1.5H1.7c-0.8,0-1.5-0.7-1.5-1.5V2.6
				C0.2,1.8,0.9,1.1,1.7,1.1z"/>
		</defs>
		<clipPath id="SVGID_14_">
			<use xlink:href="#SVGID_13_"  style="overflow:visible;"/>
		</clipPath>
		<rect x="-4.8" y="-3.9" class="st6" width="41.1" height="49.9"/>
	</g>
	<g>
		<defs>
			<path id="SVGID_15_" d="M21,1.1l10.4,10.7h-8.9c-0.8,0-1.5-0.7-1.5-1.5V1.1z"/>
		</defs>
		<clipPath id="SVGID_16_">
			<use xlink:href="#SVGID_15_"  style="overflow:visible;"/>
		</clipPath>
		<rect x="16" y="-3.9" class="st7" width="20.4" height="20.7"/>
	</g>
	<g>
		<defs>
			<path id="SVGID_17_" d="M23.3,16.8h-6.7c-0.5,0-0.8,0.4-0.8,0.9c0,0.5,0.4,0.9,0.8,0.9h6.7c0.5,0,0.8-0.4,0.8-0.9
				C24.1,17.2,23.7,16.8,23.3,16.8z"/>
		</defs>
		<clipPath id="SVGID_18_">
			<use xlink:href="#SVGID_17_"  style="overflow:visible;"/>
		</clipPath>
		<rect x="10.8" y="11.8" class="st8" width="18.3" height="11.7"/>
	</g>
	<g>
		<defs>
			<path id="SVGID_19_" d="M23.3,23.7h-6.7c-0.5,0-0.8,0.4-0.8,0.9c0,0.5,0.4,0.9,0.8,0.9h6.7c0.5,0,0.8-0.4,0.8-0.9
				C24.1,24.1,23.7,23.7,23.3,23.7z"/>
		</defs>
		<clipPath id="SVGID_20_">
			<use xlink:href="#SVGID_19_"  style="overflow:visible;"/>
		</clipPath>
		<rect x="10.8" y="18.7" class="st9" width="18.3" height="11.7"/>
	</g>
	<g>
		<defs>
			<path id="SVGID_21_" d="M23.3,30.6h-6.7c-0.5,0-0.8,0.4-0.8,0.9c0,0.5,0.4,0.9,0.8,0.9h6.7c0.5,0,0.8-0.4,0.8-0.9
				C24.1,31,23.7,30.6,23.3,30.6z"/>
		</defs>
		<clipPath id="SVGID_22_">
			<use xlink:href="#SVGID_21_"  style="overflow:visible;"/>
		</clipPath>
		<rect x="10.8" y="25.6" class="st10" width="18.3" height="11.7"/>
	</g>
	<g>
		<defs>
			<path id="SVGID_23_" d="M12.7,13.6l-3.6,3.7l-1.9-2C6.9,15,6.3,15,6,15.3c-0.3,0.3-0.3,0.9,0,1.2l2.5,2.6
				c0.2,0.2,0.4,0.3,0.6,0.3c0.2,0,0.4-0.1,0.6-0.3l4.2-4.3c0.3-0.3,0.3-0.9,0-1.2C13.5,13.3,13,13.3,12.7,13.6z"/>
		</defs>
		<clipPath id="SVGID_24_">
			<use xlink:href="#SVGID_23_"  style="overflow:visible;"/>
		</clipPath>
		<rect x="0.8" y="8.3" class="st11" width="18.3" height="16"/>
	</g>
	<g>
		<defs>
			<path id="SVGID_25_" d="M12.7,20.5l-3.6,3.7l-1.9-2c-0.3-0.3-0.9-0.3-1.2,0c-0.3,0.3-0.3,0.9,0,1.2L8.5,26
				c0.2,0.2,0.4,0.3,0.6,0.3c0.2,0,0.4-0.1,0.6-0.3l4.2-4.3c0.3-0.3,0.3-0.9,0-1.2C13.5,20.2,13,20.2,12.7,20.5z"/>
		</defs>
		<clipPath id="SVGID_26_">
			<use xlink:href="#SVGID_25_"  style="overflow:visible;"/>
		</clipPath>
		<rect x="0.8" y="15.2" class="st12" width="18.3" height="16"/>
	</g>
	<g>
		<defs>
			<path id="SVGID_27_" d="M12.7,27.4l-3.6,3.7l-1.9-2c-0.3-0.3-0.9-0.3-1.2,0c-0.3,0.3-0.3,0.9,0,1.2l2.5,2.6
				c0.2,0.2,0.4,0.3,0.6,0.3c0.2,0,0.4-0.1,0.6-0.3l4.2-4.3c0.3-0.3,0.3-0.9,0-1.2C13.5,27.1,13,27.1,12.7,27.4z"/>
		</defs>
		<clipPath id="SVGID_28_">
			<use xlink:href="#SVGID_27_"  style="overflow:visible;"/>
		</clipPath>
		<rect x="0.8" y="22.1" class="st13" width="18.3" height="16"/>
	</g>
	<g>
		<defs>
			<path id="SVGID_29_" d="M25.9,26.6l-0.2,0c-2.7,0-5.2,1.1-7.1,3.1c-1.9,2-2.9,4.5-2.9,7.2c0.1,5.6,4.4,10,9.8,10l0.2,0
				c5.6-0.1,10.1-4.7,10-10.3C35.7,31,31.4,26.6,25.9,26.6z"/>
		</defs>
		<clipPath id="SVGID_30_">
			<use xlink:href="#SVGID_29_"  style="overflow:visible;"/>
		</clipPath>
		<rect x="10.8" y="21.6" class="st14" width="30" height="30.3"/>
	</g>
	<g>
		<defs>
			<path id="SVGID_31_" d="M25.8,42.7C25.8,42.7,25.8,42.7,25.8,42.7c-0.7,0-1.3-0.6-1.3-1.2c0-0.7,0.5-1.3,1.2-1.3c0,0,0,0,0,0
				c0.7,0,1.2,0.6,1.2,1.2C27,42.1,26.5,42.7,25.8,42.7z"/>
		</defs>
		<clipPath id="SVGID_32_">
			<use xlink:href="#SVGID_31_"  style="overflow:visible;"/>
		</clipPath>
		<rect x="19.5" y="35.2" class="st15" width="12.5" height="12.5"/>
	</g>
	<g>
		<defs>
			<path id="SVGID_33_" d="M25.8,30.9c0.5,0,0.8,0.4,0.8,0.8v5.9c0,0.5-0.4,0.8-0.8,0.8s-0.8-0.4-0.8-0.8v-5.9
				C24.9,31.2,25.3,30.9,25.8,30.9z"/>
		</defs>
		<clipPath id="SVGID_34_">
			<use xlink:href="#SVGID_33_"  style="overflow:visible;"/>
		</clipPath>
		<rect x="19.9" y="25.9" class="st16" width="11.7" height="17.6"/>
	</g>
</g>
</svg>
