<?xml version="1.0" encoding="UTF-8"?>
<svg width="311px" height="182px" viewBox="0 0 311 182" version="1.1" xmlns="http://www.w3.org/2000/svg" xmlns:xlink="http://www.w3.org/1999/xlink">
    <!-- Generator: Sketch 46.2 (44496) - http://www.bohemiancoding.com/sketch -->
    <title>Group 2</title>
    <desc>Created with Sketch.</desc>
    <defs>
        <polygon id="path-1" points="0 181.512195 310.729714 181.512195 310.729714 0.60702439 0 0.60702439"></polygon>
    </defs>
    <g id="Landingssiden" stroke="none" stroke-width="1" fill="none" fill-rule="evenodd">
        <g id="Aktivitetsvarsel" transform="translate(-369.000000, -462.000000)">
            <g id="Group-2" transform="translate(369.000000, 461.000000)">
                <g id="Group-5">
                    <g id="Group-4">
                        <g id="Page-1">
                            <polygon id="Fill-1" fill="#2F3237" points="4.01291429 84.1145366 119.442514 84.1145366 119.442514 2.82236585 4.01291429 2.82236585"></polygon>
                            <polygon id="Fill-2" fill="#DEDEDA" points="9.24708571 81.1493415 114.208343 81.1493415 114.208343 13.466122 9.24708571 13.466122"></polygon>
                            <polygon id="Fill-3" fill="#2F3237" points="0 86.390878 123.455429 86.390878 123.455429 83.2352439 0 83.2352439"></polygon>
                            <polygon id="Fill-4" fill="#2F3237" points="0 8.80631707 123.455429 8.80631707 123.455429 1.48780488 0 1.48780488"></polygon>
                            <polygon id="Fill-5" fill="#DEDEDA" points="9.24708571 5.94080488 114.208343 5.94080488 114.208343 3.61685366 9.24708571 3.61685366"></polygon>
                            <polygon id="Fill-6" fill="#2F3237" points="60.4061714 94.2940976 63.0507429 94.2940976 63.0507429 84.8123171 60.4061714 84.8123171"></polygon>
                            <g id="Group-48" transform="translate(0.000000, 0.880780)">
                                <path d="M61.7274171,95.5085927 C61.0425029,95.5085927 60.4348457,95.7897878 60.1035314,96.261422 L54.2290171,104.587178 C53.7966743,105.197178 53.7417029,105.98869 54.0849029,106.652251 C54.4295886,107.3173 55.1055886,107.73091 55.8529029,107.73091 L67.6019314,107.73091 C68.3492457,107.73091 69.0267314,107.3173 69.3699314,106.652251 C69.7131314,105.98869 69.65816,105.197178 69.2273029,104.588666 L63.3527886,96.2629098 C63.0199886,95.7897878 62.4123314,95.5085927 61.7274171,95.5085927 Z M67.6019314,110.830007 L55.8529029,110.830007 C53.9452457,110.830007 52.2143886,109.775154 51.3363314,108.077568 C50.4582743,106.379983 50.5979314,104.353593 51.7018171,102.794373 L57.5748457,94.4730805 C58.4841029,93.180178 60.0366743,92.4080073 61.7274171,92.4080073 C63.41816,92.4080073 64.9722171,93.180178 65.8814743,94.4745683 L71.7545029,102.795861 C72.8569029,104.353593 72.99656,106.378495 72.1185029,108.077568 C71.2404457,109.775154 69.5095886,110.830007 67.6019314,110.830007 Z" id="Fill-7" fill="#2F3237"></path>
                                <path d="M274.17936,119.636027 C274.17936,120.451344 274.839017,121.110441 275.653189,121.110441 C276.465874,121.110441 277.125531,120.451344 277.125531,119.636027 C277.125531,119.390539 277.052731,119.170344 276.947246,118.968002 L274.359131,118.968002 C274.253646,119.170344 274.17936,119.390539 274.17936,119.636027" id="Fill-9" fill="#838688"></path>
                                <path d="M289.666297,123.201402 L301.256354,123.201402 C303.36904,123.201402 305.080583,124.915354 305.080583,127.031012 L305.080583,181.511451 L310.729269,181.511451 L310.729269,123.531695 C310.729269,121.009866 308.689383,118.96711 306.171097,118.96711 L289.55784,118.96711 C289.627669,119.294427 289.666297,119.635134 289.666297,119.981793 L289.666297,123.201402 Z" id="Fill-11" fill="#838688"></path>
                                <path d="M246.224309,181.512046 L246.224309,135.818583 L259.533337,123.201998 L261.638594,123.201998 L261.638594,119.982388 C261.638594,119.634241 261.677223,119.295022 261.747051,118.967705 L245.133794,118.967705 C242.616994,118.967705 240.575623,121.010461 240.575623,123.530802 L240.575623,181.512046 L246.224309,181.512046 Z" id="Fill-13" fill="#838688"></path>
                                <mask id="mask-2" fill="white">
                                    <use xlink:href="#path-1"></use>
                                </mask>
                                <g id="Clip-16"></g>
                                <path d="M265.746743,155.65861 L294.166971,155.65861 L294.166971,152.480659 L265.746743,152.480659 L265.746743,155.65861 Z M265.746743,162.850659 L294.166971,162.850659 L294.166971,159.672707 L265.746743,159.672707 L265.746743,162.850659 Z M265.746743,170.042707 L294.166971,170.042707 L294.166971,166.864756 L265.746743,166.864756 L265.746743,170.042707 Z M265.746743,177.234756 L294.166971,177.234756 L294.166971,174.056805 L265.746743,174.056805 L265.746743,177.234756 Z M261.332686,152.480659 L261.332686,155.65861 L257.979429,155.65861 L257.979429,152.480659 L258.272114,152.480659 L257.553029,151.657902 L258.272114,152.480659 L260.982057,152.480659 L262.747086,150.199854 L260.982057,152.480659 L261.332686,152.480659 Z M257.979429,162.850659 L261.332686,162.850659 L261.332686,159.672707 L257.979429,159.672707 L257.979429,162.850659 Z M257.979429,170.042707 L261.332686,170.042707 L261.332686,166.864756 L257.979429,166.864756 L257.979429,170.042707 Z M257.979429,177.234756 L261.332686,177.234756 L261.332686,174.056805 L257.979429,174.056805 L257.979429,177.234756 Z M305.081029,127.031756 C305.081029,124.916098 303.368,123.202146 301.255314,123.202146 L289.666743,123.202146 L289.666743,125.886146 L261.638743,125.886146 L261.638743,123.202146 L259.533486,123.202146 L259.533486,131.99061 C259.533486,134.10478 257.821943,135.818732 255.710743,135.818732 L246.224457,135.818732 L246.224457,181.512195 L305.081029,181.512195 L305.081029,127.031756 Z" id="Fill-15" fill="#FFFFFF" mask="url(#mask-2)"></path>
                                <path d="M259.53408,131.990312 L259.53408,123.201849 L246.225051,135.818434 L255.709851,135.818434 C257.822537,135.818434 259.53408,134.104483 259.53408,131.990312" id="Fill-17" fill="#BBBCBC" mask="url(#mask-2)"></path>
                                <polygon id="Fill-18" fill="#C0C0BE" mask="url(#mask-2)" points="265.748229 155.65861 294.168457 155.65861 294.168457 152.480659 265.748229 152.480659"></polygon>
                                <polygon id="Fill-19" fill="#C0C0BE" mask="url(#mask-2)" points="265.748229 162.850659 294.168457 162.850659 294.168457 159.672707 265.748229 159.672707"></polygon>
                                <polygon id="Fill-20" fill="#C0C0BE" mask="url(#mask-2)" points="265.748229 170.042707 294.168457 170.042707 294.168457 166.864756 265.748229 166.864756"></polygon>
                                <polygon id="Fill-21" fill="#C0C0BE" mask="url(#mask-2)" points="265.748229 177.234756 294.168457 177.234756 294.168457 174.056805 265.748229 174.056805"></polygon>
                                <polygon id="Fill-22" fill="#C0C0BE" mask="url(#mask-2)" points="259.708206 154.124237 260.981463 152.4817 258.273006 152.4817"></polygon>
                                <polygon id="Fill-23" fill="#C0C0BE" mask="url(#mask-2)" points="258.27256 152.480956 257.979874 152.480956 257.979874 155.658907 261.333131 155.658907 261.333131 152.480956 260.981017 152.480956 259.70776 154.123493"></polygon>
                                <polygon id="Fill-24" fill="#C0C0BE" mask="url(#mask-2)" points="257.979429 162.850659 261.332686 162.850659 261.332686 159.672707 257.979429 159.672707"></polygon>
                                <polygon id="Fill-25" fill="#C0C0BE" mask="url(#mask-2)" points="257.979429 170.042707 261.332686 170.042707 261.332686 166.864756 257.979429 166.864756"></polygon>
                                <polygon id="Fill-26" fill="#C0C0BE" mask="url(#mask-2)" points="257.979429 177.234756 261.332686 177.234756 261.332686 174.056805 257.979429 174.056805"></polygon>
                                <path d="M275.652743,118.159827 C276.221771,118.159827 276.701657,118.494583 276.9468,118.967705 L289.557543,118.967705 C289.091029,116.744924 287.123943,115.07412 284.764629,115.07412 L279.274914,115.07412 L279.274914,114.060924 C279.274914,112.056851 277.652514,110.433656 275.652743,110.433656 C273.652971,110.433656 272.030571,112.056851 272.030571,114.060924 L272.030571,115.07412 L266.540857,115.07412 C264.181543,115.07412 262.214457,116.744924 261.746457,118.967705 L274.358686,118.967705 C274.603829,118.494583 275.083714,118.159827 275.652743,118.159827" id="Fill-27" fill="#4C4F50" mask="url(#mask-2)"></path>
                                <path d="M261.639337,123.201402 L289.665851,123.201402 L289.665851,119.981793 C289.665851,119.635134 289.627223,119.294427 289.55888,118.96711 L276.946651,118.96711 C277.052137,119.169451 277.126423,119.389646 277.126423,119.636622 C277.126423,120.450451 276.46528,121.111037 275.652594,121.111037 C274.838423,121.111037 274.178766,120.450451 274.178766,119.636622 C274.178766,119.389646 274.253051,119.169451 274.358537,118.96711 L261.746309,118.96711 C261.677966,119.294427 261.639337,119.635134 261.639337,119.981793 L261.639337,123.201402 Z" id="Fill-28" fill="#4C4F50" mask="url(#mask-2)"></path>
                                <polygon id="Fill-29" fill="#4C4F50" mask="url(#mask-2)" points="261.640229 125.887634 289.666743 125.887634 289.666743 123.202146 261.640229 123.202146"></polygon>
                                <polygon id="Fill-30" fill="#85C556" mask="url(#mask-2)" points="259.625451 156.175771 256.529223 152.628844 258.304651 151.074088 259.514023 152.46221 261.677223 149.6696 263.54328 151.118722"></polygon>
                                <path d="M86.4629257,107.065117 L86.4629257,156.488507 C86.4629257,156.488507 86.3500114,143.438971 117.63024,143.438971 C148.908983,143.438971 116.73584,107.065117 116.73584,107.065117 L86.4629257,107.065117 Z" id="Fill-31" fill="#2F3237" mask="url(#mask-2)"></path>
                                <path d="M148.856389,107.065117 L148.856389,156.488507 C148.856389,156.488507 148.969303,143.438971 117.69056,143.438971 C86.4103314,143.438971 118.583474,107.065117 118.583474,107.065117 L148.856389,107.065117 Z" id="Fill-32" fill="#2F3237" mask="url(#mask-2)"></path>
                                <path d="M148.795474,107.065117 C148.795474,126.446751 134.841646,142.159459 117.629646,142.159459 C100.41616,142.159459 86.4623314,126.446751 86.4623314,107.065117 C86.4623314,87.6849707 100.41616,71.9722634 117.629646,71.9722634 C134.841646,71.9722634 148.795474,87.6849707 148.795474,107.065117" id="Fill-33" fill="#2F3237" mask="url(#mask-2)"></path>
                                <path d="M127.930103,131.464373 L117.715817,131.464373 L107.501531,131.464373 C101.992503,131.464373 83.8816457,142.889227 83.8816457,153.525544 L83.8816457,181.512641 L151.548503,181.512641 L151.548503,153.525544 C151.548503,142.889227 133.437646,131.464373 127.930103,131.464373" id="Fill-34" fill="#8E9738" mask="url(#mask-2)"></path>
                                <path d="M127.326606,130.391963 C126.146949,130.391963 117.71552,134.002866 117.71552,134.002866 C117.71552,134.002866 107.790949,131.173061 107.02432,131.022793 C106.257691,130.872524 100.733806,133.804988 100.733806,133.804988 C102.118491,135.840305 106.052663,145.316134 117.71552,145.316134 C129.378377,145.316134 133.322949,135.841793 134.70912,133.804988 C134.70912,133.804988 128.507749,130.391963 127.326606,130.391963" id="Fill-35" fill="#E7E6E2" mask="url(#mask-2)"></path>
                                <path d="M92.02128,100.930898 C92.02128,100.930898 91.88608,101.203166 91.7122514,101.081166 C91.4685943,100.987434 91.2085943,100.930898 90.9322514,100.930898 C89.7377371,100.930898 88.7705371,101.899459 88.7705371,103.095654 L88.7705371,111.840971 C88.7705371,113.037166 89.7377371,114.007215 90.9322514,114.007215 C91.4106514,114.007215 91.8489371,113.846532 92.2069943,113.581702 C95.1160229,126.903507 105.432823,136.752776 117.715223,136.752776 C129.997623,136.752776 140.312937,126.903507 143.223451,113.581702 C143.581509,113.846532 144.019794,114.007215 144.498194,114.007215 C145.692709,114.007215 146.661394,113.037166 146.661394,111.840971 L146.661394,103.095654 C146.661394,101.899459 145.692709,100.930898 144.498194,100.930898 C144.223337,100.930898 143.960366,100.987434 143.718194,101.081166 C116.02448,104.299288 92.02128,100.930898 92.02128,100.930898" id="Fill-36" fill="#E7E6E2" mask="url(#mask-2)"></path>
                                <polyline id="Fill-37" fill="#FFFFFF" mask="url(#mask-2)" points="134.709417 132.662949 105.944503 180.369412 138.508389 180.369412 138.508389 134.948217"></polyline>
                                <polyline id="Fill-38" fill="#FFFFFF" mask="url(#mask-2)" points="100.733211 132.583054 115.156526 179.450395 110.524069 179.450395"></polyline>
                                <path d="M205.911977,129.573968 L195.311406,129.573968 L184.710834,129.573968 C178.995291,129.573968 160.19952,141.430285 160.19952,152.469798 L160.19952,181.511749 L230.423291,181.511749 L230.423291,152.469798 C230.423291,141.430285 211.62752,129.573968 205.911977,129.573968" id="Fill-39" fill="#0F5FA9" mask="url(#mask-2)"></path>
                                <path d="M203.556526,152.674222 L219.710697,152.674222 L219.710697,161.645685 C219.710697,161.645685 213.46624,168.578856 211.634354,168.578856 C209.800983,168.578856 203.556526,161.645685 203.556526,161.645685 L203.556526,152.674222 Z" id="Fill-40" fill="#3C84C5" mask="url(#mask-2)"></path>
                                <path d="M205.285154,129.603129 L195.311554,133.35091 L184.21624,130.257763 L179.75464,132.132398 C181.191326,134.24508 189.003211,139.166739 193.022069,139.166739 L192.080126,139.120617 L192.080126,144.94091 L193.49304,145.726471 L188.310869,167.583812 L195.311554,177.333398 L202.310754,167.583812 L197.130069,145.726471 L198.541497,144.94091 L198.541497,139.120617 L197.599554,139.166739 C201.61544,139.166739 209.639783,134.246568 211.077954,132.132398 L205.285154,129.603129 Z" id="Fill-41" fill="#3C84C5" mask="url(#mask-2)"></path>
                                <path d="M222.633543,103.063815 C222.633543,120.735961 210.401657,135.063522 195.311257,135.063522 C180.220857,135.063522 167.988971,120.735961 167.988971,103.063815 C167.988971,85.3901805 180.220857,71.0626195 195.311257,71.0626195 C210.401657,71.0626195 222.633543,85.3901805 222.633543,103.063815" id="Fill-42" fill="#E7E6E2" mask="url(#mask-2)"></path>
                                <path d="M220.861234,101.369651 C223.100206,101.961798 222.406377,100.319261 222.406377,97.8867 C222.406377,80.2130659 210.173006,65.8855049 195.082606,65.8855049 C179.993691,65.8855049 167.76032,80.2130659 167.76032,97.8867 C167.76032,100.216602 167.972777,102.485505 168.375406,104.674066 C168.375406,104.674066 175.988206,97.7974317 177.826034,95.0033341 C180.283406,91.2704317 182.654606,83.4683829 182.654606,83.4683829 C183.501463,83.4683829 194.102034,94.2891878 220.861234,101.369651" id="Fill-43" fill="#2F3237" mask="url(#mask-2)"></path>
                                <path d="M224.632126,111.457415 L221.578983,111.457415 C221.182297,111.457415 220.861383,111.134561 220.861383,110.738805 L220.861383,98.6042683 C220.861383,98.2085122 221.182297,97.8871463 221.578983,97.8871463 L224.632126,97.8871463 C225.028811,97.8871463 225.349726,98.2085122 225.349726,98.6042683 L225.349726,110.738805 C225.349726,111.134561 225.028811,111.457415 224.632126,111.457415" id="Fill-44" fill="#E7E6E2" mask="url(#mask-2)"></path>
                                <path d="M188.141943,122.763244 L202.480571,122.763244 L202.480571,118.551268 L188.141943,118.551268 L188.141943,122.763244 Z M205.789257,117.785049 L205.789257,115.040049 L183.802171,115.040049 L183.802171,118.103439 L171.081486,118.103439 C175.678286,128.19522 184.756,135.062927 195.203543,135.062927 C205.817486,135.062927 215.017029,128.138683 219.541029,117.785049 L205.789257,117.785049 Z" id="Fill-45" fill="#C0C0BE" mask="url(#mask-2)"></path>
                                <path d="M169.04264,111.457415 L165.989497,111.457415 C165.592811,111.457415 165.271897,111.134561 165.271897,110.738805 L165.271897,98.6042683 C165.271897,98.2085122 165.592811,97.8871463 165.989497,97.8871463 L169.04264,97.8871463 C169.439326,97.8871463 169.76024,98.2085122 169.76024,98.6042683 L169.76024,110.738805 C169.76024,111.134561 169.439326,111.457415 169.04264,111.457415" id="Fill-46" fill="#E7E6E2" mask="url(#mask-2)"></path>
                                <path d="M56.6042286,159.6919 C55.3844571,159.6919 54.3117714,159.069998 53.6803429,158.125241 C53.3059429,157.565827 53.0860571,156.893339 53.0860571,156.168778 C53.0860571,155.235924 53.4545143,154.392339 54.0458286,153.762998 C54.6876571,153.078607 55.5924571,152.645656 56.6042286,152.645656 C58.5475429,152.645656 60.1224,154.222729 60.1224,156.168778 C60.1224,158.113339 58.5475429,159.6919 56.6042286,159.6919 M56.2892571,146.498046 C55.7261714,146.498046 55.1779429,146.557559 54.6416,146.649802 L55.1422857,140.689656 L19.8848,140.689656 L23.3049143,181.512046 L51.7206857,181.512046 L53.1009143,165.043534 C54.0993143,165.397632 55.1690286,165.601461 56.2892571,165.601461 C61.5561143,165.601461 65.8275429,161.32551 65.8275429,156.049754 C65.8275429,150.775485 61.5561143,146.498046 56.2892571,146.498046" id="Fill-47" fill="#0C576F" mask="url(#mask-2)"></path>
                            </g>
                        </g>
                        <g id="Page-1" transform="translate(107.000000, 108.000000)">
                            <path d="M1.81953,5.614875 C0.15548,5.740225 -0.31027,3.287275 0.19113,1.685325 C0.28543,1.381725 0.83628,0.000575 1.81148,0.000575 C2.78553,0.000575 3.21563,0.754975 3.27543,0.884925 C3.99188,2.446625 3.64113,5.476875 1.81953,5.614875" id="Fill-1" fill="#635E59"></path>
                            <path d="M20.39134,5.614875 C22.05539,5.740225 22.52114,3.287275 22.01974,1.685325 C21.92544,1.381725 21.37459,0.000575 20.39939,0.000575 C19.42534,0.000575 18.99524,0.754975 18.93544,0.884925 C18.21899,2.446625 18.56974,5.476875 20.39134,5.614875" id="Fill-3" fill="#635E59"></path>
                            <path d="M11.545425,7.86692 C12.540175,7.71397 13.510775,7.75077 13.965025,8.30967 C15.074775,9.67357 14.756225,11.24792 12.888625,12.41057 C11.953675,12.99132 10.631175,13.22937 9.820425,12.87057" id="Stroke-5" stroke="#D1BFA3" stroke-width="0.506" stroke-linecap="round"></path>
                            <path d="M18.71464,17.049555 C18.71464,17.049555 16.61244,21.864605 10.76354,21.685205 C4.91464,21.505805 2.72159,17.049555 2.72159,17.049555" id="Stroke-7" stroke="#D19E9C" stroke-width="1.013" stroke-linecap="round"></path>
                        </g>
                        <g id="Page-1" transform="translate(184.000000, 101.000000)">
                            <path d="M1.81953,5.614875 C0.15548,5.740225 -0.31027,3.287275 0.19113,1.685325 C0.28543,1.381725 0.83628,0.000575 1.81148,0.000575 C2.78553,0.000575 3.21563,0.754975 3.27543,0.884925 C3.99188,2.446625 3.64113,5.476875 1.81953,5.614875" id="Fill-1" fill="#635E59"></path>
                            <path d="M20.39134,5.614875 C22.05539,5.740225 22.52114,3.287275 22.01974,1.685325 C21.92544,1.381725 21.37459,0.000575 20.39939,0.000575 C19.42534,0.000575 18.99524,0.754975 18.93544,0.884925 C18.21899,2.446625 18.56974,5.476875 20.39134,5.614875" id="Fill-3" fill="#635E59"></path>
                            <path d="M11.545425,7.86692 C12.540175,7.71397 13.510775,7.75077 13.965025,8.30967 C15.074775,9.67357 14.756225,11.24792 12.888625,12.41057 C11.953675,12.99132 10.631175,13.22937 9.820425,12.87057" id="Stroke-5" stroke="#D1BFA3" stroke-width="0.506" stroke-linecap="round"></path>
                        </g>
                    </g>
                </g>
            </g>
        </g>
    </g>
</svg>