<?xml version="1.0" encoding="utf-8"?>
<!-- Generator: Adobe Illustrator 16.0.0, SVG Export Plug-In . SVG Version: 6.00 Build 0)  -->
<!DOCTYPE svg PUBLIC "-//W3C//DTD SVG 1.1//EN" "http://www.w3.org/Graphics/SVG/1.1/DTD/svg11.dtd">
<svg version="1.1" id="Filled_Version" xmlns="http://www.w3.org/2000/svg" xmlns:xlink="http://www.w3.org/1999/xlink" x="0px"
	 y="0px" width="24px" height="24px" viewBox="0 0 24 24" enable-background="new 0 0 24 24" xml:space="preserve">
<g>
	<path d="M17,10.026V5.5c0-0.133-0.053-0.26-0.146-0.354l-5-5C11.76,0.053,11.632,0,11.5,0h-11C0.224,0,0,0.224,0,0.5v21
		C0,21.776,0.224,22,0.5,22h11.014C10.568,20.744,10,19.189,10,17.5C10,13.533,13.098,10.284,17,10.026z M11.5,0.5l5,5h-5V0.5z"/>
	<path d="M17.5,11c-3.584,0-6.5,2.915-6.5,6.5c0,3.584,2.916,6.5,6.5,6.5s6.5-2.916,6.5-6.5C24,13.915,21.084,11,17.5,11z
		 M20.553,19.846c0.195,0.194,0.195,0.512,0,0.707c-0.098,0.098-0.226,0.146-0.354,0.146c-0.127,0-0.255-0.049-0.353-0.146
		L17.5,18.206l-2.347,2.347c-0.098,0.098-0.226,0.146-0.354,0.146s-0.256-0.049-0.354-0.146c-0.195-0.195-0.195-0.513,0-0.707
		l2.347-2.346l-2.347-2.347c-0.195-0.196-0.195-0.512,0-0.707s0.512-0.195,0.707,0l2.347,2.347l2.347-2.347
		c0.195-0.195,0.511-0.195,0.707,0c0.195,0.195,0.195,0.511,0,0.707L18.207,17.5L20.553,19.846z"/>
</g>
</svg>
