<svg width="19" height="19" viewBox="0 0 19 19" fill="none" xmlns="http://www.w3.org/2000/svg">
    <path fill-rule="evenodd" clip-rule="evenodd" d="M8.646 13.604C8.73999 13.698 8.86792 13.75 9 13.75H9.0271C9.16797 13.7419 9.30005 13.6741 9.38892 13.564L19 1.64624V18.5C19 18.7761 18.7761 19 18.5 19H0.5C0.223877 19 0 18.7761 0 18.5V0.5C0 0.223877 0.223877 0 0.5 0H18.5C18.6584 0 18.7996 0.0734863 18.8911 0.188477L8.95898 12.5029L4.35303 7.89697C4.15796 7.7019 3.84106 7.7019 3.646 7.89697C3.45093 8.09204 3.45093 8.40894 3.646 8.604L8.646 13.604Z" fill="#3E3832"/>
</svg>
