<svg width="24" height="24" viewBox="0 0 24 24" fill="none" xmlns="http://www.w3.org/2000/svg">
    <path fill-rule="evenodd" clip-rule="evenodd" d="M8.646 18.6042C8.74 18.6982 8.868 18.7502 9 18.7502H9.027C9.168 18.7422 9.3 18.6742 9.389 18.5642L21.889 3.06423C22.063 2.84923 22.029 2.53423 21.814 2.36123C21.599 2.18723 21.284 2.22123 21.111 2.43623L8.959 17.5032L4.353 12.8972C4.158 12.7022 3.841 12.7022 3.646 12.8972C3.451 13.0922 3.451 13.4092 3.646 13.6042L8.646 18.6042ZM0.5 24.0002H18.5C18.776 24.0002 19 23.7762 19 23.5002V12.0002C19 11.7242 18.776 11.5002 18.5 11.5002C18.224 11.5002 18 11.7242 18 12.0002V23.0002H1V6.00023H13C13.276 6.00023 13.5 5.77623 13.5 5.50023C13.5 5.22423 13.276 5.00023 13 5.00023H0.5C0.224 5.00023 0 5.22423 0 5.50023V23.5002C0 23.7762 0.224 24.0002 0.5 24.0002Z" fill="#3E3832"/>
</svg>
