<?xml version="1.0" encoding="utf-8"?>
<!-- Generator: Adobe Illustrator 24.3.0, SVG Export Plug-In . SVG Version: 6.00 Build 0)  -->
<svg version="1.1" id="Layer_1" xmlns="http://www.w3.org/2000/svg" x="0px" y="0px"
	 viewBox="0 0 48 48" style="enable-background:new 0 0 48 48;" xml:space="preserve">
<style type="text/css">
	.st0{fill-rule:evenodd;clip-rule:evenodd;fill:#35312C;}
</style>
<path class="st0" d="M40,9.1c0,3.6-3,6.6-6.6,6.6c-3.6,0-6.6-3-6.6-6.6c0-3.6,3-6.6,6.6-6.6C37,2.5,40,5.4,40,9.1z M33.4,6.3
	c-0.5,0-0.9,0.4-0.9,0.9V11c0,0.5,0.4,0.9,0.9,0.9c0.5,0,0.9-0.4,0.9-0.9V7.2C34.3,6.7,33.9,6.3,33.4,6.3z M2.4,26.9h7.5
	c0.5,0,0.9,0.4,0.9,0.9V42c0,0.5-0.4,0.9-0.9,0.9H2.4c-0.5,0-0.9-0.4-0.9-0.9V27.9C1.4,27.4,1.9,26.9,2.4,26.9z M39.7,32.6
	c2.5-0.7,4.4-0.1,6.6,2.1c0.2,0.2,0.3,0.5,0.3,0.8c0,0.3-0.2,0.6-0.5,0.7c-5.2,2.6-8.7,4.6-11.2,6c-3.9,2.2-5.7,3.2-7.9,3.2
	c-1.8,0-3.8-0.7-7.5-2c-1.8-0.7-4.1-1.5-7.1-2.5c-0.4-0.1-0.6-0.5-0.6-0.9V29.8c0-0.5,0.4-0.9,0.9-0.9h2.8c4.3,0,6.9,2.6,7.8,3.5
	c0.2,0.2,0.4,0.3,0.7,0.3h0.4h5.3c2,0,2.6,1.8,2.6,2.8c0,0.8-0.2,1.5-0.7,2c-0.5,0.6-1.1,0.8-1.9,0.8h-9.4c-0.5,0-0.9,0.4-0.9,0.9
	c0,0.5,0.4,0.9,0.9,0.9h9.4c1.4,0,2.5-0.5,3.4-1.5c0.7-0.9,1.1-2,1.1-3.2c0-0.3,0-0.6-0.1-0.9L39.7,32.6z M24.9,28.8
	c3.6,0,6.6-3,6.6-6.6c0-3.6-3-6.6-6.6-6.6s-6.6,2.9-6.6,6.6C18.4,25.9,21.3,28.8,24.9,28.8z M24,20.4c0-0.5,0.4-0.9,0.9-0.9
	c0.5,0,0.9,0.4,0.9,0.9v3.8c0,0.5-0.4,0.9-0.9,0.9c-0.5,0-0.9-0.4-0.9-0.9V20.4z"/>
</svg>
