<?xml version="1.0" encoding="UTF-8"?>
<svg width="90px" height="90px" viewBox="0 0 90 90" version="1.1" xmlns="http://www.w3.org/2000/svg" xmlns:xlink="http://www.w3.org/1999/xlink">
    <!-- Generator: Sketch 50.2 (55047) - http://www.bohemiancoding.com/sketch -->
    <title>Forstorrelsesglass</title>
    <desc>Created with Sketch.</desc>
    <defs>
        <circle id="path-1" cx="45" cy="45" r="45"></circle>
    </defs>
    <g id="Landingssiden" stroke="none" stroke-width="1" fill="none" fill-rule="evenodd">
        <g id="Arbeidsledig" transform="translate(-712.000000, -1341.000000)">
            <g id="Forstorrelsesglass" transform="translate(712.000000, 1341.000000)">
                <mask id="mask-2" fill="white">
                    <use xlink:href="#path-1"></use>
                </mask>
                <use id="Oval" fill="#C2EAF7" xlink:href="#path-1"></use>
                <g id="Hånd-med-forstørrelsesglass" mask="url(#mask-2)">
                    <g transform="translate(13.500000, 11.700000)">
                        <path d="M26.559,8.12961 C31.0869,14.53491 29.5659,23.39901 23.1606,27.92691 C16.7544,32.45481 7.8912,30.93291 3.3633,24.52761 C-1.1655,18.12231 0.3573,9.25821 6.7626,4.73031 C13.1679,0.20241 22.0311,1.72431 26.559,8.12961 Z" id="Fill-95" fill="#B1CAC9"></path>
                        <path d="M40.11003,50.8572 C38.66643,51.8769 36.67203,51.5331 35.65233,50.0913 L24.75423,34.6743 C23.73453,33.2325 24.07653,31.2363 25.51923,30.2166 C26.96193,29.1969 28.95633,29.5407 29.97603,30.9825 L40.87503,46.3995 C41.89383,47.8413 41.55273,49.8375 40.11003,50.8572" id="Fill-97" fill="#C52C35"></path>
                        <path d="M7.78995,5.13783 C1.86615,9.32553 0.45405,17.55243 4.64085,23.47533 C8.82765,29.39823 17.05455,30.81033 22.97835,26.62353 C28.90215,22.43583 30.31425,14.20893 26.12745,8.28603 C21.94065,2.36313 13.71375,0.95013 7.78995,5.13783 M24.20865,28.36413 C17.32545,33.22953 7.76655,31.58973 2.89935,24.70563 C-1.96605,17.82243 -0.32445,8.26353 6.55965,3.39723 C13.44285,-1.46907 23.00175,0.17163 27.86895,7.05483 C32.73435,13.93893 31.09275,23.49783 24.20865,28.36413" id="Fill-99" fill="#2F3238"></path>
                        <path d="M27.39051,32.86422 C26.42931,33.54372 25.39071,33.72912 24.71031,32.76702 L22.43781,29.55222 C21.75741,28.58922 21.98691,27.25992 22.94811,26.58042 C23.91021,25.90092 25.23951,26.12862 25.91991,27.09072 L28.19241,30.30552 C28.87191,31.26762 28.35171,32.18472 27.39051,32.86422" id="Fill-101" fill="#2F3238"></path>
                        <path d="M26.02728,35.11728 L36.31338,49.66758 C36.65358,50.14908 37.31778,50.26338 37.79838,49.92318 C38.27988,49.58298 38.39328,48.91878 38.05308,48.43728 L28.20978,34.51248 C27.39348,35.06688 26.62488,35.21448 26.02728,35.11728" id="Fill-103" fill="#D94C56"></path>
                        <path d="M49.26294,40.59513 L49.26294,40.59513 C50.35734,40.59513 51.24204,41.36733 51.24204,42.32043 L51.24204,60.67323 C51.24204,61.62633 50.35734,62.39853 49.26294,62.39853 C48.17124,62.39853 47.28564,61.62633 47.28564,60.67323 L47.28564,42.32043 C47.28564,41.36733 48.17124,40.59513 49.26294,40.59513" id="Fill-105" fill="#CCC8C4"></path>
                        <path d="M44.92026,37.62045 L44.92026,37.62045 C46.01286,37.62045 46.89846,38.50425 46.89846,39.59865 L46.89846,63.39465 C46.89846,64.48815 46.01286,65.37285 44.92026,65.37285 C43.82676,65.37285 42.94116,64.48815 42.94116,63.39465 L42.94116,39.59865 C42.94116,38.50425 43.82676,37.62045 44.92026,37.62045" id="Fill-107" fill="#CCC8C4"></path>
                        <path d="M40.57497,34.2621 L40.57497,34.2621 C41.66757,34.2621 42.55407,35.1495 42.55407,36.2412 L42.55407,64.7622 C42.55407,65.8548 41.66757,66.7395 40.57497,66.7395 C39.48237,66.7395 38.59677,65.8548 38.59677,64.7622 L38.59677,36.2412 C38.59677,35.1495 39.48237,34.2621 40.57497,34.2621" id="Fill-109" fill="#CCC8C4"></path>
                        <path d="M36.22968,31.30767 L36.22968,31.30767 C37.32318,31.30767 38.20878,32.19507 38.20878,33.28677 L38.20878,52.31637 C38.20878,53.40987 37.32318,54.29547 36.22968,54.29547 C35.13618,54.29547 34.25058,53.40987 34.25058,52.31637 L34.25058,33.28677 C34.25058,32.19507 35.13618,31.30767 36.22968,31.30767" id="Fill-111" fill="#CCC8C4"></path>
                        <path d="M49.00194,65.86632 L49.00194,63.40842 C49.00194,62.73612 50.17374,62.17542 50.17374,62.17542 L47.73564,42.43482 L36.23004,42.43482 L34.25004,48.91752 C34.25004,48.91752 33.76584,49.06602 33.28164,48.32172 C32.79744,47.57472 31.34394,44.07372 31.34394,44.07372 C31.34394,44.07372 29.40804,39.94092 27.61794,40.68522 C25.83144,41.42952 26.65044,44.14842 26.65044,44.14842 C26.65044,44.14842 27.56214,48.43602 28.06704,50.48082 C28.70424,53.06652 30.19014,55.69632 31.41954,57.63582 C32.64804,59.57082 34.99524,62.39862 35.81514,62.39862 L36.00234,65.86632 L49.00194,65.86632 Z" id="Fill-113" fill="#CCC8C4"></path>
                        <polygon id="Fill-115" fill="#561D5B" points="33.7509 80.2395 51.3558 80.2395 51.3558 65.8665 33.7509 65.8665"></polygon>
                        <polygon id="Fill-117" fill="#7C7086" points="33.7509 71.1828 51.3558 71.1828 51.3558 65.8665 33.7509 65.8665"></polygon>
                        <path d="M49.52043,68.56317 C49.52043,67.94577 49.01913,67.44537 48.40173,67.44537 C47.78523,67.44537 47.28573,67.94577 47.28573,68.56317 C47.28573,69.17967 47.78523,69.68097 48.40173,69.68097 C49.01913,69.68097 49.52043,69.17967 49.52043,68.56317" id="Fill-118" fill="#2F3237"></path>
                    </g>
                </g>
            </g>
        </g>
    </g>
</svg>