<?xml version="1.0" encoding="UTF-8" standalone="no"?>
<svg width="32px" height="43px" viewBox="0 0 32 43" version="1.1" xmlns="http://www.w3.org/2000/svg" xmlns:xlink="http://www.w3.org/1999/xlink">
    <!-- Generator: Sketch 46.2 (44496) - http://www.bohemiancoding.com/sketch -->
    <title>icon/line/ file new 1</title>
    <desc>Created with Sketch.</desc>
    <defs></defs>
    <g id="Versjonering-prototype" stroke="none" stroke-width="1" fill="none" fill-rule="evenodd">
        <g id="icon/line/-file-new-1" fill="#3E3832">
            <g id="file-new-1">
                <path d="M31.9306667,11.3018333 C31.8862222,11.1925417 31.8204444,11.094 31.7386667,11.0115833 L21.0737778,0.263375 C20.992,0.180958333 20.8942222,0.114666667 20.7857778,0.069875 C20.6791111,0.0250833333 20.5635556,0 20.4444444,0 L0.888888889,0 C0.398222222,0 0,0.401333333 0,0.895833333 L0,42.1041667 C0,42.5986667 0.398222222,43 0.888888889,43 L31.1111111,43 C31.6017778,43 32,42.5986667 32,42.1041667 L32,11.6458333 C32,11.5257917 31.9751111,11.4093333 31.9306667,11.3018333 Z M21.3333333,3.058375 L28.9653333,10.75 L21.3333333,10.75 L21.3333333,3.058375 Z M1.77777778,41.2083333 L1.77777778,1.79166667 L19.5555556,1.79166667 L19.5555556,11.6458333 C19.5555556,12.1403333 19.9537778,12.5416667 20.4444444,12.5416667 L30.2222222,12.5416667 L30.2222222,41.2083333 L1.77777778,41.2083333 Z" id="Shape" fill-rule="nonzero"></path>
            </g>
        </g>
    </g>
</svg>