<?xml version="1.0" encoding="utf-8"?>
<!-- Generator: Adobe Illustrator 24.1.0, SVG Export Plug-In . SVG Version: 6.00 Build 0)  -->
<svg version="1.1" id="Layer_1" xmlns="http://www.w3.org/2000/svg" xmlns:xlink="http://www.w3.org/1999/xlink" x="0px" y="0px"
	 viewBox="0 0 41 41" style="enable-background:new 0 0 41 41;" xml:space="preserve">
<style type="text/css">
	.st0{clip-path:url(#SVGID_2_);fill:#1C6937;}
	.st1{clip-path:url(#SVGID_4_);fill:#FFFFFF;}
	.st2{clip-path:url(#SVGID_6_);fill:#669DB4;}
	.st3{clip-path:url(#SVGID_8_);fill:#FFFFFF;}
	.st4{clip-path:url(#SVGID_10_);fill:#A13A28;}
	.st5{clip-path:url(#SVGID_12_);fill:#FFFFFF;}
</style>
<g>
	<g>
		<defs>
			<path id="SVGID_1_" d="M20.5,0.2c-11,0-20,9.1-20,20.3c0,11.2,9,20.3,20,20.3c11,0,20-9.1,20-20.3C40.5,9.3,31.5,0.2,20.5,0.2z"
				/>
		</defs>
		<clipPath id="SVGID_2_">
			<use xlink:href="#SVGID_1_"  style="overflow:visible;"/>
		</clipPath>
		<rect x="-4.5" y="-4.8" class="st0" width="50" height="50.6"/>
	</g>
	<g>
		<defs>
			<path id="SVGID_3_" d="M16.6,24.6l10.8-9.9c0.7-0.6,1.7-0.6,2.3,0.1c0.6,0.6,0.6,1.7-0.1,2.3L17.6,28c-0.3,0.3-0.7,0.4-1.1,0.4
				c-0.4,0-0.8-0.2-1.1-0.5l-4-3.9c-0.6-0.6-0.6-1.6,0-2.3c0.6-0.6,1.7-0.6,2.3,0L16.6,24.6z"/>
		</defs>
		<clipPath id="SVGID_4_">
			<use xlink:href="#SVGID_3_"  style="overflow:visible;"/>
		</clipPath>
		<rect x="5.9" y="9.3" class="st1" width="29.1" height="24.1"/>
	</g>
</g>
</svg>
