<?xml version="1.0" encoding="UTF-8" standalone="no"?>
<svg width="16px" height="16px" viewBox="0 0 16 16" version="1.1" xmlns="http://www.w3.org/2000/svg" xmlns:xlink="http://www.w3.org/1999/xlink">
    <!-- Generator: Sketch 46 (44423) - http://www.bohemiancoding.com/sketch -->
    <title>Check_yellow_outlined Copy</title>
    <desc>Created with Sketch.</desc>
    <defs></defs>
    <g id="Visning-Sykmeldt" stroke="none" stroke-width="1" fill="none" fill-rule="evenodd">
        <g id="Check_yellow_outlined-Copy" fill="#FDBC6D">
            <path d="M11.5586652,5.90964335 L6.55953082,10.5755021 C6.4955419,10.6348251 6.41355609,10.6648199 6.33223684,10.6648199 C6.24691828,10.6648199 6.16159972,10.6321589 6.09694425,10.5675035 L4.43056614,8.90112535 C4.29992209,8.7704813 4.29992209,8.55985111 4.43056614,8.42987361 C4.56054363,8.29922957 4.77117382,8.29922957 4.90181787,8.42987361 L6.34023546,9.8682912 L11.1040772,5.42239439 C11.238054,5.29708276 11.4493508,5.30374827 11.5746624,5.43772507 C11.7006406,5.57303497 11.6933085,5.78366517 11.5586652,5.90964335 M7.99861496,0 C3.58804536,0 0,3.58871191 0,7.99861496 C0,12.408518 3.58804536,15.9972299 7.99861496,15.9972299 C12.408518,15.9972299 15.9972299,12.408518 15.9972299,7.99861496 C15.9972299,3.58871191 12.408518,0 7.99861496,0" id="Fill-11"></path>
        </g>
    </g>
</svg>