<?xml version="1.0" encoding="UTF-8"?>
<svg width="70px" height="70px" viewBox="0 0 70 70" version="1.1" xmlns="http://www.w3.org/2000/svg" xmlns:xlink="http://www.w3.org/1999/xlink">
    <!-- Generator: Sketch 42 (36781) - http://www.bohemiancoding.com/sketch -->
    <title>Group Copy</title>
    <desc>Created with Sketch.</desc>
    <defs>
        <polygon id="path-1" points="69.4088119 69.0860196 69.4088119 0.358372549 0.000138613861 0.358372549 0.000138613861 69.0860196"></polygon>
        <ellipse id="path-3" cx="34.6534653" cy="34.3137255" rx="34.6534653" ry="34.3137255"></ellipse>
    </defs>
    <g id="Kvitteringer" stroke="none" stroke-width="1" fill="none" fill-rule="evenodd">
        <g id="Kvittering-del-C---periode-ikke-over" transform="translate(-287.000000, -529.000000)">
            <g id="Group-Copy" transform="translate(287.000000, 529.000000)">
                <g id="Page-1">
                    <g id="Group-22" transform="translate(0.000000, 0.328039)">
                        <g id="Group-3">
                            <mask id="mask-2" fill="white">
                                <use xlink:href="#path-1"></use>
                            </mask>
                            <g id="Clip-2"></g>
                            <path d="M69.4089505,34.7221961 C69.4089505,53.7011176 53.8710297,69.0860196 34.7048911,69.0860196 C15.5373663,69.0860196 0.000138613861,53.7011176 0.000138613861,34.7221961 C0.000138613861,15.7439608 15.5373663,0.358372549 34.7048911,0.358372549 C53.8710297,0.358372549 69.4089505,15.7439608 69.4089505,34.7221961" id="Fill-1" fill="#EBE8E2" mask="url(#mask-2)"></path>
                        </g>
                        <path d="M56.5965941,26.5116765 L53.0681782,30.2951078 C52.3425347,31.0726569 51.0991683,31.0644216 50.3839208,30.2772647 L46.9608515,26.5082451 C46.6607525,26.1781471 46.4951089,25.7499118 46.4951089,25.3052059 L46.4951089,17.4000098 C46.4951089,16.4069706 47.3080792,15.6019706 48.3109505,15.6019706 L55.2631287,15.6019706 C56.2653069,15.6019706 57.0782772,16.4069706 57.0782772,17.4000098 L57.0782772,25.2921667 C57.0782772,25.7444216 56.906396,26.1802059 56.5965941,26.5116765" id="Fill-4" fill="#BACECD"></path>
                        <path d="M56.5965941,34.1907451 L53.0681782,30.4073137 C52.3425347,29.630451 51.0991683,29.6386863 50.3839208,30.4258431 L46.9608515,34.1941765 C46.6607525,34.5242745 46.4951089,34.9525098 46.4951089,35.3965294 L46.4951089,42.7801569 C46.4951089,43.7738824 47.3080792,44.5788824 48.3109505,44.5788824 L55.2631287,44.5788824 C56.2653069,44.5788824 57.0782772,43.7738824 57.0782772,42.7801569 L57.0782772,35.4102549 C57.0782772,34.9586863 56.906396,34.5222157 56.5965941,34.1907451" id="Fill-6" fill="#BACECD"></path>
                        <path d="M55.4270396,25.8736471 L52.7559505,28.7374706 C52.2070396,29.3256078 51.2665446,29.3194314 50.7252574,28.7230588 L48.1345644,25.870902 C47.9065446,25.621098 47.7817921,25.2964902 47.7817921,24.960902 L47.7817921,20.7869804 C47.7817921,20.5138431 48.0042673,20.293549 48.2794158,20.293549 L55.2281287,20.293549 C55.5393168,20.293549 55.7915941,20.5433529 55.7915941,20.8521765 L55.7915941,24.9499216 C55.7915941,25.2923725 55.6619901,25.6224706 55.4270396,25.8736471" id="Fill-8" fill="#52808D"></path>
                        <path d="M55.7918713,42.2484314 L55.7918713,42.5147059 C55.7918713,42.9504902 55.4349406,43.3046078 54.9934554,43.3046078 L48.5797921,43.3046078 C48.139,43.3046078 47.7806832,42.9504902 47.7806832,42.5147059 L47.7806832,42.1866667 C47.7806832,41.8915686 47.9241485,41.615 48.1653366,41.4420588 L51.0297921,39.3907843 C51.4816733,39.0668627 52.0915743,39.067549 52.5434554,39.3921569 L55.3663267,41.4214706 C55.6338515,41.6136275 55.7918713,41.9210784 55.7918713,42.2484314" id="Fill-10" fill="#52808D"></path>
                        <path d="M52.3691485,32.1781078 C52.3691485,32.4841863 52.1189505,32.7333039 51.8084554,32.7333039 C51.4986535,32.7333039 51.2477624,32.4841863 51.2477624,32.1781078 C51.2477624,31.8713431 51.4986535,31.6222255 51.8084554,31.6222255 C52.1189505,31.6222255 52.3691485,31.8713431 52.3691485,32.1781078" id="Fill-12" fill="#52808D"></path>
                        <path d="M52.3691485,34.0379118 C52.3691485,34.3446765 52.1189505,34.5937941 51.8084554,34.5937941 C51.4986535,34.5937941 51.2477624,34.3446765 51.2477624,34.0379118 C51.2477624,33.7318333 51.4986535,33.4827157 51.8084554,33.4827157 C52.1189505,33.4827157 52.3691485,33.7318333 52.3691485,34.0379118" id="Fill-14" fill="#52808D"></path>
                        <path d="M52.3691485,35.8990196 C52.3691485,36.205098 52.1189505,36.4542157 51.8084554,36.4542157 C51.4986535,36.4542157 51.2477624,36.205098 51.2477624,35.8990196 C51.2477624,35.5922549 51.4986535,35.3431373 51.8084554,35.3431373 C52.1189505,35.3431373 52.3691485,35.5922549 52.3691485,35.8990196" id="Fill-16" fill="#52808D"></path>
                        <path d="M52.3691485,37.7595098 C52.3691485,38.0662745 52.1189505,38.3147059 51.8084554,38.3147059 C51.4986535,38.3147059 51.2477624,38.0662745 51.2477624,37.7595098 C51.2477624,37.4527451 51.4986535,37.2036275 51.8084554,37.2036275 C52.1189505,37.2036275 52.3691485,37.4527451 52.3691485,37.7595098" id="Fill-18" fill="#52808D"></path>
                        <path d="M52.3475248,30.3176863 C52.3475248,30.6237647 52.0966337,30.8728824 51.7868317,30.8728824 C51.4770297,30.8728824 51.2261386,30.6237647 51.2261386,30.3176863 C51.2261386,30.0109216 51.4770297,29.7618039 51.7868317,29.7618039 C52.0966337,29.7618039 52.3475248,30.0109216 52.3475248,30.3176863" id="Fill-20" fill="#52808D"></path>
                    </g>
                </g>
                <g id="Page-1" transform="translate(0.000000, 0.686275)">
                    <mask id="mask-4" fill="white">
                        <use xlink:href="#path-3"></use>
                    </mask>
                    <g id="Mask"></g>
                    <g mask="url(#mask-4)">
                        <g transform="translate(4.158416, 13.039216)">
                            <path d="M24.7324631,30.0872531 L19.0225347,30.0872531 L13.3140693,30.0872531 C10.2370726,30.0872531 0.00455885589,36.5046399 0.00455885589,42.3494959 L0.00455885589,57.7264506 L38.2204774,57.7264506 L38.2204774,42.3494959 C38.2204774,36.5046399 27.8094598,30.0872531 24.7324631,30.0872531" id="Fill-1" fill="#52808D"></path>
                            <path d="M28.4774593,31.311677 C28.9398135,31.4088992 30.2617662,32.3897634 30.2617662,32.3897634 L30.2617662,58.200463 L12.4428388,58.200463 L28.3304131,31.5622942" id="Fill-3" fill="#FFFFFF"></path>
                            <polyline id="Fill-5" fill="#FFFFFF" points="9.44016997 31.2076132 17.5920897 56.9585391 14.8230853 56.9585391"></polyline>
                            <path d="M24.3952811,29.5288374 C23.7354021,29.5288374 19.0226078,31.5136111 19.0226078,31.5136111 C19.0226078,31.5136111 13.4677728,29.9940638 13.0471183,29.8773971 C12.4428388,29.7103189 9.67602915,31.311965 9.67602915,31.311965 C10.449302,32.4303807 12.504291,37.730072 19.0226078,37.730072 C25.5409246,37.730072 27.824896,32.4707099 28.599632,31.3515741 C28.599632,31.3515741 25.5884769,29.5288374 24.3952811,29.5288374" id="Fill-7" fill="#FFFFFF"></path>
                            <path d="M33.1605517,17.7720062 C33.1605517,26.7034877 26.8712173,33.9447428 19.1114208,33.9447428 C11.353819,33.9447428 5.06375303,26.7034877 5.06375303,17.7720062 C5.06375303,8.83908436 11.353819,1.59782922 19.1114208,1.59782922 C26.8712173,1.59782922 33.1605517,8.83908436 33.1605517,17.7720062" id="Fill-9" fill="#FFFFFF"></path>
                            <path d="M33.4041656,22.0142078 L33.4041656,22.0142078 C32.7655022,22.0142078 32.2490116,21.5050514 32.2490116,20.8777881 L32.2490116,16.2903395 C32.2490116,15.6652366 32.7655022,15.1539198 33.4041656,15.1539198 C34.0413658,15.1539198 34.5571249,15.6652366 34.5571249,16.2903395 L34.5571249,20.8777881 C34.5571249,21.5050514 34.0413658,22.0142078 33.4041656,22.0142078" id="Fill-11" fill="#FFFFFF"></path>
                            <path d="M4.82101705,22.0142078 L4.82101705,22.0142078 C4.18308526,22.0142078 3.66659461,21.5050514 3.66659461,20.8777881 L3.66659461,16.2903395 C3.66659461,15.6652366 4.18308526,15.1539198 4.82101705,15.1539198 C5.45968042,15.1539198 5.97470792,15.6652366 5.97470792,16.2903395 L5.97470792,20.8777881 C5.97470792,21.5050514 5.45968042,22.0142078 4.82101705,22.0142078" id="Fill-13" fill="#FFFFFF"></path>
                            <path d="M6.10595215,19.9726132 C6.13667822,19.9200412 6.15862541,19.8631481 6.15862541,19.7990535 L6.15862541,18.5308436 C6.06498405,15.0005967 7.32841089,13.3629424 8.36943949,12.1170576 C8.36943949,12.1170576 7.73736029,14.8284774 8.17703575,14.2660288 C10.6673108,11.0829012 22.2020248,13.2635597 24.5935374,9.15286008 C24.894214,11.4148971 21.8750116,12.096893 21.8750116,12.096893 C24.2818872,12.5397942 26.3661392,11.5992593 26.9316452,10.4844444 C27.1181964,11.3954527 26.5475693,11.9967901 25.7106496,12.6182922 C28.6691315,12.0774486 28.7152206,10.1056379 28.7152206,10.1056379 C29.1380699,12.7219959 32.1704406,11.7159259 32.1704406,16.0009053 L32.1704406,19.7990535 C32.1704406,19.9927778 32.3313867,20.1497737 32.5267167,20.1497737 L32.8815297,20.1497737 C33.0783229,20.1497737 33.239269,19.9927778 33.239269,19.7990535 L33.239269,16.9788889 C33.4236254,7.09823045 27.6719972,0.488559671 19.7571073,0.488559671 C12.204346,0.488559671 5.0634604,7.07662551 5.06858141,15.8006996 C5.06711826,15.8093416 5.0634604,15.815823 5.0634604,15.8230247 L5.0634604,19.7990535 C5.0634604,19.9927778 5.22440649,20.1497737 5.4204681,20.1497737 L5.80088614,20.1497737 C5.91062211,20.1497737 6.00572662,20.0993621 6.06864191,20.024465" id="Fill-15" fill="#36363A"></path>
                            <path d="M13.4587745,19.9142078 C12.4996821,19.9869444 12.2319263,18.5725412 12.5201661,17.6492901 C12.5750341,17.4742901 12.8925369,16.6785082 13.454385,16.6785082 C14.0155017,16.6785082 14.263505,17.1127675 14.2971573,17.1883848 C14.7104961,18.0885905 14.5078504,19.8349897 13.4587745,19.9142078" id="Fill-17" fill="#78ACCD"></path>
                            <path d="M24.1587635,19.9142078 C25.1178559,19.9869444 25.3856117,18.5725412 25.0966403,17.6492901 C25.0425039,17.4742901 24.7250011,16.6785082 24.1638845,16.6785082 C23.6013047,16.6785082 23.354033,17.1127675 23.3203806,17.1883848 C22.9070418,18.0885905 23.108956,19.8349897 24.1587635,19.9142078" id="Fill-19" fill="#78ACCD"></path>
                            <path d="M18.8266194,28.3986831 C16.2324609,28.3986831 14.7400517,26.6854115 14.677868,26.6126749 L15.2345952,26.1517695 L14.9558658,26.3815021 L15.2338636,26.1510494 C15.2470319,26.1654527 16.5814213,27.6828395 18.8266194,27.6828395 C21.0893751,27.6828395 22.4742431,26.1611317 22.4874114,26.1452881 L23.0338966,26.6184362 C22.9695182,26.6911728 21.4163883,28.3986831 18.8266194,28.3986831" id="Fill-21" fill="#D19E9D"></path>
                            <path d="M18.5994659,24.1353807 C18.3748729,24.1353807 18.1663746,24.0986523 17.9937233,24.0223148 C17.9022767,23.9812654 17.8613086,23.8761214 17.9022767,23.7853807 C17.9439763,23.6953601 18.0515176,23.6550309 18.1429642,23.6960802 C18.5328927,23.8681996 19.2330083,23.7565741 19.7385253,23.4418621 C20.2520897,23.1228292 20.560082,22.7404218 20.6281183,22.3378498 C20.6844494,22.0080144 20.5761766,21.6630556 20.3142734,21.3425823 C20.135038,21.1222119 19.7114571,21.0559568 19.0903515,21.1517387 C18.9923207,21.1675823 18.8979477,21.100607 18.8825847,21.0026646 C18.8672217,20.9054424 18.9345264,20.8139815 19.0340204,20.7981379 C19.8029037,20.680751 20.3289048,20.7880556 20.5981238,21.1186111 C20.9266001,21.5219033 21.0612096,21.9633642 20.9873207,22.3969033 C20.900995,22.903179 20.5366716,23.3698457 19.9331238,23.7450514 C19.5256375,23.9985494 19.0325572,24.1353807 18.5994659,24.1353807" id="Fill-23" fill="#D2C1A4"></path>
                        </g>
                    </g>
                </g>
            </g>
        </g>
    </g>
</svg>