<?xml version="1.0" encoding="UTF-8"?>
<svg width="70px" height="70px" viewBox="0 0 70 70" version="1.1" xmlns="http://www.w3.org/2000/svg" xmlns:xlink="http://www.w3.org/1999/xlink">
    <!-- Generator: Sketch 42 (36781) - http://www.bohemiancoding.com/sketch -->
    <title>Group 6 Copy 3</title>
    <desc>Created with Sketch.</desc>
    <defs></defs>
    <g id="Kvitteringer" stroke="none" stroke-width="1" fill="none" fill-rule="evenodd">
        <g id="Kvittering-del-C---periode-ikke-over" transform="translate(-287.000000, -395.000000)">
            <g id="Group-6-Copy-3" transform="translate(287.000000, 395.000000)">
                <g id="Group-5-Copy" fill="#97AB48">
                    <circle id="Oval-2" cx="35" cy="35" r="35"></circle>
                </g>
                <g id="Group-5-Copy" transform="translate(18.375000, 18.375000)" fill="#FFFFFF">
                    <circle id="Oval-2" cx="16.625" cy="16.625" r="16.625"></circle>
                </g>
                <g id="Group-5" transform="translate(14.875000, 14.875000)" fill="#97AB48">
                    <g id="Group-11-Copy-5">
                        <g id="Fill-11-Copy-3">
                            <path d="M29.0794469,14.8676203 L16.5034995,26.6051712 C16.3425274,26.7544057 16.1362819,26.8298614 15.9317131,26.8298614 C15.7170836,26.8298614 15.5024541,26.7476986 15.3398052,26.5850497 L11.1478228,22.3930672 C10.8191713,22.0644158 10.8191713,21.5345492 11.1478228,21.2075746 C11.4747974,20.8789231 12.004664,20.8789231 12.3333154,21.2075746 L15.9518347,24.8260938 L27.9358741,13.6418846 C28.2729095,13.3266476 28.8044528,13.3434155 29.1196899,13.6804509 C29.4366038,14.0208399 29.4181591,14.5507064 29.0794469,14.8676203 M20.1236956,0.00117375509 C9.02835644,0.00117375509 0.00217983087,9.02902716 0.00217983087,20.1226895 C0.00217983087,31.2163519 9.02835644,40.2442053 20.1236956,40.2442053 C31.2173579,40.2442053 40.2452113,31.2163519 40.2452113,20.1226895 C40.2452113,9.02902716 31.2173579,0.00117375509 20.1236956,0.00117375509" id="Fill-11"></path>
                        </g>
                    </g>
                </g>
                <g id="Group-5" transform="translate(14.875000, 14.875000)" fill="#97AB48">
                    <g id="Group-11-Copy-5">
                        <g id="Fill-11-Copy-3">
                            <path d="M29.0794469,14.8676203 L16.5034995,26.6051712 C16.3425274,26.7544057 16.1362819,26.8298614 15.9317131,26.8298614 C15.7170836,26.8298614 15.5024541,26.7476986 15.3398052,26.5850497 L11.1478228,22.3930672 C10.8191713,22.0644158 10.8191713,21.5345492 11.1478228,21.2075746 C11.4747974,20.8789231 12.004664,20.8789231 12.3333154,21.2075746 L15.9518347,24.8260938 L27.9358741,13.6418846 C28.2729095,13.3266476 28.8044528,13.3434155 29.1196899,13.6804509 C29.4366038,14.0208399 29.4181591,14.5507064 29.0794469,14.8676203 M20.1236956,0.00117375509 C9.02835644,0.00117375509 0.00217983087,9.02902716 0.00217983087,20.1226895 C0.00217983087,31.2163519 9.02835644,40.2442053 20.1236956,40.2442053 C31.2173579,40.2442053 40.2452113,31.2163519 40.2452113,20.1226895 C40.2452113,9.02902716 31.2173579,0.00117375509 20.1236956,0.00117375509" id="Fill-11"></path>
                        </g>
                    </g>
                </g>
            </g>
        </g>
    </g>
</svg>