<?xml version="1.0" encoding="UTF-8" standalone="no"?>
<svg width="144px" height="144px" viewBox="0 0 144 144" version="1.1" xmlns="http://www.w3.org/2000/svg" xmlns:xlink="http://www.w3.org/1999/xlink">
    <!-- Generator: Sketch 42 (36781) - http://www.bohemiancoding.com/sketch -->
    <title>Group 5</title>
    <desc>Created with Sketch.</desc>
    <defs>
        <polygon id="path-1" points="0 21.3736337 0 0.483186047 84.6005 0.483186047 84.6005 21.3736337 1.0185933e-14 21.3736337"></polygon>
        <polygon id="path-3" points="0.0311666667 56.0348837 84.702957 56.0348837 84.702957 0.0717430233 0.0311666667 0.0717430233 0.0311666667 56.0348837"></polygon>
    </defs>
    <g id="Ferdige-AT" stroke="none" stroke-width="1" fill="none" fill-rule="evenodd">
        <g id="Nytt-design_Suksess-innsendt-Copy" transform="translate(-440.000000, -394.000000)">
            <g id="Group-5" transform="translate(440.000000, 394.000000)">
                <g id="Group" fill="#9BCEAF">
                    <ellipse id="Oval-Copy" cx="72" cy="72" rx="72" ry="72"></ellipse>
                </g>
                <g id="Page-1" transform="translate(29.000000, 32.000000)">
                    <path d="M0.0312580645,21.8088686 L0.000182795699,6.60412442 L0.0312580645,21.8088686 Z" id="Fill-1" fill="#C32026"></path>
                    <g id="Group-22" transform="translate(0.000000, 0.435602)">
                        <g id="Group-4">
                            <mask id="mask-2" fill="white">
                                <use xlink:href="#path-1"></use>
                            </mask>
                            <g id="Clip-3"></g>
                            <path d="M66.8647473,14.6237267 C65.2808226,14.6274012 63.9939409,13.3395174 63.9911989,11.7475756 C63.987543,10.1556337 65.2689409,8.86223837 66.8528656,8.85856395 C68.4367903,8.85580814 69.723672,10.1436919 69.726414,11.7356337 C69.7300699,13.3275756 68.448672,14.6200523 66.8647473,14.6237267 M17.7402312,14.7247733 C16.1563065,14.7284477 14.8694247,13.440564 14.8666828,11.8486221 C14.8630269,10.2566802 16.1444247,8.96328488 17.7283495,8.95961047 C19.3122742,8.95685465 20.5991559,10.2447384 20.6018978,11.8366802 C20.6055538,13.4286221 19.3241559,14.7210988 17.7402312,14.7247733 M81.2032419,0.912633721 C80.5451774,0.634296512 79.8222204,0.48180814 79.0636183,0.482726744 L5.48377957,0.634296512 C2.44937097,0.640726744 -0.00648924731,3.11820349 -9.13978494e-05,6.16888953 L0.030983871,21.3736337 L84.6005,21.1990988 L84.5694247,5.99435465 C84.5648548,3.70702907 83.1774355,1.74764535 81.2032419,0.912633721" id="Fill-2" fill="#CC2026" mask="url(#mask-2)"></path>
                        </g>
                        <g id="Group-7" transform="translate(0.000000, 21.127907)">
                            <mask id="mask-4" fill="white">
                                <use xlink:href="#path-3"></use>
                            </mask>
                            <g id="Clip-6"></g>
                            <path d="M0.0311666667,0.245359302 L0.066811828,17.7006849 L0.133532258,50.5233477 C0.139016129,53.5731151 2.60493011,56.0414058 5.63933871,56.0349756 L79.2191774,55.8834058 C82.2545,55.8769756 84.7094462,53.3994988 84.7030484,50.3497314 L84.6573495,27.9927314 L84.6006828,0.0717430233 L0.0311666667,0.245359302 Z" id="Fill-5" fill="#FFFFFF" mask="url(#mask-4)"></path>
                        </g>
                        <path d="M21.1664624,21.3299081 L21.2797957,77.1305477" id="Stroke-8" stroke="#878686" stroke-width="1.883"></path>
                        <path d="M43.102586,21.2847128 L43.2159194,77.0853523" id="Stroke-10" stroke="#878686" stroke-width="1.883"></path>
                        <path d="M64.8155161,21.2400686 L64.9288495,77.0407081" id="Stroke-12" stroke="#878686" stroke-width="1.883"></path>
                        <path d="M0.0574892473,34.3316547 L84.6270054,34.1580384" id="Stroke-14" stroke="#878686" stroke-width="1.883"></path>
                        <path d="M0.0856397849,48.161707 L84.6551559,47.9880907" id="Stroke-16" stroke="#878686" stroke-width="1.883"></path>
                        <path d="M0.113790323,61.9916674 L84.6833065,61.8180512" id="Stroke-18" stroke="#878686" stroke-width="1.883"></path>
                        <path d="M29.8156237,60.0107884 C29.3156774,60.011707 28.8385806,59.7939977 28.5113763,59.4118581 L24.4624516,54.6865558 C23.8446022,53.9645326 23.9250323,52.8750674 24.6443333,52.2540907 C25.3608925,51.6312767 26.4457849,51.7130326 27.0645484,52.4350558 L29.6968065,55.5068698 L37.2316452,45.0577419 C37.7873441,44.2870326 38.8594409,44.1143349 39.6280968,44.6737651 C40.3967527,45.2331953 40.5667527,46.3116372 40.0110538,47.0832651 L31.202129,59.2979512 C30.8941183,59.7251023 30.4078817,59.9869047 29.884172,60.0089512 C29.8613226,60.0098698 29.8384731,60.0107884 29.8156237,60.0107884" id="Fill-20" fill="#31AC65"></path>
                    </g>
                </g>
            </g>
        </g>
    </g>
</svg>