<?xml version="1.0" encoding="UTF-8"?>
<svg width="66px" height="66px" viewBox="0 0 66 66" version="1.1" xmlns="http://www.w3.org/2000/svg" xmlns:xlink="http://www.w3.org/1999/xlink">
    <!-- Generator: Sketch 42 (36781) - http://www.bohemiancoding.com/sketch -->
    <title>Group</title>
    <desc>Created with Sketch.</desc>
    <defs></defs>
    <g id="Page-1" stroke="none" stroke-width="1" fill="none" fill-rule="evenodd">
        <g id="Group" transform="translate(1.000000, 1.000000)">
            <path d="M63.674763,32.0376055 C63.674763,49.6151144 49.4969038,63.8643046 32.0082136,63.8643046 C14.5191534,63.8643046 0.34129417,49.6151144 0.34129417,32.0376055 C0.34129417,14.4600965 14.5191534,0.21090631 32.0082136,0.21090631 C49.4969038,0.21090631 63.674763,14.4600965 63.674763,32.0376055 L63.674763,32.0376055 Z" id="Fill-1" fill="#FFFFFF" fill-rule="nonzero"></path>
            <path d="M64.0001795,31.8266991 C64.0001795,49.4042081 49.8223202,63.6533983 32.33363,63.6533983 C14.8445699,63.6533983 0.666710607,49.4042081 0.666710607,31.8266991 C0.666710607,14.2491902 14.8445699,0 32.33363,0 C49.8223202,0 64.0001795,14.2491902 64.0001795,31.8266991 L64.0001795,31.8266991 Z" id="Stroke-3" stroke="#BCCFCF" stroke-width="2" fill="#FFFFFF" fill-rule="nonzero"></path>
            <path d="M52.1329992,27.968666 L52.0935833,27.968666 C52.0935833,15.498995 43.1480027,5.38938616 32.1138363,5.38938616 C21.0792168,5.38938616 12.1336362,15.498995 12.1336362,27.968666 C12.1336362,27.9723088 12.1340893,27.9759515 12.1340893,27.9795943 C12.1300118,38.6292444 6.66888092,44.7181413 6.66888092,44.7181413 C6.66888092,44.7181413 12.0620535,51.3707574 32.1142894,51.3707574 L32.1337707,51.3703021 L32.1532521,51.3707574 C52.205035,51.3707574 57.5982075,44.7181413 57.5982075,44.7181413 C57.5982075,44.7181413 52.1329992,38.6251462 52.1329992,27.968666" id="Fill-5" fill="#E57D61" fill-rule="nonzero"></path>
            <path d="M52.2863294,55.4955564 C47.0226749,59.9619521 40.2202354,62.6540478 32.7922814,62.6540478 C25.0640393,62.6540478 18.0129559,59.7400102 12.6675015,54.9455361 C15.1224659,47.3622006 25.1740385,41.5319149 34.1408623,41.5319149 C43.3240694,41.5319149 50.7751872,47.6459563 52.2863294,55.4955564 Z" id="Combined-Shape" fill="#5F224E" fill-rule="nonzero"></path>
            <path d="M50.5642973,24.8962273 C50.4573762,24.2724023 49.9205055,23.7970203 49.2703708,23.7970203 C49.1022873,23.7970203 48.9428117,23.8316266 48.7955687,23.8890003 C48.7765404,23.891277 48.7588712,23.8921877 48.7398429,23.8944645 C43.85817,17.2131614 34.3385681,23.3767352 27.0729172,16.9973271 C26.1418882,15.9996623 25.6566657,15.3043478 25.5293571,15.3043478 C25.5293571,15.3043478 18.4825321,21.4446989 17.3091184,23.7970203 C17.3091184,23.7970203 17.2266623,23.9650432 17.1197412,23.8890003 C16.9729512,23.8316266 16.8134757,23.7970203 16.6458451,23.7970203 C15.9938983,23.7970203 15.4565745,24.2728576 15.3501064,24.8962273 C15.3229231,25.0018678 15.3043478,25.1106957 15.3043478,25.2245324 L15.3043478,30.5771335 C15.3043478,31.3088758 15.8946791,31.902648 16.6231924,31.902648 C16.9154131,31.902648 17.1827159,31.8042931 17.4010886,31.642645 C18.4770954,36.5886215 21.2212525,40.7413839 24.8819408,43.2507999 C23.9418507,43.6064258 22.3054143,44.4233178 22.3054143,44.4233178 C23.1331467,45.6445579 25.9846779,52.0608491 32.9531244,52.0608491 C39.9215708,52.0608491 43.6121608,45.5088645 44.3048827,43.8295457 C44.3048827,43.8295457 43.2782589,43.1214815 41.7713964,42.7134908 C45.0610323,40.1699237 47.5102503,36.2502988 48.5128621,31.642645 C48.7316879,31.8042931 48.9989906,31.902648 49.2907583,31.902648 C50.0192716,31.902648 50.6100559,31.3088758 50.6100559,30.5771335 L50.6100559,25.2245324 C50.6100559,25.1106957 50.5914806,25.0018678 50.5642973,24.8962273" id="Fill-9" fill="#F2EFEE" fill-rule="nonzero"></path>
            <path d="M26.335223,29.1142783 C25.1536543,29.2053477 24.8233769,27.4267632 25.1790254,26.265629 C25.2460776,26.0452411 25.6370645,25.0434783 26.3293333,25.0434783 C27.021149,25.0434783 27.3265084,25.5908051 27.3686426,25.6850618 C27.8774239,26.8175092 27.6282434,29.0145574 26.335223,29.1142783" id="Fill-13" fill="#78ACCD" fill-rule="nonzero"></path>
            <path d="M38.8448811,29.1142783 C40.0264498,29.2053477 40.3567272,27.4267632 40.0010787,26.265629 C39.9340265,26.0452411 39.5430396,25.0434783 38.8507708,25.0434783 C38.1589551,25.0434783 37.8535957,25.5908051 37.8114615,25.6850618 C37.3026802,26.8175092 37.5518607,29.0145574 38.8448811,29.1142783" id="Fill-15" fill="#78ACCD" fill-rule="nonzero"></path>
            <path d="M32.066991,30.9920524 C32.7728515,30.8809478 33.4619488,30.9078133 33.7849774,31.3130719 C34.5728409,32.3016297 34.3463132,33.443184 33.0202197,34.2860309 C32.3569465,34.7072267 31.4177625,34.8798031 30.842382,34.6198001" id="Fill-19" fill="#F2EFEE" fill-rule="nonzero"></path>
            <path d="M32.066991,30.9920524 C32.7728515,30.8809478 33.4619488,30.9078133 33.7849774,31.3130719 C34.5728409,32.3016297 34.3463132,33.443184 33.0202197,34.2860309 C32.3569465,34.7072267 31.4177625,34.8798031 30.842382,34.6198001" id="Stroke-21" stroke="#D2C1A4" stroke-width="0.506" stroke-linecap="round"></path>
            <path d="M29,38 C29,38 30.1013511,39.3105712 32.0099932,39.3105712 C33.9188971,39.3105712 35.0700002,38 35.0700002,38" id="Page-1" stroke="#D19E9D" stroke-width="0.600000024" stroke-linecap="round" stroke-linejoin="bevel"></path>
        </g>
    </g>
</svg>