<?xml version="1.0" encoding="UTF-8" standalone="no"?>
<svg width="150px" height="150px" viewBox="0 0 150 150" version="1.1" xmlns="http://www.w3.org/2000/svg" xmlns:xlink="http://www.w3.org/1999/xlink">
    <!-- Generator: Sketch 46.2 (44496) - http://www.bohemiancoding.com/sketch -->
    <title>Ny leder</title>
    <desc>Created with Sketch.</desc>
    <defs>
        <ellipse id="path-1" cx="74.8824267" cy="74.9693642" rx="74.8824267" ry="74.9693642"></ellipse>
    </defs>
    <g id="Leder-endres" stroke="none" stroke-width="1" fill="none" fill-rule="evenodd">
        <g id="Mulig-å-opprette-ny-plan_AT-Copy-3" transform="translate(-472.000000, -442.000000)">
            <g id="Ny-leder" transform="translate(472.000000, 442.000000)">
                <g id="Group-19">
                    <mask id="mask-2" fill="white">
                        <use xlink:href="#path-1"></use>
                    </mask>
                    <use id="Mask" fill="#C9E9F1" xlink:href="#path-1"></use>
                    <g id="Group-2" mask="url(#mask-2)">
                        <g transform="translate(12.000000, 26.000000)">
                            <g id="Stående-mann-med-arm-opp">
                                <path d="M1.28696207,36.9029113 L1.28696207,36.9029113 C0.642651724,37.1419629 0.314755172,37.8578392 0.553341379,38.5021278 L6.7718931,55.330334 C7.01047931,55.9746227 7.72496207,56.3031588 8.36927241,56.0641072 C9.01103103,55.826334 9.34020345,55.1104577 9.1028931,54.4648907 L2.88306552,37.6379629 C2.64447931,36.9936742 1.92872069,36.6638598 1.28696207,36.9029113" id="Fill-34" fill="#E7E5E2"></path>
                                <path d="M3.30792759,34.5060041 L3.30792759,34.5060041 C2.66616897,34.7437773 2.33572069,35.4596536 2.5743069,36.1052206 L8.79413448,52.9308701 C9.03272069,53.5764371 9.74720345,53.9036948 10.3902379,53.6659216 C11.0345483,53.4268701 11.3624448,52.7109938 11.1238586,52.0667052 L4.9053069,35.2397773 C4.66672069,34.5942103 3.95223793,34.2669526 3.30792759,34.5060041" id="Fill-35" fill="#E7E5E2"></path>
                                <path d="M5.47893448,32.501167 L5.47893448,32.501167 C4.83462414,32.7402186 4.50545172,33.4573732 4.74403793,34.1003835 L10.9625897,50.9285897 C11.2011759,51.5728784 11.9156586,51.9014144 12.5612448,51.6623629 C13.2030034,51.4233113 13.5321759,50.7074351 13.2935897,50.0631464 L7.07376207,33.2362186 C6.83517586,32.5919299 6.1206931,32.2621155 5.47893448,32.501167" id="Fill-36" fill="#E7E5E2"></path>
                                <path d="M8.54585172,32.9305649 L8.54585172,32.9305649 C7.9040931,33.1696165 7.57364483,33.8867711 7.81223103,34.5310598 L12.3045414,46.6868948 C12.5431276,47.3324619 13.2588862,47.6597196 13.9019207,47.420668 C14.546231,47.1816165 14.8741276,46.4670186 14.6355414,45.8214515 L10.143231,33.6668948 C9.90464483,33.0213278 9.19016207,32.6915134 8.54585172,32.9305649" id="Fill-37" fill="#E7E5E2"></path>
                                <path d="M9.27908966,58.053732 L8.74322759,56.6028041 C8.59650345,56.2065155 7.78505517,56.1323711 7.78505517,56.1323711 L4.91436552,43.9522474 L11.690469,41.437732 L14.2702621,44.8304742 C14.2702621,44.8304742 14.5879517,44.8125773 14.7104345,44.2667216 C14.8329172,43.7221443 14.9235034,41.3380206 14.9235034,41.3380206 C14.9235034,41.3380206 15.1633655,38.4770722 16.3792621,38.5243711 C17.5938828,38.5729485 17.7048828,40.3562474 17.7048828,40.3562474 C17.7048828,40.3562474 18.1029517,43.0855258 18.2509517,44.4022268 C18.4397793,46.0679175 18.1386759,47.9432577 17.8388483,49.3558351 C17.536469,50.7658557 16.7709517,52.9467216 16.2886759,53.1256907 L16.9342621,55.2132371 L9.27908966,58.053732 Z" id="Fill-38" fill="#E7E5E2"></path>
                                <path d="M58.1687207,84.4965402 L36.5964448,95.5223134 L30.2707207,97.7287464 C25.8638931,99.2653237 21.0475138,96.9310557 19.5139276,92.5143546 L17.8782724,87.807468 L7.58461724,58.171468 L18.2737897,54.4437979 L30.4506172,81.7455299 L52.079031,66.9639629 L58.1687207,84.4965402 Z" id="Fill-39" fill="#105573"></path>
                                <path d="M52.9438103,83.3361814 L60.5428448,90.0257897 L60.5428448,90.0283464 L91.5871207,90.0283464 L99.1848793,90.0283464 L99.1848793,111.839563 L99.1848793,138.99812 L110.504328,138.99812 L110.504328,111.839563 L110.504328,83.3361814 C110.504328,72.5047175 92.0681207,60.8678928 86.4619828,60.8678928 L76.0649828,60.8678928 L65.6667069,60.8678928 C61.9794655,60.8678928 57.6389828,63.1126763 52.0787759,66.963068" id="Fill-40" fill="#105573"></path>
                                <path d="M99.4080276,138.99927 L99.4080276,111.839435 L99.4080276,66.9629402 C94.4755448,63.2966309 89.2445103,60.8677649 86.685131,60.8677649 L76.288131,60.8677649 L65.8898552,60.8677649 C63.3304759,60.8677649 58.0994414,63.2966309 53.1669586,66.9629402 L53.1669586,111.839435 L53.1669586,138.996713 L99.4080276,138.99927 Z" id="Fill-41" fill="#105573"></path>
                                <path d="M103.087359,32.6809031 C103.087359,50.0242845 91.0878759,64.0861402 76.2878759,64.0861402 C61.4866,64.0861402 49.489669,50.0242845 49.489669,32.6809031 C49.489669,15.3375216 61.4866,1.27822268 76.2878759,1.27822268 C91.0878759,1.27822268 103.087359,15.3375216 103.087359,32.6809031" id="Fill-42" fill="#E7E5E2"></path>
                                <path d="M77.3570483,-0.000127835052 C53.374669,-0.000127835052 49.7269793,23.7273361 49.7269793,28.4943052 L50.2679448,29.4760784 C50.8918414,19.0268412 57.5492897,12.5698928 61.3488069,8.94704742 C61.3488069,8.94704742 70.9228759,11.2659753 77.3060138,11.2889856 L77.3060138,11.2915423 C77.3226,11.2915423 77.3404621,11.2902639 77.3570483,11.2902639 C77.3736345,11.2902639 77.3914966,11.2915423 77.4080828,11.2915423 L77.4080828,11.2889856 C83.7912207,11.2659753 93.3665655,8.94704742 93.3665655,8.94704742 C97.1648069,12.5698928 101.861255,19.0268412 102.485152,29.4760784 L103.087359,28.4943052 C103.087359,23.7273361 101.340703,-0.000127835052 77.3570483,-0.000127835052" id="Fill-43" fill="#8B5F26"></path>
                                <path d="M103.550241,40.9183381 L103.550241,40.9183381 C102.335621,40.9183381 101.348103,39.9327299 101.348103,38.7119052 L101.348103,29.8081938 C101.348103,28.5873691 102.335621,27.6004825 103.550241,27.6004825 C104.767414,27.6004825 105.752379,28.5873691 105.752379,29.8081938 L105.752379,38.7119052 C105.752379,39.9327299 104.767414,40.9183381 103.550241,40.9183381" id="Fill-44" fill="#E7E5E2"></path>
                                <path d="M49.0252552,40.9183381 L49.0252552,40.9183381 C47.8093586,40.9183381 46.8231172,39.9327299 46.8231172,38.7119052 L46.8231172,29.8081938 C46.8231172,28.5873691 47.8093586,27.6004825 49.0252552,27.6004825 C50.2424276,27.6004825 51.2273931,28.5873691 51.2273931,29.8081938 L51.2273931,38.7119052 C51.2273931,39.9327299 50.2424276,40.9183381 49.0252552,40.9183381" id="Fill-45" fill="#E7E5E2"></path>
                            </g>
                            <g id="Blid-mann" transform="translate(65.000000, 27.000000)">
                                <path d="M2.00969752,5.99506546 C0.172192739,6.12891678 -0.342105421,3.50960612 0.210288899,1.79901084 C0.315688275,1.47482049 0.923956962,0 2.00080842,0 C3.07639,0 3.55132213,0.805563897 3.61735547,0.94432719 C4.40848573,2.6119427 4.0199049,5.84770621 2.00969752,5.99506546" id="Fill-61" fill="#635E59"></path>
                                <path d="M22.9906986,5.99506546 C24.8283281,6.12891678 25.3426612,3.50960612 24.7889594,1.79901084 C24.6848229,1.47482049 24.0765129,0 22.9995883,0 C21.9239337,0 21.4489693,0.805563897 21.3829315,0.94432719 C20.5917475,2.6119427 20.9790848,5.84770621 22.9906986,5.99506546" id="Fill-63" fill="#635E59"></path>
                                <path d="M12.8027682,9.088749 C13.8423645,8.91397403 14.8555202,8.95602515 15.331451,9.59467654 C16.4912319,11.1518821 16.1583207,12.9508816 14.2053218,14.2807483 C13.2294233,14.9443675 11.847301,15.2163857 11,14.8063873" id="Stroke-65" stroke="#D1BFA3" stroke-width="0.506" stroke-linecap="round"></path>
                                <path d="M21,20 C21,20 18.6339973,25.1880261 12.0511253,24.9947297 C5.4682534,24.8014333 3,20 3,20" id="Stroke-67" stroke="#593A32" stroke-width="1.013" stroke-linecap="round"></path>
                            </g>
                        </g>
                    </g>
                </g>
            </g>
        </g>
    </g>
</svg>