<?xml version="1.0" encoding="UTF-8" standalone="no"?>
<svg width="80px" height="77px" viewBox="0 0 80 77" version="1.1" xmlns="http://www.w3.org/2000/svg" xmlns:xlink="http://www.w3.org/1999/xlink">
    <!-- Generator: Sketch 48.2 (47327) - http://www.bohemiancoding.com/sketch -->
    <title>sendt_suksess_illustrasjon copy 2</title>
    <desc>Created with Sketch.</desc>
    <defs>
        <ellipse id="path-1" cx="39.9372942" cy="38.1301137" rx="39.9372942" ry="38.1301137"></ellipse>
        <polygon id="path-3" points="43.0416568 27.7947678 43.0416568 0.218175129 0 0.218175129 0 27.7947678 0 55.3713606 43.0416568 55.3713606"></polygon>
        <polygon id="path-5" points="0 55.4109639 43.0416568 55.4109639 43.0416568 0.257542311 0 0.257542311"></polygon>
    </defs>
    <g id="Oppdatert-oversiktsside-Copy-13" stroke="none" stroke-width="1" fill="none" fill-rule="evenodd" transform="translate(-259.000000, -766.000000)">
        <g id="sendt_suksess_illustrasjon-copy-2" transform="translate(259.000000, 766.000000)">
            <g id="Group-19">
                <mask id="mask-2" fill="white">
                    <use xlink:href="#path-1"></use>
                </mask>
                <use id="Mask" fill="#B7B1A9" xlink:href="#path-1"></use>
                <g id="Page-1" mask="url(#mask-2)">
                    <g transform="translate(16.953642, 21.721854)">
                        <g id="Group-3" stroke="none" stroke-width="1" fill="none" fill-rule="evenodd" transform="translate(0.000000, 0.039367)">
                            <mask id="mask-4" fill="white">
                                <use xlink:href="#path-3"></use>
                            </mask>
                            <g id="Clip-2"></g>
                            <path d="M0,9.40230243 L0,52.5849514 C0,54.1242082 1.25196869,55.3713606 2.79698495,55.3713606 L40.2462517,55.3713606 C41.790478,55.3713606 43.0416568,54.1242082 43.0416568,52.5849514 L43.0416568,3.00513539 C43.0416568,1.46587859 41.790478,0.217938926 40.2462517,0.217938926 L9.73376039,0.217938926 L0,9.40230243 Z" id="Fill-1" fill="#E4E4DB" mask="url(#mask-4)"></path>
                        </g>
                        <path d="M9.73391836,0.257542311 L9.73391836,6.653922 C9.73391836,8.19396615 8.48194967,9.44190581 6.93693341,9.44190581 L0.000157977122,9.44190581 L9.73391836,0.257542311 Z" id="Fill-4" stroke="none" fill="#FFFFFF" fill-rule="evenodd"></path>
                        <mask id="mask-6" fill="white">
                            <use xlink:href="#path-5"></use>
                        </mask>
                        <g id="Clip-7" stroke="none" fill="none"></g>
                    </g>
                </g>
            </g>
        </g>
    </g>
</svg>