<?xml version="1.0" encoding="UTF-8" standalone="no"?>
<svg width="150px" height="150px" viewBox="0 0 150 150" version="1.1" xmlns="http://www.w3.org/2000/svg" xmlns:xlink="http://www.w3.org/1999/xlink">
    <!-- Generator: Sketch 46.2 (44496) - http://www.bohemiancoding.com/sketch -->
    <title>AVBRUTT</title>
    <desc>Created with Sketch.</desc>
    <defs>
        <ellipse id="path-1" cx="74.8824267" cy="74.9693642" rx="74.8824267" ry="74.9693642"></ellipse>
        <polygon id="path-3" points="80.7031066 54.648567 80.7031066 0.42896412 0 0.42896412 0 54.648567 0 108.86817 80.7031066 108.86817"></polygon>
        <polygon id="path-5" points="0 108.946036 80.7031066 108.946036 80.7031066 0.506365741 0 0.506365741"></polygon>
    </defs>
    <g id="Lag-en-ny-plan-i-planperioden" stroke="none" stroke-width="1" fill="none" fill-rule="evenodd">
        <g id="AG_Avbryt-godkjent-etter" transform="translate(-438.000000, -572.000000)">
            <g id="AVBRUTT" transform="translate(438.000000, 572.000000)">
                <g id="Avbrutt-plan">
                    <g id="sendt_suksess_illustrasjon">
                        <g id="Group-19">
                            <mask id="mask-2" fill="white">
                                <use xlink:href="#path-1"></use>
                            </mask>
                            <use id="Mask" fill="#FDBC6D" xlink:href="#path-1"></use>
                            <g id="Page-1" mask="url(#mask-2)">
                                <g transform="translate(31.788079, 42.708333)">
                                    <g id="Group-3" stroke="none" stroke-width="1" fill="none" fill-rule="evenodd" transform="translate(0.000000, 0.077402)">
                                        <mask id="mask-4" fill="white">
                                            <use xlink:href="#path-3"></use>
                                        </mask>
                                        <g id="Clip-2"></g>
                                        <path d="M0,18.4862977 L0,103.389683 C0,106.416087 2.3474413,108.86817 5.24434678,108.86817 L75.4617219,108.86817 C78.3571463,108.86817 80.7031066,106.416087 80.7031066,103.389683 L80.7031066,5.90853443 C80.7031066,2.88213108 78.3571463,0.428499711 75.4617219,0.428499711 L18.2508007,0.428499711 L0,18.4862977 Z" id="Fill-1" fill="#E4E4DB" mask="url(#mask-4)"></path>
                                    </g>
                                    <path d="M18.2510969,0.506365741 L18.2510969,13.082581 C18.2510969,16.1105324 15.9036556,18.5641638 13.0067502,18.5641638 L0.000296207104,18.5641638 L18.2510969,0.506365741 Z" id="Fill-4" stroke="none" fill="#BBBCBC" fill-rule="evenodd"></path>
                                    <mask id="mask-6" fill="white">
                                        <use xlink:href="#path-5"></use>
                                    </mask>
                                    <g id="Clip-7" stroke="none" fill="none"></g>
                                </g>
                            </g>
                        </g>
                    </g>
                </g>
                <g id="Group-2" transform="translate(51.000000, 75.000000)" fill="#FF9100">
                    <g id="Group-4" transform="translate(8.000000, 0.000000)">
                        <path d="M8,22.7998333 L23.3914255,1.45538526 C24.5265524,-0.118943696 26.716526,-0.471713475 28.2866605,0.671035436 C29.856795,1.81378435 30.2040542,4.01671903 29.0689273,5.59292442 L11.0749245,30.5438805 C10.5891981,31.0000086 8,22.7998333 8,22.7998333 Z" id="Fill-20"></path>
                        <path d="M-4.54747351e-13,30.7998333 L15.3914255,9.45538526 C16.5265524,7.8810563 18.716526,7.52828653 20.2866605,8.67103544 C21.856795,9.81378435 22.2040542,12.016719 21.0689273,13.5929244 L3.07492452,38.5438805 C2.58919806,39.0000086 -4.54747351e-13,30.7998333 -4.54747351e-13,30.7998333 Z" id="Fill-20-Copy" transform="translate(10.868095, 23.281114) rotate(-180.000000) translate(-10.868095, -23.281114) "></path>
                    </g>
                    <g id="Group-4-Copy" transform="translate(22.858920, 19.535859) rotate(-75.000000) translate(-22.858920, -19.535859) translate(7.858920, 0.035859)">
                        <path d="M8,22.7998333 L23.3914255,1.45538526 C24.5265524,-0.118943696 26.716526,-0.471713475 28.2866605,0.671035436 C29.856795,1.81378435 30.2040542,4.01671903 29.0689273,5.59292442 L11.0749245,30.5438805 C10.5891981,31.0000086 8,22.7998333 8,22.7998333 Z" id="Fill-20"></path>
                        <path d="M-4.54747351e-13,30.7998333 L15.3914255,9.45538526 C16.5265524,7.8810563 18.716526,7.52828653 20.2866605,8.67103544 C21.856795,9.81378435 22.2040542,12.016719 21.0689273,13.5929244 L3.07492452,38.5438805 C2.58919806,39.0000086 -4.54747351e-13,30.7998333 -4.54747351e-13,30.7998333 Z" id="Fill-20-Copy" transform="translate(10.868095, 23.281114) rotate(-180.000000) translate(-10.868095, -23.281114) "></path>
                    </g>
                </g>
            </g>
        </g>
    </g>
</svg>