<?xml version="1.0" encoding="utf-8"?>
<!-- Generator: Adobe Illustrator 24.1.0, SVG Export Plug-In . SVG Version: 6.00 Build 0)  -->
<svg version="1.1" id="Layer_1" xmlns="http://www.w3.org/2000/svg" xmlns:xlink="http://www.w3.org/1999/xlink" x="0px" y="0px"
	 viewBox="0 0 43 43" style="enable-background:new 0 0 43 43;" xml:space="preserve">
<style type="text/css">
	.st0{clip-path:url(#SVGID_2_);fill:#1C6937;}
	.st1{clip-path:url(#SVGID_4_);fill:#FFFFFF;}
	.st2{clip-path:url(#SVGID_6_);fill:#669DB4;}
	.st3{clip-path:url(#SVGID_8_);fill:#FFFFFF;}
	.st4{clip-path:url(#SVGID_10_);fill:#A13A28;}
	.st5{clip-path:url(#SVGID_12_);fill:#FFFFFF;}
</style>
<g>
	<g>
		<defs>
			<path id="SVGID_9_" d="M21.5,0.3c-11.6,0-21,9.5-21,21.2c0,5.7,2.2,11,6.1,15c4,4,9.2,6.2,14.8,6.2h0c11.6,0,21-9.5,21-21.2
				C42.5,9.8,33.1,0.3,21.5,0.3z"/>
		</defs>
		<clipPath id="SVGID_2_">
			<use xlink:href="#SVGID_9_"  style="overflow:visible;"/>
		</clipPath>
		<rect x="-4.5" y="-4.7" style="clip-path:url(#SVGID_2_);fill:#A13A28;" width="52" height="52.5"/>
	</g>
	<g>
		<defs>
			<path id="SVGID_11_" d="M21.5,19.1l5.9-6c0.7-0.7,1.7-0.7,2.4,0c0.7,0.7,0.7,1.7,0,2.4l-5.9,6l5.9,6c0.7,0.7,0.7,1.7,0,2.4
				c-0.7,0.7-1.7,0.7-2.4,0l-5.9-6l-5.9,6c-0.7,0.7-1.7,0.7-2.4,0c-0.7-0.7-0.7-1.7,0-2.4l5.9-6l-5.9-6c-0.7-0.7-0.7-1.7,0-2.4
				c0.7-0.7,1.7-0.7,2.4,0L21.5,19.1z"/>
		</defs>
		<clipPath id="SVGID_4_">
			<use xlink:href="#SVGID_11_"  style="overflow:visible;"/>
		</clipPath>
		<rect x="7.8" y="7.7" class="st1" width="27.5" height="27.7"/>
	</g>
</g>
</svg>
