<?xml version="1.0" encoding="UTF-8"?>
<svg width="72px" height="72px" viewBox="0 0 72 72" version="1.1" xmlns="http://www.w3.org/2000/svg" xmlns:xlink="http://www.w3.org/1999/xlink">
    <!-- Generator: Sketch 46.2 (44496) - http://www.bohemiancoding.com/sketch -->
    <title>Sykmelding</title>
    <desc>Created with Sketch.</desc>
    <defs></defs>
    <g id="Flyt" stroke="none" stroke-width="1" fill="none" fill-rule="evenodd">
        <g id="Sykmeldingen-til-ansatt" transform="translate(-216.000000, -350.000000)">
            <g id="Sykmelding" transform="translate(216.000000, 350.000000)">
                <circle id="Oval-2" fill="#DCF3FA" cx="36" cy="36" r="36"></circle>
                <g id="Group-3" transform="translate(20.880000, 15.840000)">
                    <path d="M0,6.62658667 L0,37.78496 C0,38.8978 0.900706667,39.7962133 2.01125333,39.7962133 L28.9481733,39.7962133 C30.0592933,39.7962133 30.96,38.8978 30.96,37.78496 L30.96,2.01068 C30.96,0.89956 30.0592933,0 28.9481733,0 L7.00212,0 L0,6.62658667 Z" id="Fill-245" fill="#EAEAE4"></path>
                    <path d="M7.00212,0 L7.00212,4.61418667 C7.00212,5.72530667 6.10198667,6.62658667 4.99086667,6.62658667 L0,6.62658667 L7.00212,0 Z" id="Fill-247" fill="#C0C0BE"></path>
                    <path d="M9.3628977,18.2289447 L9.3628977,18.2289447 C10.435031,18.2495847 11.327711,17.390158 11.3489244,16.3191713 C11.3701377,15.2481847 10.5118577,14.3549313 9.43972437,14.333718 C8.3687377,14.3125047 7.47491104,15.171358 7.4536977,16.242918 C7.4330577,17.3139047 8.29191104,18.207158 9.3628977,18.2289447" id="Fill-249" fill="#CBC9C7"></path>
                    <path d="M9.71142164,17.6195918 C10.5674083,17.6333518 11.273755,16.9510851 11.2898083,16.0939518 C11.3058616,15.2379651 10.6241683,14.5258851 9.77047497,14.5069651 C8.90531497,14.4880451 8.18807497,15.1829251 8.18004831,16.0463651 C8.17259497,16.9080851 8.85142164,17.6052584 9.71142164,17.6195918 M9.00908831,18.8287518 C8.90932831,18.7954984 8.83192831,18.7725651 8.75796831,18.7444718 C7.30628831,18.1998051 6.54662164,16.6426318 7.02076831,15.1794851 C7.48803497,13.7318184 9.02399497,12.9085118 10.499755,13.3155784 C11.7301283,13.6538451 12.5746483,14.7661118 12.589555,16.0675784 C12.603315,17.3076984 11.7565016,18.4371651 10.535875,18.7983651 C10.3908216,18.8413651 10.296795,18.8734718 10.2945016,19.0724184 C10.2698483,20.9019251 10.224555,22.7302851 10.1947416,24.5592184 C10.1597683,26.7390318 11.738155,28.5112051 13.905355,28.7422584 C16.2474216,28.9916584 18.735115,27.0910584 18.3899683,23.9818718 C17.8384216,23.7875118 17.2891683,23.6355784 16.7754616,23.4045251 C15.778435,22.9567518 14.9172883,22.3163384 14.2728616,21.4167784 C13.9598216,20.9804718 13.7304883,20.5046051 13.740235,19.9559251 C13.779795,17.6230318 13.8067416,15.2901384 13.8852883,12.9589651 C13.927715,11.7199918 14.5618216,10.8026584 15.656315,10.2201518 C15.8122616,10.1364451 15.9148883,10.0406984 15.9963016,9.88188509 C16.280675,9.32460509 16.922235,9.05513842 17.5179283,9.22255175 C18.124515,9.39225842 18.5350216,9.94380509 18.5120883,10.5589918 C18.4897283,11.1885118 18.0304883,11.7171251 17.4112883,11.8340851 C16.9216616,11.9258184 16.5203283,11.7543918 16.1648616,11.4201384 C15.520435,11.8117251 15.185035,12.3753118 15.1689816,13.1206451 C15.1225416,15.3176584 15.0881416,17.5135251 15.0331016,19.7105384 C15.0227816,20.1198984 15.1443283,20.4598851 15.389715,20.7712051 C15.812835,21.3072718 16.3454616,21.7080318 16.9319816,22.0434318 C18.926035,23.1837918 21.5123416,22.6586184 22.9135683,20.8296851 C23.119395,20.5619384 23.234635,20.2741251 23.234635,19.9255384 C23.2334883,19.1589918 23.2592883,18.3918718 23.274195,17.6247518 C23.3028616,16.1552984 23.3384083,14.6858451 23.3579016,13.2152451 C23.3676483,12.4882584 23.031675,11.9424451 22.4354083,11.5416851 C22.094275,11.8472718 21.7239016,11.9957651 21.2933283,11.9304051 C20.630555,11.8300718 20.159275,11.3026051 20.1374883,10.6593251 C20.1151283,9.98680509 20.5451283,9.43067175 21.2010216,9.28561842 C21.8271016,9.14801842 22.436555,9.47883175 22.7174883,10.1008984 C22.7518883,10.1794451 22.820115,10.2614318 22.894075,10.3032851 C24.089475,10.9780984 24.681155,11.9951918 24.653635,13.3688984 C24.612355,15.5257784 24.553875,17.6826584 24.536675,19.8395384 C24.5309416,20.6055118 24.271795,21.2419118 23.7770083,21.7974718 C22.811515,22.8845118 21.595475,23.5438451 20.186795,23.8672051 C20.0331416,23.9033251 19.8777683,23.9296984 19.737875,23.9572184 C19.6977416,24.5047518 19.6925816,25.0339384 19.6169016,25.5528051 C19.206395,28.4074318 16.333995,30.4834718 13.4816616,30.0035918 C10.7451416,29.5414851 8.85027497,27.2664984 8.89843497,24.4938584 C8.92996831,22.6723784 8.96895497,20.8520451 9.00507497,19.0299918 C9.00622164,18.9674984 9.00679497,18.9044318 9.00908831,18.8287518" id="Fill-251" fill="#515658"></path>
                    <path d="M9.71142164,17.6195918 C10.5674083,17.6333518 11.273755,16.9510851 11.2898083,16.0939518 C11.3058616,15.2379651 10.6241683,14.5258851 9.77047497,14.5069651 C8.90531497,14.4880451 8.18807497,15.1829251 8.18004831,16.0463651 C8.17259497,16.9080851 8.85142164,17.6052584 9.71142164,17.6195918 M9.00908831,18.8287518 C8.90932831,18.7954984 8.83192831,18.7725651 8.75796831,18.7444718 C7.30628831,18.1998051 6.54662164,16.6426318 7.02076831,15.1794851 C7.48803497,13.7318184 9.02399497,12.9085118 10.499755,13.3155784 C11.7301283,13.6538451 12.5746483,14.7661118 12.589555,16.0675784 C12.603315,17.3076984 11.7565016,18.4371651 10.535875,18.7983651 C10.3908216,18.8413651 10.296795,18.8734718 10.2945016,19.0724184 C10.2698483,20.9019251 10.224555,22.7302851 10.1947416,24.5592184 C10.1597683,26.7390318 11.738155,28.5112051 13.905355,28.7422584 C16.2474216,28.9916584 18.735115,27.0910584 18.3899683,23.9818718 C17.8384216,23.7875118 17.2891683,23.6355784 16.7754616,23.4045251 C15.778435,22.9567518 14.9172883,22.3163384 14.2728616,21.4167784 C13.9598216,20.9804718 13.7304883,20.5046051 13.740235,19.9559251 C13.779795,17.6230318 13.8067416,15.2901384 13.8852883,12.9589651 C13.927715,11.7199918 14.5618216,10.8026584 15.656315,10.2201518 C15.8122616,10.1364451 15.9148883,10.0406984 15.9963016,9.88188509 C16.280675,9.32460509 16.922235,9.05513842 17.5179283,9.22255175 C18.124515,9.39225842 18.5350216,9.94380509 18.5120883,10.5589918 C18.4897283,11.1885118 18.0304883,11.7171251 17.4112883,11.8340851 C16.9216616,11.9258184 16.5203283,11.7543918 16.1648616,11.4201384 C15.520435,11.8117251 15.185035,12.3753118 15.1689816,13.1206451 C15.1225416,15.3176584 15.0881416,17.5135251 15.0331016,19.7105384 C15.0227816,20.1198984 15.1443283,20.4598851 15.389715,20.7712051 C15.812835,21.3072718 16.3454616,21.7080318 16.9319816,22.0434318 C18.926035,23.1837918 21.5123416,22.6586184 22.9135683,20.8296851 C23.119395,20.5619384 23.234635,20.2741251 23.234635,19.9255384 C23.2334883,19.1589918 23.2592883,18.3918718 23.274195,17.6247518 C23.3028616,16.1552984 23.3384083,14.6858451 23.3579016,13.2152451 C23.3676483,12.4882584 23.031675,11.9424451 22.4354083,11.5416851 C22.094275,11.8472718 21.7239016,11.9957651 21.2933283,11.9304051 C20.630555,11.8300718 20.159275,11.3026051 20.1374883,10.6593251 C20.1151283,9.98680509 20.5451283,9.43067175 21.2010216,9.28561842 C21.8271016,9.14801842 22.436555,9.47883175 22.7174883,10.1008984 C22.7518883,10.1794451 22.820115,10.2614318 22.894075,10.3032851 C24.089475,10.9780984 24.681155,11.9951918 24.653635,13.3688984 C24.612355,15.5257784 24.553875,17.6826584 24.536675,19.8395384 C24.5309416,20.6055118 24.271795,21.2419118 23.7770083,21.7974718 C22.811515,22.8845118 21.595475,23.5438451 20.186795,23.8672051 C20.0331416,23.9033251 19.8777683,23.9296984 19.737875,23.9572184 C19.6977416,24.5047518 19.6925816,25.0339384 19.6169016,25.5528051 C19.206395,28.4074318 16.333995,30.4834718 13.4816616,30.0035918 C10.7451416,29.5414851 8.85027497,27.2664984 8.89843497,24.4938584 C8.92996831,22.6723784 8.96895497,20.8520451 9.00507497,19.0299918 C9.00622164,18.9674984 9.00679497,18.9044318 9.00908831,18.8287518" id="Fill-251" fill="#515658"></path>
                    <path d="M8.02666667,16.6008667 C8.02666667,17.5365467 8.78461333,18.2950667 9.72029333,18.2950667 C10.6559733,18.2950667 11.4144933,17.5365467 11.4144933,16.6008667 C11.4144933,15.6651867 10.6559733,14.9066667 9.72029333,14.9066667 C8.78461333,14.9066667 8.02666667,15.6651867 8.02666667,16.6008667" id="Fill-253" fill="#A59D96"></path>
                    <path d="M0,6.62658667 L0,37.78496 C0,38.8978 0.900706667,39.7962133 2.01125333,39.7962133 L28.9481733,39.7962133 C30.0592933,39.7962133 30.96,38.8978 30.96,37.78496 L30.96,2.01068 C30.96,0.89956 30.0592933,0 28.9481733,0 L7.00212,0 L0,6.62658667 Z" id="Fill-245" stroke="#C0C0BE" fill="#EAEAE4"></path>
                    <path d="M7.00212,0 L7.00212,4.61418667 C7.00212,5.72530667 6.10198667,6.62658667 4.99086667,6.62658667 L0,6.62658667 L7.00212,0 Z" id="Fill-247" fill="#C0C0BE"></path>
                    <path d="M9.3628977,18.2289447 L9.3628977,18.2289447 C10.435031,18.2495847 11.327711,17.390158 11.3489244,16.3191713 C11.3701377,15.2481847 10.5118577,14.3549313 9.43972437,14.333718 C8.3687377,14.3125047 7.47491104,15.171358 7.4536977,16.242918 C7.4330577,17.3139047 8.29191104,18.207158 9.3628977,18.2289447" id="Fill-249" fill="#CBC9C7"></path>
                    <path d="M9.71142164,17.6195918 C10.5674083,17.6333518 11.273755,16.9510851 11.2898083,16.0939518 C11.3058616,15.2379651 10.6241683,14.5258851 9.77047497,14.5069651 C8.90531497,14.4880451 8.18807497,15.1829251 8.18004831,16.0463651 C8.17259497,16.9080851 8.85142164,17.6052584 9.71142164,17.6195918 M9.00908831,18.8287518 C8.90932831,18.7954984 8.83192831,18.7725651 8.75796831,18.7444718 C7.30628831,18.1998051 6.54662164,16.6426318 7.02076831,15.1794851 C7.48803497,13.7318184 9.02399497,12.9085118 10.499755,13.3155784 C11.7301283,13.6538451 12.5746483,14.7661118 12.589555,16.0675784 C12.603315,17.3076984 11.7565016,18.4371651 10.535875,18.7983651 C10.3908216,18.8413651 10.296795,18.8734718 10.2945016,19.0724184 C10.2698483,20.9019251 10.224555,22.7302851 10.1947416,24.5592184 C10.1597683,26.7390318 11.738155,28.5112051 13.905355,28.7422584 C16.2474216,28.9916584 18.735115,27.0910584 18.3899683,23.9818718 C17.8384216,23.7875118 17.2891683,23.6355784 16.7754616,23.4045251 C15.778435,22.9567518 14.9172883,22.3163384 14.2728616,21.4167784 C13.9598216,20.9804718 13.7304883,20.5046051 13.740235,19.9559251 C13.779795,17.6230318 13.8067416,15.2901384 13.8852883,12.9589651 C13.927715,11.7199918 14.5618216,10.8026584 15.656315,10.2201518 C15.8122616,10.1364451 15.9148883,10.0406984 15.9963016,9.88188509 C16.280675,9.32460509 16.922235,9.05513842 17.5179283,9.22255175 C18.124515,9.39225842 18.5350216,9.94380509 18.5120883,10.5589918 C18.4897283,11.1885118 18.0304883,11.7171251 17.4112883,11.8340851 C16.9216616,11.9258184 16.5203283,11.7543918 16.1648616,11.4201384 C15.520435,11.8117251 15.185035,12.3753118 15.1689816,13.1206451 C15.1225416,15.3176584 15.0881416,17.5135251 15.0331016,19.7105384 C15.0227816,20.1198984 15.1443283,20.4598851 15.389715,20.7712051 C15.812835,21.3072718 16.3454616,21.7080318 16.9319816,22.0434318 C18.926035,23.1837918 21.5123416,22.6586184 22.9135683,20.8296851 C23.119395,20.5619384 23.234635,20.2741251 23.234635,19.9255384 C23.2334883,19.1589918 23.2592883,18.3918718 23.274195,17.6247518 C23.3028616,16.1552984 23.3384083,14.6858451 23.3579016,13.2152451 C23.3676483,12.4882584 23.031675,11.9424451 22.4354083,11.5416851 C22.094275,11.8472718 21.7239016,11.9957651 21.2933283,11.9304051 C20.630555,11.8300718 20.159275,11.3026051 20.1374883,10.6593251 C20.1151283,9.98680509 20.5451283,9.43067175 21.2010216,9.28561842 C21.8271016,9.14801842 22.436555,9.47883175 22.7174883,10.1008984 C22.7518883,10.1794451 22.820115,10.2614318 22.894075,10.3032851 C24.089475,10.9780984 24.681155,11.9951918 24.653635,13.3688984 C24.612355,15.5257784 24.553875,17.6826584 24.536675,19.8395384 C24.5309416,20.6055118 24.271795,21.2419118 23.7770083,21.7974718 C22.811515,22.8845118 21.595475,23.5438451 20.186795,23.8672051 C20.0331416,23.9033251 19.8777683,23.9296984 19.737875,23.9572184 C19.6977416,24.5047518 19.6925816,25.0339384 19.6169016,25.5528051 C19.206395,28.4074318 16.333995,30.4834718 13.4816616,30.0035918 C10.7451416,29.5414851 8.85027497,27.2664984 8.89843497,24.4938584 C8.92996831,22.6723784 8.96895497,20.8520451 9.00507497,19.0299918 C9.00622164,18.9674984 9.00679497,18.9044318 9.00908831,18.8287518" id="Fill-251" fill="#515658"></path>
                    <path d="M9.71142164,17.6195918 C10.5674083,17.6333518 11.273755,16.9510851 11.2898083,16.0939518 C11.3058616,15.2379651 10.6241683,14.5258851 9.77047497,14.5069651 C8.90531497,14.4880451 8.18807497,15.1829251 8.18004831,16.0463651 C8.17259497,16.9080851 8.85142164,17.6052584 9.71142164,17.6195918 M9.00908831,18.8287518 C8.90932831,18.7954984 8.83192831,18.7725651 8.75796831,18.7444718 C7.30628831,18.1998051 6.54662164,16.6426318 7.02076831,15.1794851 C7.48803497,13.7318184 9.02399497,12.9085118 10.499755,13.3155784 C11.7301283,13.6538451 12.5746483,14.7661118 12.589555,16.0675784 C12.603315,17.3076984 11.7565016,18.4371651 10.535875,18.7983651 C10.3908216,18.8413651 10.296795,18.8734718 10.2945016,19.0724184 C10.2698483,20.9019251 10.224555,22.7302851 10.1947416,24.5592184 C10.1597683,26.7390318 11.738155,28.5112051 13.905355,28.7422584 C16.2474216,28.9916584 18.735115,27.0910584 18.3899683,23.9818718 C17.8384216,23.7875118 17.2891683,23.6355784 16.7754616,23.4045251 C15.778435,22.9567518 14.9172883,22.3163384 14.2728616,21.4167784 C13.9598216,20.9804718 13.7304883,20.5046051 13.740235,19.9559251 C13.779795,17.6230318 13.8067416,15.2901384 13.8852883,12.9589651 C13.927715,11.7199918 14.5618216,10.8026584 15.656315,10.2201518 C15.8122616,10.1364451 15.9148883,10.0406984 15.9963016,9.88188509 C16.280675,9.32460509 16.922235,9.05513842 17.5179283,9.22255175 C18.124515,9.39225842 18.5350216,9.94380509 18.5120883,10.5589918 C18.4897283,11.1885118 18.0304883,11.7171251 17.4112883,11.8340851 C16.9216616,11.9258184 16.5203283,11.7543918 16.1648616,11.4201384 C15.520435,11.8117251 15.185035,12.3753118 15.1689816,13.1206451 C15.1225416,15.3176584 15.0881416,17.5135251 15.0331016,19.7105384 C15.0227816,20.1198984 15.1443283,20.4598851 15.389715,20.7712051 C15.812835,21.3072718 16.3454616,21.7080318 16.9319816,22.0434318 C18.926035,23.1837918 21.5123416,22.6586184 22.9135683,20.8296851 C23.119395,20.5619384 23.234635,20.2741251 23.234635,19.9255384 C23.2334883,19.1589918 23.2592883,18.3918718 23.274195,17.6247518 C23.3028616,16.1552984 23.3384083,14.6858451 23.3579016,13.2152451 C23.3676483,12.4882584 23.031675,11.9424451 22.4354083,11.5416851 C22.094275,11.8472718 21.7239016,11.9957651 21.2933283,11.9304051 C20.630555,11.8300718 20.159275,11.3026051 20.1374883,10.6593251 C20.1151283,9.98680509 20.5451283,9.43067175 21.2010216,9.28561842 C21.8271016,9.14801842 22.436555,9.47883175 22.7174883,10.1008984 C22.7518883,10.1794451 22.820115,10.2614318 22.894075,10.3032851 C24.089475,10.9780984 24.681155,11.9951918 24.653635,13.3688984 C24.612355,15.5257784 24.553875,17.6826584 24.536675,19.8395384 C24.5309416,20.6055118 24.271795,21.2419118 23.7770083,21.7974718 C22.811515,22.8845118 21.595475,23.5438451 20.186795,23.8672051 C20.0331416,23.9033251 19.8777683,23.9296984 19.737875,23.9572184 C19.6977416,24.5047518 19.6925816,25.0339384 19.6169016,25.5528051 C19.206395,28.4074318 16.333995,30.4834718 13.4816616,30.0035918 C10.7451416,29.5414851 8.85027497,27.2664984 8.89843497,24.4938584 C8.92996831,22.6723784 8.96895497,20.8520451 9.00507497,19.0299918 C9.00622164,18.9674984 9.00679497,18.9044318 9.00908831,18.8287518" id="Fill-251" fill="#515658"></path>
                    <path d="M8.02666667,16.0275333 C8.02666667,16.9632133 8.78461333,17.7217333 9.72029333,17.7217333 C10.6559733,17.7217333 11.4144933,16.9632133 11.4144933,16.0275333 C11.4144933,15.0918533 10.6559733,14.3333333 9.72029333,14.3333333 C8.78461333,14.3333333 8.02666667,15.0918533 8.02666667,16.0275333" id="Fill-253" fill="#A59D96"></path>
                </g>
            </g>
        </g>
    </g>
</svg>