<?xml version="1.0" encoding="UTF-8"?>
<svg width="32px" height="32px" viewBox="0 0 32 32" version="1.1" xmlns="http://www.w3.org/2000/svg" xmlns:xlink="http://www.w3.org/1999/xlink">
    <!-- Generator: Sketch 41.2 (35397) - http://www.bohemiancoding.com/sketch -->
    <title>Tidslinje hover</title>
    <desc>Created with Sketch.</desc>
    <defs></defs>
    <g id="Page-1" stroke="none" stroke-width="1" fill="none" fill-rule="evenodd">
        <g id="Tidslinje-hover" fill="#3E3832">
            <g id="Filled_Version">
                <g id="Group">
                    <path d="M3.476,0.727272727 C1.63866667,0.727272727 0.142666667,2.35781818 0.142666667,4.36363636 C0.142666667,6.368 1.63866667,8 3.476,8 C5.31466667,8 6.80933333,6.368 6.80933333,4.36363636 C6.80933333,2.35781818 5.31466667,0.727272727 3.476,0.727272727 Z" id="Shape"></path>
                    <path d="M11.5693333,5.81818182 L30.524,5.81818182 C31.26,5.81818182 31.8573333,5.168 31.8573333,4.36363636 C31.8573333,3.56072727 31.26,2.90909091 30.524,2.90909091 L11.5693333,2.90909091 C10.8333333,2.90909091 10.236,3.56072727 10.236,4.36363636 C10.236,5.168 10.8333333,5.81818182 11.5693333,5.81818182 Z" id="Shape"></path>
                    <path d="M3.476,12.3636364 C1.63866667,12.3636364 0.142666667,13.9941818 0.142666667,16 C0.142666667,18.0043636 1.63866667,19.6363636 3.476,19.6363636 C5.31466667,19.6363636 6.80933333,18.0043636 6.80933333,16 C6.80933333,13.9941818 5.31466667,12.3636364 3.476,12.3636364 Z" id="Shape"></path>
                    <path d="M30.524,14.5454545 L11.5693333,14.5454545 C10.8333333,14.5454545 10.236,15.1970909 10.236,16 C10.236,16.8043636 10.8333333,17.4545455 11.5693333,17.4545455 L30.524,17.4545455 C31.26,17.4545455 31.8573333,16.8043636 31.8573333,16 C31.8573333,15.1970909 31.2586667,14.5454545 30.524,14.5454545 Z" id="Shape"></path>
                    <path d="M3.476,24 C1.63866667,24 0.142666667,25.6305455 0.142666667,27.6363636 C0.142666667,29.6407273 1.63866667,31.2727273 3.476,31.2727273 C5.31466667,31.2727273 6.80933333,29.6407273 6.80933333,27.6363636 C6.80933333,25.6305455 5.31466667,24 3.476,24 Z" id="Shape"></path>
                    <path d="M30.524,26.1818182 L11.5693333,26.1818182 C10.8333333,26.1818182 10.236,26.8334545 10.236,27.6363636 C10.236,28.4407273 10.8333333,29.0909091 11.5693333,29.0909091 L30.524,29.0909091 C31.26,29.0909091 31.8573333,28.4407273 31.8573333,27.6363636 C31.8573333,26.8334545 31.2586667,26.1818182 30.524,26.1818182 Z" id="Shape"></path>
                </g>
            </g>
        </g>
    </g>
</svg>