<svg width="84" height="64" viewBox="0 0 84 64" fill="none" xmlns="http://www.w3.org/2000/svg">
<path fill-rule="evenodd" clip-rule="evenodd" d="M40.32 40.466C40.32 40.7483 41.0726 40.9773 42 40.9773C42.9273 40.9773 43.68 40.7483 43.68 40.466V39.4434C43.68 39.1612 42.9273 38.9321 42 38.9321C41.0726 38.9321 40.32 39.1612 40.32 39.4434V40.466ZM4.54941 63.4532C4.71405 63.4676 4.87869 63.4747 5.03997 63.4747C5.75901 63.4747 6.42765 63.3326 6.64605 63.1127L30.166 39.5927C30.4348 39.3227 29.9342 39.0374 29.0472 38.9546C28.1635 38.8728 27.2227 39.0252 26.9505 39.2951L3.43053 62.8151C3.16173 63.0851 3.66237 63.3704 4.54941 63.4532ZM77.3505 63.1127C77.5723 63.3326 78.2409 63.4747 78.96 63.4747C79.1212 63.4747 79.2859 63.4676 79.4472 63.4533C80.3342 63.3704 80.8348 63.0851 80.566 62.8152L57.046 39.2952C56.7739 39.0252 55.8432 38.8728 54.9494 38.9546C54.0624 39.0375 53.5617 39.3228 53.8305 39.5927L77.3505 63.1127ZM42 63.4747C41.0726 63.4747 40.32 63.2457 40.32 62.9634V58.873C40.32 58.5908 41.0726 58.3617 42 58.3617C42.9273 58.3617 43.68 58.5908 43.68 58.873V62.9634C43.68 63.2457 42.9273 63.4747 42 63.4747ZM40.32 54.7826C40.32 55.0648 41.0726 55.2939 42 55.2939C42.9273 55.2939 43.68 55.0648 43.68 54.7826V50.6921C43.68 50.4099 42.9273 50.1808 42 50.1808C41.0726 50.1808 40.32 50.4099 40.32 50.6921V54.7826ZM42 47.113C41.0726 47.113 40.32 46.8839 40.32 46.6017V43.5339C40.32 43.2516 41.0726 43.0226 42 43.0226C42.9273 43.0226 43.68 43.2516 43.68 43.5339V46.6017C43.68 46.8839 42.9273 47.113 42 47.113Z" fill="#3E3832"/>
<path fill-rule="evenodd" clip-rule="evenodd" d="M56.0002 15.4765C56.0002 15.9058 55.6518 16.2543 55.2225 16.2543H54.4447V25.5876H55.2225C55.6518 25.5876 56.0002 25.9361 56.0002 26.3654V29.4765V32.5876V35.6987C56.0002 36.1281 55.6518 36.4765 55.2225 36.4765H54.4447V37.2543C54.4447 37.6836 54.0962 38.0321 53.6669 38.0321H50.5558C50.1265 38.0321 49.778 37.6836 49.778 37.2543V36.4765H49.0002H35.0002H34.2225V37.2543C34.2225 37.6836 33.874 38.0321 33.4447 38.0321H30.3336C29.9042 38.0321 29.5558 37.6836 29.5558 37.2543V36.4765H28.778C28.3487 36.4765 28.0002 36.1281 28.0002 35.6987V32.5876V29.4765V26.3654V15.4765V6.14317C28.0002 3.14095 30.4425 0.69873 33.4447 0.69873H50.5558C53.558 0.69873 56.0002 3.14095 56.0002 6.14317V15.4765ZM43.5558 16.2543H29.5558V25.5876H43.5558V16.2543ZM29.5558 30.2543H32.6669V31.8098H29.5558V30.2543ZM36.2587 34.921H47.7418L46.1862 31.8098H37.8142L36.2587 34.921ZM53.6669 34.921H50.5558H49.4809L47.3622 30.6836C47.23 30.4207 46.9609 30.2543 46.6669 30.2543H37.3336C37.0396 30.2543 36.7705 30.4207 36.6382 30.6836L34.5196 34.921H33.4447H30.3336H29.5558V33.3654H33.4447C33.874 33.3654 34.2225 33.017 34.2225 32.5876V29.4765C34.2225 29.0472 33.874 28.6987 33.4447 28.6987H29.5558V27.1432H44.3336C44.7629 27.1432 45.1114 26.7947 45.1114 26.3654V15.4765C45.1114 15.0472 44.7629 14.6987 44.3336 14.6987H29.5558V6.14317C29.5558 3.99962 31.3011 2.25429 33.4447 2.25429H50.5558C52.6994 2.25429 54.4447 3.99962 54.4447 6.14317V14.6987H53.6669H49.0002C48.5709 14.6987 48.2225 15.0472 48.2225 15.4765V26.3654C48.2225 26.7947 48.5709 27.1432 49.0002 27.1432H53.6669H54.4447V28.6987H50.5558C50.1265 28.6987 49.778 29.0472 49.778 29.4765V32.5876C49.778 33.017 50.1265 33.3654 50.5558 33.3654H54.4447V34.921H53.6669ZM49.778 16.2543V25.5876H52.8891V16.2543H49.778ZM51.3336 31.8098V30.2543H54.4447V31.8098H51.3336ZM52.8891 12.3654V7.69873C52.8891 7.2694 52.5407 6.92095 52.1114 6.92095H31.8891C31.4598 6.92095 31.1114 7.2694 31.1114 7.69873V12.3654C31.1114 12.7947 31.4598 13.1432 31.8891 13.1432H52.1114C52.5407 13.1432 52.8891 12.7947 52.8891 12.3654ZM51.3336 11.5876H32.6669V8.47651H51.3336V11.5876Z" fill="#3E3832"/>
</svg>
