<svg id="Layer_3" xmlns="http://www.w3.org/2000/svg" viewBox="0 0 32.85 24.58"><defs><style>.cls-1{fill:#3e3832;fill-rule:evenodd;}</style></defs><path class="cls-1" d="M14.09,15.15v1a.32.32,0,0,1-.32.33H12.16a.33.33,0,0,1-.33-.33v-1h-.05m5.93.18c0,.12-.32.22-.71.22s-.71-.1-.71-.22m5.93-.18h-.07v1a.32.32,0,0,1-.32.33H20.22a.33.33,0,0,1-.33-.33v-1M1.08,25.29c-.38,0-.59-.16-.47-.28l10-10.18a1,1,0,0,1,.59-.16v-12a2.23,2.23,0,0,1,2.26-2h7.09A2.28,2.28,0,0,1,22.8,3V7a.32.32,0,0,1-.33.32h-.32v4h.32a.32.32,0,0,1,.33.32v3.13a1,1,0,0,1,.6.16L33.39,25c.12.12-.09.24-.47.28m-21.09-18v4h5.81v-4Zm.65-1.64A.32.32,0,0,0,12.8,6h8.38a.33.33,0,0,0,.33-.33v-2a.33.33,0,0,0-.33-.33H12.8a.32.32,0,0,0-.32.33Zm9,1.64H20.22v4h1.29Zm-9.68,6.57h1.62v-1H11.83Zm3.41-.33-.58,1h4.66l-.58-1Zm5.3.33h1.61v-1H20.54Zm-4.18,9.75c0,.11.29.2.64.2s.64-.09.64-.2V22c0-.11-.29-.19-.64-.19s-.64.08-.64.19ZM17,20.68c-.35,0-.64-.09-.64-.19V18.93c0-.11.29-.19.64-.19s.64.08.64.19v1.56C17.64,20.59,17.35,20.68,17,20.68Zm-.64-3.3c0,.1.29.19.64.19s.64-.09.64-.19V16.21c0-.11-.29-.19-.64-.19s-.64.08-.64.19Z" transform="translate(-0.57 -0.71)"/></svg>
