<svg id="Layer_2" xmlns="http://www.w3.org/2000/svg" viewBox="0 0 32 24.59">
    <defs>
        <style>.cls-1,.cls-2{fill:#3e3832;}.cls-1{fill-rule:evenodd;}</style>
    </defs>
    <path class="cls-1" d="M21.65,3.46V5.39a.32.32,0,0,1-.32.32H13a.32.32,0,0,1-.32-.32V3.46A.32.32,0,0,1,13,3.14h8.37A.32.32,0,0,1,21.65,3.46ZM13.28,5.07H21V3.78H13.28Z" transform="translate(-1 -0.71)"/>
    <path class="cls-1" d="M22.48,7.15a.33.33,0,0,0,.32-.33V3A2.26,2.26,0,0,0,20.54.71H13.46A2.26,2.26,0,0,0,11.2,3V15.14a1,1,0,0,0-.43.14L1,25c-.11.11.1.23.46.27H1.7a1.07,1.07,0,0,0,.66-.15l9.49-9.48v.18a.32.32,0,0,0,.32.32h1.29a.32.32,0,0,0,.32-.32v-.32h2.53v.25c0,.11.31.21.69.21s.7-.1.7-.21v-.25h2.52v.32a.32.32,0,0,0,.32.32h1.29a.32.32,0,0,0,.32-.32v-.18l9.49,9.48a1.07,1.07,0,0,0,.66.15h.21c.36,0,.57-.16.46-.27l-9.74-9.74a1,1,0,0,0-.43-.14V11.33a.33.33,0,0,0-.32-.32h-.33V7.15Zm-10.63,0h5.79V11H11.85Zm1.29,6.44v-.65H11.85v.65Zm6.24,1.29H14.62l.65-1.29h3.46Zm-.16-1.76.88,1.76h2v-.65H20.54a.32.32,0,0,1-.32-.32V12.62a.32.32,0,0,1,.32-.32h1.61v-.64H19.9a.32.32,0,0,1-.32-.33V6.82a.32.32,0,0,1,.32-.32h2.25V3a1.61,1.61,0,0,0-1.61-1.61H13.46A1.61,1.61,0,0,0,11.85,3V6.5H18a.33.33,0,0,1,.32.32v4.51a.33.33,0,0,1-.32.33H11.85v.64h1.61a.32.32,0,0,1,.32.32v1.29a.32.32,0,0,1-.32.32H11.85v.65H13.9l.88-1.76a.33.33,0,0,1,.29-.18h3.86A.32.32,0,0,1,19.22,13.12Zm1-2.11V7.15h1.29V11Zm.65,1.93v.65h1.28v-.65Z" transform="translate(-1 -0.71)"/>
    <path class="cls-2" d="M16.45,24.94c0,.12.31.21.69.21s.7-.09.7-.21V23.25c0-.12-.31-.22-.7-.22s-.69.1-.69.22Z" transform="translate(-1 -0.71)"/>
    <path class="cls-2" d="M16.45,21.55c0,.12.31.21.69.21s.7-.09.7-.21V19.86c0-.12-.31-.21-.7-.21s-.69.09-.69.21Z" transform="translate(-1 -0.71)"/>
    <path class="cls-2" d="M16.45,18.16c0,.12.31.22.69.22s.7-.1.7-.22V16.89c0-.11-.31-.21-.7-.21s-.69.1-.69.21Z" transform="translate(-1 -0.71)"/>
</svg>
