<?xml version="1.0" encoding="UTF-8" standalone="no"?>
<svg width="23px" height="23px" viewBox="0 0 23 23" version="1.1" xmlns="http://www.w3.org/2000/svg" xmlns:xlink="http://www.w3.org/1999/xlink">
    <!-- Generator: Sketch 48.2 (47327) - http://www.bohemiancoding.com/sketch -->
    <title>alertstripe/ linje/ viktig</title>
    <desc>Created with Sketch.</desc>
    <defs></defs>
    <g id="Arbeidsoppgaver-Copy-7" stroke="none" stroke-width="1" fill="none" fill-rule="evenodd" transform="translate(-239.000000, -1129.000000)">
        <g id="alertstripe/-infostripe/-suksess" transform="translate(219.000000, 1110.000000)">
            <g id="Group">
                <g id="alertstripe/-linje/-viktig" transform="translate(20.000000, 18.000000)">
                    <g id="icon/fill/-report-problem-circle">
                        <path d="M11.6962701,0.996 L11.4912654,0.998000046 C8.41119423,1.05200129 5.51212728,2.29703004 3.32907687,4.50408101 C1.13002609,6.72713235 -0.0510011845,9.63719955 0.00200003948,12.6992703 C0.11200258,19.0364166 5.07711724,24.0005312 11.3052611,24.0005312 L11.5082657,23.9985312 C17.9544146,23.8875286 23.1095336,18.6374074 22.9985311,12.298261 C22.8885285,5.96111466 17.9234139,0.996 11.6962701,0.996 Z" id="Shape" fill="#BA3A26" fill-rule="nonzero"></path>
                        <path d="M11,6.996 C11,6.72 11.224,6.496 11.5,6.496 C11.775,6.496 12,6.72 12,6.996 L12,13.996 C12,14.272 11.775,14.496 11.5,14.496 C11.224,14.496 11,14.272 11,13.996 L11,6.996 Z" id="Path" fill="#FFFFFF"></path>
                        <path d="M11.518,18.496 C11.512,18.496 11.506,18.496 11.5,18.496 C10.955,18.496 10.509,18.06 10.5,17.514 C10.49,16.962 10.93,16.506 11.482,16.497 C11.488,16.497 11.494,16.496 11.5,16.496 C12.045,16.496 12.49,16.933 12.5,17.479 C12.51,18.031 12.069,18.486 11.518,18.496 Z" id="Path" fill="#FFFFFF"></path>
                    </g>
                </g>
            </g>
        </g>
    </g>
</svg>