<?xml version="1.0" encoding="utf-8"?>
<!-- Generator: Adobe Illustrator 19.2.1, SVG Export Plug-In . SVG Version: 6.00 Build 0)  -->
<svg version="1.1" id="Layer_1" xmlns="http://www.w3.org/2000/svg" xmlns:xlink="http://www.w3.org/1999/xlink" x="0px" y="0px"
	 width="136.5px" height="122.4px" viewBox="0 0 136.5 122.4" style="enable-background:new 0 0 136.5 122.4;" xml:space="preserve"
	>
<style type="text/css">
	.st0{fill:#DCDADB;}
	.st1{fill:#CBBBA0;}
	.st2{fill:#9EAB37;}
	.st3{fill:#EDEAE8;}
	.st4{fill:#FFFFFF;}
	.st5{fill:#6EA9C8;}
	.st6{fill:#FFFFFF;stroke:#CC9999;stroke-width:1.4002;stroke-miterlimit:10;}
	.st7{fill:#EDEAE8;stroke:#CBBBA0;stroke-width:0.7001;stroke-linecap:round;stroke-miterlimit:10;}
	.st8{fill:#12506D;}
</style>
<g>
	<path class="st0" d="M70.5,65.1l-4.6-5.6c-0.5-0.6-1.3-1-2.1-1l-2.2,0l-11.9-6.7l-2-1.9c-0.6-0.7-1.7-0.3-1.8,0.6l-35.6,7.4l-2.4,0
		c-0.8,0-1.5,0.3-2,0.9l-5.1,5.5c-1.6,1.8-0.4,4.6,2,4.6L9.3,69v2.1c0,0.3,0.2,0.5,0.5,0.5h1.5v14.6l-4.9,3.6c0,0,0,0,0,0
		c0,0-0.1,0.1-0.1,0.1c0,0.1-0.1,0.1-0.1,0.2c0,0,0,0,0,0v5.7c0,0.3,0.2,0.5,0.5,0.5h10.2c0.3,0,0.5-0.2,0.5-0.5v-5.7c0,0,0,0,0,0
		c0-0.1,0-0.1-0.1-0.2c0-0.1,0-0.1-0.1-0.1c0,0,0,0,0,0l-4.9-3.6V71.6h1.5c0.3,0,0.5-0.2,0.5-0.5v-2.1l27.3,0.3v53.1h15.8V69.5
		l11.1,0.1C70.7,69.6,72,66.9,70.5,65.1z M15.4,89.7H8.1l3.7-2.7L15.4,89.7z M59.7,58.5l-7-0.1v-3.3c0-0.2-0.1-0.5-0.2-0.7
		L59.7,58.5z M53.3,66.4l-5.8-5.8h9.8h1.9l-1.9,1.9L53.3,66.4z M50.1,55.1l-2.4,2.4v-2.4H50.1z M47.8,54.2v-2.4l2.4,2.4H47.8z
		 M50.9,55.5v2.4h-2.4L50.9,55.5z M45.9,51.5v6.8L14.7,58L45.9,51.5z M3.1,66.4L9,60.6l5.8,5.8H3.1z M12,60.6h11.7l-5.8,5.8L12,60.6
		z M20.8,66.4l5.8-5.8l5.8,5.8H20.8z M29.7,60.6h11.7l-5.8,5.8L29.7,60.6z M38.6,66.4l2.9-2.9l3-3l5.8,5.8h-8.8H38.6z M44.9,87.7
		v-6.8l6.8,6.8H44.9z M51.7,90.2l-6.8,6.8v-6.8H51.7z M44.9,70.5l6.8,6.8h-6.8V70.5z M51.7,108.5h-6.8v-6.8L51.7,108.5z M44.9,111
		h6.8l-6.8,6.8V111z M53.7,118.9H47l6.8-6.8V118.9z M53.7,107.3l-6.8-6.8h6.8V107.3z M53.7,98.1H47l6.8-6.8V98.1z M53.7,86.5
		L47,79.7h6.8V86.5z M53.7,76l-6.7-6.7l6.7,0.1V76z M57.2,66.4h-0.9l0.9-0.9l5-5l5.8,5.8H57.2z"/>
	<g>
		<path class="st1" d="M134.4,40.7c0,19-14.1,34-31,34c-16.9,0-30.6-15.4-30.6-34.4c0-19,13.7-34.4,30.6-34.4
			C120.3,5.8,134.4,21.7,134.4,40.7"/>
		<path class="st1" d="M72.7,40.7v48.1c0,0-0.1-12.6,30.6-12.6c30.7,0-0.9-35.5-0.9-35.5H72.7z"/>
		<path class="st1" d="M134.4,40.7v48.1c0,0-0.1-12.6-30.8-12.6c-30.7,0,0.7-35.5,0.7-35.5H134.4z"/>
		<path class="st2" d="M114.5,64.4h-11h-11c-5.9,0-22.6,13.5-22.6,25.8c0,0-4,32.3,10,32.3s56.6,0,56.6,0V90.1
			C136.5,77.8,120.5,64.4,114.5,64.4"/>
		<path class="st3" d="M112.9,63.1c-1.2,0-9.4,3.5-9.4,3.5s-9.8-2.8-10.5-2.9c-0.5-0.1-3.1,1.1-4.8,1.9c-0.9,0.5-1.4,0.8-1.4,0.8
			c1.4,2,5.2,11.3,16.7,11.3c11.5,0,15.3-9.3,16.7-11.3c0,0-0.5-0.3-1.3-0.8C116.9,64.7,113.7,63.1,112.9,63.1"/>
		<path class="st3" d="M78.2,34.3c0,0-0.1,0.3-0.3,0.1c-0.2-0.1-0.3-0.1-0.5-0.1c-1.2,0-1.9,1-1.9,2.1V45c0,1.2,0.7,2.1,1.9,2.1
			c0.5,0,0.8-0.2,1.1-0.4c2.9,13.1,12.9,22.7,25,22.7c12.1,0,22.2-9.7,25-22.7c0.4,0.3,0.7,0.4,1.1,0.4c1.2,0,2-1,2-2.1v-8.6
			c0-1.2-0.9-2.1-2-2.1c-0.3,0-0.5,0.1-0.7,0.1C101.7,37.6,78.2,34.3,78.2,34.3"/>
		<path class="st4" d="M123.5,68.8v53.6H87.8l32.1-56.1c0,0,1.5,0.9,2.1,1.3C122.5,68,123.5,68.8,123.5,68.8z"/>
		<polygon class="st4" points="96,112 100.9,112 86.7,66.5 86,67 		"/>
		<path class="st5" d="M91.3,41.4c-0.2-0.8-0.1-1.8,0.1-2.6c0.1-0.3,0.7-1.9,1.8-1.9s1.6,0.9,1.6,1c0.5,1.1,0.5,2.8,0,4
			C94.5,42.7,91.5,42.5,91.3,41.4z"/>
		<path class="st5" d="M115.7,41.4c0.2-0.8,0.1-1.8-0.1-2.6c-0.1-0.3-0.7-1.9-1.8-1.9c-1.1,0-1.6,0.9-1.6,1c-0.5,1.1-0.5,2.8,0,4
			C112.5,42.7,115.5,42.5,115.7,41.4z"/>
		<path class="st6" d="M111.8,53.9c0,0-2.7,5.2-8.3,5.2c-5.6,0-8.8-5.2-8.8-5.2s4,2.6,8.8,2.6S111.8,53.9,111.8,53.9z"/>
		<path class="st7" d="M104,45.3c1.1-0.2,2.2-0.1,2.7,0.5c1.2,1.5,0.9,3.3-1.2,4.6c-1,0.7-2.5,0.9-3.4,0.5"/>
		<path class="st8" d="M133,30.4c-0.4-14.1-11.8-25.7-23.6-28.6V0H97.8v1.8C86,4.7,74.4,16.3,74,30.4h-2.9v5.5h65.2v-5.5H133z"/>
		<ellipse class="st3" cx="92.4" cy="51.7" rx="2.3" ry="2.2"/>
		<ellipse class="st3" cx="114.1" cy="51.7" rx="2.3" ry="2.2"/>
	</g>
</g>
</svg>
