<?xml version="1.0" encoding="utf-8"?>
<!-- Generator: Adobe Illustrator 19.2.1, SVG Export Plug-In . SVG Version: 6.00 Build 0)  -->
<svg version="1.1" id="Layer_1" xmlns="http://www.w3.org/2000/svg" xmlns:xlink="http://www.w3.org/1999/xlink" x="0px" y="0px"
	 viewBox="0 0 215 122.4" style="enable-background:new 0 0 215 122.4;" xml:space="preserve">
<style type="text/css">
	.st0{fill:#DCDADB;}
	.st1{fill:#CBBBA0;}
	.st2{fill:#9EAB37;}
	.st3{fill:#EDEAE8;}
	.st4{fill:#FFFFFF;}
	.st5{fill:#6EA9C8;}
	.st6{fill:#FFFFFF;stroke:#CC9999;stroke-width:1.4002;stroke-miterlimit:10;}
	.st7{fill:#EDEAE8;stroke:#CBBBA0;stroke-width:0.7001;stroke-linecap:round;stroke-miterlimit:10;}
	.st8{fill:#12506D;}
</style>
<g>
	<path class="st0" d="M106.5,65.1l-4.6-5.6c-0.5-0.6-1.3-1-2.1-1h-2.2l-11.9-6.7l-2-1.9c-0.6-0.7-1.7-0.3-1.8,0.6l-35.6,7.4h-2.4
		c-0.8,0-1.5,0.3-2,0.9l-5.1,5.5c-1.6,1.8-0.4,4.6,2,4.6l6.5,0.1v2.1c0,0.3,0.2,0.5,0.5,0.5h1.5v14.6l-4.9,3.6l0,0l-0.1,0.1
		c0,0.1-0.1,0.1-0.1,0.2l0,0v5.7c0,0.3,0.2,0.5,0.5,0.5h10.2c0.3,0,0.5-0.2,0.5-0.5v-5.7l0,0c0-0.1,0-0.1-0.1-0.2
		c0-0.1,0-0.1-0.1-0.1l0,0l-4.9-3.6V71.6h1.5c0.3,0,0.5-0.2,0.5-0.5V69l27.3,0.3v53.1h15.8V69.5l11.1,0.1
		C106.7,69.6,108,66.9,106.5,65.1z M51.4,89.7h-7.3l3.7-2.7L51.4,89.7z M95.7,58.5l-7-0.1v-3.3c0-0.2-0.1-0.5-0.2-0.7L95.7,58.5z
		 M89.3,66.4l-5.8-5.8h9.8h1.9l-1.9,1.9L89.3,66.4z M86.1,55.1l-2.4,2.4v-2.4H86.1z M83.8,54.2v-2.4l2.4,2.4H83.8z M86.9,55.5v2.4
		h-2.4L86.9,55.5z M81.9,51.5v6.8L50.7,58L81.9,51.5z M39.1,66.4l5.9-5.8l5.8,5.8H39.1z M48,60.6h11.7l-5.8,5.8L48,60.6z M56.8,66.4
		l5.8-5.8l5.8,5.8H56.8z M65.7,60.6h11.7l-5.8,5.8L65.7,60.6z M74.6,66.4l2.9-2.9l3-3l5.8,5.8h-8.8L74.6,66.4L74.6,66.4z M80.9,87.7
		v-6.8l6.8,6.8H80.9z M87.7,90.2L80.9,97v-6.8H87.7z M80.9,70.5l6.8,6.8h-6.8V70.5z M87.7,108.5h-6.8v-6.8L87.7,108.5z M80.9,111
		h6.8l-6.8,6.8V111z M89.7,118.9H83l6.8-6.8v6.8H89.7z M89.7,107.3l-6.8-6.8h6.8V107.3z M89.7,98.1H83l6.8-6.8v6.8H89.7z M89.7,86.5
		L83,79.7h6.8v6.8H89.7z M89.7,76L83,69.3l6.7,0.1V76z M93.2,66.4h-0.9l0.9-0.9l5-5l5.8,5.8L93.2,66.4L93.2,66.4z"/>
	<g>
		<path class="st1" d="M170.4,40.7c0,19-14.1,34-31,34s-30.6-15.4-30.6-34.4s13.7-34.4,30.6-34.4C156.3,5.8,170.4,21.7,170.4,40.7"
			/>
		<path class="st1" d="M108.7,40.7v48.1c0,0-0.1-12.6,30.6-12.6s-0.9-35.5-0.9-35.5S108.7,40.7,108.7,40.7z"/>
		<path class="st1" d="M170.4,40.7v48.1c0,0-0.1-12.6-30.8-12.6s0.7-35.5,0.7-35.5S170.4,40.7,170.4,40.7z"/>
		<path class="st2" d="M150.5,64.4h-11h-11c-5.9,0-22.6,13.5-22.6,25.8c0,0-4,32.3,10,32.3s56.6,0,56.6,0V90.1
			C172.5,77.8,156.5,64.4,150.5,64.4"/>
		<path class="st3" d="M148.9,63.1c-1.2,0-9.4,3.5-9.4,3.5s-9.8-2.8-10.5-2.9c-0.5-0.1-3.1,1.1-4.8,1.9c-0.9,0.5-1.4,0.8-1.4,0.8
			c1.4,2,5.2,11.3,16.7,11.3s15.3-9.3,16.7-11.3c0,0-0.5-0.3-1.3-0.8C152.9,64.7,149.7,63.1,148.9,63.1"/>
		<path class="st3" d="M114.2,34.3c0,0-0.1,0.3-0.3,0.1c-0.2-0.1-0.3-0.1-0.5-0.1c-1.2,0-1.9,1-1.9,2.1V45c0,1.2,0.7,2.1,1.9,2.1
			c0.5,0,0.8-0.2,1.1-0.4c2.9,13.1,12.9,22.7,25,22.7c12.1,0,22.2-9.7,25-22.7c0.4,0.3,0.7,0.4,1.1,0.4c1.2,0,2-1,2-2.1v-8.6
			c0-1.2-0.9-2.1-2-2.1c-0.3,0-0.5,0.1-0.7,0.1C137.7,37.6,114.2,34.3,114.2,34.3"/>
		<path class="st4" d="M159.5,68.8v53.6h-35.7l32.1-56.1c0,0,1.5,0.9,2.1,1.3C158.5,68,159.5,68.8,159.5,68.8z"/>
		<polygon class="st4" points="132,112 136.9,112 122.7,66.5 122,67 		"/>
		<path class="st5" d="M127.3,41.4c-0.2-0.8-0.1-1.8,0.1-2.6c0.1-0.3,0.7-1.9,1.8-1.9s1.6,0.9,1.6,1c0.5,1.1,0.5,2.8,0,4
			C130.5,42.7,127.5,42.5,127.3,41.4z"/>
		<path class="st5" d="M151.7,41.4c0.2-0.8,0.1-1.8-0.1-2.6c-0.1-0.3-0.7-1.9-1.8-1.9c-1.1,0-1.6,0.9-1.6,1c-0.5,1.1-0.5,2.8,0,4
			C148.5,42.7,151.5,42.5,151.7,41.4z"/>
		<path class="st6" d="M147.8,53.9c0,0-2.7,5.2-8.3,5.2s-8.8-5.2-8.8-5.2s4,2.6,8.8,2.6S147.8,53.9,147.8,53.9z"/>
		<path class="st7" d="M140,45.3c1.1-0.2,2.2-0.1,2.7,0.5c1.2,1.5,0.9,3.3-1.2,4.6c-1,0.7-2.5,0.9-3.4,0.5"/>
		<path class="st8" d="M169,30.4c-0.4-14.1-11.8-25.7-23.6-28.6V0h-11.6v1.8C122,4.7,110.4,16.3,110,30.4h-2.9v5.5h65.2v-5.5
			C172.3,30.4,169,30.4,169,30.4z"/>
		<ellipse class="st3" cx="128.4" cy="51.7" rx="2.3" ry="2.2"/>
		<ellipse class="st3" cx="150.1" cy="51.7" rx="2.3" ry="2.2"/>
	</g>
</g>
</svg>
