<?xml version="1.0" encoding="UTF-8"?>
<svg width="64px" height="64px" viewBox="0 0 64 64" version="1.1" xmlns="http://www.w3.org/2000/svg" xmlns:xlink="http://www.w3.org/1999/xlink">
    <!-- Generator: Sketch 53.2 (72643) - https://sketchapp.com -->
    <title>arbeidsgiver</title>
    <desc>Created with Sketch.</desc>
    <defs>
        <circle id="path-1" cx="32" cy="32" r="32"></circle>
        <path d="M30.1444269,0.27034144 C32.4770209,0.905559728 35.9417314,2.6609753 38.8228847,5.54476277 C41.7030135,8.42752484 44,12.7630952 44,16.1274987 L44,36.3478261 L0,36.3478261 L0,16.1274987 C0,12.7698967 2.24848995,8.44171386 5.07633503,5.56225391 C7.99688718,2.58839476 11.5354039,0.80906219 13.8531487,0.219335321 C13.9208158,2.11042111 16.6364329,6.99383108 22,14.8695652 C27.3160125,7.06365919 30.0308215,2.19725127 30.1444269,0.27034144 Z" id="path-3"></path>
        <path d="M29.3435369,44.325062 L29.3880235,44.2484998 C33.2941916,41.7517476 36.3251607,37.5455678 37.7864071,32.4630518 C37.9652949,32.5624734 38.1673641,32.6184211 38.3811381,32.6184211 C39.1126834,32.6184211 39.7046675,31.9659951 39.7046675,31.157867 L39.7046675,25.2640319 C39.7046675,24.8030667 39.3657508,24.3290517 38.6879173,23.8419869 L21.1588715,11.4605263 L3.50563488,23.894891 C2.93244097,24.3892613 2.64584401,24.8456416 2.64584401,25.2640319 L2.64584401,31.157867 C2.64584401,31.9659951 3.23936184,32.6184211 3.96937342,32.6184211 C4.13115537,32.6184211 4.28611171,32.5865124 4.42934901,32.5280675 C5.9067324,37.6130294 8.95690211,41.81465 12.8814396,44.2949333 L12.8959804,44.325062 L12.8814396,44.9605263 C12.8814396,44.9605263 11.9363242,44.9605263 11.9363242,44.9605263 C8.17077011,44.8724533 -1.56521985e-13,36.1447368 4.79343017e-05,24.7397746 C0.000107489081,10.5699632 8.54651852,-0.019370179 21.1588715,2.45578469e-05 C33.7721068,0.0203008736 42.3517264,10.5692574 42.3517264,24.7397746 C42.3517264,37.0263158 33.5863608,44.6543096 30,44.9605263 C29.4325216,44.9460687 29.2137006,44.9460687 29.3435369,44.9605263 L29.3435369,44.325062 Z" id="path-5"></path>
    </defs>
    <g id="arbeidsgiver" stroke="none" stroke-width="1" fill="none" fill-rule="evenodd">
        <g id="spotlight/-komprimert/kvinne">
            <g id="-80/-Blå">
                <mask id="mask-2" fill="white">
                    <use xlink:href="#path-1"></use>
                </mask>
                <g id="Mask"></g>
                <g id="NAV-Brand/farge/-Dyp-blå/-60" mask="url(#mask-2)" fill="#C2EAF7">
                    <g transform="translate(-5.120000, 0.000000)" id="Fill-22">
                        <polygon points="0 64 81 64 81 0 0 0"></polygon>
                    </g>
                </g>
                <g id="mennesker/kvinne/-forfra" mask="url(#mask-2)">
                    <g transform="translate(2.000000, 1.000000)" id="Group">
                        <g transform="translate(0.000000, 1.770833)">
                            <g id="Group-2" transform="translate(10.588235, 5.312500)">
                                <g id="hud" fill="#E7E5E2" fill-rule="nonzero">
                                    <path d="M36.3136118,29.6334429 C34.8000118,34.5626387 31.8367062,38.6542204 28.0390737,41.1581888 L28.2335606,43.3532437 L28.2324624,43.4425291 L26.1795926,61.5364583 L13.1597402,61.5364583 L13.1056582,61.1563178 L10.5886268,43.4113693 L10.6818614,41.19201 C6.86502391,38.6946451 3.88496367,34.5963512 2.36270942,29.6541069 C2.31108822,29.6589729 2.25878305,29.6614583 2.20588235,29.6614583 L2.20588235,29.21875 L2.20588235,29.6614583 C1.22123057,29.6614583 0.441176471,28.7979356 0.441176471,27.7518378 L0.441176471,21.8323455 C0.441176471,21.1311047 0.791663058,20.5115914 1.31928859,20.1792956 C2.14248722,9.12816082 9.87620895,0.442708333 19.3346183,0.442708333 C28.7675726,0.442708333 36.4856372,9.08137755 37.3439459,20.0896478 C37.9600756,20.3902417 38.3823529,21.0617104 38.3823529,21.8323455 L38.3823529,27.7518378 C38.3823529,28.7984523 37.6033893,29.6614583 36.6176471,29.6614583 L36.6176471,29.21875 L36.6176471,29.6614583 C36.5138013,29.6614583 36.4122312,29.6518536 36.3136118,29.6334429 Z" id="Combined-Shape"></path>
                                </g>
                                <g id="mennesker/X⚙️/⚙️-ansikt-voksen/forfra/-glad" transform="translate(5.238971, 19.700521)">
                                    <g id="Group" transform="translate(5.764706, 0.000000)">
                                        <path d="M1.91528235,4.91521 C0.723635294,5.00786 0.390105882,3.19481 0.749164706,2.01076 C0.816694118,1.78636 1.21116471,0.76466 1.90951765,0.76466 C2.60704706,0.76466 2.91504706,1.32311 2.95787059,1.41916 C3.47092941,2.57346 3.21892941,4.81321 1.91528235,4.91521" id="Fill-42" fill="#635E59"></path>
                                        <path d="M15.2147882,4.91521 C16.4064353,5.00786 16.7399647,3.19481 16.3809059,2.01076 C16.3133765,1.78636 15.9189059,0.76466 15.2205529,0.76466 C14.5230235,0.76466 14.2150235,1.32311 14.1722,1.41916 C13.6591412,2.57346 13.9111412,4.81321 15.2147882,4.91521" id="Fill-44" fill="#635E59"></path>
                                        <path d="M8.94292953,6.99964735 C9.6437411,6.88830023 10.1223648,6.95817857 10.2937738,7.175306 C10.94076,7.99602076 10.7338167,8.86430015 9.62382234,9.57708488 C9.04021772,9.95170739 8.23690524,10.0835606 7.81162685,9.88930279 C7.60367001,9.79431265 7.36048103,9.89130898 7.26844907,10.1059501 C7.1764171,10.3205913 7.27039278,10.5715971 7.47834962,10.6665872 C8.18122763,10.9876465 9.26214004,10.8102288 10.0588014,10.2988428 C11.5672179,9.3302106 11.9124245,7.8818145 10.9323833,6.63861298 C10.5176529,6.11326524 9.78350994,6.00608147 8.81763518,6.15954265 C8.59287122,6.19525384 8.43871214,6.41226733 8.47331122,6.64425584 C8.5079103,6.87624434 8.71816558,7.03535854 8.94292953,6.99964735 Z" id="Stroke-46" fill="#59514B" fill-rule="nonzero"></path>
                                        <path d="M13.636715,13.1966247 C13.5995721,13.2844345 13.5143954,13.4525606 13.3775056,13.6740177 C13.1457851,14.0488899 12.8548023,14.4247188 12.5013866,14.7751873 C11.4482339,15.8195576 10.0774638,16.4234572 8.33282389,16.3682248 C6.63169418,16.3143698 5.26705147,15.7197893 4.19713472,14.7609887 C3.804311,14.4089617 3.47999581,14.0319631 3.22076965,13.6561817 C3.06790417,13.4345837 2.97245406,13.2665678 2.9307082,13.1790141 C2.83029357,12.9684144 2.58348332,12.8817082 2.37944206,12.9853505 C2.17540081,13.0889927 2.09139483,13.3437361 2.19180945,13.5543359 C2.2522921,13.6811862 2.36999762,13.8883772 2.54991349,14.1491882 C2.84532292,14.5774218 3.21266625,15.0044382 3.65722258,15.4028252 C4.8650142,16.4851816 6.40854634,17.1577051 8.30757611,17.2178252 C10.2851231,17.2804311 11.8660926,16.583927 13.0719475,15.3881281 C13.4751462,14.9882917 13.8065758,14.5602224 14.0717705,14.1311964 C14.2330298,13.8703147 14.3379144,13.6632883 14.3914497,13.5367253 C14.4824411,13.321612 14.3872512,13.0710942 14.1788369,12.977178 C13.9704227,12.8832618 13.7277065,12.9815115 13.636715,13.1966247 Z" id="Stroke-48" fill="#59514B" fill-rule="nonzero"></path>
                                    </g>
                                </g>
                            </g>
                            <g id="Group-1">
                                <g id="mennesker/X⚙️/⚙️-kropp/voksen/Forfra/-slips" transform="translate(7.941176, 45.156250)">
                                    <g id="Group" transform="translate(0.000000, 1.652174)">
                                        <g id="Group-2" transform="translate(13.037037, 0.000000)">
                                            <polygon id="Triangle" fill="#C6C2BF" fill-rule="nonzero" points="8.96296296 18.173913 13.5499765 9.5 17.1111111 0.826086957 8.96296296 6.60869565 0.814814815 0.826086957 4.49282046 9.5"></polygon>
                                            <path d="M10.5925926,8.54741663 L10.5925926,4.13043478 L10.117612,4.16503513 L7.80831395,4.16503513 L7.33333333,4.13043478 L7.33333333,8.54741663 L8.04514821,9.14451982 L7.39050123,13.9429494 C7.91514608,14.6873637 8.41477289,15.271598 8.88938165,15.6956522 C9.46668683,15.1479392 9.97513611,14.591869 10.4147295,14.0274414 L9.88077772,9.14451982 L10.5925926,8.54741663 Z" id="Fill-12" fill="#3E3832"></path>
                                            <path d="M17.1111111,0 C14.836486,2.64587457 11.9629688,4.13043478 8.96399574,4.13043478 C6.01747317,4.13043478 3.06620239,2.59020175 0.814814815,1.22089778e-12 C0.787593673,0.235901798 0.814814815,1.40871556 0.814814815,1.65122261 C0.814814815,4.56036359 4.1761725,8.2942442 6.51851852,10.7391304 L8.17822865,4.64676541 L9.82540425,4.64676541 L11.4074074,10.7391304 C13.6056806,8.38199966 17.1111111,4.64906266 17.1111111,1.65122261 C17.1111111,1.38229456 17.1429798,0.263266407 17.1111111,0 Z" id="Fill-10" fill="#FFFFFF"></path>
                                        </g>
                                        <mask id="mask-4" fill="white">
                                            <use xlink:href="#path-3"></use>
                                        </mask>
                                        <use id="Mask" fill="#D8A25D" xlink:href="#path-3"></use>
                                        <g id="V⚙️/STYLING/farge/-Dyp-blå/+20" mask="url(#mask-4)" fill="#0C5472">
                                            <g transform="translate(-29.333333, -23.130435)" id="Fill-62">
                                                <polygon points="0 83 103 83 103 0 0 0"></polygon>
                                            </g>
                                        </g>
                                    </g>
                                </g>
                                <g id="mennesker/X⚙️/⚙️kvinne/-hår/---copy-2">
                                    <g id="hårfarge/-grå" transform="translate(8.823529, 1.763158)">
                                        <mask id="mask-6" fill="white">
                                            <use xlink:href="#path-5"></use>
                                        </mask>
                                        <use id="Path" fill="#F5B773" xlink:href="#path-5"></use>
                                        <g id="hårfarge/-sort" mask="url(#mask-6)" fill="#303339">
                                            <g transform="translate(-10.588235, -12.342105)">
                                                <rect x="0" y="0" width="61" height="70"></rect>
                                            </g>
                                        </g>
                                    </g>
                                </g>
                            </g>
                        </g>
                    </g>
                </g>
            </g>
        </g>
    </g>
</svg>