<?xml version="1.0" encoding="UTF-8"?>
<svg width="98px" height="98px" viewBox="0 0 98 98" version="1.1" xmlns="http://www.w3.org/2000/svg" xmlns:xlink="http://www.w3.org/1999/xlink">
    <!-- Generator: Sketch 53.2 (72643) - https://sketchapp.com -->
    <title>v</title>
    <desc>Created with Sketch.</desc>
    <defs>
        <circle id="path-1" cx="49" cy="49" r="49"></circle>
        <path d="M36.3134281,0.320970354 C39.1231126,1.07390016 43.2947235,3.15240892 46.7639292,6.56616644 C50.2331753,9.97996363 53,15.1141917 53,19.0983537 L53,43.0434783 L0,43.0434783 L0,19.0983537 C0,15.1222461 2.70840835,9.99676642 6.11467628,6.58687963 C9.63215459,3.06566433 13.8938048,0.958650456 16.6856533,0.260012933 C16.7376297,4.94946665 21.1117517,9.7826087 26.5,9.7826087 C31.8649042,9.7826087 36.2244504,4.99125412 36.3134281,0.320970354 Z" id="path-3"></path>
        <polygon id="path-5" points="35.8422217 12.0087669 35.9678139 13.942036 37.8148105 16.0754014 38.0968374 17.517887 38.3305118 19.4541426 39.4519534 20.973282 39.3252946 22.6258189 39.4396875 24.5680475 40.8509777 26.4455684 40.8509777 28.086452 42.4794101 29.9109184 42.941337 28.115223 42.7375274 26.3879249 42.4603001 24.7333012 42.941337 22.9702633 42.2891996 21.2062299 43 19.3695247 42.7375274 17.7438664 42.4530117 16.0246307 42.7375274 14.1102762 42.2891996 12.9355812 41.4205424 10.9798055 41.0754082 9.19945408 39.4519534 7.77120564 39.230456 6.23285164 37.8148105 4.56375868 35.1818182 4.01235029 33.8876762 2.79238921 32.132102 2.00617514 30.3502845 0.875392755 28.3352206 1.18763648 26.5968395 0.763551702 24.9073442 0.149325626 23.1347431 0.0876043674 21.3680082 0.407161207 19.595407 0 17.8511596 0.402183687 16.0707367 0.456936416 14.4154616 1.18763648 12.6516598 1.45841362 10.9005684 1.89543995 9.33231014 2.79238921 8.07301046 4.14328838 6.34342883 4.81923571 5.19167804 6.23285164 4.15529786 7.70420681 3.17758072 9.19945408 2.09133697 10.6518947 1.46070941 12.3492293 1.34240564 14.194894 1.36782628 16.0096981 -1.0658141e-14 17.5567116 0.511346066 19.4153179 0.110482037 21.1654143 0.706889495 22.9344252 0.0391086858 24.7333012 0.783151432 26.4455684 0.783151432 28.2223302 1.14881764 30.1388889 2.31718963 28.6326911 3.079809 27.058799 3.55693497 25.386352 3.27828558 23.376429 4.01743975 21.7726718 5.36962256 20.4675658 5.1432366 18.8837187 5.9478978 17.3287412 6.67531936 15.7359345 6.67531936 14.194894 8.07301046 12.1065156 10.891769 12.4 12.5216235 13.6413937 14.3695089 12.8330443 16.1157117 12.9355812 17.8335607 13.6911689 19.5905184 14.1102762 21.3611642 13.598587 23.1288768 13.9171484 24.8672578 13.2631021 26.6476808 13.5697174 28.3352206 12.5871548 30.2016826 13.6324342 31.8911778 12.8220938"></polygon>
    </defs>
    <g id="v" stroke="none" stroke-width="1" fill="none" fill-rule="evenodd">
        <g id="Group-7">
            <g id="spotlight/-mann">
                <g id="-80/-Blå">
                    <mask id="mask-2" fill="white">
                        <use xlink:href="#path-1"></use>
                    </mask>
                    <g id="Mask"></g>
                    <g id="V⚙️/STYLING/farge/-Lys-blå/-60" mask="url(#mask-2)">
                        <g transform="translate(-7.840000, 0.000000)" id="⚙️/farge/-Blå/-60-Copy-6">
                            <g>
                                <polygon id="Fill-32" fill="#C2EAF7" points="0 98 123 98 123 0 0 0"></polygon>
                            </g>
                        </g>
                    </g>
                    <g id="mennesker/mann/-forfra" mask="url(#mask-2)">
                        <g transform="translate(15.680000, 9.800000)" id="Group">
                            <g transform="translate(6.897059, 0.000000)">
                                <g id="Group-2" transform="translate(3.941176, 4.895833)">
                                    <path d="M42.0953435,32.3520387 C40.405916,38.059473 36.962453,42.802854 32.5196356,45.6790898 L32.7418633,48.141743 L32.7406084,48.2419132 L30.3949262,68.5416667 L15.5179786,68.5416667 L15.4561825,68.1151833 L12.5801327,48.2069547 L12.6866659,45.7170341 C8.24311385,42.8623458 4.79211843,38.143135 3.08422331,32.4576533 C2.7759196,32.6621888 2.41063967,32.7807971 2.01641587,32.7807971 L2.01641587,32.2841184 L2.01641587,32.7807971 C0.891317628,32.7807971 -1.42108547e-14,31.8120026 -1.42108547e-14,30.6383754 L-1.42108547e-14,23.9972399 C-1.42108547e-14,22.8250341 0.88907188,21.856384 2.01203318,21.8538696 C3.06684734,9.59331102 11.8501534,0 22.5736145,0 C33.2994065,0 42.0847966,9.5973749 43.1367856,21.8613389 C43.1928948,21.85639 43.2496999,21.8538647 43.3071135,21.8538647 C44.4333896,21.8538647 45.3235294,22.8229293 45.3235294,23.9972399 L45.3235294,30.6383754 C45.3235294,31.8125823 44.4334577,32.7807971 43.3071135,32.7807971 L43.3071135,32.2841184 L43.3071135,32.7807971 C42.8498648,32.7807971 42.431229,32.6207839 42.0953435,32.3520387 Z" id="Combined-Shape" fill="#E7E5E2" fill-rule="nonzero"></path>
                                    <g id="mennesker/X⚙️/⚙️-ansikt-voksen/forfra/-glad" transform="translate(6.897059, 19.583333)">
                                        <g id="Group" transform="translate(6.588235, 0.000000)">
                                            <path d="M2.18889412,6.07173 C0.827011765,6.18618 0.445835294,3.94653 0.856188235,2.48388 C0.933364706,2.20668 1.38418824,0.94458 2.18230588,0.94458 C2.97948235,0.94458 3.33148235,1.63443 3.38042353,1.75308 C3.96677647,3.17898 3.67877647,5.94573 2.18889412,6.07173" id="Fill-42" fill="#635E59"></path>
                                            <path d="M17.3883294,6.07173 C18.7502118,6.18618 19.1313882,3.94653 18.7210353,2.48388 C18.6438588,2.20668 18.1930353,0.94458 17.3949176,0.94458 C16.5977412,0.94458 16.2457412,1.63443 16.1968,1.75308 C15.6104471,3.17898 15.8984471,5.94573 17.3883294,6.07173" id="Fill-44" fill="#635E59"></path>
                                            <path d="M10.2204909,8.6466232 C11.0214184,8.50907676 11.5684169,8.59539706 11.7643129,8.8636133 C12.5037257,9.87743741 12.2672191,10.9500178 10.9986541,11.8305166 C10.3316774,12.2932856 9.41360598,12.4561632 8.92757354,12.2161976 C8.68990858,12.0988568 8.41197832,12.2186758 8.30679893,12.4838208 C8.20161955,12.7489657 8.30902032,13.0590317 8.54668528,13.1763724 C9.34997444,13.5729751 10.5853029,13.3538121 11.495773,12.7220999 C13.2196776,11.5255543 13.6141994,9.73635908 12.4941523,8.20063957 C12.0201748,7.5516806 11.1811542,7.41927711 10.0772973,7.6088468 C9.82042426,7.65296063 9.64424244,7.92103611 9.68378425,8.20761015 C9.72332606,8.49418419 9.9636178,8.69073702 10.2204909,8.6466232 Z" id="Stroke-46" fill="#59514B" fill-rule="nonzero"></path>
                                            <path d="M15.5848172,16.3017129 C15.5423681,16.4101838 15.4450233,16.6178689 15.2885779,16.8914337 C15.0237544,17.3545111 14.6912027,17.8187702 14.2872989,18.251702 C13.0836958,19.5418064 11.5171015,20.2878 9.5232273,20.2195718 C7.57907907,20.1530451 6.01948739,19.4185632 4.7967254,18.2341625 C4.347784,17.7993056 3.97713807,17.3336015 3.6808796,16.869401 C3.50617619,16.5956623 3.39709036,16.3881132 3.34938079,16.2799586 C3.23462122,16.019806 2.95255236,15.9126984 2.71936236,16.0407271 C2.48617235,16.1687557 2.39016552,16.4834388 2.50492509,16.7435914 C2.57404811,16.9002888 2.70856871,17.1562307 2.91418685,17.478409 C3.25179762,18.0074034 3.67161857,18.5348943 4.17968295,19.0270194 C5.56001622,20.3640479 7.32405296,21.1948122 9.4943727,21.2690782 C11.7544264,21.3464148 13.5612487,20.4860275 14.9393686,19.0088641 C15.4001671,18.5149486 15.7789438,17.9861571 16.0820234,17.4561838 C16.2663198,17.1339182 16.3861878,16.8781797 16.4473711,16.7218371 C16.5513613,16.456109 16.4425728,16.1466458 16.2043851,16.0306317 C15.9661974,15.9146176 15.6888074,16.0359848 15.5848172,16.3017129 Z" id="Stroke-48" fill="#59514B" fill-rule="nonzero"></path>
                                        </g>
                                    </g>
                                </g>
                                <g id="Group-1">
                                    <g id="mennesker/X⚙️/⚙️-kropp/voksen/Forfra/-rundhals" transform="translate(0.000000, 48.958333)">
                                        <g id="Group" transform="translate(0.000000, 1.956522)">
                                            <mask id="mask-4" fill="white">
                                                <use xlink:href="#path-3"></use>
                                            </mask>
                                            <use id="Mask" fill="#D8A25D" xlink:href="#path-3"></use>
                                            <g id="V⚙️/STYLING/farge/-Lilla/+20" mask="url(#mask-4)" fill="#5C4378">
                                                <g transform="translate(-35.333333, -27.391304)" id="Fill-58">
                                                    <polygon points="0 98 124 98 124 0 0 0"></polygon>
                                                </g>
                                            </g>
                                        </g>
                                    </g>
                                    <g id="mennesker/X⚙️/⚙️mann/-hår/-forfra/-krøllete-kort" transform="translate(4.926471, 0.000000)">
                                        <g id="Group">
                                            <mask id="mask-6" fill="white">
                                                <use xlink:href="#path-5"></use>
                                            </mask>
                                            <use id="Mask" fill="#3E3832" xlink:href="#path-5"></use>
                                            <g id="mennesker/X⚙️/⚙️-hårfarge/-brunn" mask="url(#mask-6)" fill="#8B5F26">
                                                <g transform="translate(-14.659091, -23.333333)" id="hårfarge/-brunn">
                                                    <rect x="0" y="0" width="67" height="77"></rect>
                                                </g>
                                            </g>
                                        </g>
                                    </g>
                                </g>
                            </g>
                        </g>
                    </g>
                </g>
            </g>
        </g>
    </g>
</svg>