<?xml version="1.0" encoding="UTF-8"?>
<svg width="64px" height="64px" viewBox="0 0 64 64" version="1.1" xmlns="http://www.w3.org/2000/svg" xmlns:xlink="http://www.w3.org/1999/xlink">
    <!-- Generator: Sketch 53.2 (72643) - https://sketchapp.com -->
    <title>økonomi</title>
    <desc>Created with Sketch.</desc>
    <defs>
        <circle id="path-1" cx="32" cy="32" r="32"></circle>
    </defs>
    <g id="økonomi" stroke="none" stroke-width="1" fill="none" fill-rule="evenodd">
        <g id="Group-9-Copy">
            <g id="spotlight/-gjenstand-">
                <g id="spotlight/-element">
                    <g id="-80/-Blå">
                        <mask id="mask-2" fill="white">
                            <use xlink:href="#path-1"></use>
                        </mask>
                        <g id="Mask"></g>
                        <g id="V⚙️/STYLING/farge/-Lys-blå/-60" mask="url(#mask-2)" fill="#C2EAF7">
                            <g id="⚙️/farge/-Blå/-60-Copy-6">
                                <polygon id="Fill-32" points="0 64 64 64 64 0 0 0"></polygon>
                            </g>
                        </g>
                    </g>
                </g>
            </g>
            <g id="Group-4" transform="translate(11.000000, 18.000000)">
                <g id="Group-2" transform="translate(3.307692, 0.000000)">
                    <rect id="Rectangle-10-Copy-2" fill="#BDAED0" x="0" y="0" width="39.6923077" height="21.45"></rect>
                    <rect id="Rectangle-10-Copy-3" fill="#EEE7F7" x="31.4230769" y="0" width="4.96153846" height="21.45"></rect>
                </g>
                <g id="Group" transform="translate(1.653846, 1.650000)">
                    <rect id="Rectangle-10" fill="#C2EAF7" x="0" y="0" width="39.6923077" height="21.45"></rect>
                    <rect id="Rectangle-10-Copy" fill="#E0F5FB" x="31.4230769" y="0" width="4.96153846" height="21.45"></rect>
                </g>
                <g id="Group-2-Copy-2" transform="translate(0.000000, 3.300000)">
                    <g id="Group-3">
                        <rect id="Rectangle-10-Copy-2" fill="#9BD0B0" x="0" y="0" width="39.6923077" height="21.45"></rect>
                        <rect id="Rectangle-10-Copy-3" fill="#D3EEDF" x="31.4230769" y="0" width="4.96153846" height="21.45"></rect>
                    </g>
                    <path d="M4.96153846,9.7912327 L4.96153846,3.413118 L5.96165534,3.413118 L9.83145431,8.42076467 L9.83145431,3.413118 L10.7662369,3.413118 L10.7662369,9.7912327 L9.76612004,9.7912327 L5.89632107,4.77923533 L5.89632107,9.7912327 L4.96153846,9.7912327 Z M12.1081023,6.6848385 C12.1081023,5.62616478 12.4364456,4.79736621 13.093142,4.19841793 C13.7498385,3.59946965 14.5975002,3.3 15.6361528,3.3 C16.3163027,3.3 16.9294335,3.44067097 17.4755637,3.72201714 C18.0216939,4.00336331 18.4379863,4.39564679 18.7244534,4.89887937 C19.0109204,5.40211194 19.1541518,5.97277202 19.1541518,6.61087673 C19.1541518,7.25768286 19.003382,7.83631914 18.7018377,8.3468029 C18.4002934,8.85728667 17.9731121,9.24376929 17.4202809,9.50626236 C16.8674497,9.76875543 16.271071,9.9 15.6311271,9.9 C14.9375752,9.9 14.3177435,9.75497838 13.7716133,9.46493078 C13.2254831,9.17488319 12.8117035,8.77897416 12.5302622,8.27719183 C12.2488208,7.77540949 12.1081023,7.24463035 12.1081023,6.6848385 Z M13.1132449,6.69789057 C13.1132449,7.4665167 13.3519638,8.07198197 13.829409,8.51430455 C14.3068541,8.95662713 14.9057456,9.1777851 15.6261013,9.1777851 C16.3598591,9.1777851 16.9637762,8.9544518 17.4378709,8.50777851 C17.9119655,8.06110522 18.1490092,7.42736073 18.1490092,6.60652604 C18.1490092,6.08734085 18.0476584,5.63414828 17.8449536,5.24693474 C17.6422488,4.8597212 17.3457347,4.55952644 16.9554024,4.34634146 C16.5650701,4.13315648 16.1269998,4.02656559 15.6411785,4.02656559 C14.9509771,4.02656559 14.3571113,4.23177118 13.8595632,4.64218853 C13.3620152,5.05260588 13.1132449,5.73783304 13.1132449,6.69789057 Z M20.3703744,9.7912327 L20.3703744,3.413118 L21.3453627,3.413118 L21.3453627,6.57607119 L25.0040817,3.413118 L26.3258442,3.413118 L23.2350307,5.99742914 L26.4615385,9.7912327 L25.1749559,9.7912327 L22.5515338,6.56301912 L21.3453627,7.58108108 L21.3453627,9.7912327 L20.3703744,9.7912327 Z" id="NOK-Copy" fill="#117938"></path>
                </g>
                <ellipse id="Oval-8-Copy" fill="#DADE99" fill-rule="nonzero" cx="8.26923077" cy="26.4" rx="6.61538462" ry="6.6"></ellipse>
                <path d="M18.1923077,33 C15.4521257,33 13.2307692,30.7838095 13.2307692,28.05 C13.2307692,25.3161905 15.4521257,23.1 18.1923077,23.1 C20.9324897,23.1 23.1538462,25.3161905 23.1538462,28.05 C23.1538462,30.7838095 20.9324897,33 18.1923077,33 Z M18.1923077,29.7 C19.1057017,29.7 19.8461538,28.9612698 19.8461538,28.05 C19.8461538,27.1387302 19.1057017,26.4 18.1923077,26.4 C17.2789137,26.4 16.5384615,27.1387302 16.5384615,28.05 C16.5384615,28.9612698 17.2789137,29.7 18.1923077,29.7 Z" id="Shape" fill="#F7F7F7" fill-rule="nonzero"></path>
            </g>
        </g>
    </g>
</svg>