<?xml version="1.0" encoding="UTF-8"?>
<svg width="100px" height="100px" viewBox="0 0 100 100" version="1.1" xmlns="http://www.w3.org/2000/svg" xmlns:xlink="http://www.w3.org/1999/xlink">
    <!-- Generator: Sketch 53.2 (72643) - https://sketchapp.com -->
    <title>veien videre</title>
    <desc>Created with Sketch.</desc>
    <defs>
        <circle id="path-1" cx="50" cy="50" r="50"></circle>
        <polygon id="path-3" points="0.349897143 0.0332327869 7.99606857 0.0332327869 7.99606857 55.0819672 0.349897143 55.0819672"></polygon>
    </defs>
    <g id="veien-videre" stroke="none" stroke-width="1" fill="none" fill-rule="evenodd">
        <g id="X⚙️/spotlight/80px-Copy">
            <mask id="mask-2" fill="white">
                <use xlink:href="#path-1"></use>
            </mask>
            <use id="Mask" fill="#DADE99" fill-rule="evenodd" xlink:href="#path-1"></use>
        </g>
        <g id="Group-7" transform="translate(18.000000, 23.000000)">
            <polygon id="Fill-1" fill="#FAFAFA" points="35.4248229 9.23081967 35.4248229 19.1611803 59.4595657 19.1611803 63.2035657 14.195541 59.4595657 9.23081967"></polygon>
            <polygon id="Fill-2" fill="#FAFAFA" points="3.744 16.4206689 0 21.3853902 3.744 26.3510295 27.7787429 26.3510295 27.7787429 16.4206689"></polygon>
            <polygon id="Fill-3" fill="#FAFAFA" points="35.4248229 21.385482 35.4248229 31.3158426 59.4595657 31.3158426 63.2035657 26.3511213 59.4595657 21.385482"></polygon>
            <g id="Group-6" transform="translate(27.428571, 0.884525)">
                <mask id="mask-4" fill="white">
                    <use xlink:href="#path-3"></use>
                </mask>
                <g id="Clip-5"></g>
                <path d="M2.27172571,55.0821508 L6.07515429,55.0821508 C7.13572571,55.0821508 7.99606857,54.218282 7.99606857,53.1515279 L7.99606857,1.9629377 C7.99606857,0.897101639 7.13572571,0.0332327869 6.07515429,0.0332327869 L2.27172571,0.0332327869 C1.21024,0.0332327869 0.349897143,0.897101639 0.349897143,1.9629377 L0.349897143,53.1515279 C0.349897143,54.218282 1.21024,55.0821508 2.27172571,55.0821508" id="Fill-4" fill="#8E8785" mask="url(#mask-4)"></path>
            </g>
        </g>
    </g>
</svg>