<?xml version="1.0" encoding="UTF-8"?>
<svg width="125px" height="100px" viewBox="0 0 125 100" version="1.1" xmlns="http://www.w3.org/2000/svg" xmlns:xlink="http://www.w3.org/1999/xlink">
    <!-- Generator: Sketch 47.1 (45422) - http://www.bohemiancoding.com/sketch -->
    <title>Group 10</title>
    <desc>Created with Sketch.</desc>
    <defs></defs>
    <g id="Landingssiden" stroke="none" stroke-width="1" fill="none" fill-rule="evenodd">
        <g id="Illustrasjoner-til-landingssiden" transform="translate(-108.000000, -1798.000000)">
            <g id="Group-10" transform="translate(108.000000, 1798.000000)">
                <g id="Dataskjerm-med-ark">
                    <path d="M0.492956522,72.5430435 L0.492956522,4.23521739 C0.492956522,2.02826087 2.28165217,0.239565217 4.4886087,0.239565217 L120.894696,0.239565217 C123.101652,0.239565217 124.890348,2.02826087 124.890348,4.23521739 L124.890348,72.5430435 L0.492956522,72.5430435 Z" id="Fill-136" fill="#1B2A3A"></path>
                    <path d="M4.50069565,68.5753043 L4.50069565,6.14226087 C4.50069565,5.01443478 5.41547826,4.09965217 6.54330435,4.09965217 L118.840696,4.09965217 C119.968522,4.09965217 120.882435,5.01443478 120.882435,6.14226087 L120.882435,68.5753043 L4.50069565,68.5753043 Z" id="Fill-138" fill="#BDD1D0"></path>
                    <polygon id="Fill-140" fill="#3C4250" points="48.1086957 97.8730435 77.273913 97.8730435 77.273913 87.0269565 48.1086957 87.0269565"></polygon>
                    <polygon id="Fill-142" fill="#3C4250" points="36.8626087 99.8573913 88.5208696 99.8573913 88.5208696 96.3434783 36.8626087 96.3434783"></polygon>
                    <path d="M85.8550062,14.7826087 C87.3209329,14.7826087 88.5208696,16.0892349 88.5208696,17.6870892 L88.5208696,68.5753043 L33.0434783,68.5753043 C33.0434783,68.5753043 32.1602192,18.7471472 33.0434783,17.6870892 C33.4939777,17.1464148 33.0611893,15.3825792 34.8123302,14.7826087 C36.4945139,14.206264 85.8550062,14.7826087 85.8550062,14.7826087 Z" id="Fill-143" fill="#FFFFFF"></path>
                    <path d="M124.890435,72.5430435 L124.890435,83.0308696 C124.890435,85.2378261 123.101739,87.0265217 120.894783,87.0265217 L4.48869565,87.0265217 C2.28173913,87.0265217 0.493043478,85.2378261 0.493043478,83.0308696 L0.493043478,72.5430435 L124.890435,72.5430435 Z" id="Fill-145" fill="#3C4250"></path>
                    <path d="M63.634087,80.7275652 C63.634087,81.2484348 63.2123478,81.6693043 62.6923478,81.6693043 C62.1714783,81.6693043 61.7497391,81.2484348 61.7497391,80.7275652 C61.7497391,80.2066957 62.1714783,79.7849565 62.6923478,79.7849565 C63.2123478,79.7849565 63.634087,80.2066957 63.634087,80.7275652" id="Fill-146" fill="#3C4250"></path>
                </g>
                <g id="Ark-med-statistikk" transform="translate(44.347826, 27.826087)">
                    <path d="M0.321343158,27.8260852 C0.216273539,27.8260852 0.112912369,27.7777364 0.0522624263,27.6882911 C-0.0451191719,27.5472738 -0.00240794463,27.3603251 0.147081351,27.2700741 L7.62923414,22.7099773 C7.73686644,22.6447064 7.87439659,22.6455123 7.98032043,22.7123948 L15.0840517,27.1596777 L22.107486,22.6608227 C22.2535584,22.5673484 22.4534469,22.6028042 22.5533912,22.741404 C22.6524812,22.8800039 22.6148953,23.0677584 22.4688229,23.1612327 L15.2668558,27.7745131 C15.1575151,27.8430072 15.0174222,27.8430072 14.9089357,27.7761247 L7.80093328,23.3256186 L0.494750741,27.7777364 C0.441788819,27.8107747 0.380284652,27.8260852 0.321343158,27.8260852" id="Fill-198" fill="#B5B7B7"></path>
                    <path d="M8.69565217,23.4778574 C8.69565217,23.9580349 8.30648742,24.3478261 7.82608696,24.3478261 C7.34568649,24.3478261 6.95652174,23.9580349 6.95652174,23.4778574 C6.95652174,22.9976798 7.34568649,22.6086957 7.82608696,22.6086957 C8.30648742,22.6086957 8.69565217,22.9976798 8.69565217,23.4778574" id="Fill-199" fill="#561D5B"></path>
                    <path d="M15.6521739,27.826087 C15.6521739,28.3059035 15.2624253,28.6956522 14.7826087,28.6956522 C14.3019733,28.6956522 13.9130435,28.3059035 13.9130435,27.826087 C13.9130435,27.3462704 14.3019733,26.9565217 14.7826087,26.9565217 C15.2624253,26.9565217 15.6521739,27.3462704 15.6521739,27.826087" id="Fill-200" fill="#561D5B"></path>
                    <polygon id="Fill-201" fill="#561D5B" points="26.9565217 16.5217391 29.5652174 16.5217391 29.5652174 0 26.9565217 0"></polygon>
                    <polygon id="Fill-202" fill="#97AB48" points="30.4347826 16.5217391 33.0434783 16.5217391 33.0434783 7.82608696 30.4347826 7.82608696"></polygon>
                    <polygon id="Fill-203" fill="#0C576F" points="34.7826087 16.5217391 37.3913043 16.5217391 37.3913043 5.2173913 34.7826087 5.2173913"></polygon>
                    <polygon id="Fill-204" fill="#B1CAC9" points="0 16.5217391 22.6086957 16.5217391 22.6086957 0 0 0"></polygon>
                    <path d="M9.28093553,3.47826087 C6.62644123,4.61665067 5.3795381,7.73007818 6.49627496,10.4347826 L11.3043478,8.37470854 L9.28093553,3.47826087 Z" id="Fill-205" fill="#561D5B"></path>
                    <path d="M16.5217391,5.80327286 C15.3842637,3.14748765 12.2699218,1.9012977 9.56521739,3.01819993 L11.6262058,7.82608696 L16.5217391,5.80327286 Z" id="Fill-206" fill="#561D5B"></path>
                    <path d="M6.95652174,9.84890105 C8.09399717,12.5046863 11.208339,13.7508762 13.9130435,12.633974 L11.8529694,7.82608696 L6.95652174,9.84890105 Z" id="Fill-207" fill="#E4E4DB"></path>
                    <path d="M11.3043478,8.1473014 L13.327358,13.0434783 C15.9825028,11.9058533 17.2297115,8.79110202 16.1118031,6.08695652 L11.3043478,8.1473014 Z" id="Fill-208" fill="#7C7086"></path>
                    <polygon id="Fill-209" fill="#B5B7B7" points="26.9565217 24.3478261 36.5217391 24.3478261 36.5217391 22.6086957 26.9565217 22.6086957"></polygon>
                    <polygon id="Fill-210" fill="#B5B7B7" points="26.9565217 26.9565217 36.5217391 26.9565217 36.5217391 25.2173913 26.9565217 25.2173913"></polygon>
                    <polygon id="Fill-211" fill="#B5B7B7" points="26.9565217 29.5652174 36.5217391 29.5652174 36.5217391 27.826087 26.9565217 27.826087"></polygon>
                </g>
            </g>
        </g>
    </g>
</svg>