<?xml version="1.0" encoding="UTF-8"?>
<svg width="40px" height="40px" viewBox="0 0 40 40" version="1.1" xmlns="http://www.w3.org/2000/svg" xmlns:xlink="http://www.w3.org/1999/xlink">
    <!-- Generator: Sketch 47.1 (45422) - http://www.bohemiancoding.com/sketch -->
    <title>Group 4</title>
    <desc>Created with Sketch.</desc>
    <defs></defs>
    <g id="Landingssiden" stroke="none" stroke-width="1" fill="none" fill-rule="evenodd">
        <g id="Ditt_Sykefravær_med-arbeidssituasjon-x2-" transform="translate(-224.000000, -918.000000)">
            <g id="Group-4" transform="translate(224.000000, 918.000000)">
                <g id="Group-2" fill="#87D5EE">
                    <circle id="Oval" cx="20" cy="20" r="20"></circle>
                </g>
                <g id="Group" transform="translate(8.000000, 8.000000)" stroke="#3E3832" stroke-linejoin="round">
                    <path d="M12.001,16.1558315 C13.501,16.1558315 17.001,14.2049386 17.001,11.2785993 C18.501,11.2785993 18.501,8.35226004 17.001,8.35226004 L16.501,5.91364397 C12.501,5.91364397 12.501,4.45047433 12.001,3.96275112 C11.501,4.45047433 11.501,5.91364397 7.501,5.91364397 L7.001,8.35226004 C5.501,8.35226004 5.501,11.2785993 7.001,11.2785993 C7.001,14.2049386 10.501,16.1558315 12.001,16.1558315 L12.001,16.1558315 Z" id="Stroke-1411" stroke-linecap="round"></path>
                    <path d="M17.9893,9.08482031 L18.5013,5.42592076 C18.5013,5.42592076 19.0013,0.548688616 12.0013,0.548688616 C5.0013,0.548688616 5.5013,5.42592076 5.5013,5.42592076 L6.0123,9.08482031" id="Stroke-1412" stroke-linecap="round"></path>
                    <path d="M9.457,15.1946266 L3.097,16.8928788 C1.535,17.463515 0.501,18.9179056 0.501,20.5449502 L0.501,22.9835663 L23.501,22.9835663 L23.501,20.5449502 C23.501,18.9179056 22.467,17.463515 20.905,16.8928788 L14.564,15.1799949" id="Stroke-1413" stroke-linecap="round"></path>
                    <path d="M9.001,9.33004754 C9.001,8.79062567 9.448,8.84232433 10.001,8.84232433 C10.554,8.84232433 11.001,8.79062567 11.001,9.33004754" id="Stroke-1414" stroke-linecap="round"></path>
                    <path d="M13.001,9.33004754 C13.001,8.79062567 13.448,8.84232433 14.001,8.84232433 C14.554,8.84232433 15.001,8.79062567 15.001,9.33004754" id="Stroke-1415" stroke-linecap="round"></path>
                    <polygon id="Stroke-1416" points="12.001 18.5944475 9.001 22.9839565 15.001 22.9839565"></polygon>
                    <path d="M10.501,15.6681083 L10.501,17.1312779 C10.501,17.939923 11.173,18.5944475 12.001,18.5944475 C12.829,18.5944475 13.501,17.939923 13.501,17.1312779 L13.501,15.6681083" id="Stroke-1417"></path>
                    <path d="M17.501,20.0576172 L21.001,20.0576172" id="Stroke-1418"></path>
                </g>
            </g>
        </g>
    </g>
</svg>