<?xml version="1.0" encoding="UTF-8"?>
<svg width="40px" height="40px" viewBox="0 0 40 40" version="1.1" xmlns="http://www.w3.org/2000/svg" xmlns:xlink="http://www.w3.org/1999/xlink">
    <!-- Generator: Sketch 44.1 (41455) - http://www.bohemiancoding.com/sketch -->
    <title>Group 2</title>
    <desc>Created with Sketch.</desc>
    <defs></defs>
    <g id="Landingssiden" stroke="none" stroke-width="1" fill="none" fill-rule="evenodd">
        <g id="Group-2">
            <circle id="Oval" fill="#87D5EE" cx="20" cy="20" r="20"></circle>
            <g id="heart-beat" transform="translate(8.666667, 10.666667)" stroke="#000000" stroke-linecap="round" stroke-linejoin="round">
                <path d="M0.463768116,12.5217391 L6.02898551,12.5217391 L7.42028986,10.6666667 L9.27536232,13.4474203 L11.5942029,8.80973913 L13.4492754,15.3043478 L14.8405797,12.5217391 L21.7971014,12.5217391 M19.7147826,10.6648116 C20.4197101,9.17704348 20.8695652,7.62898551 20.8695652,6.09762319 C20.8695652,-1.03791304 12.2286377,-1.58701449 11.1304348,5.54852174 C10.0322319,-1.58701449 1.39130435,-1.03791304 1.39130435,6.6457971 C1.39130435,8.03710145 1.71408696,9.38666667 2.23628986,10.6648116 M4.38724638,14.3749565 C7.24962319,18.2010435 11.1304348,20.7712464 11.1304348,20.7712464 C11.1304348,20.7712464 14.6151884,18.0721159 17.4154203,14.3749565" id="Shape"></path>
            </g>
        </g>
    </g>
</svg>