<?xml version="1.0" encoding="UTF-8"?>
<svg width="226px" height="128px" viewBox="0 0 226 128" version="1.1" xmlns="http://www.w3.org/2000/svg" xmlns:xlink="http://www.w3.org/1999/xlink">
    <!-- Generator: Sketch 44.1 (41455) - http://www.bohemiancoding.com/sketch -->
    <title>Konsultasjon</title>
    <desc>Created with Sketch.</desc>
    <defs></defs>
    <g id="Landingssiden" stroke="none" stroke-width="1" fill="none" fill-rule="evenodd">
        <g id="Konsultasjon" transform="translate(0.000000, -1.000000)">
            <g>
                <path d="M196.211022,123.391311 L196.106466,87.6156351 C196.102283,86.2262207 194.97586,85.1049144 193.588741,85.1091036 L166.206052,85.1900946 L157.492998,93.5000495 L157.580825,123.504419" id="Fill-2" fill="#DEDEDA"></path>
                <path d="M166.205773,85.1898153 L166.222502,90.9583288 C166.226684,92.3491396 165.105837,93.4774279 163.720113,93.4816171 L157.492719,93.4997703 L166.205773,85.1898153 Z" id="Fill-3" fill="#BBBCBC"></path>
                <polygon id="Fill-4" fill="#8F9395" points="190.15761 106.426212 163.683867 106.50441 163.676896 104.418194 190.152034 104.339995"></polygon>
                <polygon id="Fill-5" fill="#8F9395" points="190.171551 111.149802 163.697807 111.228 163.690837 109.140387 190.165975 109.062189"></polygon>
                <polygon id="Fill-6" fill="#8F9395" points="190.185353 115.869901 163.711609 115.948099 163.704638 113.861883 190.179776 113.783685"></polygon>
                <polygon id="Fill-7" fill="#8F9395" points="189.996733 120.495086 163.522989 120.573284 163.516018 118.488464 189.991156 118.411662"></polygon>
                <path d="M147.679032,48.6701171 L147.617692,48.6701171 C147.560534,29.0912432 133.420293,13.2589009 116.036007,13.3105676 C98.6517212,13.3608378 84.6048837,29.2755676 84.6620414,48.8544414 C84.7094404,65.3333153 84.6801645,84.9764234 114.845455,85.4847117 C115.072692,85.4916937 115.313869,85.4916937 115.546682,85.4958829 C115.783677,85.4972793 116.006731,85.5084505 116.246514,85.5084505 C116.257667,85.5084505 116.267426,85.5070541 116.278578,85.5070541 C116.278578,85.5070541 116.298096,85.5084505 116.309248,85.5084505 C116.549032,85.5070541 116.770692,85.4944865 117.007687,85.4916937 C117.241894,85.4861081 117.483071,85.4847117 117.710307,85.4763333 C147.87281,84.7907027 147.727825,65.1475946 147.679032,48.6701171" id="Fill-8" fill="#303339"></path>
                <path d="M87.8335931,45.3776937 C88.0022778,44.3764775 88.8638246,43.6126486 89.9107852,43.6098559 C90.1812384,43.6084595 90.4377507,43.6629189 90.6747458,43.7550811 C90.7054158,43.7578739 90.7332975,43.7592703 90.7639675,43.7634595 C98.586199,33.027964 113.930933,42.8641802 125.589697,32.6020631 C127.082766,30.9976036 127.860667,29.8804865 128.065598,29.8804865 C128.065598,29.8804865 139.430209,39.6915676 141.330352,43.4576486 C141.330352,43.4576486 141.46279,43.7271532 141.634263,43.6042703 C141.871258,43.5121081 142.12777,43.4562523 142.39683,43.4548559 C143.445184,43.4520631 144.312307,44.2117027 144.486568,45.2115225 C144.531179,45.3804865 144.561849,45.555036 144.561849,45.737964 L144.586943,54.3188198 C144.589731,55.4931892 143.643145,56.4483243 142.470716,56.4511171 C142.000908,56.4525135 141.571529,56.2961171 141.218825,56.0377838 C139.38978,64.5362523 134.478406,71.5838649 127.966618,75.5049459 C129.784509,76.2576036 132.585233,77.7321982 132.585233,77.7321982 C131.259455,79.6955315 127.505174,88.8167928 116.293913,88.8489099 C105.082652,88.8824234 101.264243,79.7835045 99.9259182,77.8285495 C99.9259182,77.8285495 102.362785,76.481027 104.416278,75.5063423 C97.9379478,71.6103964 93.0335438,64.6228288 91.165465,56.1858018 C90.8141547,56.4455315 90.3847754,56.6047207 89.9149675,56.6061171 C88.7425389,56.6089099 87.7903764,55.6607568 87.7861941,54.4863874 L87.7611005,45.9041351 C87.7611005,45.7212072 87.7903764,45.5466577 87.8335931,45.3776937" id="Fill-9" fill="#E7E5E2"></path>
                <path d="M126.808548,55.4850901 C123.172765,55.4962613 120.206144,52.5428829 120.196386,48.9010811 C120.185233,45.2592793 123.133731,42.2877477 126.769514,42.277973 C130.403903,42.2668018 133.36913,45.2201802 133.380282,48.8633784 C133.390041,52.5037838 130.442937,55.4739189 126.808548,55.4850901 M105.57379,55.5479279 C101.938006,55.5577027 98.9713857,52.6043243 98.960233,48.9639189 C98.9504744,45.3207207 101.898972,42.3505856 105.534755,42.3394144 C109.170538,42.3296396 112.135765,45.283018 112.146918,48.9248198 C112.15807,52.5666216 109.209573,55.5367568 105.57379,55.5479279 M126.763937,40.168018 C122.326553,40.181982 118.708893,43.5472973 118.194474,47.8523874 L114.143253,47.8635586 C113.60374,43.5626577 109.965169,40.2182883 105.529179,40.2308559 C100.733514,40.2448198 96.8412182,44.1645045 96.8551591,48.9709009 C96.8691,53.7745045 100.783701,57.6718468 105.579366,57.6578829 C110.015356,57.6453153 113.63441,54.2786036 114.150223,49.9749099 L118.200051,49.9623423 C118.739563,54.2646396 122.378134,57.609009 126.814125,57.595045 C131.611184,57.5810811 135.500691,53.6613964 135.48675,48.8563964 C135.472809,44.0513964 131.560997,40.1540541 126.763937,40.168018" id="Fill-10" fill="#303339"></path>
                <path d="M128.080654,75.4375 C127.248383,75.8410586 125.486255,76.3842568 124.606585,76.6956532 C123.045206,79.3138964 116.925157,90.2169595 116.925157,90.2169595 L115.65096,90.2197523 C115.65096,90.2197523 109.702383,79.6560135 107.990442,76.7780405 C107.07592,76.4652477 105.393255,75.9862838 104.530314,75.5729505 C99.400068,76.8967342 83.7611813,87.2370495 83.7890631,96.8386712 C83.8183389,107.065878 83.867132,123.745833 83.867132,123.745833 L148.911127,123.554527 C148.911127,123.554527 148.862334,106.874572 148.833058,96.6473649 C148.805176,87.0457432 133.417226,76.596509 128.080654,75.4375" id="Fill-11" fill="#5EADC7"></path>
                <path d="M122.515173,77.3357613 C122.006331,78.0884189 116.740858,87.4680135 116.740858,87.4680135 L115.82076,87.4708063 C115.82076,87.4708063 110.803434,78.5617973 110.057597,77.3860315 C109.35637,77.211482 108.667691,77.0117973 107.990164,76.7785991 C109.702104,79.6565721 115.650681,90.2203108 115.650681,90.2203108 L116.924878,90.2161216 C116.924878,90.2161216 123.044927,79.3130586 124.606306,76.6962117 C123.920415,76.9391847 123.22337,77.1500405 122.512385,77.3343649 L122.515173,77.3357613 Z" id="Fill-12" fill="#6A98A5"></path>
                <path d="M116.741555,87.4685721 C116.741555,87.4685721 122.007028,78.0875811 122.51587,77.3363198 L122.511688,77.333527 C120.508383,77.8529865 118.420038,78.1601937 116.256412,78.1671757 C114.115092,78.1727613 112.04487,77.8837072 110.058294,77.3865901 C110.804132,78.5623559 115.820063,87.4713649 115.820063,87.4713649 L116.741555,87.4685721 Z" id="Fill-13" fill="#E7E5E2"></path>
                <path d="M101.933127,91.1947162 C97.4567084,83.3944459 99.8629054,78.4484099 101.390827,77.2503018 L103.343945,76.4278243 C100.494428,79.5836802 99.9423685,84.8844009 103.384373,90.4713829 L101.933127,91.1947162 Z" id="Fill-14" fill="#FFFFFF"></path>
                <path d="M99.1151163,91.2861802 C101.44185,89.8911802 102.672831,89.428973 104.620372,89.1915856 C107.072574,88.8941532 109.372821,89.8143784 111.402614,91.2540631 C112.44121,91.989964 113.118737,92.9520811 113.426831,94.2283874 C114.288377,97.8199189 115.221023,101.397486 116.125786,104.98064 C116.702939,107.262351 116.110451,109.189378 114.378993,110.779874 C114.273042,110.879018 114.190791,111.041 114.162909,111.186225 C113.935673,112.332667 113.049033,113.121631 111.951885,113.132802 C110.803156,113.145369 109.871904,112.384333 109.64885,111.254649 C109.435555,110.171045 110.01689,109.108387 111.081973,108.685279 C111.774835,108.408793 112.449574,108.512126 113.13686,108.89055 C113.974707,107.989874 114.32323,106.949559 114.024895,105.738883 C113.422648,103.293793 112.795308,100.854288 112.179121,98.4133874 C111.857087,97.1384775 111.518323,95.8691532 111.222776,94.5886577 C111.08755,94.0077568 110.783638,93.5720811 110.338924,93.2048288 C107.297023,90.6955045 102.784358,90.8211802 99.9027764,93.4966757 C99.0551704,94.2842432 98.3218798,95.1597838 97.8255842,96.2182523 C97.5370079,96.8326667 97.4659094,97.4470811 97.6415645,98.1271261 C98.5839685,101.771721 99.4915202,105.423297 100.417195,109.072081 C100.733653,110.310685 101.510161,111.120595 102.735565,111.524153 C103.198402,110.828748 103.800648,110.38609 104.651042,110.349784 C105.728673,110.305099 106.697565,111.008883 106.97917,112.051991 C107.2552,113.068568 106.783998,114.147982 105.8402,114.666045 C104.913131,115.177126 103.739308,114.976045 103.049234,114.15636 C102.852668,113.923162 102.644949,113.801676 102.353584,113.723477 C100.304274,113.174694 98.890668,111.890009 98.3427911,109.838703 C97.3083773,105.979063 96.360397,102.095685 95.3928995,98.2178919 C95.164269,97.306045 95.3622296,96.4235225 95.714934,95.5745135 C96.4398601,93.822036 97.6276236,92.4200541 99.1151163,91.2861802" id="Fill-15" fill="#FFFFFF"></path>
                <polygon id="Fill-16" fill="#FFFFFF" points="132.70638 94.1278468 131.376419 94.132036 131.324838 76.5737477 132.657587 77.2677568"></polygon>
                <path d="M138.217491,97.2652703 C138.22725,100.676667 135.475319,103.44991 132.068166,103.459685 C128.663801,103.470856 125.893747,100.712973 125.883989,97.3015766 C125.87423,93.8901802 128.627555,91.1169369 132.03192,91.1057658 C135.439072,91.095991 138.207733,93.8538739 138.217491,97.2652703" id="Fill-17" fill="#FFFFFF"></path>
                <path d="M136.72024,97.2695991 C136.72721,99.8543288 134.644442,101.954509 132.06259,101.961491 C129.48492,101.969869 127.38821,99.8822568 127.38124,97.297527 C127.372875,94.7141937 129.457038,92.6126171 132.036102,92.6056351 C134.61656,92.5972568 136.713269,94.6862658 136.72024,97.2695991" id="Fill-18" fill="#DEDED9"></path>
                <path d="M207.321769,112.030207 L211.816311,111.70764 C212.196898,111.682505 212.523114,111.965973 212.549602,112.344396 L212.73641,114.965432 C212.762898,115.343856 212.478503,115.672009 212.103494,115.699937 L207.607558,116.019712 C207.226971,116.04764 206.899361,115.761378 206.874267,115.382955 L206.687459,112.766108 C206.659577,112.384892 206.943971,112.055342 207.321769,112.030207" id="Fill-20" fill="#C52D35"></path>
                <polygon id="Fill-21" fill="#E2D2B7" points="208.340709 85.6831396 205.344812 80.8180946 203.940965 86.3575991 206.322068 86.6173288"></polygon>
                <polygon id="Fill-22" fill="#E9C264" points="210.937199 112.530396 212.405174 112.30418 208.406928 86.1273333 206.941741 86.3507568"></polygon>
                <polygon id="Fill-23" fill="#DAB25A" points="205.475578 86.576973 209.471036 112.752423 210.937617 112.530396 206.940765 86.3507568"></polygon>
                <polygon id="Fill-24" fill="#E9C264" points="209.471315 112.752703 205.475857 86.5772523 204.006487 86.8006757 208.006128 112.977523"></polygon>
                <path d="M207.811373,85.4424009 C207.536738,85.4842928 207.402905,85.8669054 207.039048,85.9213649 C206.97492,85.9297432 206.923339,85.9255541 206.874546,85.9143829 L206.941462,86.351455 L208.406649,86.1266351 L208.343915,85.7202838 C208.343915,85.7202838 208.088797,85.400509 207.811373,85.4424009" id="Fill-25" fill="#E9C264"></path>
                <path d="M206.874825,85.9149414 C206.6211,85.8590856 206.473327,85.5923739 206.08577,85.6482297 C205.694032,85.7096712 205.63548,86.0098964 205.409637,86.1411577 L205.47516,86.5768333 L206.941741,86.3506171 L206.874825,85.9149414 Z" id="Fill-26" fill="#DAB25A"></path>
                <path d="M205.409219,86.141018 C205.366002,86.1647568 205.315815,86.1843063 205.254475,86.1940811 C204.886436,86.2485405 204.649441,85.9287658 204.372017,85.9706577 C204.097382,86.0111532 203.949608,86.3951622 203.949608,86.3951622 L204.006766,86.8015135 L205.476135,86.5766937 L205.409219,86.141018 Z" id="Fill-27" fill="#E9C264"></path>
                <polygon id="Fill-28" fill="#555858" points="205.347182 80.817536 204.850887 82.7780766 206.405296 82.5406892"></polygon>
                <polygon id="Fill-29" fill="#555858" points="206.700842 112.94345 212.562985 112.525928 212.620143 113.32327 206.758 113.739396"></polygon>
                <path d="M216.866816,101.336324 L221.263771,102.343126 C221.630417,102.425514 221.86323,102.794162 221.775402,103.165604 L221.192673,105.726595 C221.109028,106.095243 220.740988,106.325649 220.371555,106.243261 L215.977387,105.236459 C215.610742,105.151279 215.376535,104.784027 215.461574,104.413982 L216.047092,101.852991 C216.132131,101.48155 216.497382,101.249748 216.866816,101.336324" id="Fill-30" fill="#C52D35"></path>
                <polygon id="Fill-31" fill="#E2D2B7" points="225.516021 76.4338288 224.067563 70.9054955 221.113489 75.7886937 223.314755 76.7354505"></polygon>
                <polygon id="Fill-32" fill="#52818C" points="220.181819 102.869986 221.6484 103.083635 225.45008 76.8760676 223.983499 76.6624189"></polygon>
                <polygon id="Fill-33" fill="#115870" points="222.514408 76.4482117 218.712729 102.655779 220.182098 102.869428 223.983778 76.6646532"></polygon>
                <polygon id="Fill-34" fill="#52818C" points="218.713007 102.656198 222.516081 76.4486306 221.045318 76.234982 217.243638 102.44255"></polygon>
                <path d="M225.081344,76.0494009 C224.805314,76.007509 224.566925,76.3328694 224.197492,76.2798063 C224.13894,76.2700315 224.090147,76.2518784 224.04693,76.2253468 L223.982802,76.6624189 L225.450777,76.8760676 L225.510723,76.4697162 C225.510723,76.4697162 225.357373,76.0898964 225.081344,76.0494009" id="Fill-35" fill="#52818C"></path>
                <path d="M224.045257,76.2257658 C223.819415,76.1000901 223.759469,75.7984685 223.36773,75.7412162 C222.975991,75.683964 222.831006,75.9548649 222.58007,76.0135135 L222.514548,76.4505856 L223.983917,76.6614414 L224.045257,76.2257658 Z" id="Fill-36" fill="#115870"></path>
                <path d="M222.578258,76.0137928 C222.52807,76.024964 222.476489,76.0277568 222.417937,76.017982 C222.048504,75.9649189 221.914671,75.5892883 221.637248,75.5446036 C221.359824,75.5069009 221.1061,75.8280721 221.1061,75.8280721 L221.046154,76.2358198 L222.516918,76.4480721 L222.578258,76.0137928 Z" id="Fill-37" fill="#52818C"></path>
                <polygon id="Fill-38" fill="#555858" points="224.067005 70.9057748 223.022833 72.6345135 224.578635 72.8635225"></polygon>
                <polygon id="Fill-39" fill="#555858" points="216.007081 102.026842 221.736786 103.339455 221.558342 104.122833 215.828638 102.808824"></polygon>
                <polygon id="Fill-40" fill="#E2D2B7" points="218.270384 90.6702297 216.261502 85.3206351 213.824635 90.4859054 216.110941 91.1980676"></polygon>
                <polygon id="Fill-41" fill="#97AB47" points="216.250629 104.503212 217.733939 104.56186 218.251146 91.1173559 216.76923 91.0573108"></polygon>
                <polygon id="Fill-42" fill="#737D34" points="215.288289 90.9957297 214.771082 104.440234 216.25021 104.503072 216.770205 91.0571712"></polygon>
                <polygon id="Fill-43" fill="#97AB47" points="214.76927 104.440653 215.286477 90.9961486 213.804561 90.9333108 213.287354 104.382005"></polygon>
                <path d="M217.798485,90.3321622 C217.519667,90.3195946 217.317525,90.6686937 216.945303,90.6519369 C216.885357,90.6477477 216.833776,90.6365766 216.786377,90.617027 L216.768254,91.0568919 L218.251564,91.1169369 L218.271081,90.7077928 C218.271081,90.7077928 218.077303,90.3419369 217.798485,90.3321622" id="Fill-44" fill="#97AB47"></path>
                <path d="M216.787074,90.6167477 C216.547291,90.5106216 216.456675,90.2201712 216.062148,90.2048108 C215.667621,90.1894505 215.550517,90.4729189 215.305158,90.5539099 L215.288429,90.997964 L216.770345,91.0566126 L216.787074,90.6167477 Z" id="Fill-45" fill="#737D34"></path>
                <path d="M215.305436,90.5539099 C215.256643,90.5706667 215.205062,90.5818378 215.145116,90.579045 C214.7715,90.5650811 214.598633,90.1978288 214.319816,90.1894505 C214.039604,90.1796757 213.820732,90.5231892 213.820732,90.5231892 L213.805397,90.9323333 L215.288707,90.997964 L215.305436,90.5539099 Z" id="Fill-46" fill="#97AB47"></path>
                <polygon id="Fill-47" fill="#555858" points="216.261642 85.3206351 215.397307 87.148518 216.974021 87.2141486"></polygon>
                <polygon id="Fill-48" fill="#C52D35" points="223.056151 103 202.826531 103.060045 205.312191 123.941757 220.688989 123.897072"></polygon>
                <path d="M49.2344842,80.7205495 C43.1102527,80.7387027 37.8754498,80.7540631 37.8754498,80.7540631 C37.8754498,80.7540631 32.6420409,80.7694234 26.5164153,80.7875766 C20.3921837,80.8057297 0.283848768,91.6166306 0.318700985,103.448297 C0.353553202,115.279964 0.392587685,128.99118 0.392587685,128.99118 L75.6385236,128.77055 C75.6385236,128.77055 75.5994892,115.059333 75.5646369,103.227667 C75.5297847,91.396 55.3587158,80.7023964 49.2344842,80.7205495" id="Fill-49" fill="#8E9738"></path>
                <path d="M68.1059837,36.1072207 C67.7923138,36.1086171 67.496767,36.1728514 67.2235256,36.2803739 C67.0548409,36.3013198 66.8945207,36.3110946 66.725836,36.3292477 C64.0993729,20.3209595 52.0851167,8.22956306 37.6618754,8.27145495 C23.4379887,8.31334685 11.6314517,20.1464099 8.87952069,35.8446982 C8.79448128,35.9899234 8.68853054,36.1491126 8.62161429,36.2817703 C8.62161429,36.2817703 8.46965862,36.5945631 8.27030394,36.453527 C7.99566847,36.3474009 7.69872759,36.2845631 7.38645172,36.2859595 C6.03139754,36.2887523 4.93703793,37.3919054 4.9412202,38.7492027 L4.96910197,48.6636171 C4.97328424,50.0209144 6.07461429,51.1156892 7.43106256,51.1115 C7.97336305,51.1101036 8.46687044,50.9257793 8.87255025,50.6269505 C10.8939788,59.7524009 15.9949493,67.4018604 22.7799788,72.0351036 C23.3919837,74.7957793 23.6345552,78.7266351 21.3691611,81.9509144 C21.3691611,81.9509144 36.9704074,93.3092027 53.6660133,81.8559595 C53.6660133,81.8559595 50.5767128,78.5814099 51.8550921,72.6467252 C59.1447818,68.0651486 64.6319148,60.0679865 66.7007424,50.4579865 C67.1106044,50.7540225 67.6055059,50.9355541 68.1492005,50.9341577 C69.5014665,50.9299685 70.5958261,49.8282117 70.5930379,48.4709144 L70.5637621,38.5565 C70.5595798,37.1992027 69.4582498,36.1030315 68.1059837,36.1072207" id="Fill-50" fill="#E7E5E2"></path>
                <path d="M67.1384862,29.678491 C65.09057,12.2067793 53.8068163,0.956013514 38.9179493,0.999301802 C23.5425453,1.04538288 9.02311182,14.2511036 8.06537291,31.9951126 C7.63459951,34.6692117 7.49100837,37.4410586 7.71545665,40.2869144 C9.30611182,60.4941667 17.2119887,60.0403378 23.914767,72.1778153 C28.7689837,71.0020495 32.1245552,69.7313288 37.8626241,69.7145721 C43.6006931,69.6978153 45.5217473,70.3722748 50.3801463,72.0996171 C55.9592892,60.4648423 66.0413384,63.9781757 67.7839493,40.1095721 C68.047432,36.4943018 67.7978901,32.9991216 67.1384862,29.678491" id="Fill-51" fill="#231F1F"></path>
                <path d="M8.58118571,90.1328198 C9.42182118,91.5012883 11.2188015,92.8208829 13.2053778,93.7606577 C15.2184419,94.7116036 17.4517719,95.4056126 19.747836,95.8901622 C24.3566931,96.8508829 29.2192744,97.0044865 34.0149394,96.512955 C38.8147867,96.013045 43.5923286,94.868 48.1022054,92.9800721 C52.6274172,91.1270541 56.8612645,88.5004324 60.6043926,85.2412432 C57.1846931,88.8355676 53.1543828,91.909036 48.6960872,94.2424144 C44.2545207,96.6148919 39.4184271,98.2752072 34.4317719,99.275027 C29.4423286,100.262279 24.2814123,100.604396 19.0954025,100.027685 C16.5051857,99.7302523 13.9038163,99.201018 11.3303286,98.2724144 C8.78890493,97.2991261 6.14153054,96.0060631 4.02112167,93.3473243 L8.58118571,90.1328198 Z" id="Fill-52" fill="#FFFFFF"></path>
                <path d="M37.8707099,97.2291667 C24.587833,90.9998423 35.923168,82.2639865 37.8707099,97.2291667" id="Stroke-53" stroke="#FFFFFF"></path>
                <path d="M37.8707099,97.2291667 C51.1173404,90.9216441 39.7304241,82.2528153 37.8707099,97.2291667" id="Stroke-54" stroke="#FFFFFF"></path>
                <path d="M37.8753103,96.9783739 C37.6034631,99.8800856 35.8427291,104.470041 34.726064,106.063329" id="Stroke-55" stroke="#FFFFFF"></path>
                <path d="M38.3794128,97.2276306 C38.6679892,100.127946 40.4566049,104.70673 41.5816345,106.294432" id="Stroke-56" stroke="#FFFFFF"></path>
            </g>
            <g id="Page-1" transform="translate(105.000000, 47.000000)">
                <path d="M0.1662,1.4655 C0.2482,1.2015 0.7272,0.0005 1.5752,0.0005 C2.4222,0.0005 2.7962,0.6565 2.8482,0.7695 C3.4712,2.1275 3.1662,4.7625 1.5822,4.8825 C0.1352,4.9915 -0.2698,2.8585 0.1662,1.4655 Z" id="Fill-1" fill="#635E59"></path>
                <path d="M21.7316,4.8825 C23.1786,4.9915 23.5836,2.8585 23.1476,1.4655 C23.0656,1.2015 22.5866,0.0005 21.7386,0.0005 C20.8916,0.0005 20.5176,0.6565 20.4656,0.7695 C19.8426,2.1275 20.1476,4.7625 21.7316,4.8825" id="Fill-3" fill="#635E59"></path>
                <path d="M12.0395,7.8408 C12.9045,7.7078 13.7485,7.7398 14.1435,8.2258 C15.1085,9.4118 14.8315,10.7808 13.2075,11.7918 C12.3945,12.2968 11.2445,12.5038 10.5395,12.1918" id="Stroke-5" stroke="#D1BFA3" stroke-width="0.506" stroke-linecap="round"></path>
                <path d="M18.2736,17.8257 C18.2736,17.8257 16.4456,22.0127 11.3596,21.8567 C6.2736,21.7007 4.3666,17.8257 4.3666,17.8257" id="Stroke-7" stroke="#D19E9C" stroke-width="1.013" stroke-linecap="round"></path>
            </g>
        </g>
    </g>
</svg>