<?xml version="1.0" encoding="UTF-8"?>
<svg width="100px" height="100px" viewBox="0 0 100 100" version="1.1" xmlns="http://www.w3.org/2000/svg" xmlns:xlink="http://www.w3.org/1999/xlink">
    <!-- Generator: Sketch 44.1 (41455) - http://www.bohemiancoding.com/sketch -->
    <title>Oppgaver</title>
    <desc>Created with Sketch.</desc>
    <defs>
        <polygon id="path-1" points="47 0.583583333 47 58.3148148 0.000522222222 58.3148148 0.000522222222 0.583583333"></polygon>
        <polygon id="path-3" points="0 64.3138426 47 64.3138426 47 0.869935185 0 0.869935185"></polygon>
    </defs>
    <g id="Landingssiden" stroke="none" stroke-width="1" fill="none" fill-rule="evenodd">
        <g id="Ditt_Sykefravær_10" transform="translate(-224.000000, -451.000000)">
            <g id="Oppgaver" transform="translate(224.000000, 451.000000)">
                <circle id="Oval" fill="#C2EAF7" cx="50" cy="50" r="50"></circle>
                <g id="Page-1" transform="translate(26.000000, 18.444155)">
                    <g id="Group-3" transform="translate(0.000000, 5.999028)">
                        <mask id="mask-2" fill="white">
                            <use xlink:href="#path-1"></use>
                        </mask>
                        <g id="Clip-2"></g>
                        <path d="M43.9455222,0.583583333 L3.05378148,0.583583333 C1.36613333,0.583583333 0.000522222222,1.95093519 0.000522222222,3.64032407 L0.000522222222,55.2593796 C0.000522222222,55.5744537 0.0483925926,55.8808241 0.13717037,56.1663056 C0.286003704,56.6458796 0.550596296,57.0732315 0.897003704,57.4205093 C0.964022222,57.4866574 1.03713333,57.5554167 1.1145963,57.6163426 C1.56457778,57.9906019 2.12683704,58.2343056 2.74044815,58.298713 C2.84489259,58.3091574 2.94933704,58.31525 3.05378148,58.31525 L43.9455222,58.31525 C45.6331704,58.31525 47.0005222,56.9461574 47.0005222,55.2593796 L47.0005222,3.64032407 C47.0005222,1.95093519 45.6331704,0.583583333 43.9455222,0.583583333" id="Fill-1" fill="#515658" mask="url(#mask-2)"></path>
                    </g>
                    <path d="M3.78271667,17.8660056 L3.78271667,57.5801352 C3.78271667,58.9988389 4.93073519,60.1442463 6.34508704,60.1442463 L40.6542167,60.1442463 C42.0694389,60.1442463 43.2174574,58.9988389 43.2174574,57.5801352 L43.2174574,11.9823019 C43.2174574,10.5662093 42.0694389,9.41906111 40.6542167,9.41906111 L12.7022722,9.41906111 L3.78271667,17.8660056 Z" id="Fill-4" fill="#FFFFFF"></path>
                    <path d="M12.7022722,9.41940926 L12.7022722,15.3005019 C12.7022722,16.7174648 11.5551241,17.8663537 10.1399019,17.8663537 L3.78271667,17.8663537 L12.7022722,9.41940926 Z" id="Fill-6" fill="#C0C0BE"></path>
                    <path d="M23.5012185,8.01785185 C22.9546259,8.01785185 22.5124778,7.57744444 22.5124778,7.03085185 C22.5124778,6.48425926 22.9546259,6.04124074 23.5012185,6.04124074 C24.0452,6.04124074 24.4890889,6.48425926 24.4890889,7.03085185 C24.4890889,7.57744444 24.0452,8.01785185 23.5012185,8.01785185 M29.6051259,3.97672222 L25.9269407,3.97672222 L25.9269407,3.29696296 C25.9269407,1.95659259 24.8398481,0.87037037 23.5012185,0.87037037 C22.158237,0.87037037 21.0737556,1.95659259 21.0737556,3.29696296 L21.0737556,3.97672222 L17.3955704,3.97672222 C15.5825889,3.97672222 14.1107926,5.44851852 14.1107926,7.26237037 L14.1107926,11.2138519 L32.8890333,11.2138519 L32.8890333,7.26237037 C32.8890333,5.44851852 31.4181074,3.97672222 29.6051259,3.97672222" id="Fill-8" fill="#2F3237"></path>
                    <mask id="mask-4" fill="white">
                        <use xlink:href="#path-3"></use>
                    </mask>
                    <g id="Clip-11"></g>
                    <polygon id="Fill-10" fill="#A59D96" mask="url(#mask-4)" points="16.8642963 33.3199537 35.9019074 33.3199537 35.9019074 31.1910278 16.8642963 31.1910278"></polygon>
                    <polygon id="Fill-12" fill="#A59D96" mask="url(#mask-4)" points="16.8642963 38.1348426 35.9019074 38.1348426 35.9019074 36.0076574 16.8642963 36.0076574"></polygon>
                    <polygon id="Fill-13" fill="#A59D96" mask="url(#mask-4)" points="16.8642963 42.9497315 35.9019074 42.9497315 35.9019074 40.8225463 16.8642963 40.8225463"></polygon>
                    <polygon id="Fill-14" fill="#A59D96" mask="url(#mask-4)" points="16.8642963 47.7654907 35.9019074 47.7654907 35.9019074 45.6383056 16.8642963 45.6383056"></polygon>
                    <path d="M14.7770611,30.3215278 L13.9066907,30.3215278 L11.6585241,30.3215278 L10.7881537,30.3215278 L10.7881537,31.1918981 L10.7881537,33.3199537 L10.7881537,34.1903241 L11.6585241,34.1903241 L13.9066907,34.1903241 L14.7770611,34.1903241 L14.7770611,33.3199537 L14.7770611,31.1918981 L14.7770611,30.3215278 Z M11.6585241,33.3199537 L13.9066907,33.3199537 L13.9066907,31.1918981 L11.6585241,31.1918981 L11.6585241,33.3199537 Z" id="Fill-15" fill="#A59D96" mask="url(#mask-4)"></path>
                    <path d="M14.7770611,35.1365907 L13.9066907,35.1365907 L11.6585241,35.1365907 L10.7881537,35.1365907 L10.7881537,36.0069611 L10.7881537,38.1341463 L10.7881537,39.0045167 L11.6585241,39.0045167 L13.9066907,39.0045167 L14.7770611,39.0045167 L14.7770611,38.1341463 L14.7770611,36.0069611 L14.7770611,35.1365907 Z M11.6585241,38.1341463 L13.9066907,38.1341463 L13.9066907,36.0069611 L11.6585241,36.0069611 L11.6585241,38.1341463 Z" id="Fill-16" fill="#A59D96" mask="url(#mask-4)"></path>
                    <path d="M14.7770611,39.9516537 L13.9066907,39.9516537 L11.6585241,39.9516537 L10.7881537,39.9516537 L10.7881537,40.8220241 L10.7881537,42.9492093 L10.7881537,43.8195796 L11.6585241,43.8195796 L13.9066907,43.8195796 L14.7770611,43.8195796 L14.7770611,42.9492093 L14.7770611,40.8220241 L14.7770611,39.9516537 Z M11.6585241,42.9492093 L13.9066907,42.9492093 L13.9066907,40.8220241 L11.6585241,40.8220241 L11.6585241,42.9492093 Z" id="Fill-17" fill="#A59D96" mask="url(#mask-4)"></path>
                    <path d="M14.7770611,44.767587 L13.9066907,44.767587 L11.6585241,44.767587 L10.7881537,44.767587 L10.7881537,45.6379574 L10.7881537,47.7651426 L10.7881537,48.635513 L11.6585241,48.635513 L13.9066907,48.635513 L14.7770611,48.635513 L14.7770611,47.7651426 L14.7770611,45.6379574 L14.7770611,44.767587 Z M11.6585241,47.7651426 L13.9066907,47.7651426 L13.9066907,45.6379574 L11.6585241,45.6379574 L11.6585241,47.7651426 Z" id="Fill-18" fill="#A59D96" mask="url(#mask-4)"></path>
                    <polyline id="Stroke-19" stroke="#2F3237" stroke-width="2.24" mask="url(#mask-4)" points="10.8630056 30.1285667 12.9666907 32.5360111 15.9268204 28.7107333"></polyline>
                    <polyline id="Stroke-20" stroke="#2F3237" stroke-width="2.24" mask="url(#mask-4)" points="10.8630056 35.0630444 12.9666907 37.4704889 15.9268204 33.6452111"></polyline>
                </g>
            </g>
        </g>
    </g>
</svg>