<?xml version="1.0" encoding="utf-8"?>
<!-- Generator: Adobe Illustrator 19.1.0, SVG Export Plug-In . SVG Version: 6.00 Build 0)  -->
<svg version="1.1" id="Layer_1" xmlns="http://www.w3.org/2000/svg" xmlns:xlink="http://www.w3.org/1999/xlink" x="0px" y="0px"
	 width="244.3px" height="164.2px" viewBox="0 0 244.3 164.2" style="enable-background:new 0 0 244.3 164.2;" xml:space="preserve"
	>
<style type="text/css">
	.st0{fill:#505557;}
	.st1{fill:#BDBDBC;}
	.st2{fill:#52808D;}
	.st3{fill:#36363A;}
	.st4{clip-path:url(#SVGID_2_);}
	.st5{fill:#FFFFFF;}
	.st6{fill:#BFBFBD;}
	.st7{fill:none;stroke:#83C455;stroke-width:0.519;stroke-miterlimit:10;}
	.st8{fill:#2F3137;}
	.st9{fill:#95A947;}
	.st10{fill:#E6E3E1;}
	.st11{fill:#0E546F;}
	.st12{fill:#E47F68;}
	.st13{fill:#581E57;}
	.st14{fill:#D2232A;}
	.st15{fill:#C52A35;}
	.st16{fill:#814F82;}
	.st17{fill:#364250;}
	.st18{fill:#E9E9E3;}
	.st19{fill:#8E9294;}
	.st20{fill:#CAC8C6;}
	.st21{fill:#A59D96;}
	.st22{fill:none;stroke:#8E9294;stroke-width:1.2;stroke-miterlimit:10;}
	.st23{fill:none;stroke:#8E9294;stroke-width:1.2146;stroke-miterlimit:10;}
	.st24{fill:#BCD0CF;}
	.st25{fill:#585B5C;}
	.st26{fill:#7CA9B4;}
	.st27{fill:#561D5B;}
	.st28{fill:#1A293A;}
	.st29{fill:#B19AB3;}
</style>
<rect x="-547.9" y="147.4" class="st0" width="244.3" height="4.5"/>
<g>
	<path class="st1" d="M-392.9,93.9h1.1c1,0,1.8-0.8,1.8-1.8v-7.1c0-1-0.8-1.8-1.8-1.8l0,0c-1,0-1.8,0.8-1.8,1.8v8.2
		C-393.6,93.6-393.3,93.9-392.9,93.9"/>
	<path class="st1" d="M-434.4,93.9h-1.1c-1,0-1.8-0.8-1.8-1.8v-7.1c0-1,0.8-1.8,1.8-1.8l0,0c1,0,1.8,0.8,1.8,1.8v8.2
		C-433.7,93.6-434,93.9-434.4,93.9"/>
	<path class="st1" d="M-392.2,87.3c0,13.9-9.6,25.1-21.5,25.1c-11.9,0-21.5-11.2-21.5-25.1c0-13.9,9.6-25.1,21.5-25.1
		C-401.8,62.2-392.2,73.5-392.2,87.3"/>
	<rect x="-427.3" y="97.8" class="st1" width="27.2" height="15.1"/>
	<path class="st2" d="M-405.3,110.8h-8.3h-8.3c-4.5,0-19.3,9.3-19.3,18v22.8h55.2v-22.8C-386.1,120.1-400.8,110.8-405.3,110.8"/>
	<path class="st3" d="M-404.8,108.4c4-8.3,11.2-5.8,12.5-22.8c1.1-15.1-1.3-27.4-21.4-27.4c-19.1,0-22.6,12.3-21.4,27.4
		c1.1,14.4,6.7,13.7,11.5,22.4c3.6-0.5,5.8,0,9.9,0C-409.6,107.9-408.4,107.9-404.8,108.4z"/>
</g>
<g>
	<defs>
		<rect id="SVGID_1_" x="-377" y="71.9" width="69.4" height="75.6"/>
	</defs>
	<clipPath id="SVGID_2_">
		<use xlink:href="#SVGID_1_"  style="overflow:visible;"/>
	</clipPath>
	<g class="st4">
		<path class="st0" d="M-321.4,105.1h-42.3c-1.7,0-3.2,1.4-3.2,3.2v53.4c0,0.3,0.1,0.6,0.1,0.9c0.2,0.5,0.4,0.9,0.8,1.3
			c0.1,0.1,0.1,0.1,0.2,0.2c0.5,0.4,1,0.6,1.7,0.7c0.1,0,0.2,0,0.3,0h42.3c1.7,0,3.2-1.4,3.2-3.2v-53.4
			C-318.2,106.5-319.7,105.1-321.4,105.1"/>
		<path class="st5" d="M-363,116.8v41.1c0,1.5,1.2,2.7,2.7,2.7h35.5c1.5,0,2.7-1.2,2.7-2.7v-47.2c0-1.5-1.2-2.7-2.7-2.7h-28.9
			L-363,116.8z"/>
		<path class="st6" d="M-353.7,108v6.1c0,1.5-1.2,2.7-2.7,2.7h-6.6L-353.7,108z"/>
		<rect x="-349.4" y="128.3" class="st6" width="19.7" height="2.2"/>
		<rect x="-349.4" y="133.3" class="st6" width="19.7" height="2.2"/>
		<rect x="-349.4" y="138.3" class="st6" width="19.7" height="2.2"/>
		<rect x="-349.4" y="143.2" class="st6" width="19.7" height="2.2"/>
		<rect x="-354.8" y="128.3" class="st6" width="2.3" height="2.2"/>
		<rect x="-354.8" y="133.3" class="st6" width="2.3" height="2.2"/>
		<rect x="-354.8" y="138.3" class="st6" width="2.3" height="2.2"/>
		<rect x="-354.8" y="143.2" class="st6" width="2.3" height="2.2"/>
		<polyline class="st7" points="-355.1,127.7 -353.6,129.4 -351.5,126.7 		"/>
		<path class="st8" d="M-336.2,102.4h-3.8v-0.7c0-1.4-1.1-2.5-2.5-2.5c-1.4,0-2.5,1.1-2.5,2.5v0.7h-3.8c-1.9,0-3.4,1.5-3.4,3.4v4.1
			h19.4v-4.1C-332.8,103.9-334.4,102.4-336.2,102.4 M-342.6,106.6c-0.6,0-1-0.5-1-1s0.5-1,1-1c0.6,0,1,0.5,1,1
			S-342,106.6-342.6,106.6"/>
	</g>
</g>
<g>
	<g>
		<path class="st9" d="M-480.9,108h-8h-8c-4.3,0-18.7,9.2-18.7,17.5v22h53.8v-22C-461.9,117.1-476.5,108-480.9,108"/>
		<path class="st10" d="M-481.3,107.3c-0.9,0-7.6,2.8-7.6,2.8s-7.8-2.2-8.4-2.3c-0.6-0.1-4.9,2.2-4.9,2.2c1.1,1.6,4.2,9,13.4,9
			c9.2,0,12.3-7.4,13.4-9C-475.5,110-480.4,107.3-481.3,107.3"/>
		<path class="st10" d="M-509.1,84.2c0,0-0.1,0.2-0.2,0.1c-0.2-0.1-0.2-0.1-0.4-0.1c-0.9,0-1.5,0.8-1.5,1.7v6.9
			c0,0.9,0.6,1.7,1.5,1.7c0.4,0,0.6-0.1,0.9-0.3c2.3,10.5,10.4,18.2,20,18.2c9.7,0,17.7-7.7,20-18.2c0.3,0.2,0.5,0.3,0.9,0.3
			c0.9,0,1.6-0.8,1.6-1.7v-6.9c0-0.9-0.7-1.7-1.6-1.7c-0.2,0-0.4,0-0.6,0.1C-490.3,86.8-509.1,84.2-509.1,84.2"/>
		<polyline class="st5" points="-475.7,109.7 -498.2,147.5 -472.9,147.5 -472.9,111.3 		"/>
		<polyline class="st5" points="-502.4,109.6 -490.9,146.4 -494.8,146.4 		"/>
		<path class="st10" d="M-468.1,88.3c0,13.4-9.3,24.2-20.7,24.2c-11.4,0-20.7-10.8-20.7-24.2c0-13.4,9.3-24.2,20.7-24.2
			C-477.3,64-468.1,74.9-468.1,88.3"/>
		<path class="st1" d="M-480.8,99.4v-2.1h-16.7v2.3h-9.6c3.5,7.6,10.4,12.8,18.3,12.8c8,0,15-5.2,18.4-13.1H-480.8z M-483.3,103.2
			h-10.9V100h10.9V103.2z"/>
		<path class="st1" d="M-504.8,71.7c-0.6,0.4-5,2.5-5.2,13.6c0,1.7,0.1,3.5,0.9,3.4l1.4,0c0.5-6.4,1.6-11.1,2.8-12.8
			C-501.5,71.3-504.1,71.4-504.8,71.7z"/>
		<path class="st1" d="M-472.7,71.7c0.6,0.4,5,2.5,5.2,13.6c0,1.7-0.1,3.5-0.9,3.4l-1.4,0c-0.5-6.4-1.6-11.1-2.8-12.8
			C-475.9,71.3-473.3,71.4-472.7,71.7z"/>
	</g>
	<path class="st11" d="M-467.6,79.3c-0.3-11.1-7.4-20.2-16.7-22.5v-1.4h-9v1.4c-9.3,2.3-16.4,11.4-16.7,22.5h-2.3v4.4h47v-4.4
		H-467.6z"/>
</g>
<path class="st0" d="M-538.8,129c-2.9,0-5.3,2.4-5.3,5.3c0,2.9,2.4,5.3,5.3,5.3c0.6,0,1.2-0.1,1.8-0.3l0.8,9.1h15.8l1.9-22.6h-19.6
	l0.3,3.3C-538.2,129-538.5,129-538.8,129 M-539,136.3c-1.1,0-2-0.9-2-2s0.9-2,2-2c0.6,0,1.1,0.2,1.4,0.6c0.3,0.3,0.5,0.8,0.5,1.3
	c0,0.4-0.1,0.8-0.3,1.1C-537.7,136-538.3,136.3-539,136.3"/>
<g>
	<path class="st12" d="M-113.5,93L-113.5,93c0-15-11-27.1-24.5-27.1S-162.4,78-162.4,93c0,0,0,0,0,0c0,12.8-6.7,20.1-6.7,20.1
		s6.6,8,31.2,8l0,0c0,0,0,0,0,0c24.6,0,31.2-8,31.2-8S-113.5,105.8-113.5,93z"/>
	<g>
		<path class="st13" d="M-130.5,112.5c-4,0-7.5,0-7.5,0s-3.4,0-7.5,0s-17.3,8.2-17.3,15.9c0,7.7,0,20.1,0,20.1h49.5
			c0,0,0-12.5,0-20.1C-113.2,120.7-126.4,112.5-130.5,112.5z"/>
	</g>
	<path class="st10" d="M-116.4,89.8c-0.1-0.7-0.8-1.3-1.6-1.3c-0.2,0-0.4,0-0.6,0.1c0,0,0,0-0.1,0c-6-8-17.6-0.6-26.5-8.3
		c-1.1-1.2-1.7-2-1.9-2c0,0-8.6,7.4-10.1,10.2c0,0-0.1,0.2-0.2,0.1c-0.2-0.1-0.4-0.1-0.6-0.1c-0.8,0-1.5,0.6-1.6,1.3
		c0,0.1-0.1,0.3-0.1,0.4v6.4c0,0.9,0.7,1.6,1.6,1.6c0.4,0,0.7-0.1,1-0.3c1.4,6.4,5.2,11.6,10.1,14.5c-1.4,0.6-3.5,1.7-3.5,1.7
		c1,1.5,3.9,8.3,12.4,8.3c8.5,0,11.4-6.8,12.4-8.3c0,0-1.9-1-3.4-1.7c4.9-2.9,8.6-8.2,10-14.5c0.3,0.2,0.6,0.3,1,0.3
		c0.9,0,1.6-0.7,1.6-1.6v-6.4C-116.3,90.1-116.3,89.9-116.4,89.8z"/>
	<g>
		<path class="st14" d="M-118.9,141.5h-15.1c-0.7,0-1.4-0.6-1.4-1.4v-7.9c0-0.7,0.6-1.4,1.4-1.4h15.1c0.7,0,1.4,0.6,1.4,1.4v7.9
			C-117.6,140.9-118.2,141.5-118.9,141.5z"/>
		<g>
			<g>
				<path class="st5" d="M-122.5,136.4c0,2.1-1.7,3.9-3.9,3.9c-2.2,0-3.9-1.7-3.9-3.9s1.7-3.9,3.9-3.9
					C-124.2,132.5-122.5,134.3-122.5,136.4"/>
			</g>
			<polygon class="st5" points="-131.4,138.1 -132.2,138.1 -131.4,136.1 -130.6,136.1 			"/>
			<polygon class="st5" points="-121.8,138.1 -122.3,138.1 -121.5,136.1 -121,136.1 			"/>
			<polygon class="st5" points="-120.5,138.1 -120.7,138.1 -119.9,136.1 -119.7,136.1 			"/>
			<path class="st15" d="M-129.3,138.1h0.6c0,0,0.1,0,0.1-0.1v-1.8c0,0,0-0.1-0.1-0.1h-0.6c0,0-0.1,0-0.1,0.1l-0.2,0.6
				c0,0,0,0.1,0,0.1h0.2c0,0,0,0,0,0L-129.3,138.1C-129.4,138-129.4,138.1-129.3,138.1"/>
			<path class="st15" d="M-128,138.1h0.6c0,0,0.1,0,0.1-0.1v-1.8c0,0,0-0.1-0.1-0.1h-0.9c0,0-0.1,0-0.1,0.1l-0.2,0.6l-0.1,0.1h0.5
				c0.1,0,0.2,0.1,0.2,0.2L-128,138.1C-128.1,138-128.1,138.1-128,138.1"/>
			<path class="st15" d="M-125.3,136.1h-0.6c0,0-0.1,0-0.1,0.1v1.8c0,0,0,0.1,0.1,0.1h0.6c0,0,0.1,0,0.1-0.1l0.2-0.6
				c0,0,0-0.1,0-0.1h-0.2c0,0,0,0,0,0L-125.3,136.1C-125.3,136.1-125.3,136.1-125.3,136.1"/>
			<path class="st15" d="M-127.8,138.1h0.4c0,0,0.1,0,0.1-0.1l0.2-0.6c0,0,0-0.1,0-0.1h-0.2L-127.8,138.1z"/>
			<path class="st15" d="M-123.7,136.1h0.7c0,0,0.1,0,0,0.1l-0.8,1.9c0,0,0,0,0,0h-0.6L-123.7,136.1
				C-123.8,136.1-123.7,136.1-123.7,136.1"/>
			<path class="st15" d="M-124.6,136.1h-1c-0.1,0,0.3,0.1,0.3,0.1l0.7,1.8c0,0,0.1,0.1,0.1,0.1h0.6L-124.6,136.1
				C-124.5,136.1-124.6,136.1-124.6,136.1"/>
			<path class="st15" d="M-126.6,136.1c0.3,0,0.6,0.2,0.6,0.6c0,0.4-0.1,0.4-0.1,0.4s-0.1-0.4-0.4-0.4c-0.3,0-0.4,0.2-0.4,0.3
				c0,0.1,0.1,0.3,0.2,0.3h0.5l-0.3,0.7c0,0,0,0-0.1,0h-0.2c-0.3,0-0.9-0.3-0.9-0.9C-127.5,136.5-127,136.1-126.6,136.1"/>
		</g>
		<path class="st13" d="M-125.5,132h-1.6c-0.1,0-0.2-0.1-0.2-0.2v-0.2c0-0.1,0.1-0.2,0.2-0.2h1.6c0.1,0,0.2,0.1,0.2,0.2v0.2
			C-125.3,131.9-125.4,132-125.5,132z"/>
		<rect x="-126.8" y="128.9" class="st16" width="1" height="2.8"/>
	</g>
</g>
<g>
	<path class="st12" d="M224.3,92.7L224.3,92.7c0-15-11-27.1-24.5-27.1s-24.5,12.1-24.5,27.1c0,0,0,0,0,0c0,12.8-6.7,20.1-6.7,20.1
		s6.6,8,31.2,8l0,0c0,0,0,0,0,0c24.6,0,31.2-8,31.2-8S224.3,105.5,224.3,92.7z"/>
	<g>
		<path class="st13" d="M207.3,112.2c-4,0-7.5,0-7.5,0s-3.4,0-7.5,0s-17.3,8.2-17.3,15.9c0,7.7,0,20.1,0,20.1h49.5
			c0,0,0-12.5,0-20.1C224.6,120.4,211.3,112.2,207.3,112.2z"/>
	</g>
	<path class="st10" d="M221.4,89.6c-0.1-0.7-0.8-1.3-1.6-1.3c-0.2,0-0.4,0-0.6,0.1c0,0,0,0-0.1,0c-6-8-17.6-0.6-26.5-8.3
		c-1.1-1.2-1.7-2-1.9-2c0,0-8.6,7.4-10.1,10.2c0,0-0.1,0.2-0.2,0.1c-0.2-0.1-0.4-0.1-0.6-0.1c-0.8,0-1.5,0.6-1.6,1.3
		c0,0.1-0.1,0.3-0.1,0.4v6.4c0,0.9,0.7,1.6,1.6,1.6c0.4,0,0.7-0.1,1-0.3c1.4,6.4,5.2,11.6,10.1,14.5c-1.4,0.6-3.5,1.7-3.5,1.7
		c1,1.5,3.9,8.3,12.4,8.3c8.5,0,11.4-6.8,12.4-8.3c0,0-1.9-1-3.4-1.7c4.9-2.9,8.6-8.2,10-14.5c0.3,0.2,0.6,0.3,1,0.3
		c0.9,0,1.6-0.7,1.6-1.6V90C221.4,89.8,221.4,89.7,221.4,89.6z"/>
	<g>
		<path class="st14" d="M218.8,141.2h-15.1c-0.7,0-1.4-0.6-1.4-1.4V132c0-0.7,0.6-1.4,1.4-1.4h15.1c0.7,0,1.4,0.6,1.4,1.4v7.9
			C220.2,140.6,219.6,141.2,218.8,141.2z"/>
		<g>
			<g>
				<path class="st5" d="M215.3,136.1c0,2.1-1.7,3.9-3.9,3.9c-2.2,0-3.9-1.7-3.9-3.9c0-2.1,1.7-3.9,3.9-3.9
					C213.6,132.3,215.3,134,215.3,136.1"/>
			</g>
			<polygon class="st5" points="206.3,137.8 205.6,137.8 206.4,135.9 207.2,135.9 			"/>
			<polygon class="st5" points="215.9,137.8 215.5,137.8 216.3,135.9 216.8,135.9 			"/>
			<polygon class="st5" points="217.2,137.8 217,137.8 217.9,135.9 218.1,135.9 			"/>
			<path class="st15" d="M208.4,137.8h0.6c0,0,0.1,0,0.1-0.1v-1.8c0,0,0-0.1-0.1-0.1h-0.6c0,0-0.1,0-0.1,0.1l-0.2,0.6
				c0,0,0,0.1,0,0.1h0.2c0,0,0,0,0,0L208.4,137.8C208.4,137.8,208.4,137.8,208.4,137.8"/>
			<path class="st15" d="M209.7,137.8h0.6c0,0,0.1,0,0.1-0.1v-1.8c0,0,0-0.1-0.1-0.1h-0.9c0,0-0.1,0-0.1,0.1l-0.2,0.6l-0.1,0.1h0.5
				c0.1,0,0.2,0.1,0.2,0.2L209.7,137.8C209.7,137.8,209.7,137.8,209.7,137.8"/>
			<path class="st15" d="M212.4,135.9h-0.6c0,0-0.1,0-0.1,0.1v1.8c0,0,0,0.1,0.1,0.1h0.6c0,0,0.1,0,0.1-0.1l0.2-0.6c0,0,0-0.1,0-0.1
				h-0.2c0,0,0,0,0,0L212.4,135.9C212.5,135.9,212.5,135.9,212.4,135.9"/>
			<path class="st15" d="M210,137.8h0.4c0,0,0.1,0,0.1-0.1l0.2-0.6c0,0,0-0.1,0-0.1h-0.2L210,137.8z"/>
			<path class="st15" d="M214,135.9h0.7c0,0,0.1,0,0,0.1l-0.8,1.9c0,0,0,0,0,0h-0.6L214,135.9C214,135.9,214,135.9,214,135.9"/>
			<path class="st15" d="M213.1,135.9h-1c-0.1,0,0.3,0.1,0.3,0.1l0.7,1.8c0,0,0.1,0.1,0.1,0.1h0.6L213.1,135.9
				C213.2,135.9,213.2,135.9,213.1,135.9"/>
			<path class="st15" d="M211.2,135.9c0.3,0,0.6,0.2,0.6,0.6c0,0.4-0.1,0.4-0.1,0.4s-0.1-0.4-0.4-0.4c-0.3,0-0.4,0.2-0.4,0.3
				c0,0.1,0.1,0.3,0.2,0.3h0.5l-0.3,0.7c0,0,0,0-0.1,0h-0.2c-0.3,0-0.9-0.3-0.9-0.9C210.3,136.2,210.8,135.9,211.2,135.9"/>
		</g>
		<path class="st13" d="M212.3,131.8h-1.6c-0.1,0-0.2-0.1-0.2-0.2v-0.2c0-0.1,0.1-0.2,0.2-0.2h1.6c0.1,0,0.2,0.1,0.2,0.2v0.2
			C212.5,131.7,212.4,131.8,212.3,131.8z"/>
		<rect x="211" y="128.7" class="st16" width="1" height="2.8"/>
	</g>
</g>
<rect x="-212.5" y="138.5" class="st17" width="58.1" height="10.5"/>
<rect x="-209.5" y="133.1" class="st18" width="52.1" height="3.5"/>
<rect x="-209.5" y="128.7" class="st18" width="52.1" height="3.5"/>
<rect x="-209.5" y="131" class="st19" width="52.1" height="1.2"/>
<rect x="-209.5" y="135.6" class="st19" width="52.1" height="1.2"/>
<g>
	<g>
		<path class="st18" d="M-217.8,56.2l-14,33.7c-0.5,1.2,0.1,2.6,1.3,3.1l29.6,11.8c1.2,0.5,2.6-0.1,3.1-1.3l16.1-38.7
			c0.5-1.2-0.1-2.6-1.3-3.1l-24.1-9.6L-217.8,56.2z"/>
		<path class="st6" d="M-207.1,52.1l-2.1,5c-0.5,1.2-1.9,1.8-3.1,1.3l-5.5-2.2L-207.1,52.1z"/>
	</g>
	<g>
		<g>
			<path class="st20" d="M-212.6,72.8L-212.6,72.8c1.2,0.5,2.5,0,3-1.2c0.5-1.2,0-2.5-1.2-3c-1.2-0.5-2.5,0-3,1.2
				C-214.3,71-213.8,72.3-212.6,72.8"/>
			<path class="st0" d="M-213.8,73.5c-0.1-0.1-0.2-0.1-0.2-0.2c-1.3-1.2-1.5-3.2-0.3-4.6c1.2-1.4,3.2-1.6,4.7-0.5
				c1.2,0.9,1.6,2.5,1.1,3.9c-0.5,1.3-2,2.2-3.5,2.1c-0.2,0-0.3,0-0.4,0.2c-0.8,2-1.7,3.9-2.6,5.9c-1,2.3-0.1,5,2.2,6.2
				c2.5,1.3,6,0.3,7.1-3.2c-0.5-0.5-1.1-0.9-1.5-1.3c-0.9-0.9-1.5-2-1.9-3.3c-0.1-0.6-0.2-1.2,0.1-1.8c1.1-2.5,2.2-5,3.3-7.5
				c0.6-1.3,1.7-2,3.2-2.2c0.2,0,0.4-0.1,0.5-0.2c0.6-0.5,1.4-0.5,2,0c0.6,0.4,0.8,1.2,0.5,1.9c-0.3,0.7-1,1-1.8,0.9
				c-0.6-0.1-0.9-0.5-1.2-1c-0.9,0.1-1.5,0.6-1.9,1.4c-1,2.4-2.1,4.7-3.1,7.1c-0.2,0.4-0.2,0.9-0.1,1.3c0.2,0.8,0.6,1.4,1.1,2.1
				c1.7,2.1,4.7,2.7,7.1,1.3c0.3-0.2,0.6-0.5,0.8-0.8c0.3-0.8,0.7-1.7,1.1-2.5c0.7-1.6,1.4-3.2,2.1-4.7c0.3-0.8,0.2-1.5-0.3-2.2
				c-0.5,0.2-1,0.2-1.4-0.1c-0.7-0.4-1-1.2-0.7-1.9c0.3-0.7,1-1.2,1.8-1c0.7,0.1,1.3,0.8,1.3,1.5c0,0.1,0,0.2,0.1,0.3
				c1,1.3,1.2,2.6,0.6,4.1c-1,2.3-2.1,4.6-3,7c-0.4,0.8-0.9,1.4-1.7,1.8c-1.5,0.8-3.2,0.9-4.9,0.7c-0.2,0-0.4-0.1-0.5-0.1
				c-0.3,0.6-0.5,1.1-0.9,1.7c-1.7,2.9-5.8,3.9-8.7,2.1c-2.8-1.7-3.9-5-2.6-8c0.9-2,1.7-3.9,2.6-5.9
				C-213.9,73.7-213.8,73.6-213.8,73.5 M-212.5,72.5c0.9,0.4,2,0,2.4-1c0.4-0.9,0-2-1-2.4c-0.9-0.4-2,0-2.4,1
				C-213.9,71.1-213.4,72.1-212.5,72.5"/>
		</g>
		<path class="st21" d="M-213.7,70.1c-0.4,1,0.1,2.2,1.1,2.6c1,0.4,2.2-0.1,2.6-1.1c0.4-1-0.1-2.2-1.1-2.6
			C-212.1,68.6-213.3,69.1-213.7,70.1z"/>
	</g>
</g>
<g>
	<g>
		<path class="st18" d="M-258.9,45.7v36.4c0,1.3,1.1,2.4,2.4,2.4h32c1.3,0,2.4-1.1,2.4-2.4V40.3c0-1.3-1.1-2.3-2.4-2.3h-26
			L-258.9,45.7z"/>
		<path class="st6" d="M-250.6,38v5.4c0,1.3-1.1,2.4-2.4,2.4h-5.9L-250.6,38z"/>
	</g>
	<g>
		<polygon class="st0" points="-236.4,71.3 -236.4,61.5 -236.4,59.2 -243.3,59.2 -245.3,59.2 -245.3,61.5 -243.3,61.5 -243.3,71.3 
			-245.3,71.3 -245.3,73.6 -234.4,73.6 -234.4,71.3 		"/>
		<ellipse class="st0" cx="-239.8" cy="53" rx="4.2" ry="4.1"/>
	</g>
</g>
<g>
	<g>
		<path class="st22" d="M-243.9,95.5c5.4,13.7,23.3,20.9,42.1,19.3"/>
		<g>
			<polygon class="st19" points="-204.1,117 -202.2,114.8 -204.4,112.9 -202.7,112.8 -200.5,114.7 -202.3,116.9 			"/>
		</g>
	</g>
</g>
<g>
	<g>
		<path class="st23" d="M-188.7,96.8c-0.6,6.3,3.6,15.8,13,18.5"/>
		<g>
			<polygon class="st19" points="-178.6,116.6 -176,115.1 -177.5,112.6 -175.8,113.1 -174.4,115.6 -176.9,117 			"/>
		</g>
	</g>
</g>
<rect x="-277.8" y="148" class="st0" width="244.3" height="4.5"/>
<g>
	<circle class="st24" cx="-94.8" cy="105.3" r="0.9"/>
	<circle class="st24" cx="-92.6" cy="102.5" r="1.5"/>
	<circle class="st24" cx="-88.8" cy="98.2" r="2.2"/>
	<path class="st24" d="M-108.2,65.8c-1.7-2-2.7-4.5-2.7-7.2c0-6.2,5-11.2,11.2-11.2c0.8,0,1.6,0.1,2.4,0.3c0.5-2,2.3-3.5,4.5-3.5
		c0.3,0,0.7,0,1,0.1c1.7-3.9,5.6-6.6,10.2-6.6c4.1,0,7.6,2.2,9.6,5.4c0.7-0.4,1.5-0.6,2.3-0.6c1.8,0,3.3,1,4.1,2.5
		c0.4-0.1,0.9-0.1,1.3-0.1c4.4,0,7.9,3.6,7.9,7.9c0,0.9-0.1,1.7-0.4,2.5c0.6,0.6,1,1.3,1.2,2.1c0.1,0,0.2,0,0.2,0
		c3.7,0,6.7,3,6.7,6.7c0,2.7-1.6,5.1-3.9,6.1c0,0.2,0,0.3,0,0.5c0,0.7-0.2,1.4-0.5,2c0.8,1.6,1.3,3.4,1.3,5.3
		c0,5.9-4.6,10.8-10.4,11.2c-0.2,3.1-2.8,5.6-6,5.6c-0.9,0-1.7-0.2-2.4-0.5c-0.7,1.7-2.4,2.9-4.3,2.9c-1.3,0-2.6-0.6-3.4-1.5
		c-1.1,1-2.5,1.7-4.1,1.7c-2.1,0-3.9-1.1-4.9-2.7c-0.9,0.5-1.9,0.7-2.9,0.7c-3.4,0-6.2-2.8-6.2-6.2c0,0,0,0,0,0
		c-0.5,0.1-1,0.1-1.5,0.1c-6.2,0-11.2-5-11.2-11.2c0-1.4,0.3-2.8,0.7-4c-1.4-0.8-2.4-2.3-2.4-4.1C-110.7,68.1-109.7,66.6-108.2,65.8
		z"/>
</g>
<g>
	<g>
		<g>
			<g>
				<circle class="st5" cx="-80.2" cy="63.2" r="11.4"/>
				<path class="st5" d="M-79.6,77.5h-1.2c-2.6,0-4.8-2.1-4.8-4.8v-3.3c0-2.6,2.1-4.8,4.8-4.8h1.2c2.6,0,4.8,2.1,4.8,4.8v3.3
					C-74.9,75.3-77,77.5-79.6,77.5z"/>
			</g>
			<path class="st25" d="M-76.2,80.9h-8.1c-0.7,0-1.3-0.6-1.3-1.3v0c0-0.7,0.6-1.3,1.3-1.3h8.1c0.7,0,1.3,0.6,1.3,1.3v0
				C-74.9,80.3-75.5,80.9-76.2,80.9z"/>
			<path class="st25" d="M-76.2,84.2h-8.1c-0.7,0-1.3-0.6-1.3-1.3l0,0c0-0.7,0.6-1.3,1.3-1.3h8.1c0.7,0,1.3,0.6,1.3,1.3l0,0
				C-74.9,83.6-75.5,84.2-76.2,84.2z"/>
			<path class="st25" d="M-78.4,84.8H-82c-0.5,0-0.8,0.7-0.4,1c0.6,0.5,1.3,0.7,2.1,0.7c0.8,0,1.5-0.3,2.1-0.7
				C-77.7,85.4-77.9,84.8-78.4,84.8z"/>
		</g>
	</g>
</g>
<rect x="0.3" y="148.2" class="st0" width="244.3" height="4.5"/>
<g>
	<path class="st1" d="M155.7,109.1h1.1c1,0,1.8-0.8,1.8-1.8V100c0-1-0.8-1.8-1.8-1.8l0,0c-1,0-1.8,0.8-1.8,1.8v8.4
		C155,108.8,155.3,109.1,155.7,109.1"/>
	<path class="st1" d="M113.2,109.1h-1.1c-1,0-1.8-0.8-1.8-1.8V100c0-1,0.8-1.8,1.8-1.8l0,0c1,0,1.8,0.8,1.8,1.8v8.4
		C113.9,108.8,113.6,109.1,113.2,109.1"/>
	<path class="st1" d="M156.4,102.3c0,14.2-9.8,25.7-22,25.7c-12.2,0-22-11.5-22-25.7c0-14.2,9.8-25.7,22-25.7
		C146.6,76.6,156.4,88.1,156.4,102.3"/>
	<rect x="120.5" y="113.1" class="st1" width="27.9" height="15.5"/>
	<path class="st2" d="M143,126.4h-8.5h-8.5c-4.6,0-19.7,9.5-19.7,18.4v23.4h56.5v-23.4C162.7,135.9,147.6,126.4,143,126.4"/>
	<path class="st3" d="M143.5,123.9c4.1-8.5,11.5-5.9,12.8-23.3c1.2-15.5-1.3-28.1-22-28.1c-19.6,0-23.1,12.6-22,28.1
		c1.1,14.8,6.9,14,11.8,22.9c3.7-0.5,6,0,10.2,0C138.6,123.4,139.9,123.4,143.5,123.9z"/>
</g>
<path class="st0" d="M10.1,128.3c-3,0-5.4,2.4-5.4,5.4c0,3,2.4,5.4,5.4,5.4c0.6,0,1.2-0.1,1.8-0.3l0.8,9.3h16.1l1.9-23.1H10.8
	l0.3,3.4C10.8,128.3,10.5,128.3,10.1,128.3 M10,135.8c-1.1,0-2-0.9-2-2c0-1.1,0.9-2,2-2c0.6,0,1.1,0.2,1.4,0.6
	c0.3,0.4,0.5,0.8,0.5,1.4c0,0.4-0.1,0.8-0.3,1.1C11.3,135.4,10.7,135.8,10,135.8"/>
<g>
	<g>
		<g>
			<path class="st26" d="M76.8,27.9H114c1.7,0,3.2,1.4,3.2,3.2v22.1c0,1.7-1.4,3.2-3.2,3.2h-9v13.1L90.5,56.3H76.8
				c-1.7,0-3.2-1.4-3.2-3.2V31.1C73.6,29.4,75,27.9,76.8,27.9"/>
		</g>
	</g>
	<g>
		<circle class="st5" cx="88.3" cy="41.8" r="2.6"/>
		<circle class="st5" cx="96.3" cy="41.8" r="2.6"/>
		<circle class="st5" cx="104.2" cy="41.8" r="2.6"/>
	</g>
</g>
<g>
	<g>
		<path class="st27" d="M136.1,16.5h40.6c1.8,0,3.2,1.4,3.2,3.2v30.9c0,1.8-1.4,3.2-3.2,3.2h-11v13.3l-17.1-13.3h-12.6
			c-1.8,0-3.2-1.4-3.2-3.2V19.7C132.9,18,134.4,16.5,136.1,16.5"/>
		<g>
			<path class="st28" d="M156.4,41.9"/>
		</g>
	</g>
	<g>
		<g>
			<g>
				<g>
					<circle class="st5" cx="156.4" cy="32.4" r="7.7"/>
					<path class="st5" d="M158.3,42.1h-3.7c-1,0-1.8-0.8-1.8-1.8v-5.1c0-1,0.8-1.8,1.8-1.8h3.7c1,0,1.8,0.8,1.8,1.8v5.1
						C160.1,41.3,159.3,42.1,158.3,42.1z"/>
				</g>
				<path class="st29" d="M159.2,44.4h-5.5c-0.5,0-0.9-0.4-0.9-0.9l0,0c0-0.5,0.4-0.9,0.9-0.9h5.5c0.5,0,0.9,0.4,0.9,0.9l0,0
					C160.1,44,159.7,44.4,159.2,44.4z"/>
				<path class="st29" d="M159.2,46.6h-5.5c-0.5,0-0.9-0.4-0.9-0.9v0c0-0.5,0.4-0.9,0.9-0.9h5.5c0.5,0,0.9,0.4,0.9,0.9v0
					C160.1,46.2,159.7,46.6,159.2,46.6z"/>
				<path class="st29" d="M157.7,47h-2.4c-0.4,0-0.5,0.5-0.2,0.7c0.4,0.3,0.9,0.5,1.4,0.5c0.5,0,1-0.2,1.4-0.5
					C158.2,47.5,158,47,157.7,47z"/>
			</g>
		</g>
	</g>
</g>
<g>
	<path class="st9" d="M70.7,109.2h-8h-8c-4.3,0-18.6,9.1-18.6,17.4v21.8h53.3v-21.8C89.6,118.3,75,109.2,70.7,109.2"/>
	<path class="st10" d="M70.3,108.6c-0.9,0-7.5,2.8-7.5,2.8s-7.7-2.2-8.3-2.3c-0.6-0.1-4.9,2.2-4.9,2.2c1.1,1.6,4.1,9,13.2,9
		c9.1,0,12.2-7.4,13.3-9C76,111.3,71.2,108.6,70.3,108.6"/>
	<path class="st10" d="M42.7,85.7c0,0-0.1,0.2-0.2,0.1c-0.2-0.1-0.2-0.1-0.4-0.1c-0.9,0-1.5,0.8-1.5,1.7v6.8c0,0.9,0.6,1.7,1.5,1.7
		c0.4,0,0.6-0.1,0.9-0.3c2.3,10.4,10.3,18.1,19.9,18.1c9.6,0,17.6-7.7,19.9-18.1c0.3,0.2,0.5,0.3,0.9,0.3c0.9,0,1.6-0.8,1.6-1.7
		v-6.8c0-0.9-0.7-1.7-1.6-1.7c-0.2,0-0.4,0-0.6,0.1C61.4,88.3,42.7,85.7,42.7,85.7"/>
	<polyline class="st5" points="75.9,111 53.6,148.4 78.7,148.4 78.7,112.5 	"/>
	<polyline class="st5" points="49.4,110.8 60.8,147.3 56.9,147.3 	"/>
	<path class="st10" d="M83.4,89.7c0,13.3-9.2,24-20.5,24c-11.3,0-20.5-10.8-20.5-24c0-13.3,9.2-24,20.5-24
		C74.2,65.7,83.4,76.4,83.4,89.7"/>
	<path class="st1" d="M70.8,100.7v-2.1H54.2v2.3h-9.6c3.5,7.6,10.3,12.7,18.1,12.7c8,0,14.9-5.2,18.3-13H70.8z M68.3,104.5H57.5
		v-3.2h10.8V104.5z"/>
	<path class="st1" d="M47,73.3c-0.6,0.4-5,2.5-5.2,13.5c0,1.7,0.1,3.4,0.9,3.4l1.4,0c0.5-6.4,1.6-11,2.8-12.7
		C50.3,72.8,47.7,73,47,73.3z"/>
	<path class="st1" d="M78.9,73.3c0.6,0.4,5,2.5,5.2,13.5c0,1.7-0.1,3.4-0.9,3.4l-1.4,0c-0.5-6.4-1.6-11-2.8-12.7
		C75.7,72.8,78.3,73,78.9,73.3z"/>
</g>
</svg>
