<?xml version="1.0" encoding="utf-8"?>
<!-- Generator: Adobe Illustrator 19.1.0, SVG Export Plug-In . SVG Version: 6.00 Build 0)  -->
<svg version="1.1" id="Layer_1" xmlns="http://www.w3.org/2000/svg" xmlns:xlink="http://www.w3.org/1999/xlink" x="0px" y="0px"
	 width="244.3px" height="96.3px" viewBox="0 0 244.3 96.3" style="enable-background:new 0 0 244.3 96.3;" xml:space="preserve">
<style type="text/css">
	.st0{fill:#505557;}
	.st1{fill:#BDBDBC;}
	.st2{fill:#52808D;}
	.st3{fill:#36363A;}
	.st4{clip-path:url(#SVGID_2_);}
	.st5{fill:#FFFFFF;}
	.st6{fill:#BFBFBD;}
	.st7{fill:none;stroke:#83C455;stroke-width:0.519;stroke-miterlimit:10;}
	.st8{fill:#2F3137;}
	.st9{fill:#95A947;}
	.st10{fill:#E6E3E1;}
	.st11{fill:#0E546F;}
	.st12{fill:#E47F68;}
	.st13{fill:#581E57;}
	.st14{fill:#D2232A;}
	.st15{fill:#C52A35;}
	.st16{fill:#814F82;}
	.st17{fill:#364250;}
	.st18{fill:#E9E9E3;}
	.st19{fill:#8E9294;}
	.st20{fill:#CAC8C6;}
	.st21{fill:#A59D96;}
	.st22{fill:none;stroke:#8E9294;stroke-width:1.2;stroke-miterlimit:10;}
	.st23{fill:none;stroke:#8E9294;stroke-width:1.2146;stroke-miterlimit:10;}
	.st24{fill:#BCD0CF;}
	.st25{fill:#585B5C;}
	.st26{fill:#7CA9B4;}
	.st27{fill:#561D5B;}
	.st28{fill:#1A293A;}
	.st29{fill:#B19AB3;}
</style>
<rect x="0.3" y="92.1" class="st0" width="244.3" height="4.5"/>
<g>
	<path class="st1" d="M155.2,38.6h1.1c1,0,1.8-0.8,1.8-1.8v-7.1c0-1-0.8-1.8-1.8-1.8l0,0c-1,0-1.8,0.8-1.8,1.8V38
		C154.6,38.3,154.9,38.6,155.2,38.6"/>
	<path class="st1" d="M113.7,38.6h-1.1c-1,0-1.8-0.8-1.8-1.8v-7.1c0-1,0.8-1.8,1.8-1.8l0,0c1,0,1.8,0.8,1.8,1.8V38
		C114.4,38.3,114.1,38.6,113.7,38.6"/>
	<path class="st1" d="M155.9,32.1c0,13.9-9.6,25.1-21.5,25.1c-11.9,0-21.5-11.2-21.5-25.1c0-13.9,9.6-25.1,21.5-25.1
		C146.3,6.9,155.9,18.2,155.9,32.1"/>
	<rect x="120.9" y="42.5" class="st1" width="27.2" height="15.1"/>
	<path class="st2" d="M142.8,55.5h-8.3h-8.3c-4.5,0-19.3,9.3-19.3,18v22.8h55.2V73.5C162.1,64.8,147.3,55.5,142.8,55.5"/>
	<path class="st3" d="M143.4,53.1c4-8.3,11.2-5.8,12.5-22.8c1.1-15.1-1.3-27.4-21.4-27.4c-19.1,0-22.6,12.3-21.4,27.4
		c1.1,14.4,6.7,13.7,11.5,22.4c3.6-0.5,5.8,0,9.9,0C138.5,52.6,139.8,52.6,143.4,53.1z"/>
</g>
<g>
	<defs>
		<rect id="SVGID_1_" x="171.1" y="16.6" width="69.4" height="75.6"/>
	</defs>
	<clipPath id="SVGID_2_">
		<use xlink:href="#SVGID_1_"  style="overflow:visible;"/>
	</clipPath>
	<g class="st4">
		<path class="st0" d="M226.7,49.8h-42.3c-1.7,0-3.2,1.4-3.2,3.2v53.4c0,0.3,0.1,0.6,0.1,0.9c0.2,0.5,0.4,0.9,0.8,1.3
			c0.1,0.1,0.1,0.1,0.2,0.2c0.5,0.4,1,0.6,1.7,0.7c0.1,0,0.2,0,0.3,0h42.3c1.7,0,3.2-1.4,3.2-3.2V53
			C229.9,51.2,228.5,49.8,226.7,49.8"/>
		<path class="st5" d="M185.2,61.5v41.1c0,1.5,1.2,2.7,2.7,2.7h35.5c1.5,0,2.7-1.2,2.7-2.7V55.4c0-1.5-1.2-2.7-2.7-2.7h-28.9
			L185.2,61.5z"/>
		<path class="st6" d="M194.4,52.7v6.1c0,1.5-1.2,2.7-2.7,2.7h-6.6L194.4,52.7z"/>
		<rect x="198.7" y="73" class="st6" width="19.7" height="2.2"/>
		<rect x="198.7" y="78" class="st6" width="19.7" height="2.2"/>
		<rect x="198.7" y="83" class="st6" width="19.7" height="2.2"/>
		<rect x="198.7" y="87.9" class="st6" width="19.7" height="2.2"/>
		<rect x="193.3" y="73" class="st6" width="2.3" height="2.2"/>
		<rect x="193.3" y="78" class="st6" width="2.3" height="2.2"/>
		<rect x="193.3" y="83" class="st6" width="2.3" height="2.2"/>
		<rect x="193.3" y="87.9" class="st6" width="2.3" height="2.2"/>
		<polyline class="st7" points="193,72.4 194.5,74.1 196.6,71.4 		"/>
		<path class="st8" d="M211.9,47.1h-3.8v-0.7c0-1.4-1.1-2.5-2.5-2.5c-1.4,0-2.5,1.1-2.5,2.5v0.7h-3.8c-1.9,0-3.4,1.5-3.4,3.4v4.1
			h19.4v-4.1C215.3,48.6,213.8,47.1,211.9,47.1 M205.6,51.3c-0.6,0-1-0.5-1-1s0.5-1,1-1c0.6,0,1,0.5,1,1S206.1,51.3,205.6,51.3"/>
	</g>
</g>
<g>
	<g>
		<path class="st9" d="M67.3,52.7h-8h-8c-4.3,0-18.7,9.2-18.7,17.5v22h53.8v-22C86.2,61.9,71.6,52.7,67.3,52.7"/>
		<path class="st10" d="M66.8,52c-0.9,0-7.6,2.8-7.6,2.8s-7.8-2.2-8.4-2.3c-0.6-0.1-4.9,2.2-4.9,2.2c1.1,1.6,4.2,9,13.4,9
			c9.2,0,12.3-7.4,13.4-9C72.6,54.7,67.7,52,66.8,52"/>
		<path class="st10" d="M39,28.9c0,0-0.1,0.2-0.2,0.1c-0.2-0.1-0.2-0.1-0.4-0.1c-0.9,0-1.5,0.8-1.5,1.7v6.9c0,0.9,0.6,1.7,1.5,1.7
			c0.4,0,0.6-0.1,0.9-0.3C41.6,49.3,49.6,57,59.3,57c9.7,0,17.7-7.7,20-18.2c0.3,0.2,0.5,0.3,0.9,0.3c0.9,0,1.6-0.8,1.6-1.7v-6.9
			c0-0.9-0.7-1.7-1.6-1.7c-0.2,0-0.4,0-0.6,0.1C57.9,31.5,39,28.9,39,28.9"/>
		<polyline class="st5" points="72.4,54.4 50,92.2 75.3,92.2 75.3,56 		"/>
		<polyline class="st5" points="45.7,54.3 57.2,91.1 53.3,91.1 		"/>
		<path class="st10" d="M80.1,33c0,13.4-9.3,24.2-20.7,24.2c-11.4,0-20.7-10.8-20.7-24.2c0-13.4,9.3-24.2,20.7-24.2
			C70.8,8.7,80.1,19.6,80.1,33"/>
		<path class="st1" d="M67.3,44.1V42H50.6v2.3H41c3.5,7.6,10.4,12.8,18.3,12.8c8,0,15-5.2,18.4-13.1H67.3z M64.8,47.9H53.9v-3.2
			h10.9V47.9z"/>
		<path class="st1" d="M43.4,16.4c-0.6,0.4-5,2.5-5.2,13.6c0,1.7,0.1,3.5,0.9,3.4l1.4,0c0.5-6.4,1.6-11.1,2.8-12.8
			C46.6,16,44,16.1,43.4,16.4z"/>
		<path class="st1" d="M75.5,16.4c0.6,0.4,5,2.5,5.2,13.6c0,1.7-0.1,3.5-0.9,3.4l-1.4,0c-0.5-6.4-1.6-11.1-2.8-12.8
			C72.2,16,74.8,16.1,75.5,16.4z"/>
	</g>
	<path class="st11" d="M80.6,24C80.2,13,73.2,3.8,63.9,1.5V0.1h-9v1.4C45.5,3.8,38.5,13,38.1,24h-2.3v4.4h47V24H80.6z"/>
</g>
<path class="st0" d="M9.3,73.7c-2.9,0-5.3,2.4-5.3,5.3c0,2.9,2.4,5.3,5.3,5.3c0.6,0,1.2-0.1,1.8-0.3l0.8,9.1h15.8l1.9-22.6H10
	l0.3,3.3C10,73.7,9.7,73.7,9.3,73.7 M9.2,81c-1.1,0-2-0.9-2-2c0-1.1,0.9-2,2-2c0.6,0,1.1,0.2,1.4,0.6c0.3,0.3,0.5,0.8,0.5,1.3
	c0,0.4-0.1,0.8-0.3,1.1C10.4,80.7,9.8,81,9.2,81"/>
<g>
	<path class="st12" d="M434.7,37.7L434.7,37.7c0-15-11-27.1-24.5-27.1s-24.5,12.1-24.5,27.1c0,0,0,0,0,0c0,12.8-6.7,20.1-6.7,20.1
		s6.6,8,31.2,8l0,0c0,0,0,0,0,0c24.6,0,31.2-8,31.2-8S434.7,50.5,434.7,37.7z"/>
	<g>
		<path class="st13" d="M417.7,57.2c-4,0-7.5,0-7.5,0s-3.4,0-7.5,0s-17.3,8.2-17.3,15.9c0,7.7,0,20.1,0,20.1h49.5c0,0,0-12.5,0-20.1
			C434.9,65.4,421.7,57.2,417.7,57.2z"/>
	</g>
	<path class="st10" d="M431.8,34.5c-0.1-0.7-0.8-1.3-1.6-1.3c-0.2,0-0.4,0-0.6,0.1c0,0,0,0-0.1,0c-6-8-17.6-0.6-26.5-8.3
		c-1.1-1.2-1.7-2-1.9-2c0,0-8.6,7.4-10.1,10.2c0,0-0.1,0.2-0.2,0.1c-0.2-0.1-0.4-0.1-0.6-0.1c-0.8,0-1.5,0.6-1.6,1.3
		c0,0.1-0.1,0.3-0.1,0.4v6.4c0,0.9,0.7,1.6,1.6,1.6c0.4,0,0.7-0.1,1-0.3c1.4,6.4,5.2,11.6,10.1,14.5c-1.4,0.6-3.5,1.7-3.5,1.7
		c1,1.5,3.9,8.3,12.4,8.3c8.5,0,11.4-6.8,12.4-8.3c0,0-1.9-1-3.4-1.7c4.9-2.9,8.6-8.2,10-14.5c0.3,0.2,0.6,0.3,1,0.3
		c0.9,0,1.6-0.7,1.6-1.6v-6.4C431.8,34.8,431.8,34.6,431.8,34.5z"/>
	<g>
		<path class="st14" d="M429.2,86.2h-15.1c-0.7,0-1.4-0.6-1.4-1.4V77c0-0.7,0.6-1.4,1.4-1.4h15.1c0.7,0,1.4,0.6,1.4,1.4v7.9
			C430.5,85.6,429.9,86.2,429.2,86.2z"/>
		<g>
			<g>
				<path class="st5" d="M425.7,81.1c0,2.1-1.7,3.9-3.9,3.9c-2.2,0-3.9-1.7-3.9-3.9c0-2.1,1.7-3.9,3.9-3.9
					C423.9,77.2,425.7,79,425.7,81.1"/>
			</g>
			<polygon class="st5" points="416.7,82.8 415.9,82.8 416.8,80.8 417.5,80.8 			"/>
			<polygon class="st5" points="426.3,82.8 425.8,82.8 426.7,80.8 427.1,80.8 			"/>
			<polygon class="st5" points="427.6,82.8 427.4,82.8 428.2,80.8 428.4,80.8 			"/>
			<path class="st15" d="M418.8,82.8h0.6c0,0,0.1,0,0.1-0.1v-1.8c0,0,0-0.1-0.1-0.1h-0.6c0,0-0.1,0-0.1,0.1l-0.2,0.6
				c0,0,0,0.1,0,0.1h0.2c0,0,0,0,0,0L418.8,82.8C418.7,82.7,418.8,82.8,418.8,82.8"/>
			<path class="st15" d="M420.1,82.8h0.6c0,0,0.1,0,0.1-0.1v-1.8c0,0,0-0.1-0.1-0.1h-0.9c0,0-0.1,0-0.1,0.1l-0.2,0.6l-0.1,0.1h0.5
				c0.1,0,0.2,0.1,0.2,0.2L420.1,82.8C420.1,82.7,420.1,82.8,420.1,82.8"/>
			<path class="st15" d="M422.8,80.8h-0.6c0,0-0.1,0-0.1,0.1v1.8c0,0,0,0.1,0.1,0.1h0.6c0,0,0.1,0,0.1-0.1l0.2-0.6c0,0,0-0.1,0-0.1
				h-0.2c0,0,0,0,0,0L422.8,80.8C422.9,80.8,422.8,80.8,422.8,80.8"/>
			<path class="st15" d="M420.3,82.8h0.4c0,0,0.1,0,0.1-0.1l0.2-0.6c0,0,0-0.1,0-0.1h-0.2L420.3,82.8z"/>
			<path class="st15" d="M424.4,80.8h0.7c0,0,0.1,0,0,0.1l-0.8,1.9c0,0,0,0,0,0h-0.6L424.4,80.8C424.4,80.8,424.4,80.8,424.4,80.8"
				/>
			<path class="st15" d="M423.5,80.8h-1c-0.1,0,0.3,0.1,0.3,0.1l0.7,1.8c0,0,0.1,0.1,0.1,0.1h0.6L423.5,80.8
				C423.6,80.8,423.6,80.8,423.5,80.8"/>
			<path class="st15" d="M421.6,80.8c0.3,0,0.6,0.2,0.6,0.6c0,0.4-0.1,0.4-0.1,0.4s-0.1-0.4-0.4-0.4c-0.3,0-0.4,0.2-0.4,0.3
				c0,0.1,0.1,0.3,0.2,0.3h0.5l-0.3,0.7c0,0,0,0-0.1,0h-0.2c-0.3,0-0.9-0.3-0.9-0.9C420.7,81.2,421.2,80.8,421.6,80.8"/>
		</g>
		<path class="st13" d="M422.6,76.7H421c-0.1,0-0.2-0.1-0.2-0.2v-0.2c0-0.1,0.1-0.2,0.2-0.2h1.6c0.1,0,0.2,0.1,0.2,0.2v0.2
			C422.9,76.6,422.8,76.7,422.6,76.7z"/>
		<rect x="421.3" y="73.6" class="st16" width="1" height="2.8"/>
	</g>
</g>
<g>
	<path class="st12" d="M772.4,37.4L772.4,37.4c0-15-11-27.1-24.5-27.1s-24.5,12.1-24.5,27.1c0,0,0,0,0,0c0,12.8-6.7,20.1-6.7,20.1
		s6.6,8,31.2,8l0,0c0,0,0,0,0,0c24.6,0,31.2-8,31.2-8S772.4,50.2,772.4,37.4z"/>
	<g>
		<path class="st13" d="M755.4,56.9c-4,0-7.5,0-7.5,0s-3.4,0-7.5,0c-4,0-17.3,8.2-17.3,15.9c0,7.7,0,20.1,0,20.1h49.5
			c0,0,0-12.5,0-20.1C772.7,65.1,759.5,56.9,755.4,56.9z"/>
	</g>
	<path class="st10" d="M769.5,34.3c-0.1-0.7-0.8-1.3-1.6-1.3c-0.2,0-0.4,0-0.6,0.1c0,0,0,0-0.1,0c-6-8-17.6-0.6-26.5-8.3
		c-1.1-1.2-1.7-2-1.9-2c0,0-8.6,7.4-10.1,10.2c0,0-0.1,0.2-0.2,0.1c-0.2-0.1-0.4-0.1-0.6-0.1c-0.8,0-1.5,0.6-1.6,1.3
		c0,0.1-0.1,0.3-0.1,0.4v6.4c0,0.9,0.7,1.6,1.6,1.6c0.4,0,0.7-0.1,1-0.3c1.4,6.4,5.2,11.6,10.1,14.5c-1.4,0.6-3.5,1.7-3.5,1.7
		c1,1.5,3.9,8.3,12.4,8.3c8.5,0,11.4-6.8,12.4-8.3c0,0-1.9-1-3.4-1.7c4.9-2.9,8.6-8.2,10-14.5c0.3,0.2,0.6,0.3,1,0.3
		c0.9,0,1.6-0.7,1.6-1.6v-6.4C769.6,34.5,769.6,34.4,769.5,34.3z"/>
	<g>
		<path class="st14" d="M767,85.9h-15.1c-0.7,0-1.4-0.6-1.4-1.4v-7.9c0-0.7,0.6-1.4,1.4-1.4H767c0.7,0,1.4,0.6,1.4,1.4v7.9
			C768.3,85.3,767.7,85.9,767,85.9z"/>
		<g>
			<g>
				<path class="st5" d="M763.4,80.8c0,2.1-1.7,3.9-3.9,3.9c-2.2,0-3.9-1.7-3.9-3.9c0-2.1,1.7-3.9,3.9-3.9
					C761.7,77,763.4,78.7,763.4,80.8"/>
			</g>
			<polygon class="st5" points="754.5,82.5 753.7,82.5 754.5,80.6 755.3,80.6 			"/>
			<polygon class="st5" points="764.1,82.5 763.6,82.5 764.4,80.6 764.9,80.6 			"/>
			<polygon class="st5" points="765.4,82.5 765.2,82.5 766,80.6 766.2,80.6 			"/>
			<path class="st15" d="M756.6,82.5h0.6c0,0,0.1,0,0.1-0.1v-1.8c0,0,0-0.1-0.1-0.1h-0.6c0,0-0.1,0-0.1,0.1l-0.2,0.6
				c0,0,0,0.1,0,0.1h0.2c0,0,0,0,0,0L756.6,82.5C756.5,82.5,756.5,82.5,756.6,82.5"/>
			<path class="st15" d="M757.9,82.5h0.6c0,0,0.1,0,0.1-0.1v-1.8c0,0,0-0.1-0.1-0.1h-0.9c0,0-0.1,0-0.1,0.1l-0.2,0.6l-0.1,0.1h0.5
				c0.1,0,0.2,0.1,0.2,0.2L757.9,82.5C757.8,82.5,757.8,82.5,757.9,82.5"/>
			<path class="st15" d="M760.6,80.6H760c0,0-0.1,0-0.1,0.1v1.8c0,0,0,0.1,0.1,0.1h0.6c0,0,0.1,0,0.1-0.1l0.2-0.6c0,0,0-0.1,0-0.1
				h-0.2c0,0,0,0,0,0L760.6,80.6C760.6,80.6,760.6,80.6,760.6,80.6"/>
			<path class="st15" d="M758.1,82.5h0.4c0,0,0.1,0,0.1-0.1l0.2-0.6c0,0,0-0.1,0-0.1h-0.2L758.1,82.5z"/>
			<path class="st15" d="M762.2,80.6h0.7c0,0,0.1,0,0,0.1l-0.8,1.9c0,0,0,0,0,0h-0.6L762.2,80.6C762.1,80.6,762.2,80.6,762.2,80.6"
				/>
			<path class="st15" d="M761.3,80.6h-1c-0.1,0,0.3,0.1,0.3,0.1l0.7,1.8c0,0,0.1,0.1,0.1,0.1h0.6L761.3,80.6
				C761.4,80.6,761.3,80.6,761.3,80.6"/>
			<path class="st15" d="M759.3,80.6c0.3,0,0.6,0.2,0.6,0.6c0,0.4-0.1,0.4-0.1,0.4s-0.1-0.4-0.4-0.4c-0.3,0-0.4,0.2-0.4,0.3
				c0,0.1,0.1,0.3,0.2,0.3h0.5l-0.3,0.7c0,0,0,0-0.1,0h-0.2c-0.3,0-0.9-0.3-0.9-0.9C758.4,80.9,758.9,80.6,759.3,80.6"/>
		</g>
		<path class="st13" d="M760.4,76.5h-1.6c-0.1,0-0.2-0.1-0.2-0.2V76c0-0.1,0.1-0.2,0.2-0.2h1.6c0.1,0,0.2,0.1,0.2,0.2v0.2
			C760.6,76.4,760.5,76.5,760.4,76.5z"/>
		<rect x="759.1" y="73.4" class="st16" width="1" height="2.8"/>
	</g>
</g>
<rect x="335.6" y="83.2" class="st17" width="58.1" height="10.5"/>
<rect x="338.6" y="77.8" class="st18" width="52.1" height="3.5"/>
<rect x="338.6" y="73.4" class="st18" width="52.1" height="3.5"/>
<rect x="338.6" y="75.7" class="st19" width="52.1" height="1.2"/>
<rect x="338.6" y="80.3" class="st19" width="52.1" height="1.2"/>
<g>
	<g>
		<path class="st18" d="M330.4,0.9l-14,33.7c-0.5,1.2,0.1,2.6,1.3,3.1l29.6,11.8c1.2,0.5,2.6-0.1,3.1-1.3l16.1-38.7
			c0.5-1.2-0.1-2.6-1.3-3.1L341-3.2L330.4,0.9z"/>
		<path class="st6" d="M341-3.2l-2.1,5c-0.5,1.2-1.9,1.8-3.1,1.3l-5.5-2.2L341-3.2z"/>
	</g>
	<g>
		<g>
			<path class="st20" d="M335.5,17.5L335.5,17.5c1.2,0.5,2.5,0,3-1.2c0.5-1.2,0-2.5-1.2-3c-1.2-0.5-2.5,0-3,1.2
				C333.8,15.7,334.4,17,335.5,17.5"/>
			<path class="st0" d="M334.3,18.2c-0.1-0.1-0.2-0.1-0.2-0.2c-1.3-1.2-1.5-3.2-0.3-4.6c1.2-1.4,3.2-1.6,4.7-0.5
				c1.2,0.9,1.6,2.5,1.1,3.9c-0.5,1.3-2,2.2-3.5,2.1c-0.2,0-0.3,0-0.4,0.2c-0.8,2-1.7,3.9-2.6,5.9c-1,2.3-0.1,5,2.2,6.2
				c2.5,1.3,6,0.3,7.1-3.2c-0.5-0.5-1.1-0.9-1.5-1.3c-0.9-0.9-1.5-2-1.9-3.3c-0.1-0.6-0.2-1.2,0.1-1.8c1.1-2.5,2.2-5,3.3-7.5
				c0.6-1.3,1.7-2,3.2-2.2c0.2,0,0.4-0.1,0.5-0.2c0.6-0.5,1.4-0.5,2,0c0.6,0.4,0.8,1.2,0.5,1.9c-0.3,0.7-1,1-1.8,0.9
				c-0.6-0.1-0.9-0.5-1.2-1c-0.9,0.1-1.5,0.6-1.9,1.4c-1,2.4-2.1,4.7-3.1,7.1c-0.2,0.4-0.2,0.9-0.1,1.3c0.2,0.8,0.6,1.4,1.1,2.1
				c1.7,2.1,4.7,2.7,7.1,1.3c0.3-0.2,0.6-0.5,0.8-0.8c0.3-0.8,0.7-1.7,1.1-2.5c0.7-1.6,1.4-3.2,2.1-4.7c0.3-0.8,0.2-1.5-0.3-2.2
				c-0.5,0.2-1,0.2-1.4-0.1c-0.7-0.4-1-1.2-0.7-1.9c0.3-0.7,1-1.2,1.8-1c0.7,0.1,1.3,0.8,1.3,1.5c0,0.1,0,0.2,0.1,0.3
				c1,1.3,1.2,2.6,0.6,4.1c-1,2.3-2.1,4.6-3,7c-0.4,0.8-0.9,1.4-1.7,1.8c-1.5,0.8-3.2,0.9-4.9,0.7c-0.2,0-0.4-0.1-0.5-0.1
				c-0.3,0.6-0.5,1.1-0.9,1.7c-1.7,2.9-5.8,3.9-8.7,2.1c-2.8-1.7-3.9-5-2.6-8c0.9-2,1.7-3.9,2.6-5.9
				C334.3,18.4,334.3,18.3,334.3,18.2 M335.6,17.2c0.9,0.4,2,0,2.4-1c0.4-0.9,0-2-1-2.4c-0.9-0.4-2,0-2.4,1
				C334.3,15.8,334.7,16.8,335.6,17.2"/>
		</g>
		<path class="st21" d="M334.4,14.8c-0.4,1,0.1,2.2,1.1,2.6c1,0.4,2.2-0.1,2.6-1.1s-0.1-2.2-1.1-2.6C336,13.3,334.9,13.8,334.4,14.8
			z"/>
	</g>
</g>
<g>
	<g>
		<path class="st18" d="M289.2-9.6v36.4c0,1.3,1.1,2.4,2.4,2.4h32c1.3,0,2.4-1.1,2.4-2.4V-15c0-1.3-1.1-2.3-2.4-2.3h-26L289.2-9.6z"
			/>
		<path class="st6" d="M297.5-17.3v5.4c0,1.3-1.1,2.4-2.4,2.4h-5.9L297.5-17.3z"/>
	</g>
	<g>
		<polygon class="st0" points="311.8,16 311.8,6.2 311.8,3.9 304.8,3.9 302.8,3.9 302.8,6.2 304.8,6.2 304.8,16 302.8,16 
			302.8,18.3 313.7,18.3 313.7,16 		"/>
		<ellipse class="st0" cx="308.3" cy="-2.3" rx="4.2" ry="4.1"/>
	</g>
</g>
<g>
	<g>
		<path class="st22" d="M304.2,40.2c5.4,13.7,23.3,20.9,42.1,19.3"/>
		<g>
			<polygon class="st19" points="344.1,61.7 345.9,59.5 343.7,57.6 345.5,57.5 347.7,59.4 345.8,61.6 			"/>
		</g>
	</g>
</g>
<g>
	<g>
		<path class="st23" d="M359.5,41.5c-0.6,6.3,3.6,15.8,13,18.5"/>
		<g>
			<polygon class="st19" points="369.6,61.3 372.1,59.8 370.6,57.3 372.3,57.8 373.8,60.3 371.3,61.7 			"/>
		</g>
	</g>
</g>
<rect x="270.4" y="92.7" class="st0" width="244.3" height="4.5"/>
<g>
	<circle class="st24" cx="453.3" cy="50" r="0.9"/>
	<circle class="st24" cx="455.5" cy="47.2" r="1.5"/>
	<circle class="st24" cx="459.3" cy="42.9" r="2.2"/>
	<path class="st24" d="M439.9,10.5c-1.7-2-2.7-4.5-2.7-7.2c0-6.2,5-11.2,11.2-11.2c0.8,0,1.6,0.1,2.4,0.3c0.5-2,2.3-3.5,4.5-3.5
		c0.3,0,0.7,0,1,0.1c1.7-3.9,5.6-6.6,10.2-6.6c4.1,0,7.6,2.2,9.6,5.4c0.7-0.4,1.5-0.6,2.3-0.6c1.8,0,3.3,1,4.1,2.5
		c0.4-0.1,0.9-0.1,1.3-0.1c4.4,0,7.9,3.6,7.9,7.9c0,0.9-0.1,1.7-0.4,2.5c0.6,0.6,1,1.3,1.2,2.1c0.1,0,0.2,0,0.2,0
		c3.7,0,6.7,3,6.7,6.7c0,2.7-1.6,5.1-3.9,6.1c0,0.2,0,0.3,0,0.5c0,0.7-0.2,1.4-0.5,2c0.8,1.6,1.3,3.4,1.3,5.3
		c0,5.9-4.6,10.8-10.4,11.2c-0.2,3.1-2.8,5.6-6,5.6c-0.9,0-1.7-0.2-2.4-0.5c-0.7,1.7-2.4,2.9-4.3,2.9c-1.3,0-2.6-0.6-3.4-1.5
		c-1.1,1-2.5,1.7-4.1,1.7c-2.1,0-3.9-1.1-4.9-2.7c-0.9,0.5-1.9,0.7-2.9,0.7c-3.4,0-6.2-2.8-6.2-6.2c0,0,0,0,0,0
		c-0.5,0.1-1,0.1-1.5,0.1c-6.2,0-11.2-5-11.2-11.2c0-1.4,0.3-2.8,0.7-4c-1.4-0.8-2.4-2.3-2.4-4.1C437.4,12.8,438.4,11.3,439.9,10.5z
		"/>
</g>
<g>
	<g>
		<g>
			<g>
				<circle class="st5" cx="467.9" cy="7.9" r="11.4"/>
				<path class="st5" d="M468.5,22.2h-1.2c-2.6,0-4.8-2.1-4.8-4.8v-3.3c0-2.6,2.1-4.8,4.8-4.8h1.2c2.6,0,4.8,2.1,4.8,4.8v3.3
					C473.3,20,471.1,22.2,468.5,22.2z"/>
			</g>
			<path class="st25" d="M471.9,25.6h-8.1c-0.7,0-1.3-0.6-1.3-1.3v0c0-0.7,0.6-1.3,1.3-1.3h8.1c0.7,0,1.3,0.6,1.3,1.3v0
				C473.3,25,472.7,25.6,471.9,25.6z"/>
			<path class="st25" d="M471.9,28.9h-8.1c-0.7,0-1.3-0.6-1.3-1.3v0c0-0.7,0.6-1.3,1.3-1.3h8.1c0.7,0,1.3,0.6,1.3,1.3v0
				C473.3,28.3,472.7,28.9,471.9,28.9z"/>
			<path class="st25" d="M469.7,29.5h-3.6c-0.5,0-0.8,0.7-0.4,1c0.6,0.5,1.3,0.7,2.1,0.7s1.5-0.3,2.1-0.7
				C470.5,30.2,470.2,29.5,469.7,29.5z"/>
		</g>
	</g>
</g>
<rect x="548.5" y="92.9" class="st0" width="244.3" height="4.5"/>
<g>
	<path class="st1" d="M703.9,53.8h1.1c1,0,1.8-0.8,1.8-1.8v-7.3c0-1-0.8-1.8-1.8-1.8l0,0c-1,0-1.8,0.8-1.8,1.8v8.4
		C703.2,53.5,703.5,53.8,703.9,53.8"/>
	<path class="st1" d="M661.3,53.8h-1.1c-1,0-1.8-0.8-1.8-1.8v-7.3c0-1,0.8-1.8,1.8-1.8l0,0c1,0,1.8,0.8,1.8,1.8v8.4
		C662,53.5,661.7,53.8,661.3,53.8"/>
	<path class="st1" d="M704.6,47c0,14.2-9.8,25.7-22,25.7c-12.2,0-22-11.5-22-25.7c0-14.2,9.8-25.7,22-25.7
		C694.7,21.3,704.6,32.8,704.6,47"/>
	<rect x="668.6" y="57.8" class="st1" width="27.9" height="15.5"/>
	<path class="st2" d="M691.1,71.1h-8.5H674c-4.6,0-19.7,9.5-19.7,18.4v23.4h56.5V89.5C710.9,80.6,695.7,71.1,691.1,71.1"/>
	<path class="st3" d="M691.7,68.6c4.1-8.5,11.5-5.9,12.8-23.3c1.2-15.5-1.3-28.1-22-28.1c-19.6,0-23.1,12.6-22,28.1
		c1.1,14.8,6.9,14,11.8,22.9c3.7-0.5,6,0,10.2,0C686.7,68.1,688,68.1,691.7,68.6z"/>
</g>
<path class="st0" d="M558.3,73c-3,0-5.4,2.4-5.4,5.4c0,3,2.4,5.4,5.4,5.4c0.6,0,1.2-0.1,1.8-0.3l0.8,9.3h16.1l1.9-23.1h-19.9
	l0.3,3.4C558.9,73,558.6,73,558.3,73 M558.1,80.5c-1.1,0-2-0.9-2-2s0.9-2,2-2c0.6,0,1.1,0.2,1.4,0.6c0.3,0.4,0.5,0.8,0.5,1.4
	c0,0.4-0.1,0.8-0.3,1.1C559.4,80.1,558.8,80.5,558.1,80.5"/>
<g>
	<g>
		<g>
			<path class="st26" d="M624.9-27.4h37.2c1.7,0,3.2,1.4,3.2,3.2v22.1c0,1.7-1.4,3.2-3.2,3.2h-9v13.1L638.7,1h-13.8
				c-1.7,0-3.2-1.4-3.2-3.2v-22.1C621.7-25.9,623.1-27.4,624.9-27.4"/>
		</g>
	</g>
	<g>
		<circle class="st5" cx="636.5" cy="-13.5" r="2.6"/>
		<circle class="st5" cx="644.4" cy="-13.5" r="2.6"/>
		<circle class="st5" cx="652.3" cy="-13.5" r="2.6"/>
	</g>
</g>
<g>
	<g>
		<path class="st27" d="M684.3-38.8h40.6c1.8,0,3.2,1.4,3.2,3.2v30.9c0,1.8-1.4,3.2-3.2,3.2h-11v13.3L696.9-1.4h-12.6
			c-1.8,0-3.2-1.4-3.2-3.2v-30.9C681.1-37.3,682.5-38.8,684.3-38.8"/>
		<g>
			<path class="st28" d="M704.6-13.4"/>
		</g>
	</g>
	<g>
		<g>
			<g>
				<g>
					<circle class="st5" cx="704.6" cy="-22.8" r="7.7"/>
					<path class="st5" d="M706.4-13.2h-3.7c-1,0-1.8-0.8-1.8-1.8v-5.1c0-1,0.8-1.8,1.8-1.8h3.7c1,0,1.8,0.8,1.8,1.8v5.1
						C708.2-14,707.4-13.2,706.4-13.2z"/>
				</g>
				<path class="st29" d="M707.3-10.9h-5.5c-0.5,0-0.9-0.4-0.9-0.9v0c0-0.5,0.4-0.9,0.9-0.9h5.5c0.5,0,0.9,0.4,0.9,0.9v0
					C708.2-11.3,707.8-10.9,707.3-10.9z"/>
				<path class="st29" d="M707.3-8.7h-5.5c-0.5,0-0.9-0.4-0.9-0.9v0c0-0.5,0.4-0.9,0.9-0.9h5.5c0.5,0,0.9,0.4,0.9,0.9v0
					C708.2-9.1,707.8-8.7,707.3-8.7z"/>
				<path class="st29" d="M705.8-8.3h-2.4c-0.4,0-0.5,0.5-0.2,0.7c0.4,0.3,0.9,0.5,1.4,0.5c0.5,0,1-0.2,1.4-0.5
					C706.3-7.8,706.1-8.3,705.8-8.3z"/>
			</g>
		</g>
	</g>
</g>
<g>
	<path class="st9" d="M618.9,53.9h-8h-8c-4.3,0-18.6,9.1-18.6,17.4v21.8h53.3V71.3C637.7,63.1,623.2,53.9,618.9,53.9"/>
	<path class="st10" d="M618.4,53.3c-0.9,0-7.5,2.8-7.5,2.8s-7.7-2.2-8.3-2.3c-0.6-0.1-4.9,2.2-4.9,2.2c1.1,1.6,4.1,9,13.2,9
		c9.1,0,12.2-7.4,13.3-9C624.2,56,619.3,53.3,618.4,53.3"/>
	<path class="st10" d="M590.9,30.4c0,0-0.1,0.2-0.2,0.1c-0.2-0.1-0.2-0.1-0.4-0.1c-0.9,0-1.5,0.8-1.5,1.7v6.8c0,0.9,0.6,1.7,1.5,1.7
		c0.4,0,0.6-0.1,0.9-0.3c2.3,10.4,10.3,18.1,19.9,18.1c9.6,0,17.6-7.7,19.9-18.1c0.3,0.2,0.5,0.3,0.9,0.3c0.9,0,1.6-0.8,1.6-1.7V32
		c0-0.9-0.7-1.7-1.6-1.7c-0.2,0-0.4,0-0.6,0.1C609.5,33,590.9,30.4,590.9,30.4"/>
	<polyline class="st5" points="624,55.7 601.7,93.1 626.8,93.1 626.8,57.2 	"/>
	<polyline class="st5" points="597.5,55.5 608.9,92.1 605,92.1 	"/>
	<path class="st10" d="M631.6,34.4c0,13.3-9.2,24-20.5,24c-11.3,0-20.5-10.8-20.5-24c0-13.3,9.2-24,20.5-24
		C622.4,10.4,631.6,21.1,631.6,34.4"/>
	<path class="st1" d="M618.9,45.4v-2.1h-16.5v2.3h-9.6c3.5,7.6,10.3,12.7,18.1,12.7c8,0,14.9-5.2,18.3-13H618.9z M616.4,49.2h-10.8
		V46h10.8V49.2z"/>
	<path class="st1" d="M595.2,18c-0.6,0.4-5,2.5-5.2,13.5c0,1.7,0.1,3.4,0.9,3.4l1.4,0c0.5-6.4,1.6-11,2.8-12.7
		C598.4,17.5,595.8,17.7,595.2,18z"/>
	<path class="st1" d="M627,18c0.6,0.4,5,2.5,5.2,13.5c0,1.7-0.1,3.4-0.9,3.4l-1.4,0c-0.5-6.4-1.6-11-2.8-12.7
		C623.8,17.5,626.4,17.7,627,18z"/>
</g>
</svg>
