<?xml version="1.0" encoding="utf-8"?>
<!-- Generator: Adobe Illustrator 19.1.0, SVG Export Plug-In . SVG Version: 6.00 Build 0)  -->
<svg version="1.1" id="Layer_1" xmlns="http://www.w3.org/2000/svg" xmlns:xlink="http://www.w3.org/1999/xlink" x="0px" y="0px"
	 width="244.3px" height="142px" viewBox="0 0 244.3 142" style="enable-background:new 0 0 244.3 142;" xml:space="preserve">
<style type="text/css">
	.st0{fill:#505557;}
	.st1{fill:#BDBDBC;}
	.st2{fill:#52808D;}
	.st3{fill:#36363A;}
	.st4{clip-path:url(#SVGID_2_);}
	.st5{fill:#FFFFFF;}
	.st6{fill:#BFBFBD;}
	.st7{fill:none;stroke:#83C455;stroke-width:0.519;stroke-miterlimit:10;}
	.st8{fill:#2F3137;}
	.st9{fill:#95A947;}
	.st10{fill:#E6E3E1;}
	.st11{fill:#0E546F;}
	.st12{fill:#E47F68;}
	.st13{fill:#581E57;}
	.st14{fill:#D2232A;}
	.st15{fill:#C52A35;}
	.st16{fill:#814F82;}
	.st17{fill:#364250;}
	.st18{fill:#E9E9E3;}
	.st19{fill:#8E9294;}
	.st20{fill:#CAC8C6;}
	.st21{fill:#A59D96;}
	.st22{fill:none;stroke:#8E9294;stroke-width:1.2;stroke-miterlimit:10;}
	.st23{fill:none;stroke:#8E9294;stroke-width:1.2146;stroke-miterlimit:10;}
	.st24{fill:#BCD0CF;}
	.st25{fill:#585B5C;}
	.st26{fill:#7CA9B4;}
	.st27{fill:#561D5B;}
	.st28{fill:#1A293A;}
	.st29{fill:#B19AB3;}
</style>
<rect x="-269.9" y="125.4" class="st0" width="244.3" height="4.5"/>
<g>
	<path class="st1" d="M-114.9,71.9h1.1c1,0,1.8-0.8,1.8-1.8v-7.1c0-1-0.8-1.8-1.8-1.8l0,0c-1,0-1.8,0.8-1.8,1.8v8.2
		C-115.6,71.6-115.3,71.9-114.9,71.9"/>
	<path class="st1" d="M-156.4,71.9h-1.1c-1,0-1.8-0.8-1.8-1.8v-7.1c0-1,0.8-1.8,1.8-1.8l0,0c1,0,1.8,0.8,1.8,1.8v8.2
		C-155.7,71.6-156,71.9-156.4,71.9"/>
	<path class="st1" d="M-114.2,65.3c0,13.9-9.6,25.1-21.5,25.1c-11.9,0-21.5-11.2-21.5-25.1c0-13.9,9.6-25.1,21.5-25.1
		C-123.8,40.2-114.2,51.5-114.2,65.3"/>
	<rect x="-149.3" y="75.8" class="st1" width="27.2" height="15.1"/>
	<path class="st2" d="M-127.3,88.8h-8.3h-8.3c-4.5,0-19.3,9.3-19.3,18v22.8h55.2v-22.8C-108.1,98.1-122.8,88.8-127.3,88.8"/>
	<path class="st3" d="M-126.8,86.4c4-8.3,11.2-5.8,12.5-22.8c1.1-15.1-1.3-27.4-21.4-27.4c-19.1,0-22.6,12.3-21.4,27.4
		c1.1,14.4,6.7,13.7,11.5,22.4c3.6-0.5,5.8,0,9.9,0C-131.6,85.9-130.4,85.9-126.8,86.4z"/>
</g>
<g>
	<defs>
		<rect id="SVGID_1_" x="-99" y="49.9" width="69.4" height="75.6"/>
	</defs>
	<clipPath id="SVGID_2_">
		<use xlink:href="#SVGID_1_"  style="overflow:visible;"/>
	</clipPath>
	<g class="st4">
		<path class="st0" d="M-43.4,83.1h-42.3c-1.7,0-3.2,1.4-3.2,3.2v53.4c0,0.3,0.1,0.6,0.1,0.9c0.2,0.5,0.4,0.9,0.8,1.3
			c0.1,0.1,0.1,0.1,0.2,0.2c0.5,0.4,1,0.6,1.7,0.7c0.1,0,0.2,0,0.3,0h42.3c1.7,0,3.2-1.4,3.2-3.2V86.3
			C-40.2,84.5-41.7,83.1-43.4,83.1"/>
		<path class="st5" d="M-85,94.8v41.1c0,1.5,1.2,2.7,2.7,2.7h35.5c1.5,0,2.7-1.2,2.7-2.7V88.7c0-1.5-1.2-2.7-2.7-2.7h-28.9L-85,94.8
			z"/>
		<path class="st6" d="M-75.7,86v6.1c0,1.5-1.2,2.7-2.7,2.7H-85L-75.7,86z"/>
		<rect x="-71.4" y="106.3" class="st6" width="19.7" height="2.2"/>
		<rect x="-71.4" y="111.3" class="st6" width="19.7" height="2.2"/>
		<rect x="-71.4" y="116.3" class="st6" width="19.7" height="2.2"/>
		<rect x="-71.4" y="121.2" class="st6" width="19.7" height="2.2"/>
		<rect x="-76.8" y="106.3" class="st6" width="2.3" height="2.2"/>
		<rect x="-76.8" y="111.3" class="st6" width="2.3" height="2.2"/>
		<rect x="-76.8" y="116.3" class="st6" width="2.3" height="2.2"/>
		<rect x="-76.8" y="121.2" class="st6" width="2.3" height="2.2"/>
		<polyline class="st7" points="-77.1,105.7 -75.6,107.4 -73.5,104.7 		"/>
		<path class="st8" d="M-58.2,80.4H-62v-0.7c0-1.4-1.1-2.5-2.5-2.5c-1.4,0-2.5,1.1-2.5,2.5v0.7h-3.8c-1.9,0-3.4,1.5-3.4,3.4v4.1
			h19.4v-4.1C-54.8,81.9-56.4,80.4-58.2,80.4 M-64.6,84.6c-0.6,0-1-0.5-1-1s0.5-1,1-1c0.6,0,1,0.5,1,1S-64,84.6-64.6,84.6"/>
	</g>
</g>
<g>
	<g>
		<path class="st9" d="M-202.9,86h-8h-8c-4.3,0-18.7,9.2-18.7,17.5v22h53.8v-22C-183.9,95.1-198.5,86-202.9,86"/>
		<path class="st10" d="M-203.3,85.3c-0.9,0-7.6,2.8-7.6,2.8s-7.8-2.2-8.4-2.3c-0.6-0.1-4.9,2.2-4.9,2.2c1.1,1.6,4.2,9,13.4,9
			c9.2,0,12.3-7.4,13.4-9C-197.5,88-202.4,85.3-203.3,85.3"/>
		<path class="st10" d="M-231.1,62.2c0,0-0.1,0.2-0.2,0.1c-0.2-0.1-0.2-0.1-0.4-0.1c-0.9,0-1.5,0.8-1.5,1.7v6.9
			c0,0.9,0.6,1.7,1.5,1.7c0.4,0,0.6-0.1,0.9-0.3c2.3,10.5,10.4,18.2,20,18.2c9.7,0,17.7-7.7,20-18.2c0.3,0.2,0.5,0.3,0.9,0.3
			c0.9,0,1.6-0.8,1.6-1.7v-6.9c0-0.9-0.7-1.7-1.6-1.7c-0.2,0-0.4,0-0.6,0.1C-212.3,64.8-231.1,62.2-231.1,62.2"/>
		<polyline class="st5" points="-197.7,87.7 -220.2,125.5 -194.9,125.5 -194.9,89.3 		"/>
		<polyline class="st5" points="-224.4,87.6 -212.9,124.4 -216.8,124.4 		"/>
		<path class="st10" d="M-190.1,66.3c0,13.4-9.3,24.2-20.7,24.2c-11.4,0-20.7-10.8-20.7-24.2c0-13.4,9.3-24.2,20.7-24.2
			C-199.3,42-190.1,52.9-190.1,66.3"/>
		<path class="st1" d="M-202.8,77.4v-2.1h-16.7v2.3h-9.6c3.5,7.6,10.4,12.8,18.3,12.8c8,0,15-5.2,18.4-13.1H-202.8z M-205.3,81.2
			h-10.9V78h10.9V81.2z"/>
		<path class="st1" d="M-226.8,49.7c-0.6,0.4-5,2.5-5.2,13.6c0,1.7,0.1,3.5,0.9,3.4l1.4,0c0.5-6.4,1.6-11.1,2.8-12.8
			C-223.5,49.3-226.1,49.4-226.8,49.7z"/>
		<path class="st1" d="M-194.7,49.7c0.6,0.4,5,2.5,5.2,13.6c0,1.7-0.1,3.5-0.9,3.4l-1.4,0c-0.5-6.4-1.6-11.1-2.8-12.8
			C-197.9,49.3-195.3,49.4-194.7,49.7z"/>
	</g>
	<path class="st11" d="M-189.6,57.3c-0.3-11.1-7.4-20.2-16.7-22.5v-1.4h-9v1.4c-9.3,2.3-16.4,11.4-16.7,22.5h-2.3v4.4h47v-4.4
		H-189.6z"/>
</g>
<path class="st0" d="M-260.8,107c-2.9,0-5.3,2.4-5.3,5.3c0,2.9,2.4,5.3,5.3,5.3c0.6,0,1.2-0.1,1.8-0.3l0.8,9.1h15.8l1.9-22.6h-19.6
	l0.3,3.3C-260.2,107-260.5,107-260.8,107 M-261,114.3c-1.1,0-2-0.9-2-2c0-1.1,0.9-2,2-2c0.6,0,1.1,0.2,1.4,0.6
	c0.3,0.3,0.5,0.8,0.5,1.3c0,0.4-0.1,0.8-0.3,1.1C-259.7,114-260.3,114.3-261,114.3"/>
<g>
	<path class="st12" d="M164.5,71L164.5,71c0-15-11-27.1-24.5-27.1S115.6,56,115.6,71c0,0,0,0,0,0c0,12.8-6.7,20.1-6.7,20.1
		s6.6,8,31.2,8l0,0c0,0,0,0,0,0c24.6,0,31.2-8,31.2-8S164.5,83.8,164.5,71z"/>
	<g>
		<path class="st13" d="M147.5,90.5c-4,0-7.5,0-7.5,0s-3.4,0-7.5,0s-17.3,8.2-17.3,15.9c0,7.7,0,20.1,0,20.1h49.5c0,0,0-12.5,0-20.1
			C164.8,98.7,151.6,90.5,147.5,90.5z"/>
	</g>
	<path class="st10" d="M161.6,67.8c-0.1-0.7-0.8-1.3-1.6-1.3c-0.2,0-0.4,0-0.6,0.1c0,0,0,0-0.1,0c-6-8-17.6-0.6-26.5-8.3
		c-1.1-1.2-1.7-2-1.9-2c0,0-8.6,7.4-10.1,10.2c0,0-0.1,0.2-0.2,0.1c-0.2-0.1-0.4-0.1-0.6-0.1c-0.8,0-1.5,0.6-1.6,1.3
		c0,0.1-0.1,0.3-0.1,0.4v6.4c0,0.9,0.7,1.6,1.6,1.6c0.4,0,0.7-0.1,1-0.3c1.4,6.4,5.2,11.6,10.1,14.5c-1.4,0.6-3.5,1.7-3.5,1.7
		c1,1.5,3.9,8.3,12.4,8.3c8.5,0,11.4-6.8,12.4-8.3c0,0-1.9-1-3.4-1.7c4.9-2.9,8.6-8.2,10-14.5c0.3,0.2,0.6,0.3,1,0.3
		c0.9,0,1.6-0.7,1.6-1.6v-6.4C161.7,68.1,161.7,67.9,161.6,67.8z"/>
	<g>
		<path class="st14" d="M159.1,119.5h-15.1c-0.7,0-1.4-0.6-1.4-1.4v-7.9c0-0.7,0.6-1.4,1.4-1.4h15.1c0.7,0,1.4,0.6,1.4,1.4v7.9
			C160.4,118.9,159.8,119.5,159.1,119.5z"/>
		<g>
			<g>
				<path class="st5" d="M155.5,114.4c0,2.1-1.7,3.9-3.9,3.9c-2.2,0-3.9-1.7-3.9-3.9c0-2.1,1.7-3.9,3.9-3.9
					C153.8,110.5,155.5,112.3,155.5,114.4"/>
			</g>
			<polygon class="st5" points="146.6,116.1 145.8,116.1 146.6,114.1 147.4,114.1 			"/>
			<polygon class="st5" points="156.2,116.1 155.7,116.1 156.5,114.1 157,114.1 			"/>
			<polygon class="st5" points="157.5,116.1 157.3,116.1 158.1,114.1 158.3,114.1 			"/>
			<path class="st15" d="M148.7,116.1h0.6c0,0,0.1,0,0.1-0.1v-1.8c0,0,0-0.1-0.1-0.1h-0.6c0,0-0.1,0-0.1,0.1l-0.2,0.6
				c0,0,0,0.1,0,0.1h0.2c0,0,0,0,0,0L148.7,116.1C148.6,116,148.6,116.1,148.7,116.1"/>
			<path class="st15" d="M150,116.1h0.6c0,0,0.1,0,0.1-0.1v-1.8c0,0,0-0.1-0.1-0.1h-0.9c0,0-0.1,0-0.1,0.1l-0.2,0.6l-0.1,0.1h0.5
				c0.1,0,0.2,0.1,0.2,0.2L150,116.1C149.9,116,149.9,116.1,150,116.1"/>
			<path class="st15" d="M152.7,114.1h-0.6c0,0-0.1,0-0.1,0.1v1.8c0,0,0,0.1,0.1,0.1h0.6c0,0,0.1,0,0.1-0.1l0.2-0.6c0,0,0-0.1,0-0.1
				h-0.2c0,0,0,0,0,0L152.7,114.1C152.7,114.1,152.7,114.1,152.7,114.1"/>
			<path class="st15" d="M150.2,116.1h0.4c0,0,0.1,0,0.1-0.1l0.2-0.6c0,0,0-0.1,0-0.1h-0.2L150.2,116.1z"/>
			<path class="st15" d="M154.3,114.1h0.7c0,0,0.1,0,0,0.1l-0.8,1.9c0,0,0,0,0,0h-0.6L154.3,114.1
				C154.2,114.1,154.3,114.1,154.3,114.1"/>
			<path class="st15" d="M153.4,114.1h-1c-0.1,0,0.3,0.1,0.3,0.1l0.7,1.8c0,0,0.1,0.1,0.1,0.1h0.6L153.4,114.1
				C153.5,114.1,153.4,114.1,153.4,114.1"/>
			<path class="st15" d="M151.4,114.1c0.3,0,0.6,0.2,0.6,0.6c0,0.4-0.1,0.4-0.1,0.4s-0.1-0.4-0.4-0.4c-0.3,0-0.4,0.2-0.4,0.3
				c0,0.1,0.1,0.3,0.2,0.3h0.5l-0.3,0.7c0,0,0,0-0.1,0h-0.2c-0.3,0-0.9-0.3-0.9-0.9C150.5,114.5,151,114.1,151.4,114.1"/>
		</g>
		<path class="st13" d="M152.5,110h-1.6c-0.1,0-0.2-0.1-0.2-0.2v-0.2c0-0.1,0.1-0.2,0.2-0.2h1.6c0.1,0,0.2,0.1,0.2,0.2v0.2
			C152.7,109.9,152.6,110,152.5,110z"/>
		<rect x="151.2" y="106.9" class="st16" width="1" height="2.8"/>
	</g>
</g>
<g>
	<path class="st12" d="M502.3,70.7L502.3,70.7c0-15-11-27.1-24.5-27.1s-24.5,12.1-24.5,27.1c0,0,0,0,0,0c0,12.8-6.7,20.1-6.7,20.1
		s6.6,8,31.2,8l0,0c0,0,0,0,0,0c24.6,0,31.2-8,31.2-8S502.3,83.5,502.3,70.7z"/>
	<g>
		<path class="st13" d="M485.3,90.2c-4,0-7.5,0-7.5,0s-3.4,0-7.5,0c-4,0-17.3,8.2-17.3,15.9c0,7.7,0,20.1,0,20.1h49.5
			c0,0,0-12.5,0-20.1C502.6,98.4,489.3,90.2,485.3,90.2z"/>
	</g>
	<path class="st10" d="M499.4,67.6c-0.1-0.7-0.8-1.3-1.6-1.3c-0.2,0-0.4,0-0.6,0.1c0,0,0,0-0.1,0c-6-8-17.6-0.6-26.5-8.3
		c-1.1-1.2-1.7-2-1.9-2c0,0-8.6,7.4-10.1,10.2c0,0-0.1,0.2-0.2,0.1c-0.2-0.1-0.4-0.1-0.6-0.1c-0.8,0-1.5,0.6-1.6,1.3
		c0,0.1-0.1,0.3-0.1,0.4v6.4c0,0.9,0.7,1.6,1.6,1.6c0.4,0,0.7-0.1,1-0.3c1.4,6.4,5.2,11.6,10.1,14.5c-1.4,0.6-3.5,1.7-3.5,1.7
		c1,1.5,3.9,8.3,12.4,8.3c8.5,0,11.4-6.8,12.4-8.3c0,0-1.9-1-3.4-1.7c4.9-2.9,8.6-8.2,10-14.5c0.3,0.2,0.6,0.3,1,0.3
		c0.9,0,1.6-0.7,1.6-1.6V68C499.4,67.8,499.4,67.7,499.4,67.6z"/>
	<g>
		<path class="st14" d="M496.8,119.2h-15.1c-0.7,0-1.4-0.6-1.4-1.4V110c0-0.7,0.6-1.4,1.4-1.4h15.1c0.7,0,1.4,0.6,1.4,1.4v7.9
			C498.2,118.6,497.6,119.2,496.8,119.2z"/>
		<g>
			<g>
				<path class="st5" d="M493.3,114.1c0,2.1-1.7,3.9-3.9,3.9c-2.2,0-3.9-1.7-3.9-3.9c0-2.1,1.7-3.9,3.9-3.9
					C491.6,110.3,493.3,112,493.3,114.1"/>
			</g>
			<polygon class="st5" points="484.3,115.8 483.6,115.8 484.4,113.9 485.2,113.9 			"/>
			<polygon class="st5" points="493.9,115.8 493.5,115.8 494.3,113.9 494.8,113.9 			"/>
			<polygon class="st5" points="495.2,115.8 495,115.8 495.9,113.9 496.1,113.9 			"/>
			<path class="st15" d="M486.4,115.8h0.6c0,0,0.1,0,0.1-0.1v-1.8c0,0,0-0.1-0.1-0.1h-0.6c0,0-0.1,0-0.1,0.1l-0.2,0.6
				c0,0,0,0.1,0,0.1h0.2c0,0,0,0,0,0L486.4,115.8C486.4,115.8,486.4,115.8,486.4,115.8"/>
			<path class="st15" d="M487.7,115.8h0.6c0,0,0.1,0,0.1-0.1v-1.8c0,0,0-0.1-0.1-0.1h-0.9c0,0-0.1,0-0.1,0.1l-0.2,0.6l-0.1,0.1h0.5
				c0.1,0,0.2,0.1,0.2,0.2L487.7,115.8C487.7,115.8,487.7,115.8,487.7,115.8"/>
			<path class="st15" d="M490.4,113.9h-0.6c0,0-0.1,0-0.1,0.1v1.8c0,0,0,0.1,0.1,0.1h0.6c0,0,0.1,0,0.1-0.1l0.2-0.6c0,0,0-0.1,0-0.1
				h-0.2c0,0,0,0,0,0L490.4,113.9C490.5,113.9,490.5,113.9,490.4,113.9"/>
			<path class="st15" d="M488,115.8h0.4c0,0,0.1,0,0.1-0.1l0.2-0.6c0,0,0-0.1,0-0.1h-0.2L488,115.8z"/>
			<path class="st15" d="M492,113.9h0.7c0,0,0.1,0,0,0.1l-0.8,1.9c0,0,0,0,0,0h-0.6L492,113.9C492,113.9,492,113.9,492,113.9"/>
			<path class="st15" d="M491.1,113.9h-1c-0.1,0,0.3,0.1,0.3,0.1l0.7,1.8c0,0,0.1,0.1,0.1,0.1h0.6L491.1,113.9
				C491.2,113.9,491.2,113.9,491.1,113.9"/>
			<path class="st15" d="M489.2,113.9c0.3,0,0.6,0.2,0.6,0.6c0,0.4-0.1,0.4-0.1,0.4s-0.1-0.4-0.4-0.4c-0.3,0-0.4,0.2-0.4,0.3
				c0,0.1,0.1,0.3,0.2,0.3h0.5l-0.3,0.7c0,0,0,0-0.1,0h-0.2c-0.3,0-0.9-0.3-0.9-0.9C488.3,114.2,488.8,113.9,489.2,113.9"/>
		</g>
		<path class="st13" d="M490.3,109.8h-1.6c-0.1,0-0.2-0.1-0.2-0.2v-0.2c0-0.1,0.1-0.2,0.2-0.2h1.6c0.1,0,0.2,0.1,0.2,0.2v0.2
			C490.5,109.7,490.4,109.8,490.3,109.8z"/>
		<rect x="489" y="106.7" class="st16" width="1" height="2.8"/>
	</g>
</g>
<rect x="65.5" y="116.5" class="st17" width="58.1" height="10.5"/>
<rect x="68.5" y="111.1" class="st18" width="52.1" height="3.5"/>
<rect x="68.5" y="106.7" class="st18" width="52.1" height="3.5"/>
<rect x="68.5" y="109" class="st19" width="52.1" height="1.2"/>
<rect x="68.5" y="113.6" class="st19" width="52.1" height="1.2"/>
<g>
	<g>
		<path class="st18" d="M60.2,34.2l-14,33.7c-0.5,1.2,0.1,2.6,1.3,3.1l29.6,11.8c1.2,0.5,2.6-0.1,3.1-1.3l16.1-38.7
			c0.5-1.2-0.1-2.6-1.3-3.1l-24.1-9.6L60.2,34.2z"/>
		<path class="st6" d="M70.9,30.1l-2.1,5c-0.5,1.2-1.9,1.8-3.1,1.3l-5.5-2.2L70.9,30.1z"/>
	</g>
	<g>
		<g>
			<path class="st20" d="M65.4,50.8L65.4,50.8c1.2,0.5,2.5,0,3-1.2c0.5-1.2,0-2.5-1.2-3c-1.2-0.5-2.5,0-3,1.2
				C63.7,49,64.2,50.3,65.4,50.8"/>
			<path class="st0" d="M64.2,51.5c-0.1-0.1-0.2-0.1-0.2-0.2c-1.3-1.2-1.5-3.2-0.3-4.6c1.2-1.4,3.2-1.6,4.7-0.5
				c1.2,0.9,1.6,2.5,1.1,3.9c-0.5,1.3-2,2.2-3.5,2.1c-0.2,0-0.3,0-0.4,0.2c-0.8,2-1.7,3.9-2.6,5.9c-1,2.3-0.1,5,2.2,6.2
				c2.5,1.3,6,0.3,7.1-3.2c-0.5-0.5-1.1-0.9-1.5-1.3c-0.9-0.9-1.5-2-1.9-3.3c-0.1-0.6-0.2-1.2,0.1-1.8c1.1-2.5,2.2-5,3.3-7.5
				c0.6-1.3,1.7-2,3.2-2.2c0.2,0,0.4-0.1,0.5-0.2c0.6-0.5,1.4-0.5,2,0c0.6,0.4,0.8,1.2,0.5,1.9c-0.3,0.7-1,1-1.8,0.9
				c-0.6-0.1-0.9-0.5-1.2-1c-0.9,0.1-1.5,0.6-1.9,1.4c-1,2.4-2.1,4.7-3.1,7.1c-0.2,0.4-0.2,0.9-0.1,1.3c0.2,0.8,0.6,1.4,1.1,2.1
				c1.7,2.1,4.7,2.7,7.1,1.3c0.3-0.2,0.6-0.5,0.8-0.8c0.3-0.8,0.7-1.7,1.1-2.5c0.7-1.6,1.4-3.2,2.1-4.7c0.3-0.8,0.2-1.5-0.3-2.2
				c-0.5,0.2-1,0.2-1.4-0.1c-0.7-0.4-1-1.2-0.7-1.9c0.3-0.7,1-1.2,1.8-1c0.7,0.1,1.3,0.8,1.3,1.5c0,0.1,0,0.2,0.1,0.3
				c1,1.3,1.2,2.6,0.6,4.1c-1,2.3-2.1,4.6-3,7c-0.4,0.8-0.9,1.4-1.7,1.8c-1.5,0.8-3.2,0.9-4.9,0.7c-0.2,0-0.4-0.1-0.5-0.1
				c-0.3,0.6-0.5,1.1-0.9,1.7c-1.7,2.9-5.8,3.9-8.7,2.1c-2.8-1.7-3.9-5-2.6-8c0.9-2,1.7-3.9,2.6-5.9C64.1,51.7,64.2,51.6,64.2,51.5
				 M65.5,50.5c0.9,0.4,2,0,2.4-1c0.4-0.9,0-2-1-2.4c-0.9-0.4-2,0-2.4,1C64.1,49.1,64.6,50.1,65.5,50.5"/>
		</g>
		<path class="st21" d="M64.3,48.1c-0.4,1,0.1,2.2,1.1,2.6c1,0.4,2.2-0.1,2.6-1.1c0.4-1-0.1-2.2-1.1-2.6
			C65.9,46.6,64.7,47.1,64.3,48.1z"/>
	</g>
</g>
<g>
	<g>
		<path class="st18" d="M19.1,23.7v36.4c0,1.3,1.1,2.4,2.4,2.4h32c1.3,0,2.4-1.1,2.4-2.4V18.3c0-1.3-1.1-2.3-2.4-2.3h-26L19.1,23.7z
			"/>
		<path class="st6" d="M27.4,16v5.4c0,1.3-1.1,2.4-2.4,2.4h-5.9L27.4,16z"/>
	</g>
	<g>
		<polygon class="st0" points="41.6,49.3 41.6,39.5 41.6,37.2 34.7,37.2 32.7,37.2 32.7,39.5 34.7,39.5 34.7,49.3 32.7,49.3 
			32.7,51.6 43.6,51.6 43.6,49.3 		"/>
		<ellipse class="st0" cx="38.2" cy="31" rx="4.2" ry="4.1"/>
	</g>
</g>
<g>
	<g>
		<path class="st22" d="M34.1,73.5c5.4,13.7,23.3,20.9,42.1,19.3"/>
		<g>
			<polygon class="st19" points="73.9,95 75.8,92.8 73.6,90.9 75.3,90.8 77.5,92.7 75.7,94.9 			"/>
		</g>
	</g>
</g>
<g>
	<g>
		<path class="st23" d="M89.3,74.8c-0.6,6.3,3.6,15.8,13,18.5"/>
		<g>
			<polygon class="st19" points="99.4,94.6 102,93.1 100.5,90.6 102.2,91.1 103.6,93.6 101.1,95 			"/>
		</g>
	</g>
</g>
<rect x="0.2" y="126" class="st0" width="244.3" height="4.5"/>
<g>
	<circle class="st24" cx="183.2" cy="83.3" r="0.9"/>
	<circle class="st24" cx="185.4" cy="80.5" r="1.5"/>
	<circle class="st24" cx="189.2" cy="76.2" r="2.2"/>
	<path class="st24" d="M169.8,43.8c-1.7-2-2.7-4.5-2.7-7.2c0-6.2,5-11.2,11.2-11.2c0.8,0,1.6,0.1,2.4,0.3c0.5-2,2.3-3.5,4.5-3.5
		c0.3,0,0.7,0,1,0.1c1.7-3.9,5.6-6.6,10.2-6.6c4.1,0,7.6,2.2,9.6,5.4c0.7-0.4,1.5-0.6,2.3-0.6c1.8,0,3.3,1,4.1,2.5
		c0.4-0.1,0.9-0.1,1.3-0.1c4.4,0,7.9,3.6,7.9,7.9c0,0.9-0.1,1.7-0.4,2.5c0.6,0.6,1,1.3,1.2,2.1c0.1,0,0.2,0,0.2,0
		c3.7,0,6.7,3,6.7,6.7c0,2.7-1.6,5.1-3.9,6.1c0,0.2,0,0.3,0,0.5c0,0.7-0.2,1.4-0.5,2c0.8,1.6,1.3,3.4,1.3,5.3
		c0,5.9-4.6,10.8-10.4,11.2c-0.2,3.1-2.8,5.6-6,5.6c-0.9,0-1.7-0.2-2.4-0.5c-0.7,1.7-2.4,2.9-4.3,2.9c-1.3,0-2.6-0.6-3.4-1.5
		c-1.1,1-2.5,1.7-4.1,1.7c-2.1,0-3.9-1.1-4.9-2.7c-0.9,0.5-1.9,0.7-2.9,0.7c-3.4,0-6.2-2.8-6.2-6.2c0,0,0,0,0,0
		c-0.5,0.1-1,0.1-1.5,0.1c-6.2,0-11.2-5-11.2-11.2c0-1.4,0.3-2.8,0.7-4c-1.4-0.8-2.4-2.3-2.4-4.1C167.3,46.1,168.3,44.6,169.8,43.8z
		"/>
</g>
<g>
	<g>
		<g>
			<g>
				<circle class="st5" cx="197.8" cy="41.2" r="11.4"/>
				<path class="st5" d="M198.4,55.5h-1.2c-2.6,0-4.8-2.1-4.8-4.8v-3.3c0-2.6,2.1-4.8,4.8-4.8h1.2c2.6,0,4.8,2.1,4.8,4.8v3.3
					C203.1,53.3,201,55.5,198.4,55.5z"/>
			</g>
			<path class="st25" d="M201.8,58.9h-8.1c-0.7,0-1.3-0.6-1.3-1.3v0c0-0.7,0.6-1.3,1.3-1.3h8.1c0.7,0,1.3,0.6,1.3,1.3v0
				C203.1,58.3,202.5,58.9,201.8,58.9z"/>
			<path class="st25" d="M201.8,62.2h-8.1c-0.7,0-1.3-0.6-1.3-1.3l0,0c0-0.7,0.6-1.3,1.3-1.3h8.1c0.7,0,1.3,0.6,1.3,1.3l0,0
				C203.1,61.6,202.5,62.2,201.8,62.2z"/>
			<path class="st25" d="M199.6,62.8H196c-0.5,0-0.8,0.7-0.4,1c0.6,0.5,1.3,0.7,2.1,0.7s1.5-0.3,2.1-0.7
				C200.3,63.4,200.1,62.8,199.6,62.8z"/>
		</g>
	</g>
</g>
<rect x="278.3" y="126.2" class="st0" width="244.3" height="4.5"/>
<g>
	<path class="st1" d="M433.7,87.1h1.1c1,0,1.8-0.8,1.8-1.8V78c0-1-0.8-1.8-1.8-1.8l0,0c-1,0-1.8,0.8-1.8,1.8v8.4
		C433,86.8,433.3,87.1,433.7,87.1"/>
	<path class="st1" d="M391.2,87.1h-1.1c-1,0-1.8-0.8-1.8-1.8V78c0-1,0.8-1.8,1.8-1.8l0,0c1,0,1.8,0.8,1.8,1.8v8.4
		C391.9,86.8,391.6,87.1,391.2,87.1"/>
	<path class="st1" d="M434.4,80.3c0,14.2-9.8,25.7-22,25.7c-12.2,0-22-11.5-22-25.7c0-14.2,9.8-25.7,22-25.7
		C424.6,54.6,434.4,66.1,434.4,80.3"/>
	<rect x="398.5" y="91.1" class="st1" width="27.9" height="15.5"/>
	<path class="st2" d="M421,104.4h-8.5h-8.5c-4.6,0-19.7,9.5-19.7,18.4v23.4h56.5v-23.4C440.7,113.9,425.6,104.4,421,104.4"/>
	<path class="st3" d="M421.5,101.9c4.1-8.5,11.5-5.9,12.8-23.3c1.2-15.5-1.3-28.1-22-28.1c-19.6,0-23.1,12.6-22,28.1
		c1.1,14.8,6.9,14,11.8,22.9c3.7-0.5,6,0,10.2,0C416.6,101.4,417.9,101.4,421.5,101.9z"/>
</g>
<path class="st0" d="M288.1,106.3c-3,0-5.4,2.4-5.4,5.4c0,3,2.4,5.4,5.4,5.4c0.6,0,1.2-0.1,1.8-0.3l0.8,9.3h16.1l1.9-23.1h-19.9
	l0.3,3.4C288.8,106.3,288.5,106.3,288.1,106.3 M288,113.8c-1.1,0-2-0.9-2-2s0.9-2,2-2c0.6,0,1.1,0.2,1.4,0.6
	c0.3,0.4,0.5,0.8,0.5,1.4c0,0.4-0.1,0.8-0.3,1.1C289.3,113.4,288.7,113.8,288,113.8"/>
<g>
	<g>
		<g>
			<path class="st26" d="M354.8,5.9H392c1.7,0,3.2,1.4,3.2,3.2v22.1c0,1.7-1.4,3.2-3.2,3.2h-9v13.1l-14.5-13.1h-13.8
				c-1.7,0-3.2-1.4-3.2-3.2V9.1C351.6,7.4,353,5.9,354.8,5.9"/>
		</g>
	</g>
	<g>
		<circle class="st5" cx="366.3" cy="19.8" r="2.6"/>
		<circle class="st5" cx="374.3" cy="19.8" r="2.6"/>
		<circle class="st5" cx="382.2" cy="19.8" r="2.6"/>
	</g>
</g>
<g>
	<g>
		<path class="st27" d="M414.1-5.5h40.6c1.8,0,3.2,1.4,3.2,3.2v30.9c0,1.8-1.4,3.2-3.2,3.2h-11v13.3l-17.1-13.3h-12.6
			c-1.8,0-3.2-1.4-3.2-3.2V-2.3C410.9-4,412.4-5.5,414.1-5.5"/>
		<g>
			<path class="st28" d="M434.4,19.9"/>
		</g>
	</g>
	<g>
		<g>
			<g>
				<g>
					<circle class="st5" cx="434.4" cy="10.4" r="7.7"/>
					<path class="st5" d="M436.3,20.1h-3.7c-1,0-1.8-0.8-1.8-1.8v-5.1c0-1,0.8-1.8,1.8-1.8h3.7c1,0,1.8,0.8,1.8,1.8v5.1
						C438.1,19.3,437.3,20.1,436.3,20.1z"/>
				</g>
				<path class="st29" d="M437.2,22.4h-5.5c-0.5,0-0.9-0.4-0.9-0.9v0c0-0.5,0.4-0.9,0.9-0.9h5.5c0.5,0,0.9,0.4,0.9,0.9v0
					C438.1,22,437.7,22.4,437.2,22.4z"/>
				<path class="st29" d="M437.2,24.6h-5.5c-0.5,0-0.9-0.4-0.9-0.9v0c0-0.5,0.4-0.9,0.9-0.9h5.5c0.5,0,0.9,0.4,0.9,0.9v0
					C438.1,24.2,437.7,24.6,437.2,24.6z"/>
				<path class="st29" d="M435.7,25h-2.4c-0.4,0-0.5,0.5-0.2,0.7c0.4,0.3,0.9,0.5,1.4,0.5c0.5,0,1-0.2,1.4-0.5
					C436.2,25.5,436,25,435.7,25z"/>
			</g>
		</g>
	</g>
</g>
<g>
	<path class="st9" d="M348.7,87.2h-8h-8c-4.3,0-18.6,9.1-18.6,17.4v21.8h53.3v-21.8C367.6,96.3,353,87.2,348.7,87.2"/>
	<path class="st10" d="M348.3,86.6c-0.9,0-7.5,2.8-7.5,2.8s-7.7-2.2-8.3-2.3c-0.6-0.1-4.9,2.2-4.9,2.2c1.1,1.6,4.1,9,13.2,9
		c9.1,0,12.2-7.4,13.3-9C354,89.3,349.2,86.6,348.3,86.6"/>
	<path class="st10" d="M320.7,63.7c0,0-0.1,0.2-0.2,0.1c-0.2-0.1-0.2-0.1-0.4-0.1c-0.9,0-1.5,0.8-1.5,1.7v6.8c0,0.9,0.6,1.7,1.5,1.7
		c0.4,0,0.6-0.1,0.9-0.3c2.3,10.4,10.3,18.1,19.9,18.1c9.6,0,17.6-7.7,19.9-18.1c0.3,0.2,0.5,0.3,0.9,0.3c0.9,0,1.6-0.8,1.6-1.7
		v-6.8c0-0.9-0.7-1.7-1.6-1.7c-0.2,0-0.4,0-0.6,0.1C339.4,66.3,320.7,63.7,320.7,63.7"/>
	<polyline class="st5" points="353.9,89 331.6,126.4 356.7,126.4 356.7,90.5 	"/>
	<polyline class="st5" points="327.4,88.8 338.8,125.3 334.9,125.3 	"/>
	<path class="st10" d="M361.4,67.7c0,13.3-9.2,24-20.5,24c-11.3,0-20.5-10.8-20.5-24c0-13.3,9.2-24,20.5-24
		C352.2,43.7,361.4,54.4,361.4,67.7"/>
	<path class="st1" d="M348.8,78.7v-2.1h-16.5V79h-9.6c3.5,7.6,10.3,12.7,18.1,12.7c8,0,14.9-5.2,18.3-13H348.8z M346.3,82.5h-10.8
		v-3.2h10.8V82.5z"/>
	<path class="st1" d="M325,51.3c-0.6,0.4-5,2.5-5.2,13.5c0,1.7,0.1,3.4,0.9,3.4l1.4,0c0.5-6.4,1.6-11,2.8-12.7
		C328.3,50.8,325.7,51,325,51.3z"/>
	<path class="st1" d="M356.9,51.3c0.6,0.4,5,2.5,5.2,13.5c0,1.7-0.1,3.4-0.9,3.4l-1.4,0c-0.5-6.4-1.6-11-2.8-12.7
		C353.7,50.8,356.3,51,356.9,51.3z"/>
</g>
</svg>
