<?xml version="1.0" encoding="utf-8"?>
<!-- Generator: Adobe Illustrator 19.2.1, SVG Export Plug-In . SVG Version: 6.00 Build 0)  -->
<svg version="1.1" id="Layer_1" xmlns="http://www.w3.org/2000/svg" xmlns:xlink="http://www.w3.org/1999/xlink" x="0px" y="0px"
	 viewBox="0 0 285 162.7" style="enable-background:new 0 0 285 162.7;" xml:space="preserve">
<style type="text/css">
	.st0{fill:#BCD0CF;}
	.st1{fill:#CBBBA0;}
	.st2{fill:#9EAB37;}
	.st3{fill:#EDEAE8;}
	.st4{fill:#6EA9C8;}
	.st5{fill:none;stroke:#CBBBA0;stroke-width:0.411;stroke-linecap:round;stroke-miterlimit:10;}
	.st6{fill:none;stroke:#C3B09B;stroke-width:0.822;stroke-miterlimit:10;}
	.st7{fill:#FFFFFF;}
	.st8{fill:#585B5C;}
</style>
<path class="st0" d="M3.9,40.9C1.5,38.1,0,34.4,0,30.4c0-9,7.3-16.3,16.3-16.3c1.2,0,2.3,0.1,3.4,0.4c0.7-2.9,3.4-5.1,6.5-5.1
	c0.5,0,1,0.1,1.4,0.1C30.2,3.9,35.8,0,42.4,0c5.9,0,11.1,3.2,13.9,7.9c1-0.6,2.1-0.9,3.3-0.9c2.6,0,4.8,1.5,6,3.6
	c0.6-0.1,1.3-0.2,1.9-0.2C73.9,10.4,79,15.6,79,22c0,1.3-0.2,2.5-0.6,3.6c0.8,0.8,1.5,1.9,1.8,3c0.1,0,0.2,0,0.3,0
	c5.4,0,9.8,4.4,9.8,9.8c0,3.9-2.3,7.3-5.7,8.9c0,0.2,0,0.5,0,0.8c0,1-0.2,2-0.7,2.9c1.2,2.3,1.9,4.9,1.9,7.7
	c0,8.6-6.7,15.6-15.1,16.2c-0.2,4.6-4,8.2-8.7,8.2c-1.2,0-2.4-0.3-3.5-0.7c-1,2.4-3.4,4.2-6.2,4.2c-2,0-3.7-0.8-4.9-2.2
	c-1.5,1.5-3.6,2.4-5.9,2.4c-3,0-5.7-1.6-7.2-4c-1.3,0.7-2.7,1.1-4.3,1.1c-5,0-9.1-4.1-9.1-9.1l0,0c-0.7,0.1-1.4,0.1-2.1,0.1
	c-9,0-16.3-7.3-16.3-16.3c0-2.1,0.4-4,1.1-5.8c-2.1-1.1-3.5-3.4-3.5-5.9C0.2,44.3,1.7,42.1,3.9,40.9z"/>
<circle class="st0" cx="70.8" cy="100.5" r="1.4"/>
<circle class="st0" cx="66.5" cy="95.3" r="2.1"/>
<circle class="st0" cx="61" cy="88.1" r="3.2"/>
<g>
	<path class="st1" d="M154.5,79v47.5c0,0,0.1-12.4-30.2-12.4s0.9-35,0.9-35L154.5,79L154.5,79z"/>
	<path class="st1" d="M93.7,79.1c0,18.8,13.9,33.6,30.6,33.6s30.2-15.2,30.2-34s-13.5-34-30.2-34C107.6,44.7,93.7,60.3,93.7,79.1"/>
	<path class="st2" d="M112.9,102.6h11.4h11.4c6.1,0,23.4,14,23.4,26.7c0,0,4.1,33.4-10.4,33.4s-58.6,0-58.6,0v-33.4
		C90.1,116.5,106.7,102.6,112.9,102.6"/>
	<g>
		<path class="st3" d="M144.8,82.9c0,0,2.4-0.8,4,0.4c1.6,1.2,2.1,5,0,6.8s-5.7,3.2-5.7,3.2s-4.9,6.6-5.2,8
			c-0.3,1.3,2.8,3.3,2.8,3.3s-4.5,11.1-16.5,11.1s-17.5-10.9-17.5-10.9s2.7-1.7,4-2c0.2-0.6-2.4-1.3-4.3-2.8c-3.4-2.6-5.1-5.9-6-9.4
			c-0.5-1.9-0.8-3.7-1-5.2c-2-1.1-2.5-2.5-2.1-4.4c0.2-1.1,1.4-1.6,1.4-1.6s-0.2-5.3,0.1-7.3c0,0,3.8,1.1,7.8,1.6
			c4.9,0.6,11.4,0.8,18.7,0.8s10.3-0.6,10.3-0.6L144.8,82.9z"/>
		<path class="st4" d="M101.1,73.9c1.4-0.2,1.5,1.5,1.5,2.7c0,0.3-0.1,1.4-0.3,1.7c0,0-2.4,0.3-2.4,0.2c0-0.1-0.1-1-0.1-1
			C99.7,76,100,74.1,101.1,73.9z"/>
		<path class="st5" d="M98.2,79.3c2.2-0.8,4.9-0.6,4.9-0.6"/>
	</g>
	<g>
		<path class="st4" d="M118.9,75.3c1.8,0.2,1.9,2.9,1,4.6c-0.8,1.7-2.5,2.5-3.3,0.8C115.8,79,116.7,75.1,118.9,75.3z"/>
		<path class="st6" d="M111.1,89.7c0,0-2.4,2.1-4.8,1.3c-2.1-0.8-1.8-3-1.8-3"/>
	</g>
	<g>
		<polygon class="st7" points="131.5,149.4 126.7,149.4 140.7,104.5 141.8,105.3 		"/>
		<polyline class="st7" points="108,104.2 141.6,162.7 104.5,162.7 104.5,106.1 		"/>
	</g>
</g>
<g>
	<path class="st8" d="M47.2,54.5h-6.5v-11H44c3.2,0,5.9-2.3,5.9-5.2s-2.8-5.3-6-5.3c-3.2,0-5.9,2.3-5.9,5.2h-6.5
		c0-6.1,5.6-11.1,12.4-11.1s12.4,5,12.4,11.1c0,5.1-3.9,9.4-9.1,10.7C47.2,48.9,47.2,54.5,47.2,54.5z"/>
	<path class="st8" d="M43.9,54"/>
	<ellipse class="st8" cx="43.9" cy="60.8" rx="4" ry="3.6"/>
</g>
</svg>
